%TF.GenerationSoftware,KiCad,Pcbnew,7.0.8*%
%TF.CreationDate,2024-05-08T13:20:20-04:00*%
%TF.ProjectId,PowerBoard_2024,506f7765-7242-46f6-9172-645f32303234,rev?*%
%TF.SameCoordinates,Original*%
%TF.FileFunction,Legend,Top*%
%TF.FilePolarity,Positive*%
%FSLAX46Y46*%
G04 Gerber Fmt 4.6, Leading zero omitted, Abs format (unit mm)*
G04 Created by KiCad (PCBNEW 7.0.8) date 2024-05-08 13:20:20*
%MOMM*%
%LPD*%
G01*
G04 APERTURE LIST*
%ADD10C,0.150000*%
%ADD11C,0.100000*%
%ADD12C,0.300000*%
%ADD13C,0.142240*%
%ADD14C,0.120000*%
%ADD15C,0.050000*%
%ADD16C,0.200000*%
%ADD17C,0.127000*%
G04 APERTURE END LIST*
D10*
X82677000Y-97155000D02*
X82169000Y-96774000D01*
X82677000Y-96393000D01*
X82677000Y-97155000D01*
G36*
X82677000Y-97155000D02*
G01*
X82169000Y-96774000D01*
X82677000Y-96393000D01*
X82677000Y-97155000D01*
G37*
X182880000Y-119253000D02*
X182372000Y-119634000D01*
X182372000Y-118872000D01*
X182880000Y-119253000D01*
G36*
X182880000Y-119253000D02*
G01*
X182372000Y-119634000D01*
X182372000Y-118872000D01*
X182880000Y-119253000D01*
G37*
X88455999Y-74749866D02*
X89217904Y-74749866D01*
X89646475Y-75083200D02*
X89789332Y-75130819D01*
X89789332Y-75130819D02*
X90027427Y-75130819D01*
X90027427Y-75130819D02*
X90122665Y-75083200D01*
X90122665Y-75083200D02*
X90170284Y-75035580D01*
X90170284Y-75035580D02*
X90217903Y-74940342D01*
X90217903Y-74940342D02*
X90217903Y-74845104D01*
X90217903Y-74845104D02*
X90170284Y-74749866D01*
X90170284Y-74749866D02*
X90122665Y-74702247D01*
X90122665Y-74702247D02*
X90027427Y-74654628D01*
X90027427Y-74654628D02*
X89836951Y-74607009D01*
X89836951Y-74607009D02*
X89741713Y-74559390D01*
X89741713Y-74559390D02*
X89694094Y-74511771D01*
X89694094Y-74511771D02*
X89646475Y-74416533D01*
X89646475Y-74416533D02*
X89646475Y-74321295D01*
X89646475Y-74321295D02*
X89694094Y-74226057D01*
X89694094Y-74226057D02*
X89741713Y-74178438D01*
X89741713Y-74178438D02*
X89836951Y-74130819D01*
X89836951Y-74130819D02*
X90075046Y-74130819D01*
X90075046Y-74130819D02*
X90217903Y-74178438D01*
X91027427Y-75083200D02*
X90932189Y-75130819D01*
X90932189Y-75130819D02*
X90741713Y-75130819D01*
X90741713Y-75130819D02*
X90646475Y-75083200D01*
X90646475Y-75083200D02*
X90598856Y-74987961D01*
X90598856Y-74987961D02*
X90598856Y-74607009D01*
X90598856Y-74607009D02*
X90646475Y-74511771D01*
X90646475Y-74511771D02*
X90741713Y-74464152D01*
X90741713Y-74464152D02*
X90932189Y-74464152D01*
X90932189Y-74464152D02*
X91027427Y-74511771D01*
X91027427Y-74511771D02*
X91075046Y-74607009D01*
X91075046Y-74607009D02*
X91075046Y-74702247D01*
X91075046Y-74702247D02*
X90598856Y-74797485D01*
X91503618Y-74464152D02*
X91503618Y-75130819D01*
X91503618Y-74559390D02*
X91551237Y-74511771D01*
X91551237Y-74511771D02*
X91646475Y-74464152D01*
X91646475Y-74464152D02*
X91789332Y-74464152D01*
X91789332Y-74464152D02*
X91884570Y-74511771D01*
X91884570Y-74511771D02*
X91932189Y-74607009D01*
X91932189Y-74607009D02*
X91932189Y-75130819D01*
X92360761Y-75083200D02*
X92455999Y-75130819D01*
X92455999Y-75130819D02*
X92646475Y-75130819D01*
X92646475Y-75130819D02*
X92741713Y-75083200D01*
X92741713Y-75083200D02*
X92789332Y-74987961D01*
X92789332Y-74987961D02*
X92789332Y-74940342D01*
X92789332Y-74940342D02*
X92741713Y-74845104D01*
X92741713Y-74845104D02*
X92646475Y-74797485D01*
X92646475Y-74797485D02*
X92503618Y-74797485D01*
X92503618Y-74797485D02*
X92408380Y-74749866D01*
X92408380Y-74749866D02*
X92360761Y-74654628D01*
X92360761Y-74654628D02*
X92360761Y-74607009D01*
X92360761Y-74607009D02*
X92408380Y-74511771D01*
X92408380Y-74511771D02*
X92503618Y-74464152D01*
X92503618Y-74464152D02*
X92646475Y-74464152D01*
X92646475Y-74464152D02*
X92741713Y-74511771D01*
X93598856Y-75083200D02*
X93503618Y-75130819D01*
X93503618Y-75130819D02*
X93313142Y-75130819D01*
X93313142Y-75130819D02*
X93217904Y-75083200D01*
X93217904Y-75083200D02*
X93170285Y-74987961D01*
X93170285Y-74987961D02*
X93170285Y-74607009D01*
X93170285Y-74607009D02*
X93217904Y-74511771D01*
X93217904Y-74511771D02*
X93313142Y-74464152D01*
X93313142Y-74464152D02*
X93503618Y-74464152D01*
X93503618Y-74464152D02*
X93598856Y-74511771D01*
X93598856Y-74511771D02*
X93646475Y-74607009D01*
X93646475Y-74607009D02*
X93646475Y-74702247D01*
X93646475Y-74702247D02*
X93170285Y-74797485D01*
X188547524Y-134646200D02*
X188690381Y-134693819D01*
X188690381Y-134693819D02*
X188928476Y-134693819D01*
X188928476Y-134693819D02*
X189023714Y-134646200D01*
X189023714Y-134646200D02*
X189071333Y-134598580D01*
X189071333Y-134598580D02*
X189118952Y-134503342D01*
X189118952Y-134503342D02*
X189118952Y-134408104D01*
X189118952Y-134408104D02*
X189071333Y-134312866D01*
X189071333Y-134312866D02*
X189023714Y-134265247D01*
X189023714Y-134265247D02*
X188928476Y-134217628D01*
X188928476Y-134217628D02*
X188738000Y-134170009D01*
X188738000Y-134170009D02*
X188642762Y-134122390D01*
X188642762Y-134122390D02*
X188595143Y-134074771D01*
X188595143Y-134074771D02*
X188547524Y-133979533D01*
X188547524Y-133979533D02*
X188547524Y-133884295D01*
X188547524Y-133884295D02*
X188595143Y-133789057D01*
X188595143Y-133789057D02*
X188642762Y-133741438D01*
X188642762Y-133741438D02*
X188738000Y-133693819D01*
X188738000Y-133693819D02*
X188976095Y-133693819D01*
X188976095Y-133693819D02*
X189118952Y-133741438D01*
X190118952Y-134598580D02*
X190071333Y-134646200D01*
X190071333Y-134646200D02*
X189928476Y-134693819D01*
X189928476Y-134693819D02*
X189833238Y-134693819D01*
X189833238Y-134693819D02*
X189690381Y-134646200D01*
X189690381Y-134646200D02*
X189595143Y-134550961D01*
X189595143Y-134550961D02*
X189547524Y-134455723D01*
X189547524Y-134455723D02*
X189499905Y-134265247D01*
X189499905Y-134265247D02*
X189499905Y-134122390D01*
X189499905Y-134122390D02*
X189547524Y-133931914D01*
X189547524Y-133931914D02*
X189595143Y-133836676D01*
X189595143Y-133836676D02*
X189690381Y-133741438D01*
X189690381Y-133741438D02*
X189833238Y-133693819D01*
X189833238Y-133693819D02*
X189928476Y-133693819D01*
X189928476Y-133693819D02*
X190071333Y-133741438D01*
X190071333Y-133741438D02*
X190118952Y-133789057D01*
X191023714Y-134693819D02*
X190547524Y-134693819D01*
X190547524Y-134693819D02*
X190547524Y-133693819D01*
X91075047Y-77575580D02*
X91027428Y-77623200D01*
X91027428Y-77623200D02*
X90884571Y-77670819D01*
X90884571Y-77670819D02*
X90789333Y-77670819D01*
X90789333Y-77670819D02*
X90646476Y-77623200D01*
X90646476Y-77623200D02*
X90551238Y-77527961D01*
X90551238Y-77527961D02*
X90503619Y-77432723D01*
X90503619Y-77432723D02*
X90456000Y-77242247D01*
X90456000Y-77242247D02*
X90456000Y-77099390D01*
X90456000Y-77099390D02*
X90503619Y-76908914D01*
X90503619Y-76908914D02*
X90551238Y-76813676D01*
X90551238Y-76813676D02*
X90646476Y-76718438D01*
X90646476Y-76718438D02*
X90789333Y-76670819D01*
X90789333Y-76670819D02*
X90884571Y-76670819D01*
X90884571Y-76670819D02*
X91027428Y-76718438D01*
X91027428Y-76718438D02*
X91075047Y-76766057D01*
X91360762Y-76670819D02*
X91932190Y-76670819D01*
X91646476Y-77670819D02*
X91646476Y-76670819D01*
X92836952Y-77670819D02*
X92503619Y-77194628D01*
X92265524Y-77670819D02*
X92265524Y-76670819D01*
X92265524Y-76670819D02*
X92646476Y-76670819D01*
X92646476Y-76670819D02*
X92741714Y-76718438D01*
X92741714Y-76718438D02*
X92789333Y-76766057D01*
X92789333Y-76766057D02*
X92836952Y-76861295D01*
X92836952Y-76861295D02*
X92836952Y-77004152D01*
X92836952Y-77004152D02*
X92789333Y-77099390D01*
X92789333Y-77099390D02*
X92741714Y-77147009D01*
X92741714Y-77147009D02*
X92646476Y-77194628D01*
X92646476Y-77194628D02*
X92265524Y-77194628D01*
X93741714Y-77670819D02*
X93265524Y-77670819D01*
X93265524Y-77670819D02*
X93265524Y-76670819D01*
X88039724Y-87819800D02*
X88182581Y-87867419D01*
X88182581Y-87867419D02*
X88420676Y-87867419D01*
X88420676Y-87867419D02*
X88515914Y-87819800D01*
X88515914Y-87819800D02*
X88563533Y-87772180D01*
X88563533Y-87772180D02*
X88611152Y-87676942D01*
X88611152Y-87676942D02*
X88611152Y-87581704D01*
X88611152Y-87581704D02*
X88563533Y-87486466D01*
X88563533Y-87486466D02*
X88515914Y-87438847D01*
X88515914Y-87438847D02*
X88420676Y-87391228D01*
X88420676Y-87391228D02*
X88230200Y-87343609D01*
X88230200Y-87343609D02*
X88134962Y-87295990D01*
X88134962Y-87295990D02*
X88087343Y-87248371D01*
X88087343Y-87248371D02*
X88039724Y-87153133D01*
X88039724Y-87153133D02*
X88039724Y-87057895D01*
X88039724Y-87057895D02*
X88087343Y-86962657D01*
X88087343Y-86962657D02*
X88134962Y-86915038D01*
X88134962Y-86915038D02*
X88230200Y-86867419D01*
X88230200Y-86867419D02*
X88468295Y-86867419D01*
X88468295Y-86867419D02*
X88611152Y-86915038D01*
X88992105Y-87581704D02*
X89468295Y-87581704D01*
X88896867Y-87867419D02*
X89230200Y-86867419D01*
X89230200Y-86867419D02*
X89563533Y-87867419D01*
X90420676Y-87867419D02*
X89849248Y-87867419D01*
X90134962Y-87867419D02*
X90134962Y-86867419D01*
X90134962Y-86867419D02*
X90039724Y-87010276D01*
X90039724Y-87010276D02*
X89944486Y-87105514D01*
X89944486Y-87105514D02*
X89849248Y-87153133D01*
X192587714Y-134646200D02*
X192730571Y-134693819D01*
X192730571Y-134693819D02*
X192968666Y-134693819D01*
X192968666Y-134693819D02*
X193063904Y-134646200D01*
X193063904Y-134646200D02*
X193111523Y-134598580D01*
X193111523Y-134598580D02*
X193159142Y-134503342D01*
X193159142Y-134503342D02*
X193159142Y-134408104D01*
X193159142Y-134408104D02*
X193111523Y-134312866D01*
X193111523Y-134312866D02*
X193063904Y-134265247D01*
X193063904Y-134265247D02*
X192968666Y-134217628D01*
X192968666Y-134217628D02*
X192778190Y-134170009D01*
X192778190Y-134170009D02*
X192682952Y-134122390D01*
X192682952Y-134122390D02*
X192635333Y-134074771D01*
X192635333Y-134074771D02*
X192587714Y-133979533D01*
X192587714Y-133979533D02*
X192587714Y-133884295D01*
X192587714Y-133884295D02*
X192635333Y-133789057D01*
X192635333Y-133789057D02*
X192682952Y-133741438D01*
X192682952Y-133741438D02*
X192778190Y-133693819D01*
X192778190Y-133693819D02*
X193016285Y-133693819D01*
X193016285Y-133693819D02*
X193159142Y-133741438D01*
X193587714Y-134693819D02*
X193587714Y-133693819D01*
X193587714Y-133693819D02*
X193825809Y-133693819D01*
X193825809Y-133693819D02*
X193968666Y-133741438D01*
X193968666Y-133741438D02*
X194063904Y-133836676D01*
X194063904Y-133836676D02*
X194111523Y-133931914D01*
X194111523Y-133931914D02*
X194159142Y-134122390D01*
X194159142Y-134122390D02*
X194159142Y-134265247D01*
X194159142Y-134265247D02*
X194111523Y-134455723D01*
X194111523Y-134455723D02*
X194063904Y-134550961D01*
X194063904Y-134550961D02*
X193968666Y-134646200D01*
X193968666Y-134646200D02*
X193825809Y-134693819D01*
X193825809Y-134693819D02*
X193587714Y-134693819D01*
X194540095Y-134408104D02*
X195016285Y-134408104D01*
X194444857Y-134693819D02*
X194778190Y-133693819D01*
X194778190Y-133693819D02*
X195111523Y-134693819D01*
X85230199Y-97646466D02*
X85992104Y-97646466D01*
X86420675Y-97979800D02*
X86563532Y-98027419D01*
X86563532Y-98027419D02*
X86801627Y-98027419D01*
X86801627Y-98027419D02*
X86896865Y-97979800D01*
X86896865Y-97979800D02*
X86944484Y-97932180D01*
X86944484Y-97932180D02*
X86992103Y-97836942D01*
X86992103Y-97836942D02*
X86992103Y-97741704D01*
X86992103Y-97741704D02*
X86944484Y-97646466D01*
X86944484Y-97646466D02*
X86896865Y-97598847D01*
X86896865Y-97598847D02*
X86801627Y-97551228D01*
X86801627Y-97551228D02*
X86611151Y-97503609D01*
X86611151Y-97503609D02*
X86515913Y-97455990D01*
X86515913Y-97455990D02*
X86468294Y-97408371D01*
X86468294Y-97408371D02*
X86420675Y-97313133D01*
X86420675Y-97313133D02*
X86420675Y-97217895D01*
X86420675Y-97217895D02*
X86468294Y-97122657D01*
X86468294Y-97122657D02*
X86515913Y-97075038D01*
X86515913Y-97075038D02*
X86611151Y-97027419D01*
X86611151Y-97027419D02*
X86849246Y-97027419D01*
X86849246Y-97027419D02*
X86992103Y-97075038D01*
X87801627Y-97979800D02*
X87706389Y-98027419D01*
X87706389Y-98027419D02*
X87515913Y-98027419D01*
X87515913Y-98027419D02*
X87420675Y-97979800D01*
X87420675Y-97979800D02*
X87373056Y-97884561D01*
X87373056Y-97884561D02*
X87373056Y-97503609D01*
X87373056Y-97503609D02*
X87420675Y-97408371D01*
X87420675Y-97408371D02*
X87515913Y-97360752D01*
X87515913Y-97360752D02*
X87706389Y-97360752D01*
X87706389Y-97360752D02*
X87801627Y-97408371D01*
X87801627Y-97408371D02*
X87849246Y-97503609D01*
X87849246Y-97503609D02*
X87849246Y-97598847D01*
X87849246Y-97598847D02*
X87373056Y-97694085D01*
X88277818Y-97360752D02*
X88277818Y-98027419D01*
X88277818Y-97455990D02*
X88325437Y-97408371D01*
X88325437Y-97408371D02*
X88420675Y-97360752D01*
X88420675Y-97360752D02*
X88563532Y-97360752D01*
X88563532Y-97360752D02*
X88658770Y-97408371D01*
X88658770Y-97408371D02*
X88706389Y-97503609D01*
X88706389Y-97503609D02*
X88706389Y-98027419D01*
X89134961Y-97979800D02*
X89230199Y-98027419D01*
X89230199Y-98027419D02*
X89420675Y-98027419D01*
X89420675Y-98027419D02*
X89515913Y-97979800D01*
X89515913Y-97979800D02*
X89563532Y-97884561D01*
X89563532Y-97884561D02*
X89563532Y-97836942D01*
X89563532Y-97836942D02*
X89515913Y-97741704D01*
X89515913Y-97741704D02*
X89420675Y-97694085D01*
X89420675Y-97694085D02*
X89277818Y-97694085D01*
X89277818Y-97694085D02*
X89182580Y-97646466D01*
X89182580Y-97646466D02*
X89134961Y-97551228D01*
X89134961Y-97551228D02*
X89134961Y-97503609D01*
X89134961Y-97503609D02*
X89182580Y-97408371D01*
X89182580Y-97408371D02*
X89277818Y-97360752D01*
X89277818Y-97360752D02*
X89420675Y-97360752D01*
X89420675Y-97360752D02*
X89515913Y-97408371D01*
X90373056Y-97979800D02*
X90277818Y-98027419D01*
X90277818Y-98027419D02*
X90087342Y-98027419D01*
X90087342Y-98027419D02*
X89992104Y-97979800D01*
X89992104Y-97979800D02*
X89944485Y-97884561D01*
X89944485Y-97884561D02*
X89944485Y-97503609D01*
X89944485Y-97503609D02*
X89992104Y-97408371D01*
X89992104Y-97408371D02*
X90087342Y-97360752D01*
X90087342Y-97360752D02*
X90277818Y-97360752D01*
X90277818Y-97360752D02*
X90373056Y-97408371D01*
X90373056Y-97408371D02*
X90420675Y-97503609D01*
X90420675Y-97503609D02*
X90420675Y-97598847D01*
X90420675Y-97598847D02*
X89944485Y-97694085D01*
D11*
X92852590Y-104986409D02*
X92804971Y-105129266D01*
X92804971Y-105129266D02*
X92757352Y-105176885D01*
X92757352Y-105176885D02*
X92662114Y-105224504D01*
X92662114Y-105224504D02*
X92519257Y-105224504D01*
X92519257Y-105224504D02*
X92424019Y-105176885D01*
X92424019Y-105176885D02*
X92376400Y-105129266D01*
X92376400Y-105129266D02*
X92328780Y-105034028D01*
X92328780Y-105034028D02*
X92328780Y-104653076D01*
X92328780Y-104653076D02*
X93328780Y-104653076D01*
X93328780Y-104653076D02*
X93328780Y-104986409D01*
X93328780Y-104986409D02*
X93281161Y-105081647D01*
X93281161Y-105081647D02*
X93233542Y-105129266D01*
X93233542Y-105129266D02*
X93138304Y-105176885D01*
X93138304Y-105176885D02*
X93043066Y-105176885D01*
X93043066Y-105176885D02*
X92947828Y-105129266D01*
X92947828Y-105129266D02*
X92900209Y-105081647D01*
X92900209Y-105081647D02*
X92852590Y-104986409D01*
X92852590Y-104986409D02*
X92852590Y-104653076D01*
X92328780Y-105653076D02*
X93328780Y-105653076D01*
X93328780Y-105653076D02*
X92614495Y-105986409D01*
X92614495Y-105986409D02*
X93328780Y-106319742D01*
X93328780Y-106319742D02*
X92328780Y-106319742D01*
X92328780Y-107367361D02*
X92804971Y-107034028D01*
X92328780Y-106795933D02*
X93328780Y-106795933D01*
X93328780Y-106795933D02*
X93328780Y-107176885D01*
X93328780Y-107176885D02*
X93281161Y-107272123D01*
X93281161Y-107272123D02*
X93233542Y-107319742D01*
X93233542Y-107319742D02*
X93138304Y-107367361D01*
X93138304Y-107367361D02*
X92995447Y-107367361D01*
X92995447Y-107367361D02*
X92900209Y-107319742D01*
X92900209Y-107319742D02*
X92852590Y-107272123D01*
X92852590Y-107272123D02*
X92804971Y-107176885D01*
X92804971Y-107176885D02*
X92804971Y-106795933D01*
X93233542Y-107748314D02*
X93281161Y-107795933D01*
X93281161Y-107795933D02*
X93328780Y-107891171D01*
X93328780Y-107891171D02*
X93328780Y-108129266D01*
X93328780Y-108129266D02*
X93281161Y-108224504D01*
X93281161Y-108224504D02*
X93233542Y-108272123D01*
X93233542Y-108272123D02*
X93138304Y-108319742D01*
X93138304Y-108319742D02*
X93043066Y-108319742D01*
X93043066Y-108319742D02*
X92900209Y-108272123D01*
X92900209Y-108272123D02*
X92328780Y-107700695D01*
X92328780Y-107700695D02*
X92328780Y-108319742D01*
D12*
X163030310Y-39511914D02*
X163244596Y-39583342D01*
X163244596Y-39583342D02*
X163316025Y-39654771D01*
X163316025Y-39654771D02*
X163387453Y-39797628D01*
X163387453Y-39797628D02*
X163387453Y-40011914D01*
X163387453Y-40011914D02*
X163316025Y-40154771D01*
X163316025Y-40154771D02*
X163244596Y-40226200D01*
X163244596Y-40226200D02*
X163101739Y-40297628D01*
X163101739Y-40297628D02*
X162530310Y-40297628D01*
X162530310Y-40297628D02*
X162530310Y-38797628D01*
X162530310Y-38797628D02*
X163030310Y-38797628D01*
X163030310Y-38797628D02*
X163173168Y-38869057D01*
X163173168Y-38869057D02*
X163244596Y-38940485D01*
X163244596Y-38940485D02*
X163316025Y-39083342D01*
X163316025Y-39083342D02*
X163316025Y-39226200D01*
X163316025Y-39226200D02*
X163244596Y-39369057D01*
X163244596Y-39369057D02*
X163173168Y-39440485D01*
X163173168Y-39440485D02*
X163030310Y-39511914D01*
X163030310Y-39511914D02*
X162530310Y-39511914D01*
X163887453Y-39297628D02*
X164244596Y-40297628D01*
X164601739Y-39297628D02*
X164244596Y-40297628D01*
X164244596Y-40297628D02*
X164101739Y-40654771D01*
X164101739Y-40654771D02*
X164030310Y-40726200D01*
X164030310Y-40726200D02*
X163887453Y-40797628D01*
X165173167Y-40154771D02*
X165244596Y-40226200D01*
X165244596Y-40226200D02*
X165173167Y-40297628D01*
X165173167Y-40297628D02*
X165101739Y-40226200D01*
X165101739Y-40226200D02*
X165173167Y-40154771D01*
X165173167Y-40154771D02*
X165173167Y-40297628D01*
X165173167Y-39369057D02*
X165244596Y-39440485D01*
X165244596Y-39440485D02*
X165173167Y-39511914D01*
X165173167Y-39511914D02*
X165101739Y-39440485D01*
X165101739Y-39440485D02*
X165173167Y-39369057D01*
X165173167Y-39369057D02*
X165173167Y-39511914D01*
X166816025Y-38797628D02*
X167673168Y-38797628D01*
X167244596Y-40297628D02*
X167244596Y-38797628D01*
X168744596Y-40226200D02*
X168601739Y-40297628D01*
X168601739Y-40297628D02*
X168316025Y-40297628D01*
X168316025Y-40297628D02*
X168173167Y-40226200D01*
X168173167Y-40226200D02*
X168101739Y-40083342D01*
X168101739Y-40083342D02*
X168101739Y-39511914D01*
X168101739Y-39511914D02*
X168173167Y-39369057D01*
X168173167Y-39369057D02*
X168316025Y-39297628D01*
X168316025Y-39297628D02*
X168601739Y-39297628D01*
X168601739Y-39297628D02*
X168744596Y-39369057D01*
X168744596Y-39369057D02*
X168816025Y-39511914D01*
X168816025Y-39511914D02*
X168816025Y-39654771D01*
X168816025Y-39654771D02*
X168101739Y-39797628D01*
X170101739Y-40297628D02*
X170101739Y-38797628D01*
X170101739Y-40226200D02*
X169958881Y-40297628D01*
X169958881Y-40297628D02*
X169673167Y-40297628D01*
X169673167Y-40297628D02*
X169530310Y-40226200D01*
X169530310Y-40226200D02*
X169458881Y-40154771D01*
X169458881Y-40154771D02*
X169387453Y-40011914D01*
X169387453Y-40011914D02*
X169387453Y-39583342D01*
X169387453Y-39583342D02*
X169458881Y-39440485D01*
X169458881Y-39440485D02*
X169530310Y-39369057D01*
X169530310Y-39369057D02*
X169673167Y-39297628D01*
X169673167Y-39297628D02*
X169958881Y-39297628D01*
X169958881Y-39297628D02*
X170101739Y-39369057D01*
X170816024Y-40297628D02*
X170816024Y-39297628D01*
X170816024Y-38797628D02*
X170744596Y-38869057D01*
X170744596Y-38869057D02*
X170816024Y-38940485D01*
X170816024Y-38940485D02*
X170887453Y-38869057D01*
X170887453Y-38869057D02*
X170816024Y-38797628D01*
X170816024Y-38797628D02*
X170816024Y-38940485D01*
X173673167Y-40440485D02*
X173530310Y-40369057D01*
X173530310Y-40369057D02*
X173387453Y-40226200D01*
X173387453Y-40226200D02*
X173173167Y-40011914D01*
X173173167Y-40011914D02*
X173030310Y-39940485D01*
X173030310Y-39940485D02*
X172887453Y-39940485D01*
X172958882Y-40297628D02*
X172816025Y-40226200D01*
X172816025Y-40226200D02*
X172673167Y-40083342D01*
X172673167Y-40083342D02*
X172601739Y-39797628D01*
X172601739Y-39797628D02*
X172601739Y-39297628D01*
X172601739Y-39297628D02*
X172673167Y-39011914D01*
X172673167Y-39011914D02*
X172816025Y-38869057D01*
X172816025Y-38869057D02*
X172958882Y-38797628D01*
X172958882Y-38797628D02*
X173244596Y-38797628D01*
X173244596Y-38797628D02*
X173387453Y-38869057D01*
X173387453Y-38869057D02*
X173530310Y-39011914D01*
X173530310Y-39011914D02*
X173601739Y-39297628D01*
X173601739Y-39297628D02*
X173601739Y-39797628D01*
X173601739Y-39797628D02*
X173530310Y-40083342D01*
X173530310Y-40083342D02*
X173387453Y-40226200D01*
X173387453Y-40226200D02*
X173244596Y-40297628D01*
X173244596Y-40297628D02*
X172958882Y-40297628D01*
X174887454Y-40297628D02*
X174887454Y-39511914D01*
X174887454Y-39511914D02*
X174816025Y-39369057D01*
X174816025Y-39369057D02*
X174673168Y-39297628D01*
X174673168Y-39297628D02*
X174387454Y-39297628D01*
X174387454Y-39297628D02*
X174244596Y-39369057D01*
X174887454Y-40226200D02*
X174744596Y-40297628D01*
X174744596Y-40297628D02*
X174387454Y-40297628D01*
X174387454Y-40297628D02*
X174244596Y-40226200D01*
X174244596Y-40226200D02*
X174173168Y-40083342D01*
X174173168Y-40083342D02*
X174173168Y-39940485D01*
X174173168Y-39940485D02*
X174244596Y-39797628D01*
X174244596Y-39797628D02*
X174387454Y-39726200D01*
X174387454Y-39726200D02*
X174744596Y-39726200D01*
X174744596Y-39726200D02*
X174887454Y-39654771D01*
X175387454Y-39297628D02*
X175958882Y-39297628D01*
X175601739Y-40297628D02*
X175601739Y-39011914D01*
X175601739Y-39011914D02*
X175673168Y-38869057D01*
X175673168Y-38869057D02*
X175816025Y-38797628D01*
X175816025Y-38797628D02*
X175958882Y-38797628D01*
X176458882Y-40297628D02*
X176458882Y-38797628D01*
X176601740Y-39726200D02*
X177030311Y-40297628D01*
X177030311Y-39297628D02*
X176458882Y-39869057D01*
X177887454Y-40297628D02*
X177744597Y-40226200D01*
X177744597Y-40226200D02*
X177673168Y-40154771D01*
X177673168Y-40154771D02*
X177601740Y-40011914D01*
X177601740Y-40011914D02*
X177601740Y-39583342D01*
X177601740Y-39583342D02*
X177673168Y-39440485D01*
X177673168Y-39440485D02*
X177744597Y-39369057D01*
X177744597Y-39369057D02*
X177887454Y-39297628D01*
X177887454Y-39297628D02*
X178101740Y-39297628D01*
X178101740Y-39297628D02*
X178244597Y-39369057D01*
X178244597Y-39369057D02*
X178316026Y-39440485D01*
X178316026Y-39440485D02*
X178387454Y-39583342D01*
X178387454Y-39583342D02*
X178387454Y-40011914D01*
X178387454Y-40011914D02*
X178316026Y-40154771D01*
X178316026Y-40154771D02*
X178244597Y-40226200D01*
X178244597Y-40226200D02*
X178101740Y-40297628D01*
X178101740Y-40297628D02*
X177887454Y-40297628D01*
X162530310Y-42712628D02*
X162530310Y-41212628D01*
X162530310Y-41212628D02*
X162887453Y-41212628D01*
X162887453Y-41212628D02*
X163101739Y-41284057D01*
X163101739Y-41284057D02*
X163244596Y-41426914D01*
X163244596Y-41426914D02*
X163316025Y-41569771D01*
X163316025Y-41569771D02*
X163387453Y-41855485D01*
X163387453Y-41855485D02*
X163387453Y-42069771D01*
X163387453Y-42069771D02*
X163316025Y-42355485D01*
X163316025Y-42355485D02*
X163244596Y-42498342D01*
X163244596Y-42498342D02*
X163101739Y-42641200D01*
X163101739Y-42641200D02*
X162887453Y-42712628D01*
X162887453Y-42712628D02*
X162530310Y-42712628D01*
X164673168Y-42712628D02*
X164673168Y-41926914D01*
X164673168Y-41926914D02*
X164601739Y-41784057D01*
X164601739Y-41784057D02*
X164458882Y-41712628D01*
X164458882Y-41712628D02*
X164173168Y-41712628D01*
X164173168Y-41712628D02*
X164030310Y-41784057D01*
X164673168Y-42641200D02*
X164530310Y-42712628D01*
X164530310Y-42712628D02*
X164173168Y-42712628D01*
X164173168Y-42712628D02*
X164030310Y-42641200D01*
X164030310Y-42641200D02*
X163958882Y-42498342D01*
X163958882Y-42498342D02*
X163958882Y-42355485D01*
X163958882Y-42355485D02*
X164030310Y-42212628D01*
X164030310Y-42212628D02*
X164173168Y-42141200D01*
X164173168Y-42141200D02*
X164530310Y-42141200D01*
X164530310Y-42141200D02*
X164673168Y-42069771D01*
X165173168Y-41712628D02*
X165744596Y-41712628D01*
X165387453Y-41212628D02*
X165387453Y-42498342D01*
X165387453Y-42498342D02*
X165458882Y-42641200D01*
X165458882Y-42641200D02*
X165601739Y-42712628D01*
X165601739Y-42712628D02*
X165744596Y-42712628D01*
X166816025Y-42641200D02*
X166673168Y-42712628D01*
X166673168Y-42712628D02*
X166387454Y-42712628D01*
X166387454Y-42712628D02*
X166244596Y-42641200D01*
X166244596Y-42641200D02*
X166173168Y-42498342D01*
X166173168Y-42498342D02*
X166173168Y-41926914D01*
X166173168Y-41926914D02*
X166244596Y-41784057D01*
X166244596Y-41784057D02*
X166387454Y-41712628D01*
X166387454Y-41712628D02*
X166673168Y-41712628D01*
X166673168Y-41712628D02*
X166816025Y-41784057D01*
X166816025Y-41784057D02*
X166887454Y-41926914D01*
X166887454Y-41926914D02*
X166887454Y-42069771D01*
X166887454Y-42069771D02*
X166173168Y-42212628D01*
X167530310Y-42569771D02*
X167601739Y-42641200D01*
X167601739Y-42641200D02*
X167530310Y-42712628D01*
X167530310Y-42712628D02*
X167458882Y-42641200D01*
X167458882Y-42641200D02*
X167530310Y-42569771D01*
X167530310Y-42569771D02*
X167530310Y-42712628D01*
X167530310Y-41784057D02*
X167601739Y-41855485D01*
X167601739Y-41855485D02*
X167530310Y-41926914D01*
X167530310Y-41926914D02*
X167458882Y-41855485D01*
X167458882Y-41855485D02*
X167530310Y-41784057D01*
X167530310Y-41784057D02*
X167530310Y-41926914D01*
X169387453Y-42712628D02*
X169387453Y-41212628D01*
X169387453Y-41212628D02*
X169887453Y-42284057D01*
X169887453Y-42284057D02*
X170387453Y-41212628D01*
X170387453Y-41212628D02*
X170387453Y-42712628D01*
X171744597Y-42712628D02*
X171744597Y-41926914D01*
X171744597Y-41926914D02*
X171673168Y-41784057D01*
X171673168Y-41784057D02*
X171530311Y-41712628D01*
X171530311Y-41712628D02*
X171244597Y-41712628D01*
X171244597Y-41712628D02*
X171101739Y-41784057D01*
X171744597Y-42641200D02*
X171601739Y-42712628D01*
X171601739Y-42712628D02*
X171244597Y-42712628D01*
X171244597Y-42712628D02*
X171101739Y-42641200D01*
X171101739Y-42641200D02*
X171030311Y-42498342D01*
X171030311Y-42498342D02*
X171030311Y-42355485D01*
X171030311Y-42355485D02*
X171101739Y-42212628D01*
X171101739Y-42212628D02*
X171244597Y-42141200D01*
X171244597Y-42141200D02*
X171601739Y-42141200D01*
X171601739Y-42141200D02*
X171744597Y-42069771D01*
X172316025Y-41712628D02*
X172673168Y-42712628D01*
X173030311Y-41712628D02*
X172673168Y-42712628D01*
X172673168Y-42712628D02*
X172530311Y-43069771D01*
X172530311Y-43069771D02*
X172458882Y-43141200D01*
X172458882Y-43141200D02*
X172316025Y-43212628D01*
X174673168Y-41355485D02*
X174744596Y-41284057D01*
X174744596Y-41284057D02*
X174887454Y-41212628D01*
X174887454Y-41212628D02*
X175244596Y-41212628D01*
X175244596Y-41212628D02*
X175387454Y-41284057D01*
X175387454Y-41284057D02*
X175458882Y-41355485D01*
X175458882Y-41355485D02*
X175530311Y-41498342D01*
X175530311Y-41498342D02*
X175530311Y-41641200D01*
X175530311Y-41641200D02*
X175458882Y-41855485D01*
X175458882Y-41855485D02*
X174601739Y-42712628D01*
X174601739Y-42712628D02*
X175530311Y-42712628D01*
X176458882Y-41212628D02*
X176601739Y-41212628D01*
X176601739Y-41212628D02*
X176744596Y-41284057D01*
X176744596Y-41284057D02*
X176816025Y-41355485D01*
X176816025Y-41355485D02*
X176887453Y-41498342D01*
X176887453Y-41498342D02*
X176958882Y-41784057D01*
X176958882Y-41784057D02*
X176958882Y-42141200D01*
X176958882Y-42141200D02*
X176887453Y-42426914D01*
X176887453Y-42426914D02*
X176816025Y-42569771D01*
X176816025Y-42569771D02*
X176744596Y-42641200D01*
X176744596Y-42641200D02*
X176601739Y-42712628D01*
X176601739Y-42712628D02*
X176458882Y-42712628D01*
X176458882Y-42712628D02*
X176316025Y-42641200D01*
X176316025Y-42641200D02*
X176244596Y-42569771D01*
X176244596Y-42569771D02*
X176173167Y-42426914D01*
X176173167Y-42426914D02*
X176101739Y-42141200D01*
X176101739Y-42141200D02*
X176101739Y-41784057D01*
X176101739Y-41784057D02*
X176173167Y-41498342D01*
X176173167Y-41498342D02*
X176244596Y-41355485D01*
X176244596Y-41355485D02*
X176316025Y-41284057D01*
X176316025Y-41284057D02*
X176458882Y-41212628D01*
X177530310Y-41355485D02*
X177601738Y-41284057D01*
X177601738Y-41284057D02*
X177744596Y-41212628D01*
X177744596Y-41212628D02*
X178101738Y-41212628D01*
X178101738Y-41212628D02*
X178244596Y-41284057D01*
X178244596Y-41284057D02*
X178316024Y-41355485D01*
X178316024Y-41355485D02*
X178387453Y-41498342D01*
X178387453Y-41498342D02*
X178387453Y-41641200D01*
X178387453Y-41641200D02*
X178316024Y-41855485D01*
X178316024Y-41855485D02*
X177458881Y-42712628D01*
X177458881Y-42712628D02*
X178387453Y-42712628D01*
X179673167Y-41712628D02*
X179673167Y-42712628D01*
X179316024Y-41141200D02*
X178958881Y-42212628D01*
X178958881Y-42212628D02*
X179887452Y-42212628D01*
D10*
X88455999Y-62049866D02*
X89217904Y-62049866D01*
X88836951Y-62430819D02*
X88836951Y-61668914D01*
X89646475Y-62383200D02*
X89789332Y-62430819D01*
X89789332Y-62430819D02*
X90027427Y-62430819D01*
X90027427Y-62430819D02*
X90122665Y-62383200D01*
X90122665Y-62383200D02*
X90170284Y-62335580D01*
X90170284Y-62335580D02*
X90217903Y-62240342D01*
X90217903Y-62240342D02*
X90217903Y-62145104D01*
X90217903Y-62145104D02*
X90170284Y-62049866D01*
X90170284Y-62049866D02*
X90122665Y-62002247D01*
X90122665Y-62002247D02*
X90027427Y-61954628D01*
X90027427Y-61954628D02*
X89836951Y-61907009D01*
X89836951Y-61907009D02*
X89741713Y-61859390D01*
X89741713Y-61859390D02*
X89694094Y-61811771D01*
X89694094Y-61811771D02*
X89646475Y-61716533D01*
X89646475Y-61716533D02*
X89646475Y-61621295D01*
X89646475Y-61621295D02*
X89694094Y-61526057D01*
X89694094Y-61526057D02*
X89741713Y-61478438D01*
X89741713Y-61478438D02*
X89836951Y-61430819D01*
X89836951Y-61430819D02*
X90075046Y-61430819D01*
X90075046Y-61430819D02*
X90217903Y-61478438D01*
X91027427Y-62383200D02*
X90932189Y-62430819D01*
X90932189Y-62430819D02*
X90741713Y-62430819D01*
X90741713Y-62430819D02*
X90646475Y-62383200D01*
X90646475Y-62383200D02*
X90598856Y-62287961D01*
X90598856Y-62287961D02*
X90598856Y-61907009D01*
X90598856Y-61907009D02*
X90646475Y-61811771D01*
X90646475Y-61811771D02*
X90741713Y-61764152D01*
X90741713Y-61764152D02*
X90932189Y-61764152D01*
X90932189Y-61764152D02*
X91027427Y-61811771D01*
X91027427Y-61811771D02*
X91075046Y-61907009D01*
X91075046Y-61907009D02*
X91075046Y-62002247D01*
X91075046Y-62002247D02*
X90598856Y-62097485D01*
X91503618Y-61764152D02*
X91503618Y-62430819D01*
X91503618Y-61859390D02*
X91551237Y-61811771D01*
X91551237Y-61811771D02*
X91646475Y-61764152D01*
X91646475Y-61764152D02*
X91789332Y-61764152D01*
X91789332Y-61764152D02*
X91884570Y-61811771D01*
X91884570Y-61811771D02*
X91932189Y-61907009D01*
X91932189Y-61907009D02*
X91932189Y-62430819D01*
X92360761Y-62383200D02*
X92455999Y-62430819D01*
X92455999Y-62430819D02*
X92646475Y-62430819D01*
X92646475Y-62430819D02*
X92741713Y-62383200D01*
X92741713Y-62383200D02*
X92789332Y-62287961D01*
X92789332Y-62287961D02*
X92789332Y-62240342D01*
X92789332Y-62240342D02*
X92741713Y-62145104D01*
X92741713Y-62145104D02*
X92646475Y-62097485D01*
X92646475Y-62097485D02*
X92503618Y-62097485D01*
X92503618Y-62097485D02*
X92408380Y-62049866D01*
X92408380Y-62049866D02*
X92360761Y-61954628D01*
X92360761Y-61954628D02*
X92360761Y-61907009D01*
X92360761Y-61907009D02*
X92408380Y-61811771D01*
X92408380Y-61811771D02*
X92503618Y-61764152D01*
X92503618Y-61764152D02*
X92646475Y-61764152D01*
X92646475Y-61764152D02*
X92741713Y-61811771D01*
X93598856Y-62383200D02*
X93503618Y-62430819D01*
X93503618Y-62430819D02*
X93313142Y-62430819D01*
X93313142Y-62430819D02*
X93217904Y-62383200D01*
X93217904Y-62383200D02*
X93170285Y-62287961D01*
X93170285Y-62287961D02*
X93170285Y-61907009D01*
X93170285Y-61907009D02*
X93217904Y-61811771D01*
X93217904Y-61811771D02*
X93313142Y-61764152D01*
X93313142Y-61764152D02*
X93503618Y-61764152D01*
X93503618Y-61764152D02*
X93598856Y-61811771D01*
X93598856Y-61811771D02*
X93646475Y-61907009D01*
X93646475Y-61907009D02*
X93646475Y-62002247D01*
X93646475Y-62002247D02*
X93170285Y-62097485D01*
X67871914Y-91391704D02*
X68348104Y-91391704D01*
X67776676Y-91677419D02*
X68110009Y-90677419D01*
X68110009Y-90677419D02*
X68443342Y-91677419D01*
X68729057Y-90772657D02*
X68776676Y-90725038D01*
X68776676Y-90725038D02*
X68871914Y-90677419D01*
X68871914Y-90677419D02*
X69110009Y-90677419D01*
X69110009Y-90677419D02*
X69205247Y-90725038D01*
X69205247Y-90725038D02*
X69252866Y-90772657D01*
X69252866Y-90772657D02*
X69300485Y-90867895D01*
X69300485Y-90867895D02*
X69300485Y-90963133D01*
X69300485Y-90963133D02*
X69252866Y-91105990D01*
X69252866Y-91105990D02*
X68681438Y-91677419D01*
X68681438Y-91677419D02*
X69300485Y-91677419D01*
X196148486Y-64067666D02*
X196910391Y-64067666D01*
X197862771Y-63448619D02*
X197386581Y-63448619D01*
X197386581Y-63448619D02*
X197338962Y-63924809D01*
X197338962Y-63924809D02*
X197386581Y-63877190D01*
X197386581Y-63877190D02*
X197481819Y-63829571D01*
X197481819Y-63829571D02*
X197719914Y-63829571D01*
X197719914Y-63829571D02*
X197815152Y-63877190D01*
X197815152Y-63877190D02*
X197862771Y-63924809D01*
X197862771Y-63924809D02*
X197910390Y-64020047D01*
X197910390Y-64020047D02*
X197910390Y-64258142D01*
X197910390Y-64258142D02*
X197862771Y-64353380D01*
X197862771Y-64353380D02*
X197815152Y-64401000D01*
X197815152Y-64401000D02*
X197719914Y-64448619D01*
X197719914Y-64448619D02*
X197481819Y-64448619D01*
X197481819Y-64448619D02*
X197386581Y-64401000D01*
X197386581Y-64401000D02*
X197338962Y-64353380D01*
X198196105Y-63448619D02*
X198529438Y-64448619D01*
X198529438Y-64448619D02*
X198862771Y-63448619D01*
X67871914Y-95074704D02*
X68348104Y-95074704D01*
X67776676Y-95360419D02*
X68110009Y-94360419D01*
X68110009Y-94360419D02*
X68443342Y-95360419D01*
X69300485Y-95360419D02*
X68729057Y-95360419D01*
X69014771Y-95360419D02*
X69014771Y-94360419D01*
X69014771Y-94360419D02*
X68919533Y-94503276D01*
X68919533Y-94503276D02*
X68824295Y-94598514D01*
X68824295Y-94598514D02*
X68729057Y-94646133D01*
D11*
X114062095Y-35509466D02*
X114824000Y-35509466D01*
X114443047Y-35890419D02*
X114443047Y-35128514D01*
X115728761Y-35223752D02*
X115728761Y-35890419D01*
X115490666Y-34842800D02*
X115252571Y-35557085D01*
X115252571Y-35557085D02*
X115871618Y-35557085D01*
X116395428Y-35318990D02*
X116300190Y-35271371D01*
X116300190Y-35271371D02*
X116252571Y-35223752D01*
X116252571Y-35223752D02*
X116204952Y-35128514D01*
X116204952Y-35128514D02*
X116204952Y-35080895D01*
X116204952Y-35080895D02*
X116252571Y-34985657D01*
X116252571Y-34985657D02*
X116300190Y-34938038D01*
X116300190Y-34938038D02*
X116395428Y-34890419D01*
X116395428Y-34890419D02*
X116585904Y-34890419D01*
X116585904Y-34890419D02*
X116681142Y-34938038D01*
X116681142Y-34938038D02*
X116728761Y-34985657D01*
X116728761Y-34985657D02*
X116776380Y-35080895D01*
X116776380Y-35080895D02*
X116776380Y-35128514D01*
X116776380Y-35128514D02*
X116728761Y-35223752D01*
X116728761Y-35223752D02*
X116681142Y-35271371D01*
X116681142Y-35271371D02*
X116585904Y-35318990D01*
X116585904Y-35318990D02*
X116395428Y-35318990D01*
X116395428Y-35318990D02*
X116300190Y-35366609D01*
X116300190Y-35366609D02*
X116252571Y-35414228D01*
X116252571Y-35414228D02*
X116204952Y-35509466D01*
X116204952Y-35509466D02*
X116204952Y-35699942D01*
X116204952Y-35699942D02*
X116252571Y-35795180D01*
X116252571Y-35795180D02*
X116300190Y-35842800D01*
X116300190Y-35842800D02*
X116395428Y-35890419D01*
X116395428Y-35890419D02*
X116585904Y-35890419D01*
X116585904Y-35890419D02*
X116681142Y-35842800D01*
X116681142Y-35842800D02*
X116728761Y-35795180D01*
X116728761Y-35795180D02*
X116776380Y-35699942D01*
X116776380Y-35699942D02*
X116776380Y-35509466D01*
X116776380Y-35509466D02*
X116728761Y-35414228D01*
X116728761Y-35414228D02*
X116681142Y-35366609D01*
X116681142Y-35366609D02*
X116585904Y-35318990D01*
X117062095Y-34890419D02*
X117395428Y-35890419D01*
X117395428Y-35890419D02*
X117728761Y-34890419D01*
D10*
X101057152Y-137702219D02*
X100485724Y-137702219D01*
X100771438Y-137702219D02*
X100771438Y-136702219D01*
X100771438Y-136702219D02*
X100676200Y-136845076D01*
X100676200Y-136845076D02*
X100580962Y-136940314D01*
X100580962Y-136940314D02*
X100485724Y-136987933D01*
X101438105Y-136797457D02*
X101485724Y-136749838D01*
X101485724Y-136749838D02*
X101580962Y-136702219D01*
X101580962Y-136702219D02*
X101819057Y-136702219D01*
X101819057Y-136702219D02*
X101914295Y-136749838D01*
X101914295Y-136749838D02*
X101961914Y-136797457D01*
X101961914Y-136797457D02*
X102009533Y-136892695D01*
X102009533Y-136892695D02*
X102009533Y-136987933D01*
X102009533Y-136987933D02*
X101961914Y-137130790D01*
X101961914Y-137130790D02*
X101390486Y-137702219D01*
X101390486Y-137702219D02*
X102009533Y-137702219D01*
X102295248Y-136702219D02*
X102628581Y-137702219D01*
X102628581Y-137702219D02*
X102961914Y-136702219D01*
X88039724Y-90359800D02*
X88182581Y-90407419D01*
X88182581Y-90407419D02*
X88420676Y-90407419D01*
X88420676Y-90407419D02*
X88515914Y-90359800D01*
X88515914Y-90359800D02*
X88563533Y-90312180D01*
X88563533Y-90312180D02*
X88611152Y-90216942D01*
X88611152Y-90216942D02*
X88611152Y-90121704D01*
X88611152Y-90121704D02*
X88563533Y-90026466D01*
X88563533Y-90026466D02*
X88515914Y-89978847D01*
X88515914Y-89978847D02*
X88420676Y-89931228D01*
X88420676Y-89931228D02*
X88230200Y-89883609D01*
X88230200Y-89883609D02*
X88134962Y-89835990D01*
X88134962Y-89835990D02*
X88087343Y-89788371D01*
X88087343Y-89788371D02*
X88039724Y-89693133D01*
X88039724Y-89693133D02*
X88039724Y-89597895D01*
X88039724Y-89597895D02*
X88087343Y-89502657D01*
X88087343Y-89502657D02*
X88134962Y-89455038D01*
X88134962Y-89455038D02*
X88230200Y-89407419D01*
X88230200Y-89407419D02*
X88468295Y-89407419D01*
X88468295Y-89407419D02*
X88611152Y-89455038D01*
X89611152Y-90312180D02*
X89563533Y-90359800D01*
X89563533Y-90359800D02*
X89420676Y-90407419D01*
X89420676Y-90407419D02*
X89325438Y-90407419D01*
X89325438Y-90407419D02*
X89182581Y-90359800D01*
X89182581Y-90359800D02*
X89087343Y-90264561D01*
X89087343Y-90264561D02*
X89039724Y-90169323D01*
X89039724Y-90169323D02*
X88992105Y-89978847D01*
X88992105Y-89978847D02*
X88992105Y-89835990D01*
X88992105Y-89835990D02*
X89039724Y-89645514D01*
X89039724Y-89645514D02*
X89087343Y-89550276D01*
X89087343Y-89550276D02*
X89182581Y-89455038D01*
X89182581Y-89455038D02*
X89325438Y-89407419D01*
X89325438Y-89407419D02*
X89420676Y-89407419D01*
X89420676Y-89407419D02*
X89563533Y-89455038D01*
X89563533Y-89455038D02*
X89611152Y-89502657D01*
X90515914Y-90407419D02*
X90039724Y-90407419D01*
X90039724Y-90407419D02*
X90039724Y-89407419D01*
X87849247Y-100472180D02*
X87801628Y-100519800D01*
X87801628Y-100519800D02*
X87658771Y-100567419D01*
X87658771Y-100567419D02*
X87563533Y-100567419D01*
X87563533Y-100567419D02*
X87420676Y-100519800D01*
X87420676Y-100519800D02*
X87325438Y-100424561D01*
X87325438Y-100424561D02*
X87277819Y-100329323D01*
X87277819Y-100329323D02*
X87230200Y-100138847D01*
X87230200Y-100138847D02*
X87230200Y-99995990D01*
X87230200Y-99995990D02*
X87277819Y-99805514D01*
X87277819Y-99805514D02*
X87325438Y-99710276D01*
X87325438Y-99710276D02*
X87420676Y-99615038D01*
X87420676Y-99615038D02*
X87563533Y-99567419D01*
X87563533Y-99567419D02*
X87658771Y-99567419D01*
X87658771Y-99567419D02*
X87801628Y-99615038D01*
X87801628Y-99615038D02*
X87849247Y-99662657D01*
X88134962Y-99567419D02*
X88706390Y-99567419D01*
X88420676Y-100567419D02*
X88420676Y-99567419D01*
X89611152Y-100567419D02*
X89277819Y-100091228D01*
X89039724Y-100567419D02*
X89039724Y-99567419D01*
X89039724Y-99567419D02*
X89420676Y-99567419D01*
X89420676Y-99567419D02*
X89515914Y-99615038D01*
X89515914Y-99615038D02*
X89563533Y-99662657D01*
X89563533Y-99662657D02*
X89611152Y-99757895D01*
X89611152Y-99757895D02*
X89611152Y-99900752D01*
X89611152Y-99900752D02*
X89563533Y-99995990D01*
X89563533Y-99995990D02*
X89515914Y-100043609D01*
X89515914Y-100043609D02*
X89420676Y-100091228D01*
X89420676Y-100091228D02*
X89039724Y-100091228D01*
X90515914Y-100567419D02*
X90039724Y-100567419D01*
X90039724Y-100567419D02*
X90039724Y-99567419D01*
X198637686Y-71027266D02*
X199399591Y-71027266D01*
X199018638Y-71408219D02*
X199018638Y-70646314D01*
X200351971Y-70408219D02*
X199875781Y-70408219D01*
X199875781Y-70408219D02*
X199828162Y-70884409D01*
X199828162Y-70884409D02*
X199875781Y-70836790D01*
X199875781Y-70836790D02*
X199971019Y-70789171D01*
X199971019Y-70789171D02*
X200209114Y-70789171D01*
X200209114Y-70789171D02*
X200304352Y-70836790D01*
X200304352Y-70836790D02*
X200351971Y-70884409D01*
X200351971Y-70884409D02*
X200399590Y-70979647D01*
X200399590Y-70979647D02*
X200399590Y-71217742D01*
X200399590Y-71217742D02*
X200351971Y-71312980D01*
X200351971Y-71312980D02*
X200304352Y-71360600D01*
X200304352Y-71360600D02*
X200209114Y-71408219D01*
X200209114Y-71408219D02*
X199971019Y-71408219D01*
X199971019Y-71408219D02*
X199875781Y-71360600D01*
X199875781Y-71360600D02*
X199828162Y-71312980D01*
X200685305Y-70408219D02*
X201018638Y-71408219D01*
X201018638Y-71408219D02*
X201351971Y-70408219D01*
X191100295Y-58022466D02*
X191862200Y-58022466D01*
X191481247Y-58403419D02*
X191481247Y-57641514D01*
X192766961Y-57736752D02*
X192766961Y-58403419D01*
X192528866Y-57355800D02*
X192290771Y-58070085D01*
X192290771Y-58070085D02*
X192909818Y-58070085D01*
X193433628Y-57831990D02*
X193338390Y-57784371D01*
X193338390Y-57784371D02*
X193290771Y-57736752D01*
X193290771Y-57736752D02*
X193243152Y-57641514D01*
X193243152Y-57641514D02*
X193243152Y-57593895D01*
X193243152Y-57593895D02*
X193290771Y-57498657D01*
X193290771Y-57498657D02*
X193338390Y-57451038D01*
X193338390Y-57451038D02*
X193433628Y-57403419D01*
X193433628Y-57403419D02*
X193624104Y-57403419D01*
X193624104Y-57403419D02*
X193719342Y-57451038D01*
X193719342Y-57451038D02*
X193766961Y-57498657D01*
X193766961Y-57498657D02*
X193814580Y-57593895D01*
X193814580Y-57593895D02*
X193814580Y-57641514D01*
X193814580Y-57641514D02*
X193766961Y-57736752D01*
X193766961Y-57736752D02*
X193719342Y-57784371D01*
X193719342Y-57784371D02*
X193624104Y-57831990D01*
X193624104Y-57831990D02*
X193433628Y-57831990D01*
X193433628Y-57831990D02*
X193338390Y-57879609D01*
X193338390Y-57879609D02*
X193290771Y-57927228D01*
X193290771Y-57927228D02*
X193243152Y-58022466D01*
X193243152Y-58022466D02*
X193243152Y-58212942D01*
X193243152Y-58212942D02*
X193290771Y-58308180D01*
X193290771Y-58308180D02*
X193338390Y-58355800D01*
X193338390Y-58355800D02*
X193433628Y-58403419D01*
X193433628Y-58403419D02*
X193624104Y-58403419D01*
X193624104Y-58403419D02*
X193719342Y-58355800D01*
X193719342Y-58355800D02*
X193766961Y-58308180D01*
X193766961Y-58308180D02*
X193814580Y-58212942D01*
X193814580Y-58212942D02*
X193814580Y-58022466D01*
X193814580Y-58022466D02*
X193766961Y-57927228D01*
X193766961Y-57927228D02*
X193719342Y-57879609D01*
X193719342Y-57879609D02*
X193624104Y-57831990D01*
X194100295Y-57403419D02*
X194433628Y-58403419D01*
X194433628Y-58403419D02*
X194766961Y-57403419D01*
X107944447Y-40343314D02*
X107277780Y-40343314D01*
X108325400Y-40105219D02*
X107611114Y-39867124D01*
X107611114Y-39867124D02*
X107611114Y-40486171D01*
X107849209Y-41009981D02*
X107896828Y-40914743D01*
X107896828Y-40914743D02*
X107944447Y-40867124D01*
X107944447Y-40867124D02*
X108039685Y-40819505D01*
X108039685Y-40819505D02*
X108087304Y-40819505D01*
X108087304Y-40819505D02*
X108182542Y-40867124D01*
X108182542Y-40867124D02*
X108230161Y-40914743D01*
X108230161Y-40914743D02*
X108277780Y-41009981D01*
X108277780Y-41009981D02*
X108277780Y-41200457D01*
X108277780Y-41200457D02*
X108230161Y-41295695D01*
X108230161Y-41295695D02*
X108182542Y-41343314D01*
X108182542Y-41343314D02*
X108087304Y-41390933D01*
X108087304Y-41390933D02*
X108039685Y-41390933D01*
X108039685Y-41390933D02*
X107944447Y-41343314D01*
X107944447Y-41343314D02*
X107896828Y-41295695D01*
X107896828Y-41295695D02*
X107849209Y-41200457D01*
X107849209Y-41200457D02*
X107849209Y-41009981D01*
X107849209Y-41009981D02*
X107801590Y-40914743D01*
X107801590Y-40914743D02*
X107753971Y-40867124D01*
X107753971Y-40867124D02*
X107658733Y-40819505D01*
X107658733Y-40819505D02*
X107468257Y-40819505D01*
X107468257Y-40819505D02*
X107373019Y-40867124D01*
X107373019Y-40867124D02*
X107325400Y-40914743D01*
X107325400Y-40914743D02*
X107277780Y-41009981D01*
X107277780Y-41009981D02*
X107277780Y-41200457D01*
X107277780Y-41200457D02*
X107325400Y-41295695D01*
X107325400Y-41295695D02*
X107373019Y-41343314D01*
X107373019Y-41343314D02*
X107468257Y-41390933D01*
X107468257Y-41390933D02*
X107658733Y-41390933D01*
X107658733Y-41390933D02*
X107753971Y-41343314D01*
X107753971Y-41343314D02*
X107801590Y-41295695D01*
X107801590Y-41295695D02*
X107849209Y-41200457D01*
X108277780Y-41676648D02*
X107277780Y-42009981D01*
X107277780Y-42009981D02*
X108277780Y-42343314D01*
X74589047Y-123248009D02*
X74922380Y-123248009D01*
X75065237Y-123771819D02*
X74589047Y-123771819D01*
X74589047Y-123771819D02*
X74589047Y-122771819D01*
X74589047Y-122771819D02*
X75065237Y-122771819D01*
X75493809Y-123771819D02*
X75493809Y-122771819D01*
X75493809Y-122771819D02*
X76065237Y-123771819D01*
X76065237Y-123771819D02*
X76065237Y-122771819D01*
X76303333Y-123867057D02*
X77065237Y-123867057D01*
X77779523Y-122771819D02*
X77303333Y-122771819D01*
X77303333Y-122771819D02*
X77255714Y-123248009D01*
X77255714Y-123248009D02*
X77303333Y-123200390D01*
X77303333Y-123200390D02*
X77398571Y-123152771D01*
X77398571Y-123152771D02*
X77636666Y-123152771D01*
X77636666Y-123152771D02*
X77731904Y-123200390D01*
X77731904Y-123200390D02*
X77779523Y-123248009D01*
X77779523Y-123248009D02*
X77827142Y-123343247D01*
X77827142Y-123343247D02*
X77827142Y-123581342D01*
X77827142Y-123581342D02*
X77779523Y-123676580D01*
X77779523Y-123676580D02*
X77731904Y-123724200D01*
X77731904Y-123724200D02*
X77636666Y-123771819D01*
X77636666Y-123771819D02*
X77398571Y-123771819D01*
X77398571Y-123771819D02*
X77303333Y-123724200D01*
X77303333Y-123724200D02*
X77255714Y-123676580D01*
X78112857Y-122771819D02*
X78446190Y-123771819D01*
X78446190Y-123771819D02*
X78779523Y-122771819D01*
X78874762Y-123867057D02*
X79636666Y-123867057D01*
X79827143Y-122867057D02*
X79874762Y-122819438D01*
X79874762Y-122819438D02*
X79970000Y-122771819D01*
X79970000Y-122771819D02*
X80208095Y-122771819D01*
X80208095Y-122771819D02*
X80303333Y-122819438D01*
X80303333Y-122819438D02*
X80350952Y-122867057D01*
X80350952Y-122867057D02*
X80398571Y-122962295D01*
X80398571Y-122962295D02*
X80398571Y-123057533D01*
X80398571Y-123057533D02*
X80350952Y-123200390D01*
X80350952Y-123200390D02*
X79779524Y-123771819D01*
X79779524Y-123771819D02*
X80398571Y-123771819D01*
X90598856Y-69765104D02*
X91075046Y-69765104D01*
X90503618Y-70050819D02*
X90836951Y-69050819D01*
X90836951Y-69050819D02*
X91170284Y-70050819D01*
X91646475Y-70050819D02*
X91551237Y-70003200D01*
X91551237Y-70003200D02*
X91503618Y-69907961D01*
X91503618Y-69907961D02*
X91503618Y-69050819D01*
X92408380Y-70003200D02*
X92313142Y-70050819D01*
X92313142Y-70050819D02*
X92122666Y-70050819D01*
X92122666Y-70050819D02*
X92027428Y-70003200D01*
X92027428Y-70003200D02*
X91979809Y-69907961D01*
X91979809Y-69907961D02*
X91979809Y-69527009D01*
X91979809Y-69527009D02*
X92027428Y-69431771D01*
X92027428Y-69431771D02*
X92122666Y-69384152D01*
X92122666Y-69384152D02*
X92313142Y-69384152D01*
X92313142Y-69384152D02*
X92408380Y-69431771D01*
X92408380Y-69431771D02*
X92455999Y-69527009D01*
X92455999Y-69527009D02*
X92455999Y-69622247D01*
X92455999Y-69622247D02*
X91979809Y-69717485D01*
X92884571Y-70050819D02*
X92884571Y-69384152D01*
X92884571Y-69574628D02*
X92932190Y-69479390D01*
X92932190Y-69479390D02*
X92979809Y-69431771D01*
X92979809Y-69431771D02*
X93075047Y-69384152D01*
X93075047Y-69384152D02*
X93170285Y-69384152D01*
X93360762Y-69384152D02*
X93741714Y-69384152D01*
X93503619Y-69050819D02*
X93503619Y-69907961D01*
X93503619Y-69907961D02*
X93551238Y-70003200D01*
X93551238Y-70003200D02*
X93646476Y-70050819D01*
X93646476Y-70050819D02*
X93741714Y-70050819D01*
X87992104Y-95439800D02*
X88134961Y-95487419D01*
X88134961Y-95487419D02*
X88373056Y-95487419D01*
X88373056Y-95487419D02*
X88468294Y-95439800D01*
X88468294Y-95439800D02*
X88515913Y-95392180D01*
X88515913Y-95392180D02*
X88563532Y-95296942D01*
X88563532Y-95296942D02*
X88563532Y-95201704D01*
X88563532Y-95201704D02*
X88515913Y-95106466D01*
X88515913Y-95106466D02*
X88468294Y-95058847D01*
X88468294Y-95058847D02*
X88373056Y-95011228D01*
X88373056Y-95011228D02*
X88182580Y-94963609D01*
X88182580Y-94963609D02*
X88087342Y-94915990D01*
X88087342Y-94915990D02*
X88039723Y-94868371D01*
X88039723Y-94868371D02*
X87992104Y-94773133D01*
X87992104Y-94773133D02*
X87992104Y-94677895D01*
X87992104Y-94677895D02*
X88039723Y-94582657D01*
X88039723Y-94582657D02*
X88087342Y-94535038D01*
X88087342Y-94535038D02*
X88182580Y-94487419D01*
X88182580Y-94487419D02*
X88420675Y-94487419D01*
X88420675Y-94487419D02*
X88563532Y-94535038D01*
X88992104Y-95487419D02*
X88992104Y-94487419D01*
X88992104Y-94487419D02*
X89230199Y-94487419D01*
X89230199Y-94487419D02*
X89373056Y-94535038D01*
X89373056Y-94535038D02*
X89468294Y-94630276D01*
X89468294Y-94630276D02*
X89515913Y-94725514D01*
X89515913Y-94725514D02*
X89563532Y-94915990D01*
X89563532Y-94915990D02*
X89563532Y-95058847D01*
X89563532Y-95058847D02*
X89515913Y-95249323D01*
X89515913Y-95249323D02*
X89468294Y-95344561D01*
X89468294Y-95344561D02*
X89373056Y-95439800D01*
X89373056Y-95439800D02*
X89230199Y-95487419D01*
X89230199Y-95487419D02*
X88992104Y-95487419D01*
X89944485Y-95201704D02*
X90420675Y-95201704D01*
X89849247Y-95487419D02*
X90182580Y-94487419D01*
X90182580Y-94487419D02*
X90515913Y-95487419D01*
X150253723Y-136651419D02*
X149777533Y-136651419D01*
X149777533Y-136651419D02*
X149729914Y-137127609D01*
X149729914Y-137127609D02*
X149777533Y-137079990D01*
X149777533Y-137079990D02*
X149872771Y-137032371D01*
X149872771Y-137032371D02*
X150110866Y-137032371D01*
X150110866Y-137032371D02*
X150206104Y-137079990D01*
X150206104Y-137079990D02*
X150253723Y-137127609D01*
X150253723Y-137127609D02*
X150301342Y-137222847D01*
X150301342Y-137222847D02*
X150301342Y-137460942D01*
X150301342Y-137460942D02*
X150253723Y-137556180D01*
X150253723Y-137556180D02*
X150206104Y-137603800D01*
X150206104Y-137603800D02*
X150110866Y-137651419D01*
X150110866Y-137651419D02*
X149872771Y-137651419D01*
X149872771Y-137651419D02*
X149777533Y-137603800D01*
X149777533Y-137603800D02*
X149729914Y-137556180D01*
X150587057Y-136651419D02*
X150920390Y-137651419D01*
X150920390Y-137651419D02*
X151253723Y-136651419D01*
X91265524Y-67463200D02*
X91408381Y-67510819D01*
X91408381Y-67510819D02*
X91646476Y-67510819D01*
X91646476Y-67510819D02*
X91741714Y-67463200D01*
X91741714Y-67463200D02*
X91789333Y-67415580D01*
X91789333Y-67415580D02*
X91836952Y-67320342D01*
X91836952Y-67320342D02*
X91836952Y-67225104D01*
X91836952Y-67225104D02*
X91789333Y-67129866D01*
X91789333Y-67129866D02*
X91741714Y-67082247D01*
X91741714Y-67082247D02*
X91646476Y-67034628D01*
X91646476Y-67034628D02*
X91456000Y-66987009D01*
X91456000Y-66987009D02*
X91360762Y-66939390D01*
X91360762Y-66939390D02*
X91313143Y-66891771D01*
X91313143Y-66891771D02*
X91265524Y-66796533D01*
X91265524Y-66796533D02*
X91265524Y-66701295D01*
X91265524Y-66701295D02*
X91313143Y-66606057D01*
X91313143Y-66606057D02*
X91360762Y-66558438D01*
X91360762Y-66558438D02*
X91456000Y-66510819D01*
X91456000Y-66510819D02*
X91694095Y-66510819D01*
X91694095Y-66510819D02*
X91836952Y-66558438D01*
X92836952Y-67415580D02*
X92789333Y-67463200D01*
X92789333Y-67463200D02*
X92646476Y-67510819D01*
X92646476Y-67510819D02*
X92551238Y-67510819D01*
X92551238Y-67510819D02*
X92408381Y-67463200D01*
X92408381Y-67463200D02*
X92313143Y-67367961D01*
X92313143Y-67367961D02*
X92265524Y-67272723D01*
X92265524Y-67272723D02*
X92217905Y-67082247D01*
X92217905Y-67082247D02*
X92217905Y-66939390D01*
X92217905Y-66939390D02*
X92265524Y-66748914D01*
X92265524Y-66748914D02*
X92313143Y-66653676D01*
X92313143Y-66653676D02*
X92408381Y-66558438D01*
X92408381Y-66558438D02*
X92551238Y-66510819D01*
X92551238Y-66510819D02*
X92646476Y-66510819D01*
X92646476Y-66510819D02*
X92789333Y-66558438D01*
X92789333Y-66558438D02*
X92836952Y-66606057D01*
X93741714Y-67510819D02*
X93265524Y-67510819D01*
X93265524Y-67510819D02*
X93265524Y-66510819D01*
D11*
X162703095Y-36017466D02*
X163465000Y-36017466D01*
X164369761Y-35731752D02*
X164369761Y-36398419D01*
X164131666Y-35350800D02*
X163893571Y-36065085D01*
X163893571Y-36065085D02*
X164512618Y-36065085D01*
X165036428Y-35826990D02*
X164941190Y-35779371D01*
X164941190Y-35779371D02*
X164893571Y-35731752D01*
X164893571Y-35731752D02*
X164845952Y-35636514D01*
X164845952Y-35636514D02*
X164845952Y-35588895D01*
X164845952Y-35588895D02*
X164893571Y-35493657D01*
X164893571Y-35493657D02*
X164941190Y-35446038D01*
X164941190Y-35446038D02*
X165036428Y-35398419D01*
X165036428Y-35398419D02*
X165226904Y-35398419D01*
X165226904Y-35398419D02*
X165322142Y-35446038D01*
X165322142Y-35446038D02*
X165369761Y-35493657D01*
X165369761Y-35493657D02*
X165417380Y-35588895D01*
X165417380Y-35588895D02*
X165417380Y-35636514D01*
X165417380Y-35636514D02*
X165369761Y-35731752D01*
X165369761Y-35731752D02*
X165322142Y-35779371D01*
X165322142Y-35779371D02*
X165226904Y-35826990D01*
X165226904Y-35826990D02*
X165036428Y-35826990D01*
X165036428Y-35826990D02*
X164941190Y-35874609D01*
X164941190Y-35874609D02*
X164893571Y-35922228D01*
X164893571Y-35922228D02*
X164845952Y-36017466D01*
X164845952Y-36017466D02*
X164845952Y-36207942D01*
X164845952Y-36207942D02*
X164893571Y-36303180D01*
X164893571Y-36303180D02*
X164941190Y-36350800D01*
X164941190Y-36350800D02*
X165036428Y-36398419D01*
X165036428Y-36398419D02*
X165226904Y-36398419D01*
X165226904Y-36398419D02*
X165322142Y-36350800D01*
X165322142Y-36350800D02*
X165369761Y-36303180D01*
X165369761Y-36303180D02*
X165417380Y-36207942D01*
X165417380Y-36207942D02*
X165417380Y-36017466D01*
X165417380Y-36017466D02*
X165369761Y-35922228D01*
X165369761Y-35922228D02*
X165322142Y-35874609D01*
X165322142Y-35874609D02*
X165226904Y-35826990D01*
X165703095Y-35398419D02*
X166036428Y-36398419D01*
X166036428Y-36398419D02*
X166369761Y-35398419D01*
D10*
X87373056Y-92661704D02*
X87849246Y-92661704D01*
X87277818Y-92947419D02*
X87611151Y-91947419D01*
X87611151Y-91947419D02*
X87944484Y-92947419D01*
X88420675Y-92947419D02*
X88325437Y-92899800D01*
X88325437Y-92899800D02*
X88277818Y-92804561D01*
X88277818Y-92804561D02*
X88277818Y-91947419D01*
X89182580Y-92899800D02*
X89087342Y-92947419D01*
X89087342Y-92947419D02*
X88896866Y-92947419D01*
X88896866Y-92947419D02*
X88801628Y-92899800D01*
X88801628Y-92899800D02*
X88754009Y-92804561D01*
X88754009Y-92804561D02*
X88754009Y-92423609D01*
X88754009Y-92423609D02*
X88801628Y-92328371D01*
X88801628Y-92328371D02*
X88896866Y-92280752D01*
X88896866Y-92280752D02*
X89087342Y-92280752D01*
X89087342Y-92280752D02*
X89182580Y-92328371D01*
X89182580Y-92328371D02*
X89230199Y-92423609D01*
X89230199Y-92423609D02*
X89230199Y-92518847D01*
X89230199Y-92518847D02*
X88754009Y-92614085D01*
X89658771Y-92947419D02*
X89658771Y-92280752D01*
X89658771Y-92471228D02*
X89706390Y-92375990D01*
X89706390Y-92375990D02*
X89754009Y-92328371D01*
X89754009Y-92328371D02*
X89849247Y-92280752D01*
X89849247Y-92280752D02*
X89944485Y-92280752D01*
X90134962Y-92280752D02*
X90515914Y-92280752D01*
X90277819Y-91947419D02*
X90277819Y-92804561D01*
X90277819Y-92804561D02*
X90325438Y-92899800D01*
X90325438Y-92899800D02*
X90420676Y-92947419D01*
X90420676Y-92947419D02*
X90515914Y-92947419D01*
X91265524Y-64923200D02*
X91408381Y-64970819D01*
X91408381Y-64970819D02*
X91646476Y-64970819D01*
X91646476Y-64970819D02*
X91741714Y-64923200D01*
X91741714Y-64923200D02*
X91789333Y-64875580D01*
X91789333Y-64875580D02*
X91836952Y-64780342D01*
X91836952Y-64780342D02*
X91836952Y-64685104D01*
X91836952Y-64685104D02*
X91789333Y-64589866D01*
X91789333Y-64589866D02*
X91741714Y-64542247D01*
X91741714Y-64542247D02*
X91646476Y-64494628D01*
X91646476Y-64494628D02*
X91456000Y-64447009D01*
X91456000Y-64447009D02*
X91360762Y-64399390D01*
X91360762Y-64399390D02*
X91313143Y-64351771D01*
X91313143Y-64351771D02*
X91265524Y-64256533D01*
X91265524Y-64256533D02*
X91265524Y-64161295D01*
X91265524Y-64161295D02*
X91313143Y-64066057D01*
X91313143Y-64066057D02*
X91360762Y-64018438D01*
X91360762Y-64018438D02*
X91456000Y-63970819D01*
X91456000Y-63970819D02*
X91694095Y-63970819D01*
X91694095Y-63970819D02*
X91836952Y-64018438D01*
X92217905Y-64685104D02*
X92694095Y-64685104D01*
X92122667Y-64970819D02*
X92456000Y-63970819D01*
X92456000Y-63970819D02*
X92789333Y-64970819D01*
X93646476Y-64970819D02*
X93075048Y-64970819D01*
X93360762Y-64970819D02*
X93360762Y-63970819D01*
X93360762Y-63970819D02*
X93265524Y-64113676D01*
X93265524Y-64113676D02*
X93170286Y-64208914D01*
X93170286Y-64208914D02*
X93075048Y-64256533D01*
X185163580Y-82132723D02*
X185163580Y-81656533D01*
X185163580Y-81656533D02*
X184687390Y-81608914D01*
X184687390Y-81608914D02*
X184735009Y-81656533D01*
X184735009Y-81656533D02*
X184782628Y-81751771D01*
X184782628Y-81751771D02*
X184782628Y-81989866D01*
X184782628Y-81989866D02*
X184735009Y-82085104D01*
X184735009Y-82085104D02*
X184687390Y-82132723D01*
X184687390Y-82132723D02*
X184592152Y-82180342D01*
X184592152Y-82180342D02*
X184354057Y-82180342D01*
X184354057Y-82180342D02*
X184258819Y-82132723D01*
X184258819Y-82132723D02*
X184211200Y-82085104D01*
X184211200Y-82085104D02*
X184163580Y-81989866D01*
X184163580Y-81989866D02*
X184163580Y-81751771D01*
X184163580Y-81751771D02*
X184211200Y-81656533D01*
X184211200Y-81656533D02*
X184258819Y-81608914D01*
X185163580Y-82466057D02*
X184163580Y-82799390D01*
X184163580Y-82799390D02*
X185163580Y-83132723D01*
D11*
X96078390Y-56181809D02*
X96030771Y-56324666D01*
X96030771Y-56324666D02*
X95983152Y-56372285D01*
X95983152Y-56372285D02*
X95887914Y-56419904D01*
X95887914Y-56419904D02*
X95745057Y-56419904D01*
X95745057Y-56419904D02*
X95649819Y-56372285D01*
X95649819Y-56372285D02*
X95602200Y-56324666D01*
X95602200Y-56324666D02*
X95554580Y-56229428D01*
X95554580Y-56229428D02*
X95554580Y-55848476D01*
X95554580Y-55848476D02*
X96554580Y-55848476D01*
X96554580Y-55848476D02*
X96554580Y-56181809D01*
X96554580Y-56181809D02*
X96506961Y-56277047D01*
X96506961Y-56277047D02*
X96459342Y-56324666D01*
X96459342Y-56324666D02*
X96364104Y-56372285D01*
X96364104Y-56372285D02*
X96268866Y-56372285D01*
X96268866Y-56372285D02*
X96173628Y-56324666D01*
X96173628Y-56324666D02*
X96126009Y-56277047D01*
X96126009Y-56277047D02*
X96078390Y-56181809D01*
X96078390Y-56181809D02*
X96078390Y-55848476D01*
X95554580Y-56848476D02*
X96554580Y-56848476D01*
X96554580Y-56848476D02*
X95840295Y-57181809D01*
X95840295Y-57181809D02*
X96554580Y-57515142D01*
X96554580Y-57515142D02*
X95554580Y-57515142D01*
X95554580Y-58562761D02*
X96030771Y-58229428D01*
X95554580Y-57991333D02*
X96554580Y-57991333D01*
X96554580Y-57991333D02*
X96554580Y-58372285D01*
X96554580Y-58372285D02*
X96506961Y-58467523D01*
X96506961Y-58467523D02*
X96459342Y-58515142D01*
X96459342Y-58515142D02*
X96364104Y-58562761D01*
X96364104Y-58562761D02*
X96221247Y-58562761D01*
X96221247Y-58562761D02*
X96126009Y-58515142D01*
X96126009Y-58515142D02*
X96078390Y-58467523D01*
X96078390Y-58467523D02*
X96030771Y-58372285D01*
X96030771Y-58372285D02*
X96030771Y-57991333D01*
X95554580Y-59515142D02*
X95554580Y-58943714D01*
X95554580Y-59229428D02*
X96554580Y-59229428D01*
X96554580Y-59229428D02*
X96411723Y-59134190D01*
X96411723Y-59134190D02*
X96316485Y-59038952D01*
X96316485Y-59038952D02*
X96268866Y-58943714D01*
D10*
X129743151Y-34100333D02*
X128981247Y-34100333D01*
X129362199Y-33719380D02*
X129362199Y-34481285D01*
X67871914Y-98249704D02*
X68348104Y-98249704D01*
X67776676Y-98535419D02*
X68110009Y-97535419D01*
X68110009Y-97535419D02*
X68443342Y-98535419D01*
X68967152Y-97535419D02*
X69062390Y-97535419D01*
X69062390Y-97535419D02*
X69157628Y-97583038D01*
X69157628Y-97583038D02*
X69205247Y-97630657D01*
X69205247Y-97630657D02*
X69252866Y-97725895D01*
X69252866Y-97725895D02*
X69300485Y-97916371D01*
X69300485Y-97916371D02*
X69300485Y-98154466D01*
X69300485Y-98154466D02*
X69252866Y-98344942D01*
X69252866Y-98344942D02*
X69205247Y-98440180D01*
X69205247Y-98440180D02*
X69157628Y-98487800D01*
X69157628Y-98487800D02*
X69062390Y-98535419D01*
X69062390Y-98535419D02*
X68967152Y-98535419D01*
X68967152Y-98535419D02*
X68871914Y-98487800D01*
X68871914Y-98487800D02*
X68824295Y-98440180D01*
X68824295Y-98440180D02*
X68776676Y-98344942D01*
X68776676Y-98344942D02*
X68729057Y-98154466D01*
X68729057Y-98154466D02*
X68729057Y-97916371D01*
X68729057Y-97916371D02*
X68776676Y-97725895D01*
X68776676Y-97725895D02*
X68824295Y-97630657D01*
X68824295Y-97630657D02*
X68871914Y-97583038D01*
X68871914Y-97583038D02*
X68967152Y-97535419D01*
X73736581Y-103802809D02*
X74069914Y-103802809D01*
X74212771Y-104326619D02*
X73736581Y-104326619D01*
X73736581Y-104326619D02*
X73736581Y-103326619D01*
X73736581Y-103326619D02*
X74212771Y-103326619D01*
X74641343Y-104326619D02*
X74641343Y-103326619D01*
X74641343Y-103326619D02*
X75212771Y-104326619D01*
X75212771Y-104326619D02*
X75212771Y-103326619D01*
X76308010Y-103326619D02*
X76879438Y-103326619D01*
X76593724Y-104326619D02*
X76593724Y-103326619D01*
X77593724Y-104279000D02*
X77498486Y-104326619D01*
X77498486Y-104326619D02*
X77308010Y-104326619D01*
X77308010Y-104326619D02*
X77212772Y-104279000D01*
X77212772Y-104279000D02*
X77165153Y-104183761D01*
X77165153Y-104183761D02*
X77165153Y-103802809D01*
X77165153Y-103802809D02*
X77212772Y-103707571D01*
X77212772Y-103707571D02*
X77308010Y-103659952D01*
X77308010Y-103659952D02*
X77498486Y-103659952D01*
X77498486Y-103659952D02*
X77593724Y-103707571D01*
X77593724Y-103707571D02*
X77641343Y-103802809D01*
X77641343Y-103802809D02*
X77641343Y-103898047D01*
X77641343Y-103898047D02*
X77165153Y-103993285D01*
X78069915Y-104326619D02*
X78069915Y-103659952D01*
X78069915Y-103755190D02*
X78117534Y-103707571D01*
X78117534Y-103707571D02*
X78212772Y-103659952D01*
X78212772Y-103659952D02*
X78355629Y-103659952D01*
X78355629Y-103659952D02*
X78450867Y-103707571D01*
X78450867Y-103707571D02*
X78498486Y-103802809D01*
X78498486Y-103802809D02*
X78498486Y-104326619D01*
X78498486Y-103802809D02*
X78546105Y-103707571D01*
X78546105Y-103707571D02*
X78641343Y-103659952D01*
X78641343Y-103659952D02*
X78784200Y-103659952D01*
X78784200Y-103659952D02*
X78879439Y-103707571D01*
X78879439Y-103707571D02*
X78927058Y-103802809D01*
X78927058Y-103802809D02*
X78927058Y-104326619D01*
X79403248Y-103659952D02*
X79403248Y-104659952D01*
X79403248Y-103707571D02*
X79498486Y-103659952D01*
X79498486Y-103659952D02*
X79688962Y-103659952D01*
X79688962Y-103659952D02*
X79784200Y-103707571D01*
X79784200Y-103707571D02*
X79831819Y-103755190D01*
X79831819Y-103755190D02*
X79879438Y-103850428D01*
X79879438Y-103850428D02*
X79879438Y-104136142D01*
X79879438Y-104136142D02*
X79831819Y-104231380D01*
X79831819Y-104231380D02*
X79784200Y-104279000D01*
X79784200Y-104279000D02*
X79688962Y-104326619D01*
X79688962Y-104326619D02*
X79498486Y-104326619D01*
X79498486Y-104326619D02*
X79403248Y-104279000D01*
X91217904Y-72543200D02*
X91360761Y-72590819D01*
X91360761Y-72590819D02*
X91598856Y-72590819D01*
X91598856Y-72590819D02*
X91694094Y-72543200D01*
X91694094Y-72543200D02*
X91741713Y-72495580D01*
X91741713Y-72495580D02*
X91789332Y-72400342D01*
X91789332Y-72400342D02*
X91789332Y-72305104D01*
X91789332Y-72305104D02*
X91741713Y-72209866D01*
X91741713Y-72209866D02*
X91694094Y-72162247D01*
X91694094Y-72162247D02*
X91598856Y-72114628D01*
X91598856Y-72114628D02*
X91408380Y-72067009D01*
X91408380Y-72067009D02*
X91313142Y-72019390D01*
X91313142Y-72019390D02*
X91265523Y-71971771D01*
X91265523Y-71971771D02*
X91217904Y-71876533D01*
X91217904Y-71876533D02*
X91217904Y-71781295D01*
X91217904Y-71781295D02*
X91265523Y-71686057D01*
X91265523Y-71686057D02*
X91313142Y-71638438D01*
X91313142Y-71638438D02*
X91408380Y-71590819D01*
X91408380Y-71590819D02*
X91646475Y-71590819D01*
X91646475Y-71590819D02*
X91789332Y-71638438D01*
X92217904Y-72590819D02*
X92217904Y-71590819D01*
X92217904Y-71590819D02*
X92455999Y-71590819D01*
X92455999Y-71590819D02*
X92598856Y-71638438D01*
X92598856Y-71638438D02*
X92694094Y-71733676D01*
X92694094Y-71733676D02*
X92741713Y-71828914D01*
X92741713Y-71828914D02*
X92789332Y-72019390D01*
X92789332Y-72019390D02*
X92789332Y-72162247D01*
X92789332Y-72162247D02*
X92741713Y-72352723D01*
X92741713Y-72352723D02*
X92694094Y-72447961D01*
X92694094Y-72447961D02*
X92598856Y-72543200D01*
X92598856Y-72543200D02*
X92455999Y-72590819D01*
X92455999Y-72590819D02*
X92217904Y-72590819D01*
X93170285Y-72305104D02*
X93646475Y-72305104D01*
X93075047Y-72590819D02*
X93408380Y-71590819D01*
X93408380Y-71590819D02*
X93741713Y-72590819D01*
X147713723Y-136651419D02*
X147237533Y-136651419D01*
X147237533Y-136651419D02*
X147189914Y-137127609D01*
X147189914Y-137127609D02*
X147237533Y-137079990D01*
X147237533Y-137079990D02*
X147332771Y-137032371D01*
X147332771Y-137032371D02*
X147570866Y-137032371D01*
X147570866Y-137032371D02*
X147666104Y-137079990D01*
X147666104Y-137079990D02*
X147713723Y-137127609D01*
X147713723Y-137127609D02*
X147761342Y-137222847D01*
X147761342Y-137222847D02*
X147761342Y-137460942D01*
X147761342Y-137460942D02*
X147713723Y-137556180D01*
X147713723Y-137556180D02*
X147666104Y-137603800D01*
X147666104Y-137603800D02*
X147570866Y-137651419D01*
X147570866Y-137651419D02*
X147332771Y-137651419D01*
X147332771Y-137651419D02*
X147237533Y-137603800D01*
X147237533Y-137603800D02*
X147189914Y-137556180D01*
X148047057Y-136651419D02*
X148380390Y-137651419D01*
X148380390Y-137651419D02*
X148713723Y-136651419D01*
X200599895Y-77478866D02*
X201361800Y-77478866D01*
X202361799Y-77859819D02*
X201790371Y-77859819D01*
X202076085Y-77859819D02*
X202076085Y-76859819D01*
X202076085Y-76859819D02*
X201980847Y-77002676D01*
X201980847Y-77002676D02*
X201885609Y-77097914D01*
X201885609Y-77097914D02*
X201790371Y-77145533D01*
X202742752Y-76955057D02*
X202790371Y-76907438D01*
X202790371Y-76907438D02*
X202885609Y-76859819D01*
X202885609Y-76859819D02*
X203123704Y-76859819D01*
X203123704Y-76859819D02*
X203218942Y-76907438D01*
X203218942Y-76907438D02*
X203266561Y-76955057D01*
X203266561Y-76955057D02*
X203314180Y-77050295D01*
X203314180Y-77050295D02*
X203314180Y-77145533D01*
X203314180Y-77145533D02*
X203266561Y-77288390D01*
X203266561Y-77288390D02*
X202695133Y-77859819D01*
X202695133Y-77859819D02*
X203314180Y-77859819D01*
X203599895Y-76859819D02*
X203933228Y-77859819D01*
X203933228Y-77859819D02*
X204266561Y-76859819D01*
X85230199Y-84946466D02*
X85992104Y-84946466D01*
X85611151Y-85327419D02*
X85611151Y-84565514D01*
X86420675Y-85279800D02*
X86563532Y-85327419D01*
X86563532Y-85327419D02*
X86801627Y-85327419D01*
X86801627Y-85327419D02*
X86896865Y-85279800D01*
X86896865Y-85279800D02*
X86944484Y-85232180D01*
X86944484Y-85232180D02*
X86992103Y-85136942D01*
X86992103Y-85136942D02*
X86992103Y-85041704D01*
X86992103Y-85041704D02*
X86944484Y-84946466D01*
X86944484Y-84946466D02*
X86896865Y-84898847D01*
X86896865Y-84898847D02*
X86801627Y-84851228D01*
X86801627Y-84851228D02*
X86611151Y-84803609D01*
X86611151Y-84803609D02*
X86515913Y-84755990D01*
X86515913Y-84755990D02*
X86468294Y-84708371D01*
X86468294Y-84708371D02*
X86420675Y-84613133D01*
X86420675Y-84613133D02*
X86420675Y-84517895D01*
X86420675Y-84517895D02*
X86468294Y-84422657D01*
X86468294Y-84422657D02*
X86515913Y-84375038D01*
X86515913Y-84375038D02*
X86611151Y-84327419D01*
X86611151Y-84327419D02*
X86849246Y-84327419D01*
X86849246Y-84327419D02*
X86992103Y-84375038D01*
X87801627Y-85279800D02*
X87706389Y-85327419D01*
X87706389Y-85327419D02*
X87515913Y-85327419D01*
X87515913Y-85327419D02*
X87420675Y-85279800D01*
X87420675Y-85279800D02*
X87373056Y-85184561D01*
X87373056Y-85184561D02*
X87373056Y-84803609D01*
X87373056Y-84803609D02*
X87420675Y-84708371D01*
X87420675Y-84708371D02*
X87515913Y-84660752D01*
X87515913Y-84660752D02*
X87706389Y-84660752D01*
X87706389Y-84660752D02*
X87801627Y-84708371D01*
X87801627Y-84708371D02*
X87849246Y-84803609D01*
X87849246Y-84803609D02*
X87849246Y-84898847D01*
X87849246Y-84898847D02*
X87373056Y-84994085D01*
X88277818Y-84660752D02*
X88277818Y-85327419D01*
X88277818Y-84755990D02*
X88325437Y-84708371D01*
X88325437Y-84708371D02*
X88420675Y-84660752D01*
X88420675Y-84660752D02*
X88563532Y-84660752D01*
X88563532Y-84660752D02*
X88658770Y-84708371D01*
X88658770Y-84708371D02*
X88706389Y-84803609D01*
X88706389Y-84803609D02*
X88706389Y-85327419D01*
X89134961Y-85279800D02*
X89230199Y-85327419D01*
X89230199Y-85327419D02*
X89420675Y-85327419D01*
X89420675Y-85327419D02*
X89515913Y-85279800D01*
X89515913Y-85279800D02*
X89563532Y-85184561D01*
X89563532Y-85184561D02*
X89563532Y-85136942D01*
X89563532Y-85136942D02*
X89515913Y-85041704D01*
X89515913Y-85041704D02*
X89420675Y-84994085D01*
X89420675Y-84994085D02*
X89277818Y-84994085D01*
X89277818Y-84994085D02*
X89182580Y-84946466D01*
X89182580Y-84946466D02*
X89134961Y-84851228D01*
X89134961Y-84851228D02*
X89134961Y-84803609D01*
X89134961Y-84803609D02*
X89182580Y-84708371D01*
X89182580Y-84708371D02*
X89277818Y-84660752D01*
X89277818Y-84660752D02*
X89420675Y-84660752D01*
X89420675Y-84660752D02*
X89515913Y-84708371D01*
X90373056Y-85279800D02*
X90277818Y-85327419D01*
X90277818Y-85327419D02*
X90087342Y-85327419D01*
X90087342Y-85327419D02*
X89992104Y-85279800D01*
X89992104Y-85279800D02*
X89944485Y-85184561D01*
X89944485Y-85184561D02*
X89944485Y-84803609D01*
X89944485Y-84803609D02*
X89992104Y-84708371D01*
X89992104Y-84708371D02*
X90087342Y-84660752D01*
X90087342Y-84660752D02*
X90277818Y-84660752D01*
X90277818Y-84660752D02*
X90373056Y-84708371D01*
X90373056Y-84708371D02*
X90420675Y-84803609D01*
X90420675Y-84803609D02*
X90420675Y-84898847D01*
X90420675Y-84898847D02*
X89944485Y-84994085D01*
X201920695Y-83625666D02*
X202682600Y-83625666D01*
X202301647Y-84006619D02*
X202301647Y-83244714D01*
X203682599Y-84006619D02*
X203111171Y-84006619D01*
X203396885Y-84006619D02*
X203396885Y-83006619D01*
X203396885Y-83006619D02*
X203301647Y-83149476D01*
X203301647Y-83149476D02*
X203206409Y-83244714D01*
X203206409Y-83244714D02*
X203111171Y-83292333D01*
X204063552Y-83101857D02*
X204111171Y-83054238D01*
X204111171Y-83054238D02*
X204206409Y-83006619D01*
X204206409Y-83006619D02*
X204444504Y-83006619D01*
X204444504Y-83006619D02*
X204539742Y-83054238D01*
X204539742Y-83054238D02*
X204587361Y-83101857D01*
X204587361Y-83101857D02*
X204634980Y-83197095D01*
X204634980Y-83197095D02*
X204634980Y-83292333D01*
X204634980Y-83292333D02*
X204587361Y-83435190D01*
X204587361Y-83435190D02*
X204015933Y-84006619D01*
X204015933Y-84006619D02*
X204634980Y-84006619D01*
X204920695Y-83006619D02*
X205254028Y-84006619D01*
X205254028Y-84006619D02*
X205587361Y-83006619D01*
X149148751Y-34303533D02*
X148386847Y-34303533D01*
X204676476Y-121882819D02*
X204676476Y-122597104D01*
X204676476Y-122597104D02*
X204628857Y-122739961D01*
X204628857Y-122739961D02*
X204533619Y-122835200D01*
X204533619Y-122835200D02*
X204390762Y-122882819D01*
X204390762Y-122882819D02*
X204295524Y-122882819D01*
X205676476Y-122882819D02*
X205105048Y-122882819D01*
X205390762Y-122882819D02*
X205390762Y-121882819D01*
X205390762Y-121882819D02*
X205295524Y-122025676D01*
X205295524Y-122025676D02*
X205200286Y-122120914D01*
X205200286Y-122120914D02*
X205105048Y-122168533D01*
X206057429Y-121978057D02*
X206105048Y-121930438D01*
X206105048Y-121930438D02*
X206200286Y-121882819D01*
X206200286Y-121882819D02*
X206438381Y-121882819D01*
X206438381Y-121882819D02*
X206533619Y-121930438D01*
X206533619Y-121930438D02*
X206581238Y-121978057D01*
X206581238Y-121978057D02*
X206628857Y-122073295D01*
X206628857Y-122073295D02*
X206628857Y-122168533D01*
X206628857Y-122168533D02*
X206581238Y-122311390D01*
X206581238Y-122311390D02*
X206009810Y-122882819D01*
X206009810Y-122882819D02*
X206628857Y-122882819D01*
X195873666Y-127251200D02*
X196016523Y-127298819D01*
X196016523Y-127298819D02*
X196254618Y-127298819D01*
X196254618Y-127298819D02*
X196349856Y-127251200D01*
X196349856Y-127251200D02*
X196397475Y-127203580D01*
X196397475Y-127203580D02*
X196445094Y-127108342D01*
X196445094Y-127108342D02*
X196445094Y-127013104D01*
X196445094Y-127013104D02*
X196397475Y-126917866D01*
X196397475Y-126917866D02*
X196349856Y-126870247D01*
X196349856Y-126870247D02*
X196254618Y-126822628D01*
X196254618Y-126822628D02*
X196064142Y-126775009D01*
X196064142Y-126775009D02*
X195968904Y-126727390D01*
X195968904Y-126727390D02*
X195921285Y-126679771D01*
X195921285Y-126679771D02*
X195873666Y-126584533D01*
X195873666Y-126584533D02*
X195873666Y-126489295D01*
X195873666Y-126489295D02*
X195921285Y-126394057D01*
X195921285Y-126394057D02*
X195968904Y-126346438D01*
X195968904Y-126346438D02*
X196064142Y-126298819D01*
X196064142Y-126298819D02*
X196302237Y-126298819D01*
X196302237Y-126298819D02*
X196445094Y-126346438D01*
X197254618Y-127251200D02*
X197159380Y-127298819D01*
X197159380Y-127298819D02*
X196968904Y-127298819D01*
X196968904Y-127298819D02*
X196873666Y-127251200D01*
X196873666Y-127251200D02*
X196826047Y-127155961D01*
X196826047Y-127155961D02*
X196826047Y-126775009D01*
X196826047Y-126775009D02*
X196873666Y-126679771D01*
X196873666Y-126679771D02*
X196968904Y-126632152D01*
X196968904Y-126632152D02*
X197159380Y-126632152D01*
X197159380Y-126632152D02*
X197254618Y-126679771D01*
X197254618Y-126679771D02*
X197302237Y-126775009D01*
X197302237Y-126775009D02*
X197302237Y-126870247D01*
X197302237Y-126870247D02*
X196826047Y-126965485D01*
X197730809Y-127298819D02*
X197730809Y-126632152D01*
X197730809Y-126822628D02*
X197778428Y-126727390D01*
X197778428Y-126727390D02*
X197826047Y-126679771D01*
X197826047Y-126679771D02*
X197921285Y-126632152D01*
X197921285Y-126632152D02*
X198016523Y-126632152D01*
X198254619Y-126632152D02*
X198492714Y-127298819D01*
X198492714Y-127298819D02*
X198730809Y-126632152D01*
X199254619Y-127298819D02*
X199159381Y-127251200D01*
X199159381Y-127251200D02*
X199111762Y-127203580D01*
X199111762Y-127203580D02*
X199064143Y-127108342D01*
X199064143Y-127108342D02*
X199064143Y-126822628D01*
X199064143Y-126822628D02*
X199111762Y-126727390D01*
X199111762Y-126727390D02*
X199159381Y-126679771D01*
X199159381Y-126679771D02*
X199254619Y-126632152D01*
X199254619Y-126632152D02*
X199397476Y-126632152D01*
X199397476Y-126632152D02*
X199492714Y-126679771D01*
X199492714Y-126679771D02*
X199540333Y-126727390D01*
X199540333Y-126727390D02*
X199587952Y-126822628D01*
X199587952Y-126822628D02*
X199587952Y-127108342D01*
X199587952Y-127108342D02*
X199540333Y-127203580D01*
X199540333Y-127203580D02*
X199492714Y-127251200D01*
X199492714Y-127251200D02*
X199397476Y-127298819D01*
X199397476Y-127298819D02*
X199254619Y-127298819D01*
X199921286Y-126298819D02*
X200540333Y-126298819D01*
X200540333Y-126298819D02*
X200207000Y-126679771D01*
X200207000Y-126679771D02*
X200349857Y-126679771D01*
X200349857Y-126679771D02*
X200445095Y-126727390D01*
X200445095Y-126727390D02*
X200492714Y-126775009D01*
X200492714Y-126775009D02*
X200540333Y-126870247D01*
X200540333Y-126870247D02*
X200540333Y-127108342D01*
X200540333Y-127108342D02*
X200492714Y-127203580D01*
X200492714Y-127203580D02*
X200445095Y-127251200D01*
X200445095Y-127251200D02*
X200349857Y-127298819D01*
X200349857Y-127298819D02*
X200064143Y-127298819D01*
X200064143Y-127298819D02*
X199968905Y-127251200D01*
X199968905Y-127251200D02*
X199921286Y-127203580D01*
X204549476Y-116167819D02*
X204549476Y-116882104D01*
X204549476Y-116882104D02*
X204501857Y-117024961D01*
X204501857Y-117024961D02*
X204406619Y-117120200D01*
X204406619Y-117120200D02*
X204263762Y-117167819D01*
X204263762Y-117167819D02*
X204168524Y-117167819D01*
X205549476Y-117167819D02*
X204978048Y-117167819D01*
X205263762Y-117167819D02*
X205263762Y-116167819D01*
X205263762Y-116167819D02*
X205168524Y-116310676D01*
X205168524Y-116310676D02*
X205073286Y-116405914D01*
X205073286Y-116405914D02*
X204978048Y-116453533D01*
X206501857Y-117167819D02*
X205930429Y-117167819D01*
X206216143Y-117167819D02*
X206216143Y-116167819D01*
X206216143Y-116167819D02*
X206120905Y-116310676D01*
X206120905Y-116310676D02*
X206025667Y-116405914D01*
X206025667Y-116405914D02*
X205930429Y-116453533D01*
X195873666Y-121028200D02*
X196016523Y-121075819D01*
X196016523Y-121075819D02*
X196254618Y-121075819D01*
X196254618Y-121075819D02*
X196349856Y-121028200D01*
X196349856Y-121028200D02*
X196397475Y-120980580D01*
X196397475Y-120980580D02*
X196445094Y-120885342D01*
X196445094Y-120885342D02*
X196445094Y-120790104D01*
X196445094Y-120790104D02*
X196397475Y-120694866D01*
X196397475Y-120694866D02*
X196349856Y-120647247D01*
X196349856Y-120647247D02*
X196254618Y-120599628D01*
X196254618Y-120599628D02*
X196064142Y-120552009D01*
X196064142Y-120552009D02*
X195968904Y-120504390D01*
X195968904Y-120504390D02*
X195921285Y-120456771D01*
X195921285Y-120456771D02*
X195873666Y-120361533D01*
X195873666Y-120361533D02*
X195873666Y-120266295D01*
X195873666Y-120266295D02*
X195921285Y-120171057D01*
X195921285Y-120171057D02*
X195968904Y-120123438D01*
X195968904Y-120123438D02*
X196064142Y-120075819D01*
X196064142Y-120075819D02*
X196302237Y-120075819D01*
X196302237Y-120075819D02*
X196445094Y-120123438D01*
X197254618Y-121028200D02*
X197159380Y-121075819D01*
X197159380Y-121075819D02*
X196968904Y-121075819D01*
X196968904Y-121075819D02*
X196873666Y-121028200D01*
X196873666Y-121028200D02*
X196826047Y-120932961D01*
X196826047Y-120932961D02*
X196826047Y-120552009D01*
X196826047Y-120552009D02*
X196873666Y-120456771D01*
X196873666Y-120456771D02*
X196968904Y-120409152D01*
X196968904Y-120409152D02*
X197159380Y-120409152D01*
X197159380Y-120409152D02*
X197254618Y-120456771D01*
X197254618Y-120456771D02*
X197302237Y-120552009D01*
X197302237Y-120552009D02*
X197302237Y-120647247D01*
X197302237Y-120647247D02*
X196826047Y-120742485D01*
X197730809Y-121075819D02*
X197730809Y-120409152D01*
X197730809Y-120599628D02*
X197778428Y-120504390D01*
X197778428Y-120504390D02*
X197826047Y-120456771D01*
X197826047Y-120456771D02*
X197921285Y-120409152D01*
X197921285Y-120409152D02*
X198016523Y-120409152D01*
X198254619Y-120409152D02*
X198492714Y-121075819D01*
X198492714Y-121075819D02*
X198730809Y-120409152D01*
X199254619Y-121075819D02*
X199159381Y-121028200D01*
X199159381Y-121028200D02*
X199111762Y-120980580D01*
X199111762Y-120980580D02*
X199064143Y-120885342D01*
X199064143Y-120885342D02*
X199064143Y-120599628D01*
X199064143Y-120599628D02*
X199111762Y-120504390D01*
X199111762Y-120504390D02*
X199159381Y-120456771D01*
X199159381Y-120456771D02*
X199254619Y-120409152D01*
X199254619Y-120409152D02*
X199397476Y-120409152D01*
X199397476Y-120409152D02*
X199492714Y-120456771D01*
X199492714Y-120456771D02*
X199540333Y-120504390D01*
X199540333Y-120504390D02*
X199587952Y-120599628D01*
X199587952Y-120599628D02*
X199587952Y-120885342D01*
X199587952Y-120885342D02*
X199540333Y-120980580D01*
X199540333Y-120980580D02*
X199492714Y-121028200D01*
X199492714Y-121028200D02*
X199397476Y-121075819D01*
X199397476Y-121075819D02*
X199254619Y-121075819D01*
X199968905Y-120171057D02*
X200016524Y-120123438D01*
X200016524Y-120123438D02*
X200111762Y-120075819D01*
X200111762Y-120075819D02*
X200349857Y-120075819D01*
X200349857Y-120075819D02*
X200445095Y-120123438D01*
X200445095Y-120123438D02*
X200492714Y-120171057D01*
X200492714Y-120171057D02*
X200540333Y-120266295D01*
X200540333Y-120266295D02*
X200540333Y-120361533D01*
X200540333Y-120361533D02*
X200492714Y-120504390D01*
X200492714Y-120504390D02*
X199921286Y-121075819D01*
X199921286Y-121075819D02*
X200540333Y-121075819D01*
X204549476Y-112357819D02*
X204549476Y-113072104D01*
X204549476Y-113072104D02*
X204501857Y-113214961D01*
X204501857Y-113214961D02*
X204406619Y-113310200D01*
X204406619Y-113310200D02*
X204263762Y-113357819D01*
X204263762Y-113357819D02*
X204168524Y-113357819D01*
X205549476Y-113357819D02*
X204978048Y-113357819D01*
X205263762Y-113357819D02*
X205263762Y-112357819D01*
X205263762Y-112357819D02*
X205168524Y-112500676D01*
X205168524Y-112500676D02*
X205073286Y-112595914D01*
X205073286Y-112595914D02*
X204978048Y-112643533D01*
X206168524Y-112357819D02*
X206263762Y-112357819D01*
X206263762Y-112357819D02*
X206359000Y-112405438D01*
X206359000Y-112405438D02*
X206406619Y-112453057D01*
X206406619Y-112453057D02*
X206454238Y-112548295D01*
X206454238Y-112548295D02*
X206501857Y-112738771D01*
X206501857Y-112738771D02*
X206501857Y-112976866D01*
X206501857Y-112976866D02*
X206454238Y-113167342D01*
X206454238Y-113167342D02*
X206406619Y-113262580D01*
X206406619Y-113262580D02*
X206359000Y-113310200D01*
X206359000Y-113310200D02*
X206263762Y-113357819D01*
X206263762Y-113357819D02*
X206168524Y-113357819D01*
X206168524Y-113357819D02*
X206073286Y-113310200D01*
X206073286Y-113310200D02*
X206025667Y-113262580D01*
X206025667Y-113262580D02*
X205978048Y-113167342D01*
X205978048Y-113167342D02*
X205930429Y-112976866D01*
X205930429Y-112976866D02*
X205930429Y-112738771D01*
X205930429Y-112738771D02*
X205978048Y-112548295D01*
X205978048Y-112548295D02*
X206025667Y-112453057D01*
X206025667Y-112453057D02*
X206073286Y-112405438D01*
X206073286Y-112405438D02*
X206168524Y-112357819D01*
X195873666Y-114662200D02*
X196016523Y-114709819D01*
X196016523Y-114709819D02*
X196254618Y-114709819D01*
X196254618Y-114709819D02*
X196349856Y-114662200D01*
X196349856Y-114662200D02*
X196397475Y-114614580D01*
X196397475Y-114614580D02*
X196445094Y-114519342D01*
X196445094Y-114519342D02*
X196445094Y-114424104D01*
X196445094Y-114424104D02*
X196397475Y-114328866D01*
X196397475Y-114328866D02*
X196349856Y-114281247D01*
X196349856Y-114281247D02*
X196254618Y-114233628D01*
X196254618Y-114233628D02*
X196064142Y-114186009D01*
X196064142Y-114186009D02*
X195968904Y-114138390D01*
X195968904Y-114138390D02*
X195921285Y-114090771D01*
X195921285Y-114090771D02*
X195873666Y-113995533D01*
X195873666Y-113995533D02*
X195873666Y-113900295D01*
X195873666Y-113900295D02*
X195921285Y-113805057D01*
X195921285Y-113805057D02*
X195968904Y-113757438D01*
X195968904Y-113757438D02*
X196064142Y-113709819D01*
X196064142Y-113709819D02*
X196302237Y-113709819D01*
X196302237Y-113709819D02*
X196445094Y-113757438D01*
X197254618Y-114662200D02*
X197159380Y-114709819D01*
X197159380Y-114709819D02*
X196968904Y-114709819D01*
X196968904Y-114709819D02*
X196873666Y-114662200D01*
X196873666Y-114662200D02*
X196826047Y-114566961D01*
X196826047Y-114566961D02*
X196826047Y-114186009D01*
X196826047Y-114186009D02*
X196873666Y-114090771D01*
X196873666Y-114090771D02*
X196968904Y-114043152D01*
X196968904Y-114043152D02*
X197159380Y-114043152D01*
X197159380Y-114043152D02*
X197254618Y-114090771D01*
X197254618Y-114090771D02*
X197302237Y-114186009D01*
X197302237Y-114186009D02*
X197302237Y-114281247D01*
X197302237Y-114281247D02*
X196826047Y-114376485D01*
X197730809Y-114709819D02*
X197730809Y-114043152D01*
X197730809Y-114233628D02*
X197778428Y-114138390D01*
X197778428Y-114138390D02*
X197826047Y-114090771D01*
X197826047Y-114090771D02*
X197921285Y-114043152D01*
X197921285Y-114043152D02*
X198016523Y-114043152D01*
X198254619Y-114043152D02*
X198492714Y-114709819D01*
X198492714Y-114709819D02*
X198730809Y-114043152D01*
X199254619Y-114709819D02*
X199159381Y-114662200D01*
X199159381Y-114662200D02*
X199111762Y-114614580D01*
X199111762Y-114614580D02*
X199064143Y-114519342D01*
X199064143Y-114519342D02*
X199064143Y-114233628D01*
X199064143Y-114233628D02*
X199111762Y-114138390D01*
X199111762Y-114138390D02*
X199159381Y-114090771D01*
X199159381Y-114090771D02*
X199254619Y-114043152D01*
X199254619Y-114043152D02*
X199397476Y-114043152D01*
X199397476Y-114043152D02*
X199492714Y-114090771D01*
X199492714Y-114090771D02*
X199540333Y-114138390D01*
X199540333Y-114138390D02*
X199587952Y-114233628D01*
X199587952Y-114233628D02*
X199587952Y-114519342D01*
X199587952Y-114519342D02*
X199540333Y-114614580D01*
X199540333Y-114614580D02*
X199492714Y-114662200D01*
X199492714Y-114662200D02*
X199397476Y-114709819D01*
X199397476Y-114709819D02*
X199254619Y-114709819D01*
X200540333Y-114709819D02*
X199968905Y-114709819D01*
X200254619Y-114709819D02*
X200254619Y-113709819D01*
X200254619Y-113709819D02*
X200159381Y-113852676D01*
X200159381Y-113852676D02*
X200064143Y-113947914D01*
X200064143Y-113947914D02*
X199968905Y-113995533D01*
X85431666Y-54312819D02*
X85431666Y-55027104D01*
X85431666Y-55027104D02*
X85384047Y-55169961D01*
X85384047Y-55169961D02*
X85288809Y-55265200D01*
X85288809Y-55265200D02*
X85145952Y-55312819D01*
X85145952Y-55312819D02*
X85050714Y-55312819D01*
X85955476Y-55312819D02*
X86145952Y-55312819D01*
X86145952Y-55312819D02*
X86241190Y-55265200D01*
X86241190Y-55265200D02*
X86288809Y-55217580D01*
X86288809Y-55217580D02*
X86384047Y-55074723D01*
X86384047Y-55074723D02*
X86431666Y-54884247D01*
X86431666Y-54884247D02*
X86431666Y-54503295D01*
X86431666Y-54503295D02*
X86384047Y-54408057D01*
X86384047Y-54408057D02*
X86336428Y-54360438D01*
X86336428Y-54360438D02*
X86241190Y-54312819D01*
X86241190Y-54312819D02*
X86050714Y-54312819D01*
X86050714Y-54312819D02*
X85955476Y-54360438D01*
X85955476Y-54360438D02*
X85907857Y-54408057D01*
X85907857Y-54408057D02*
X85860238Y-54503295D01*
X85860238Y-54503295D02*
X85860238Y-54741390D01*
X85860238Y-54741390D02*
X85907857Y-54836628D01*
X85907857Y-54836628D02*
X85955476Y-54884247D01*
X85955476Y-54884247D02*
X86050714Y-54931866D01*
X86050714Y-54931866D02*
X86241190Y-54931866D01*
X86241190Y-54931866D02*
X86336428Y-54884247D01*
X86336428Y-54884247D02*
X86384047Y-54836628D01*
X86384047Y-54836628D02*
X86431666Y-54741390D01*
X84645952Y-61512819D02*
X84169762Y-61512819D01*
X84169762Y-61512819D02*
X84169762Y-60512819D01*
X84979286Y-61512819D02*
X84979286Y-60846152D01*
X84979286Y-60512819D02*
X84931667Y-60560438D01*
X84931667Y-60560438D02*
X84979286Y-60608057D01*
X84979286Y-60608057D02*
X85026905Y-60560438D01*
X85026905Y-60560438D02*
X84979286Y-60512819D01*
X84979286Y-60512819D02*
X84979286Y-60608057D01*
X85884047Y-60846152D02*
X85884047Y-61655676D01*
X85884047Y-61655676D02*
X85836428Y-61750914D01*
X85836428Y-61750914D02*
X85788809Y-61798533D01*
X85788809Y-61798533D02*
X85693571Y-61846152D01*
X85693571Y-61846152D02*
X85550714Y-61846152D01*
X85550714Y-61846152D02*
X85455476Y-61798533D01*
X85884047Y-61465200D02*
X85788809Y-61512819D01*
X85788809Y-61512819D02*
X85598333Y-61512819D01*
X85598333Y-61512819D02*
X85503095Y-61465200D01*
X85503095Y-61465200D02*
X85455476Y-61417580D01*
X85455476Y-61417580D02*
X85407857Y-61322342D01*
X85407857Y-61322342D02*
X85407857Y-61036628D01*
X85407857Y-61036628D02*
X85455476Y-60941390D01*
X85455476Y-60941390D02*
X85503095Y-60893771D01*
X85503095Y-60893771D02*
X85598333Y-60846152D01*
X85598333Y-60846152D02*
X85788809Y-60846152D01*
X85788809Y-60846152D02*
X85884047Y-60893771D01*
X86360238Y-61512819D02*
X86360238Y-60512819D01*
X86788809Y-61512819D02*
X86788809Y-60989009D01*
X86788809Y-60989009D02*
X86741190Y-60893771D01*
X86741190Y-60893771D02*
X86645952Y-60846152D01*
X86645952Y-60846152D02*
X86503095Y-60846152D01*
X86503095Y-60846152D02*
X86407857Y-60893771D01*
X86407857Y-60893771D02*
X86360238Y-60941390D01*
X87122143Y-60846152D02*
X87503095Y-60846152D01*
X87265000Y-60512819D02*
X87265000Y-61369961D01*
X87265000Y-61369961D02*
X87312619Y-61465200D01*
X87312619Y-61465200D02*
X87407857Y-61512819D01*
X87407857Y-61512819D02*
X87503095Y-61512819D01*
X74723666Y-72098819D02*
X74723666Y-72813104D01*
X74723666Y-72813104D02*
X74676047Y-72955961D01*
X74676047Y-72955961D02*
X74580809Y-73051200D01*
X74580809Y-73051200D02*
X74437952Y-73098819D01*
X74437952Y-73098819D02*
X74342714Y-73098819D01*
X75342714Y-72527390D02*
X75247476Y-72479771D01*
X75247476Y-72479771D02*
X75199857Y-72432152D01*
X75199857Y-72432152D02*
X75152238Y-72336914D01*
X75152238Y-72336914D02*
X75152238Y-72289295D01*
X75152238Y-72289295D02*
X75199857Y-72194057D01*
X75199857Y-72194057D02*
X75247476Y-72146438D01*
X75247476Y-72146438D02*
X75342714Y-72098819D01*
X75342714Y-72098819D02*
X75533190Y-72098819D01*
X75533190Y-72098819D02*
X75628428Y-72146438D01*
X75628428Y-72146438D02*
X75676047Y-72194057D01*
X75676047Y-72194057D02*
X75723666Y-72289295D01*
X75723666Y-72289295D02*
X75723666Y-72336914D01*
X75723666Y-72336914D02*
X75676047Y-72432152D01*
X75676047Y-72432152D02*
X75628428Y-72479771D01*
X75628428Y-72479771D02*
X75533190Y-72527390D01*
X75533190Y-72527390D02*
X75342714Y-72527390D01*
X75342714Y-72527390D02*
X75247476Y-72575009D01*
X75247476Y-72575009D02*
X75199857Y-72622628D01*
X75199857Y-72622628D02*
X75152238Y-72717866D01*
X75152238Y-72717866D02*
X75152238Y-72908342D01*
X75152238Y-72908342D02*
X75199857Y-73003580D01*
X75199857Y-73003580D02*
X75247476Y-73051200D01*
X75247476Y-73051200D02*
X75342714Y-73098819D01*
X75342714Y-73098819D02*
X75533190Y-73098819D01*
X75533190Y-73098819D02*
X75628428Y-73051200D01*
X75628428Y-73051200D02*
X75676047Y-73003580D01*
X75676047Y-73003580D02*
X75723666Y-72908342D01*
X75723666Y-72908342D02*
X75723666Y-72717866D01*
X75723666Y-72717866D02*
X75676047Y-72622628D01*
X75676047Y-72622628D02*
X75628428Y-72575009D01*
X75628428Y-72575009D02*
X75533190Y-72527390D01*
X80486714Y-76721104D02*
X80962904Y-76721104D01*
X80391476Y-77006819D02*
X80724809Y-76006819D01*
X80724809Y-76006819D02*
X81058142Y-77006819D01*
X81391476Y-77006819D02*
X81391476Y-76340152D01*
X81391476Y-76530628D02*
X81439095Y-76435390D01*
X81439095Y-76435390D02*
X81486714Y-76387771D01*
X81486714Y-76387771D02*
X81581952Y-76340152D01*
X81581952Y-76340152D02*
X81677190Y-76340152D01*
X82010524Y-77006819D02*
X82010524Y-76340152D01*
X82010524Y-76435390D02*
X82058143Y-76387771D01*
X82058143Y-76387771D02*
X82153381Y-76340152D01*
X82153381Y-76340152D02*
X82296238Y-76340152D01*
X82296238Y-76340152D02*
X82391476Y-76387771D01*
X82391476Y-76387771D02*
X82439095Y-76483009D01*
X82439095Y-76483009D02*
X82439095Y-77006819D01*
X82439095Y-76483009D02*
X82486714Y-76387771D01*
X82486714Y-76387771D02*
X82581952Y-76340152D01*
X82581952Y-76340152D02*
X82724809Y-76340152D01*
X82724809Y-76340152D02*
X82820048Y-76387771D01*
X82820048Y-76387771D02*
X82867667Y-76483009D01*
X82867667Y-76483009D02*
X82867667Y-77006819D01*
X75739666Y-65367819D02*
X75739666Y-66082104D01*
X75739666Y-66082104D02*
X75692047Y-66224961D01*
X75692047Y-66224961D02*
X75596809Y-66320200D01*
X75596809Y-66320200D02*
X75453952Y-66367819D01*
X75453952Y-66367819D02*
X75358714Y-66367819D01*
X76120619Y-65367819D02*
X76787285Y-65367819D01*
X76787285Y-65367819D02*
X76358714Y-66367819D01*
X78423380Y-68958200D02*
X78566237Y-69005819D01*
X78566237Y-69005819D02*
X78804332Y-69005819D01*
X78804332Y-69005819D02*
X78899570Y-68958200D01*
X78899570Y-68958200D02*
X78947189Y-68910580D01*
X78947189Y-68910580D02*
X78994808Y-68815342D01*
X78994808Y-68815342D02*
X78994808Y-68720104D01*
X78994808Y-68720104D02*
X78947189Y-68624866D01*
X78947189Y-68624866D02*
X78899570Y-68577247D01*
X78899570Y-68577247D02*
X78804332Y-68529628D01*
X78804332Y-68529628D02*
X78613856Y-68482009D01*
X78613856Y-68482009D02*
X78518618Y-68434390D01*
X78518618Y-68434390D02*
X78470999Y-68386771D01*
X78470999Y-68386771D02*
X78423380Y-68291533D01*
X78423380Y-68291533D02*
X78423380Y-68196295D01*
X78423380Y-68196295D02*
X78470999Y-68101057D01*
X78470999Y-68101057D02*
X78518618Y-68053438D01*
X78518618Y-68053438D02*
X78613856Y-68005819D01*
X78613856Y-68005819D02*
X78851951Y-68005819D01*
X78851951Y-68005819D02*
X78994808Y-68053438D01*
X79566237Y-69005819D02*
X79470999Y-68958200D01*
X79470999Y-68958200D02*
X79423380Y-68910580D01*
X79423380Y-68910580D02*
X79375761Y-68815342D01*
X79375761Y-68815342D02*
X79375761Y-68529628D01*
X79375761Y-68529628D02*
X79423380Y-68434390D01*
X79423380Y-68434390D02*
X79470999Y-68386771D01*
X79470999Y-68386771D02*
X79566237Y-68339152D01*
X79566237Y-68339152D02*
X79709094Y-68339152D01*
X79709094Y-68339152D02*
X79804332Y-68386771D01*
X79804332Y-68386771D02*
X79851951Y-68434390D01*
X79851951Y-68434390D02*
X79899570Y-68529628D01*
X79899570Y-68529628D02*
X79899570Y-68815342D01*
X79899570Y-68815342D02*
X79851951Y-68910580D01*
X79851951Y-68910580D02*
X79804332Y-68958200D01*
X79804332Y-68958200D02*
X79709094Y-69005819D01*
X79709094Y-69005819D02*
X79566237Y-69005819D01*
X80328142Y-68339152D02*
X80328142Y-69005819D01*
X80328142Y-68434390D02*
X80375761Y-68386771D01*
X80375761Y-68386771D02*
X80470999Y-68339152D01*
X80470999Y-68339152D02*
X80613856Y-68339152D01*
X80613856Y-68339152D02*
X80709094Y-68386771D01*
X80709094Y-68386771D02*
X80756713Y-68482009D01*
X80756713Y-68482009D02*
X80756713Y-69005819D01*
X81661475Y-69005819D02*
X81661475Y-68482009D01*
X81661475Y-68482009D02*
X81613856Y-68386771D01*
X81613856Y-68386771D02*
X81518618Y-68339152D01*
X81518618Y-68339152D02*
X81328142Y-68339152D01*
X81328142Y-68339152D02*
X81232904Y-68386771D01*
X81661475Y-68958200D02*
X81566237Y-69005819D01*
X81566237Y-69005819D02*
X81328142Y-69005819D01*
X81328142Y-69005819D02*
X81232904Y-68958200D01*
X81232904Y-68958200D02*
X81185285Y-68862961D01*
X81185285Y-68862961D02*
X81185285Y-68767723D01*
X81185285Y-68767723D02*
X81232904Y-68672485D01*
X81232904Y-68672485D02*
X81328142Y-68624866D01*
X81328142Y-68624866D02*
X81566237Y-68624866D01*
X81566237Y-68624866D02*
X81661475Y-68577247D01*
X82137666Y-69005819D02*
X82137666Y-68339152D01*
X82137666Y-68529628D02*
X82185285Y-68434390D01*
X82185285Y-68434390D02*
X82232904Y-68386771D01*
X82232904Y-68386771D02*
X82328142Y-68339152D01*
X82328142Y-68339152D02*
X82423380Y-68339152D01*
X83518619Y-69005819D02*
X83518619Y-68005819D01*
X83518619Y-68005819D02*
X83899571Y-68005819D01*
X83899571Y-68005819D02*
X83994809Y-68053438D01*
X83994809Y-68053438D02*
X84042428Y-68101057D01*
X84042428Y-68101057D02*
X84090047Y-68196295D01*
X84090047Y-68196295D02*
X84090047Y-68339152D01*
X84090047Y-68339152D02*
X84042428Y-68434390D01*
X84042428Y-68434390D02*
X83994809Y-68482009D01*
X83994809Y-68482009D02*
X83899571Y-68529628D01*
X83899571Y-68529628D02*
X83518619Y-68529628D01*
X84661476Y-69005819D02*
X84566238Y-68958200D01*
X84566238Y-68958200D02*
X84518619Y-68910580D01*
X84518619Y-68910580D02*
X84471000Y-68815342D01*
X84471000Y-68815342D02*
X84471000Y-68529628D01*
X84471000Y-68529628D02*
X84518619Y-68434390D01*
X84518619Y-68434390D02*
X84566238Y-68386771D01*
X84566238Y-68386771D02*
X84661476Y-68339152D01*
X84661476Y-68339152D02*
X84804333Y-68339152D01*
X84804333Y-68339152D02*
X84899571Y-68386771D01*
X84899571Y-68386771D02*
X84947190Y-68434390D01*
X84947190Y-68434390D02*
X84994809Y-68529628D01*
X84994809Y-68529628D02*
X84994809Y-68815342D01*
X84994809Y-68815342D02*
X84947190Y-68910580D01*
X84947190Y-68910580D02*
X84899571Y-68958200D01*
X84899571Y-68958200D02*
X84804333Y-69005819D01*
X84804333Y-69005819D02*
X84661476Y-69005819D01*
X85328143Y-68339152D02*
X85518619Y-69005819D01*
X85518619Y-69005819D02*
X85709095Y-68529628D01*
X85709095Y-68529628D02*
X85899571Y-69005819D01*
X85899571Y-69005819D02*
X86090047Y-68339152D01*
X86851952Y-68958200D02*
X86756714Y-69005819D01*
X86756714Y-69005819D02*
X86566238Y-69005819D01*
X86566238Y-69005819D02*
X86471000Y-68958200D01*
X86471000Y-68958200D02*
X86423381Y-68862961D01*
X86423381Y-68862961D02*
X86423381Y-68482009D01*
X86423381Y-68482009D02*
X86471000Y-68386771D01*
X86471000Y-68386771D02*
X86566238Y-68339152D01*
X86566238Y-68339152D02*
X86756714Y-68339152D01*
X86756714Y-68339152D02*
X86851952Y-68386771D01*
X86851952Y-68386771D02*
X86899571Y-68482009D01*
X86899571Y-68482009D02*
X86899571Y-68577247D01*
X86899571Y-68577247D02*
X86423381Y-68672485D01*
X87328143Y-69005819D02*
X87328143Y-68339152D01*
X87328143Y-68529628D02*
X87375762Y-68434390D01*
X87375762Y-68434390D02*
X87423381Y-68386771D01*
X87423381Y-68386771D02*
X87518619Y-68339152D01*
X87518619Y-68339152D02*
X87613857Y-68339152D01*
X95678666Y-79440819D02*
X95678666Y-80155104D01*
X95678666Y-80155104D02*
X95631047Y-80297961D01*
X95631047Y-80297961D02*
X95535809Y-80393200D01*
X95535809Y-80393200D02*
X95392952Y-80440819D01*
X95392952Y-80440819D02*
X95297714Y-80440819D01*
X96631047Y-79440819D02*
X96154857Y-79440819D01*
X96154857Y-79440819D02*
X96107238Y-79917009D01*
X96107238Y-79917009D02*
X96154857Y-79869390D01*
X96154857Y-79869390D02*
X96250095Y-79821771D01*
X96250095Y-79821771D02*
X96488190Y-79821771D01*
X96488190Y-79821771D02*
X96583428Y-79869390D01*
X96583428Y-79869390D02*
X96631047Y-79917009D01*
X96631047Y-79917009D02*
X96678666Y-80012247D01*
X96678666Y-80012247D02*
X96678666Y-80250342D01*
X96678666Y-80250342D02*
X96631047Y-80345580D01*
X96631047Y-80345580D02*
X96583428Y-80393200D01*
X96583428Y-80393200D02*
X96488190Y-80440819D01*
X96488190Y-80440819D02*
X96250095Y-80440819D01*
X96250095Y-80440819D02*
X96154857Y-80393200D01*
X96154857Y-80393200D02*
X96107238Y-80345580D01*
X76509666Y-125170619D02*
X76509666Y-125884904D01*
X76509666Y-125884904D02*
X76462047Y-126027761D01*
X76462047Y-126027761D02*
X76366809Y-126123000D01*
X76366809Y-126123000D02*
X76223952Y-126170619D01*
X76223952Y-126170619D02*
X76128714Y-126170619D01*
X76985857Y-126170619D02*
X76985857Y-125170619D01*
X76985857Y-125170619D02*
X77366809Y-125170619D01*
X77366809Y-125170619D02*
X77462047Y-125218238D01*
X77462047Y-125218238D02*
X77509666Y-125265857D01*
X77509666Y-125265857D02*
X77557285Y-125361095D01*
X77557285Y-125361095D02*
X77557285Y-125503952D01*
X77557285Y-125503952D02*
X77509666Y-125599190D01*
X77509666Y-125599190D02*
X77462047Y-125646809D01*
X77462047Y-125646809D02*
X77366809Y-125694428D01*
X77366809Y-125694428D02*
X76985857Y-125694428D01*
X78128714Y-125599190D02*
X78033476Y-125551571D01*
X78033476Y-125551571D02*
X77985857Y-125503952D01*
X77985857Y-125503952D02*
X77938238Y-125408714D01*
X77938238Y-125408714D02*
X77938238Y-125361095D01*
X77938238Y-125361095D02*
X77985857Y-125265857D01*
X77985857Y-125265857D02*
X78033476Y-125218238D01*
X78033476Y-125218238D02*
X78128714Y-125170619D01*
X78128714Y-125170619D02*
X78319190Y-125170619D01*
X78319190Y-125170619D02*
X78414428Y-125218238D01*
X78414428Y-125218238D02*
X78462047Y-125265857D01*
X78462047Y-125265857D02*
X78509666Y-125361095D01*
X78509666Y-125361095D02*
X78509666Y-125408714D01*
X78509666Y-125408714D02*
X78462047Y-125503952D01*
X78462047Y-125503952D02*
X78414428Y-125551571D01*
X78414428Y-125551571D02*
X78319190Y-125599190D01*
X78319190Y-125599190D02*
X78128714Y-125599190D01*
X78128714Y-125599190D02*
X78033476Y-125646809D01*
X78033476Y-125646809D02*
X77985857Y-125694428D01*
X77985857Y-125694428D02*
X77938238Y-125789666D01*
X77938238Y-125789666D02*
X77938238Y-125980142D01*
X77938238Y-125980142D02*
X77985857Y-126075380D01*
X77985857Y-126075380D02*
X78033476Y-126123000D01*
X78033476Y-126123000D02*
X78128714Y-126170619D01*
X78128714Y-126170619D02*
X78319190Y-126170619D01*
X78319190Y-126170619D02*
X78414428Y-126123000D01*
X78414428Y-126123000D02*
X78462047Y-126075380D01*
X78462047Y-126075380D02*
X78509666Y-125980142D01*
X78509666Y-125980142D02*
X78509666Y-125789666D01*
X78509666Y-125789666D02*
X78462047Y-125694428D01*
X78462047Y-125694428D02*
X78414428Y-125646809D01*
X78414428Y-125646809D02*
X78319190Y-125599190D01*
X97648733Y-124144980D02*
X97601114Y-124192600D01*
X97601114Y-124192600D02*
X97458257Y-124240219D01*
X97458257Y-124240219D02*
X97363019Y-124240219D01*
X97363019Y-124240219D02*
X97220162Y-124192600D01*
X97220162Y-124192600D02*
X97124924Y-124097361D01*
X97124924Y-124097361D02*
X97077305Y-124002123D01*
X97077305Y-124002123D02*
X97029686Y-123811647D01*
X97029686Y-123811647D02*
X97029686Y-123668790D01*
X97029686Y-123668790D02*
X97077305Y-123478314D01*
X97077305Y-123478314D02*
X97124924Y-123383076D01*
X97124924Y-123383076D02*
X97220162Y-123287838D01*
X97220162Y-123287838D02*
X97363019Y-123240219D01*
X97363019Y-123240219D02*
X97458257Y-123240219D01*
X97458257Y-123240219D02*
X97601114Y-123287838D01*
X97601114Y-123287838D02*
X97648733Y-123335457D01*
X97982067Y-123240219D02*
X98648733Y-123240219D01*
X98648733Y-123240219D02*
X98220162Y-124240219D01*
X162599905Y-33363819D02*
X163171333Y-33363819D01*
X162885619Y-34363819D02*
X162885619Y-33363819D01*
X163504667Y-34363819D02*
X163504667Y-33363819D01*
X163504667Y-33363819D02*
X163885619Y-33363819D01*
X163885619Y-33363819D02*
X163980857Y-33411438D01*
X163980857Y-33411438D02*
X164028476Y-33459057D01*
X164028476Y-33459057D02*
X164076095Y-33554295D01*
X164076095Y-33554295D02*
X164076095Y-33697152D01*
X164076095Y-33697152D02*
X164028476Y-33792390D01*
X164028476Y-33792390D02*
X163980857Y-33840009D01*
X163980857Y-33840009D02*
X163885619Y-33887628D01*
X163885619Y-33887628D02*
X163504667Y-33887628D01*
X165028476Y-34363819D02*
X164457048Y-34363819D01*
X164742762Y-34363819D02*
X164742762Y-33363819D01*
X164742762Y-33363819D02*
X164647524Y-33506676D01*
X164647524Y-33506676D02*
X164552286Y-33601914D01*
X164552286Y-33601914D02*
X164457048Y-33649533D01*
X165980857Y-34363819D02*
X165409429Y-34363819D01*
X165695143Y-34363819D02*
X165695143Y-33363819D01*
X165695143Y-33363819D02*
X165599905Y-33506676D01*
X165599905Y-33506676D02*
X165504667Y-33601914D01*
X165504667Y-33601914D02*
X165409429Y-33649533D01*
D11*
X157350009Y-43912209D02*
X157492866Y-43959828D01*
X157492866Y-43959828D02*
X157540485Y-44007447D01*
X157540485Y-44007447D02*
X157588104Y-44102685D01*
X157588104Y-44102685D02*
X157588104Y-44245542D01*
X157588104Y-44245542D02*
X157540485Y-44340780D01*
X157540485Y-44340780D02*
X157492866Y-44388400D01*
X157492866Y-44388400D02*
X157397628Y-44436019D01*
X157397628Y-44436019D02*
X157016676Y-44436019D01*
X157016676Y-44436019D02*
X157016676Y-43436019D01*
X157016676Y-43436019D02*
X157350009Y-43436019D01*
X157350009Y-43436019D02*
X157445247Y-43483638D01*
X157445247Y-43483638D02*
X157492866Y-43531257D01*
X157492866Y-43531257D02*
X157540485Y-43626495D01*
X157540485Y-43626495D02*
X157540485Y-43721733D01*
X157540485Y-43721733D02*
X157492866Y-43816971D01*
X157492866Y-43816971D02*
X157445247Y-43864590D01*
X157445247Y-43864590D02*
X157350009Y-43912209D01*
X157350009Y-43912209D02*
X157016676Y-43912209D01*
X158016676Y-44436019D02*
X158016676Y-43436019D01*
X158016676Y-43436019D02*
X158350009Y-44150304D01*
X158350009Y-44150304D02*
X158683342Y-43436019D01*
X158683342Y-43436019D02*
X158683342Y-44436019D01*
X159730961Y-44436019D02*
X159397628Y-43959828D01*
X159159533Y-44436019D02*
X159159533Y-43436019D01*
X159159533Y-43436019D02*
X159540485Y-43436019D01*
X159540485Y-43436019D02*
X159635723Y-43483638D01*
X159635723Y-43483638D02*
X159683342Y-43531257D01*
X159683342Y-43531257D02*
X159730961Y-43626495D01*
X159730961Y-43626495D02*
X159730961Y-43769352D01*
X159730961Y-43769352D02*
X159683342Y-43864590D01*
X159683342Y-43864590D02*
X159635723Y-43912209D01*
X159635723Y-43912209D02*
X159540485Y-43959828D01*
X159540485Y-43959828D02*
X159159533Y-43959828D01*
X160683342Y-44436019D02*
X160111914Y-44436019D01*
X160397628Y-44436019D02*
X160397628Y-43436019D01*
X160397628Y-43436019D02*
X160302390Y-43578876D01*
X160302390Y-43578876D02*
X160207152Y-43674114D01*
X160207152Y-43674114D02*
X160111914Y-43721733D01*
X116379809Y-44256609D02*
X116522666Y-44304228D01*
X116522666Y-44304228D02*
X116570285Y-44351847D01*
X116570285Y-44351847D02*
X116617904Y-44447085D01*
X116617904Y-44447085D02*
X116617904Y-44589942D01*
X116617904Y-44589942D02*
X116570285Y-44685180D01*
X116570285Y-44685180D02*
X116522666Y-44732800D01*
X116522666Y-44732800D02*
X116427428Y-44780419D01*
X116427428Y-44780419D02*
X116046476Y-44780419D01*
X116046476Y-44780419D02*
X116046476Y-43780419D01*
X116046476Y-43780419D02*
X116379809Y-43780419D01*
X116379809Y-43780419D02*
X116475047Y-43828038D01*
X116475047Y-43828038D02*
X116522666Y-43875657D01*
X116522666Y-43875657D02*
X116570285Y-43970895D01*
X116570285Y-43970895D02*
X116570285Y-44066133D01*
X116570285Y-44066133D02*
X116522666Y-44161371D01*
X116522666Y-44161371D02*
X116475047Y-44208990D01*
X116475047Y-44208990D02*
X116379809Y-44256609D01*
X116379809Y-44256609D02*
X116046476Y-44256609D01*
X117046476Y-44780419D02*
X117046476Y-43780419D01*
X117046476Y-43780419D02*
X117379809Y-44494704D01*
X117379809Y-44494704D02*
X117713142Y-43780419D01*
X117713142Y-43780419D02*
X117713142Y-44780419D01*
X118760761Y-44780419D02*
X118427428Y-44304228D01*
X118189333Y-44780419D02*
X118189333Y-43780419D01*
X118189333Y-43780419D02*
X118570285Y-43780419D01*
X118570285Y-43780419D02*
X118665523Y-43828038D01*
X118665523Y-43828038D02*
X118713142Y-43875657D01*
X118713142Y-43875657D02*
X118760761Y-43970895D01*
X118760761Y-43970895D02*
X118760761Y-44113752D01*
X118760761Y-44113752D02*
X118713142Y-44208990D01*
X118713142Y-44208990D02*
X118665523Y-44256609D01*
X118665523Y-44256609D02*
X118570285Y-44304228D01*
X118570285Y-44304228D02*
X118189333Y-44304228D01*
X119141714Y-43875657D02*
X119189333Y-43828038D01*
X119189333Y-43828038D02*
X119284571Y-43780419D01*
X119284571Y-43780419D02*
X119522666Y-43780419D01*
X119522666Y-43780419D02*
X119617904Y-43828038D01*
X119617904Y-43828038D02*
X119665523Y-43875657D01*
X119665523Y-43875657D02*
X119713142Y-43970895D01*
X119713142Y-43970895D02*
X119713142Y-44066133D01*
X119713142Y-44066133D02*
X119665523Y-44208990D01*
X119665523Y-44208990D02*
X119094095Y-44780419D01*
X119094095Y-44780419D02*
X119713142Y-44780419D01*
D10*
X138597866Y-38954419D02*
X138597866Y-39668704D01*
X138597866Y-39668704D02*
X138550247Y-39811561D01*
X138550247Y-39811561D02*
X138455009Y-39906800D01*
X138455009Y-39906800D02*
X138312152Y-39954419D01*
X138312152Y-39954419D02*
X138216914Y-39954419D01*
X139026438Y-39049657D02*
X139074057Y-39002038D01*
X139074057Y-39002038D02*
X139169295Y-38954419D01*
X139169295Y-38954419D02*
X139407390Y-38954419D01*
X139407390Y-38954419D02*
X139502628Y-39002038D01*
X139502628Y-39002038D02*
X139550247Y-39049657D01*
X139550247Y-39049657D02*
X139597866Y-39144895D01*
X139597866Y-39144895D02*
X139597866Y-39240133D01*
X139597866Y-39240133D02*
X139550247Y-39382990D01*
X139550247Y-39382990D02*
X138978819Y-39954419D01*
X138978819Y-39954419D02*
X139597866Y-39954419D01*
X110577333Y-127327819D02*
X110244000Y-126851628D01*
X110005905Y-127327819D02*
X110005905Y-126327819D01*
X110005905Y-126327819D02*
X110386857Y-126327819D01*
X110386857Y-126327819D02*
X110482095Y-126375438D01*
X110482095Y-126375438D02*
X110529714Y-126423057D01*
X110529714Y-126423057D02*
X110577333Y-126518295D01*
X110577333Y-126518295D02*
X110577333Y-126661152D01*
X110577333Y-126661152D02*
X110529714Y-126756390D01*
X110529714Y-126756390D02*
X110482095Y-126804009D01*
X110482095Y-126804009D02*
X110386857Y-126851628D01*
X110386857Y-126851628D02*
X110005905Y-126851628D01*
X111434476Y-126661152D02*
X111434476Y-127327819D01*
X111196381Y-126280200D02*
X110958286Y-126994485D01*
X110958286Y-126994485D02*
X111577333Y-126994485D01*
X108000705Y-122878257D02*
X108048324Y-122830638D01*
X108048324Y-122830638D02*
X108143562Y-122783019D01*
X108143562Y-122783019D02*
X108381657Y-122783019D01*
X108381657Y-122783019D02*
X108476895Y-122830638D01*
X108476895Y-122830638D02*
X108524514Y-122878257D01*
X108524514Y-122878257D02*
X108572133Y-122973495D01*
X108572133Y-122973495D02*
X108572133Y-123068733D01*
X108572133Y-123068733D02*
X108524514Y-123211590D01*
X108524514Y-123211590D02*
X107953086Y-123783019D01*
X107953086Y-123783019D02*
X108572133Y-123783019D01*
X109191181Y-122783019D02*
X109286419Y-122783019D01*
X109286419Y-122783019D02*
X109381657Y-122830638D01*
X109381657Y-122830638D02*
X109429276Y-122878257D01*
X109429276Y-122878257D02*
X109476895Y-122973495D01*
X109476895Y-122973495D02*
X109524514Y-123163971D01*
X109524514Y-123163971D02*
X109524514Y-123402066D01*
X109524514Y-123402066D02*
X109476895Y-123592542D01*
X109476895Y-123592542D02*
X109429276Y-123687780D01*
X109429276Y-123687780D02*
X109381657Y-123735400D01*
X109381657Y-123735400D02*
X109286419Y-123783019D01*
X109286419Y-123783019D02*
X109191181Y-123783019D01*
X109191181Y-123783019D02*
X109095943Y-123735400D01*
X109095943Y-123735400D02*
X109048324Y-123687780D01*
X109048324Y-123687780D02*
X109000705Y-123592542D01*
X109000705Y-123592542D02*
X108953086Y-123402066D01*
X108953086Y-123402066D02*
X108953086Y-123163971D01*
X108953086Y-123163971D02*
X109000705Y-122973495D01*
X109000705Y-122973495D02*
X109048324Y-122878257D01*
X109048324Y-122878257D02*
X109095943Y-122830638D01*
X109095943Y-122830638D02*
X109191181Y-122783019D01*
X110143562Y-122783019D02*
X110238800Y-122783019D01*
X110238800Y-122783019D02*
X110334038Y-122830638D01*
X110334038Y-122830638D02*
X110381657Y-122878257D01*
X110381657Y-122878257D02*
X110429276Y-122973495D01*
X110429276Y-122973495D02*
X110476895Y-123163971D01*
X110476895Y-123163971D02*
X110476895Y-123402066D01*
X110476895Y-123402066D02*
X110429276Y-123592542D01*
X110429276Y-123592542D02*
X110381657Y-123687780D01*
X110381657Y-123687780D02*
X110334038Y-123735400D01*
X110334038Y-123735400D02*
X110238800Y-123783019D01*
X110238800Y-123783019D02*
X110143562Y-123783019D01*
X110143562Y-123783019D02*
X110048324Y-123735400D01*
X110048324Y-123735400D02*
X110000705Y-123687780D01*
X110000705Y-123687780D02*
X109953086Y-123592542D01*
X109953086Y-123592542D02*
X109905467Y-123402066D01*
X109905467Y-123402066D02*
X109905467Y-123163971D01*
X109905467Y-123163971D02*
X109953086Y-122973495D01*
X109953086Y-122973495D02*
X110000705Y-122878257D01*
X110000705Y-122878257D02*
X110048324Y-122830638D01*
X110048324Y-122830638D02*
X110143562Y-122783019D01*
X190180933Y-129075619D02*
X189847600Y-128599428D01*
X189609505Y-129075619D02*
X189609505Y-128075619D01*
X189609505Y-128075619D02*
X189990457Y-128075619D01*
X189990457Y-128075619D02*
X190085695Y-128123238D01*
X190085695Y-128123238D02*
X190133314Y-128170857D01*
X190133314Y-128170857D02*
X190180933Y-128266095D01*
X190180933Y-128266095D02*
X190180933Y-128408952D01*
X190180933Y-128408952D02*
X190133314Y-128504190D01*
X190133314Y-128504190D02*
X190085695Y-128551809D01*
X190085695Y-128551809D02*
X189990457Y-128599428D01*
X189990457Y-128599428D02*
X189609505Y-128599428D01*
X191133314Y-129075619D02*
X190561886Y-129075619D01*
X190847600Y-129075619D02*
X190847600Y-128075619D01*
X190847600Y-128075619D02*
X190752362Y-128218476D01*
X190752362Y-128218476D02*
X190657124Y-128313714D01*
X190657124Y-128313714D02*
X190561886Y-128361333D01*
X85596809Y-128682733D02*
X85596809Y-129016066D01*
X86120619Y-129016066D02*
X85120619Y-129016066D01*
X85120619Y-129016066D02*
X85120619Y-128539876D01*
X85596809Y-127825590D02*
X85644428Y-127682733D01*
X85644428Y-127682733D02*
X85692047Y-127635114D01*
X85692047Y-127635114D02*
X85787285Y-127587495D01*
X85787285Y-127587495D02*
X85930142Y-127587495D01*
X85930142Y-127587495D02*
X86025380Y-127635114D01*
X86025380Y-127635114D02*
X86073000Y-127682733D01*
X86073000Y-127682733D02*
X86120619Y-127777971D01*
X86120619Y-127777971D02*
X86120619Y-128158923D01*
X86120619Y-128158923D02*
X85120619Y-128158923D01*
X85120619Y-128158923D02*
X85120619Y-127825590D01*
X85120619Y-127825590D02*
X85168238Y-127730352D01*
X85168238Y-127730352D02*
X85215857Y-127682733D01*
X85215857Y-127682733D02*
X85311095Y-127635114D01*
X85311095Y-127635114D02*
X85406333Y-127635114D01*
X85406333Y-127635114D02*
X85501571Y-127682733D01*
X85501571Y-127682733D02*
X85549190Y-127730352D01*
X85549190Y-127730352D02*
X85596809Y-127825590D01*
X85596809Y-127825590D02*
X85596809Y-128158923D01*
X86120619Y-126635114D02*
X86120619Y-127206542D01*
X86120619Y-126920828D02*
X85120619Y-126920828D01*
X85120619Y-126920828D02*
X85263476Y-127016066D01*
X85263476Y-127016066D02*
X85358714Y-127111304D01*
X85358714Y-127111304D02*
X85406333Y-127206542D01*
X92452866Y-102337419D02*
X92452866Y-103051704D01*
X92452866Y-103051704D02*
X92405247Y-103194561D01*
X92405247Y-103194561D02*
X92310009Y-103289800D01*
X92310009Y-103289800D02*
X92167152Y-103337419D01*
X92167152Y-103337419D02*
X92071914Y-103337419D01*
X92833819Y-102337419D02*
X93452866Y-102337419D01*
X93452866Y-102337419D02*
X93119533Y-102718371D01*
X93119533Y-102718371D02*
X93262390Y-102718371D01*
X93262390Y-102718371D02*
X93357628Y-102765990D01*
X93357628Y-102765990D02*
X93405247Y-102813609D01*
X93405247Y-102813609D02*
X93452866Y-102908847D01*
X93452866Y-102908847D02*
X93452866Y-103146942D01*
X93452866Y-103146942D02*
X93405247Y-103242180D01*
X93405247Y-103242180D02*
X93357628Y-103289800D01*
X93357628Y-103289800D02*
X93262390Y-103337419D01*
X93262390Y-103337419D02*
X92976676Y-103337419D01*
X92976676Y-103337419D02*
X92881438Y-103289800D01*
X92881438Y-103289800D02*
X92833819Y-103242180D01*
X183551533Y-125872180D02*
X183503914Y-125919800D01*
X183503914Y-125919800D02*
X183361057Y-125967419D01*
X183361057Y-125967419D02*
X183265819Y-125967419D01*
X183265819Y-125967419D02*
X183122962Y-125919800D01*
X183122962Y-125919800D02*
X183027724Y-125824561D01*
X183027724Y-125824561D02*
X182980105Y-125729323D01*
X182980105Y-125729323D02*
X182932486Y-125538847D01*
X182932486Y-125538847D02*
X182932486Y-125395990D01*
X182932486Y-125395990D02*
X182980105Y-125205514D01*
X182980105Y-125205514D02*
X183027724Y-125110276D01*
X183027724Y-125110276D02*
X183122962Y-125015038D01*
X183122962Y-125015038D02*
X183265819Y-124967419D01*
X183265819Y-124967419D02*
X183361057Y-124967419D01*
X183361057Y-124967419D02*
X183503914Y-125015038D01*
X183503914Y-125015038D02*
X183551533Y-125062657D01*
X183932486Y-125062657D02*
X183980105Y-125015038D01*
X183980105Y-125015038D02*
X184075343Y-124967419D01*
X184075343Y-124967419D02*
X184313438Y-124967419D01*
X184313438Y-124967419D02*
X184408676Y-125015038D01*
X184408676Y-125015038D02*
X184456295Y-125062657D01*
X184456295Y-125062657D02*
X184503914Y-125157895D01*
X184503914Y-125157895D02*
X184503914Y-125253133D01*
X184503914Y-125253133D02*
X184456295Y-125395990D01*
X184456295Y-125395990D02*
X183884867Y-125967419D01*
X183884867Y-125967419D02*
X184503914Y-125967419D01*
X195921333Y-82750819D02*
X195588000Y-82274628D01*
X195349905Y-82750819D02*
X195349905Y-81750819D01*
X195349905Y-81750819D02*
X195730857Y-81750819D01*
X195730857Y-81750819D02*
X195826095Y-81798438D01*
X195826095Y-81798438D02*
X195873714Y-81846057D01*
X195873714Y-81846057D02*
X195921333Y-81941295D01*
X195921333Y-81941295D02*
X195921333Y-82084152D01*
X195921333Y-82084152D02*
X195873714Y-82179390D01*
X195873714Y-82179390D02*
X195826095Y-82227009D01*
X195826095Y-82227009D02*
X195730857Y-82274628D01*
X195730857Y-82274628D02*
X195349905Y-82274628D01*
X196826095Y-81750819D02*
X196349905Y-81750819D01*
X196349905Y-81750819D02*
X196302286Y-82227009D01*
X196302286Y-82227009D02*
X196349905Y-82179390D01*
X196349905Y-82179390D02*
X196445143Y-82131771D01*
X196445143Y-82131771D02*
X196683238Y-82131771D01*
X196683238Y-82131771D02*
X196778476Y-82179390D01*
X196778476Y-82179390D02*
X196826095Y-82227009D01*
X196826095Y-82227009D02*
X196873714Y-82322247D01*
X196873714Y-82322247D02*
X196873714Y-82560342D01*
X196873714Y-82560342D02*
X196826095Y-82655580D01*
X196826095Y-82655580D02*
X196778476Y-82703200D01*
X196778476Y-82703200D02*
X196683238Y-82750819D01*
X196683238Y-82750819D02*
X196445143Y-82750819D01*
X196445143Y-82750819D02*
X196349905Y-82703200D01*
X196349905Y-82703200D02*
X196302286Y-82655580D01*
X192587685Y-79768419D02*
X192397209Y-79768419D01*
X192397209Y-79768419D02*
X192301971Y-79816038D01*
X192301971Y-79816038D02*
X192254352Y-79863657D01*
X192254352Y-79863657D02*
X192159114Y-80006514D01*
X192159114Y-80006514D02*
X192111495Y-80196990D01*
X192111495Y-80196990D02*
X192111495Y-80577942D01*
X192111495Y-80577942D02*
X192159114Y-80673180D01*
X192159114Y-80673180D02*
X192206733Y-80720800D01*
X192206733Y-80720800D02*
X192301971Y-80768419D01*
X192301971Y-80768419D02*
X192492447Y-80768419D01*
X192492447Y-80768419D02*
X192587685Y-80720800D01*
X192587685Y-80720800D02*
X192635304Y-80673180D01*
X192635304Y-80673180D02*
X192682923Y-80577942D01*
X192682923Y-80577942D02*
X192682923Y-80339847D01*
X192682923Y-80339847D02*
X192635304Y-80244609D01*
X192635304Y-80244609D02*
X192587685Y-80196990D01*
X192587685Y-80196990D02*
X192492447Y-80149371D01*
X192492447Y-80149371D02*
X192301971Y-80149371D01*
X192301971Y-80149371D02*
X192206733Y-80196990D01*
X192206733Y-80196990D02*
X192159114Y-80244609D01*
X192159114Y-80244609D02*
X192111495Y-80339847D01*
X193301971Y-79768419D02*
X193397209Y-79768419D01*
X193397209Y-79768419D02*
X193492447Y-79816038D01*
X193492447Y-79816038D02*
X193540066Y-79863657D01*
X193540066Y-79863657D02*
X193587685Y-79958895D01*
X193587685Y-79958895D02*
X193635304Y-80149371D01*
X193635304Y-80149371D02*
X193635304Y-80387466D01*
X193635304Y-80387466D02*
X193587685Y-80577942D01*
X193587685Y-80577942D02*
X193540066Y-80673180D01*
X193540066Y-80673180D02*
X193492447Y-80720800D01*
X193492447Y-80720800D02*
X193397209Y-80768419D01*
X193397209Y-80768419D02*
X193301971Y-80768419D01*
X193301971Y-80768419D02*
X193206733Y-80720800D01*
X193206733Y-80720800D02*
X193159114Y-80673180D01*
X193159114Y-80673180D02*
X193111495Y-80577942D01*
X193111495Y-80577942D02*
X193063876Y-80387466D01*
X193063876Y-80387466D02*
X193063876Y-80149371D01*
X193063876Y-80149371D02*
X193111495Y-79958895D01*
X193111495Y-79958895D02*
X193159114Y-79863657D01*
X193159114Y-79863657D02*
X193206733Y-79816038D01*
X193206733Y-79816038D02*
X193301971Y-79768419D01*
X92686866Y-46348419D02*
X92686866Y-47062704D01*
X92686866Y-47062704D02*
X92639247Y-47205561D01*
X92639247Y-47205561D02*
X92544009Y-47300800D01*
X92544009Y-47300800D02*
X92401152Y-47348419D01*
X92401152Y-47348419D02*
X92305914Y-47348419D01*
X93591628Y-46348419D02*
X93401152Y-46348419D01*
X93401152Y-46348419D02*
X93305914Y-46396038D01*
X93305914Y-46396038D02*
X93258295Y-46443657D01*
X93258295Y-46443657D02*
X93163057Y-46586514D01*
X93163057Y-46586514D02*
X93115438Y-46776990D01*
X93115438Y-46776990D02*
X93115438Y-47157942D01*
X93115438Y-47157942D02*
X93163057Y-47253180D01*
X93163057Y-47253180D02*
X93210676Y-47300800D01*
X93210676Y-47300800D02*
X93305914Y-47348419D01*
X93305914Y-47348419D02*
X93496390Y-47348419D01*
X93496390Y-47348419D02*
X93591628Y-47300800D01*
X93591628Y-47300800D02*
X93639247Y-47253180D01*
X93639247Y-47253180D02*
X93686866Y-47157942D01*
X93686866Y-47157942D02*
X93686866Y-46919847D01*
X93686866Y-46919847D02*
X93639247Y-46824609D01*
X93639247Y-46824609D02*
X93591628Y-46776990D01*
X93591628Y-46776990D02*
X93496390Y-46729371D01*
X93496390Y-46729371D02*
X93305914Y-46729371D01*
X93305914Y-46729371D02*
X93210676Y-46776990D01*
X93210676Y-46776990D02*
X93163057Y-46824609D01*
X93163057Y-46824609D02*
X93115438Y-46919847D01*
X90282104Y-53548419D02*
X90282104Y-52548419D01*
X90282104Y-52548419D02*
X90663056Y-52548419D01*
X90663056Y-52548419D02*
X90758294Y-52596038D01*
X90758294Y-52596038D02*
X90805913Y-52643657D01*
X90805913Y-52643657D02*
X90853532Y-52738895D01*
X90853532Y-52738895D02*
X90853532Y-52881752D01*
X90853532Y-52881752D02*
X90805913Y-52976990D01*
X90805913Y-52976990D02*
X90758294Y-53024609D01*
X90758294Y-53024609D02*
X90663056Y-53072228D01*
X90663056Y-53072228D02*
X90282104Y-53072228D01*
X91424961Y-53548419D02*
X91329723Y-53500800D01*
X91329723Y-53500800D02*
X91282104Y-53453180D01*
X91282104Y-53453180D02*
X91234485Y-53357942D01*
X91234485Y-53357942D02*
X91234485Y-53072228D01*
X91234485Y-53072228D02*
X91282104Y-52976990D01*
X91282104Y-52976990D02*
X91329723Y-52929371D01*
X91329723Y-52929371D02*
X91424961Y-52881752D01*
X91424961Y-52881752D02*
X91567818Y-52881752D01*
X91567818Y-52881752D02*
X91663056Y-52929371D01*
X91663056Y-52929371D02*
X91710675Y-52976990D01*
X91710675Y-52976990D02*
X91758294Y-53072228D01*
X91758294Y-53072228D02*
X91758294Y-53357942D01*
X91758294Y-53357942D02*
X91710675Y-53453180D01*
X91710675Y-53453180D02*
X91663056Y-53500800D01*
X91663056Y-53500800D02*
X91567818Y-53548419D01*
X91567818Y-53548419D02*
X91424961Y-53548419D01*
X92615437Y-52881752D02*
X92615437Y-53548419D01*
X92186866Y-52881752D02*
X92186866Y-53405561D01*
X92186866Y-53405561D02*
X92234485Y-53500800D01*
X92234485Y-53500800D02*
X92329723Y-53548419D01*
X92329723Y-53548419D02*
X92472580Y-53548419D01*
X92472580Y-53548419D02*
X92567818Y-53500800D01*
X92567818Y-53500800D02*
X92615437Y-53453180D01*
X92948771Y-52881752D02*
X93329723Y-52881752D01*
X93091628Y-52548419D02*
X93091628Y-53405561D01*
X93091628Y-53405561D02*
X93139247Y-53500800D01*
X93139247Y-53500800D02*
X93234485Y-53548419D01*
X93234485Y-53548419D02*
X93329723Y-53548419D01*
X94901152Y-52548419D02*
X94424962Y-52548419D01*
X94424962Y-52548419D02*
X94377343Y-53024609D01*
X94377343Y-53024609D02*
X94424962Y-52976990D01*
X94424962Y-52976990D02*
X94520200Y-52929371D01*
X94520200Y-52929371D02*
X94758295Y-52929371D01*
X94758295Y-52929371D02*
X94853533Y-52976990D01*
X94853533Y-52976990D02*
X94901152Y-53024609D01*
X94901152Y-53024609D02*
X94948771Y-53119847D01*
X94948771Y-53119847D02*
X94948771Y-53357942D01*
X94948771Y-53357942D02*
X94901152Y-53453180D01*
X94901152Y-53453180D02*
X94853533Y-53500800D01*
X94853533Y-53500800D02*
X94758295Y-53548419D01*
X94758295Y-53548419D02*
X94520200Y-53548419D01*
X94520200Y-53548419D02*
X94424962Y-53500800D01*
X94424962Y-53500800D02*
X94377343Y-53453180D01*
X95234486Y-52548419D02*
X95567819Y-53548419D01*
X95567819Y-53548419D02*
X95901152Y-52548419D01*
X114689095Y-33273419D02*
X115260523Y-33273419D01*
X114974809Y-34273419D02*
X114974809Y-33273419D01*
X115593857Y-34273419D02*
X115593857Y-33273419D01*
X115593857Y-33273419D02*
X115974809Y-33273419D01*
X115974809Y-33273419D02*
X116070047Y-33321038D01*
X116070047Y-33321038D02*
X116117666Y-33368657D01*
X116117666Y-33368657D02*
X116165285Y-33463895D01*
X116165285Y-33463895D02*
X116165285Y-33606752D01*
X116165285Y-33606752D02*
X116117666Y-33701990D01*
X116117666Y-33701990D02*
X116070047Y-33749609D01*
X116070047Y-33749609D02*
X115974809Y-33797228D01*
X115974809Y-33797228D02*
X115593857Y-33797228D01*
X116641476Y-34273419D02*
X116831952Y-34273419D01*
X116831952Y-34273419D02*
X116927190Y-34225800D01*
X116927190Y-34225800D02*
X116974809Y-34178180D01*
X116974809Y-34178180D02*
X117070047Y-34035323D01*
X117070047Y-34035323D02*
X117117666Y-33844847D01*
X117117666Y-33844847D02*
X117117666Y-33463895D01*
X117117666Y-33463895D02*
X117070047Y-33368657D01*
X117070047Y-33368657D02*
X117022428Y-33321038D01*
X117022428Y-33321038D02*
X116927190Y-33273419D01*
X116927190Y-33273419D02*
X116736714Y-33273419D01*
X116736714Y-33273419D02*
X116641476Y-33321038D01*
X116641476Y-33321038D02*
X116593857Y-33368657D01*
X116593857Y-33368657D02*
X116546238Y-33463895D01*
X116546238Y-33463895D02*
X116546238Y-33701990D01*
X116546238Y-33701990D02*
X116593857Y-33797228D01*
X116593857Y-33797228D02*
X116641476Y-33844847D01*
X116641476Y-33844847D02*
X116736714Y-33892466D01*
X116736714Y-33892466D02*
X116927190Y-33892466D01*
X116927190Y-33892466D02*
X117022428Y-33844847D01*
X117022428Y-33844847D02*
X117070047Y-33797228D01*
X117070047Y-33797228D02*
X117117666Y-33701990D01*
X194291833Y-107533380D02*
X194244214Y-107581000D01*
X194244214Y-107581000D02*
X194101357Y-107628619D01*
X194101357Y-107628619D02*
X194006119Y-107628619D01*
X194006119Y-107628619D02*
X193863262Y-107581000D01*
X193863262Y-107581000D02*
X193768024Y-107485761D01*
X193768024Y-107485761D02*
X193720405Y-107390523D01*
X193720405Y-107390523D02*
X193672786Y-107200047D01*
X193672786Y-107200047D02*
X193672786Y-107057190D01*
X193672786Y-107057190D02*
X193720405Y-106866714D01*
X193720405Y-106866714D02*
X193768024Y-106771476D01*
X193768024Y-106771476D02*
X193863262Y-106676238D01*
X193863262Y-106676238D02*
X194006119Y-106628619D01*
X194006119Y-106628619D02*
X194101357Y-106628619D01*
X194101357Y-106628619D02*
X194244214Y-106676238D01*
X194244214Y-106676238D02*
X194291833Y-106723857D01*
X194625167Y-106628619D02*
X195244214Y-106628619D01*
X195244214Y-106628619D02*
X194910881Y-107009571D01*
X194910881Y-107009571D02*
X195053738Y-107009571D01*
X195053738Y-107009571D02*
X195148976Y-107057190D01*
X195148976Y-107057190D02*
X195196595Y-107104809D01*
X195196595Y-107104809D02*
X195244214Y-107200047D01*
X195244214Y-107200047D02*
X195244214Y-107438142D01*
X195244214Y-107438142D02*
X195196595Y-107533380D01*
X195196595Y-107533380D02*
X195148976Y-107581000D01*
X195148976Y-107581000D02*
X195053738Y-107628619D01*
X195053738Y-107628619D02*
X194768024Y-107628619D01*
X194768024Y-107628619D02*
X194672786Y-107581000D01*
X194672786Y-107581000D02*
X194625167Y-107533380D01*
X118705333Y-41856819D02*
X118372000Y-41380628D01*
X118133905Y-41856819D02*
X118133905Y-40856819D01*
X118133905Y-40856819D02*
X118514857Y-40856819D01*
X118514857Y-40856819D02*
X118610095Y-40904438D01*
X118610095Y-40904438D02*
X118657714Y-40952057D01*
X118657714Y-40952057D02*
X118705333Y-41047295D01*
X118705333Y-41047295D02*
X118705333Y-41190152D01*
X118705333Y-41190152D02*
X118657714Y-41285390D01*
X118657714Y-41285390D02*
X118610095Y-41333009D01*
X118610095Y-41333009D02*
X118514857Y-41380628D01*
X118514857Y-41380628D02*
X118133905Y-41380628D01*
X119038667Y-40856819D02*
X119657714Y-40856819D01*
X119657714Y-40856819D02*
X119324381Y-41237771D01*
X119324381Y-41237771D02*
X119467238Y-41237771D01*
X119467238Y-41237771D02*
X119562476Y-41285390D01*
X119562476Y-41285390D02*
X119610095Y-41333009D01*
X119610095Y-41333009D02*
X119657714Y-41428247D01*
X119657714Y-41428247D02*
X119657714Y-41666342D01*
X119657714Y-41666342D02*
X119610095Y-41761580D01*
X119610095Y-41761580D02*
X119562476Y-41809200D01*
X119562476Y-41809200D02*
X119467238Y-41856819D01*
X119467238Y-41856819D02*
X119181524Y-41856819D01*
X119181524Y-41856819D02*
X119086286Y-41809200D01*
X119086286Y-41809200D02*
X119038667Y-41761580D01*
X114521942Y-40019619D02*
X113950514Y-40019619D01*
X114236228Y-40019619D02*
X114236228Y-39019619D01*
X114236228Y-39019619D02*
X114140990Y-39162476D01*
X114140990Y-39162476D02*
X114045752Y-39257714D01*
X114045752Y-39257714D02*
X113950514Y-39305333D01*
X115140990Y-39019619D02*
X115236228Y-39019619D01*
X115236228Y-39019619D02*
X115331466Y-39067238D01*
X115331466Y-39067238D02*
X115379085Y-39114857D01*
X115379085Y-39114857D02*
X115426704Y-39210095D01*
X115426704Y-39210095D02*
X115474323Y-39400571D01*
X115474323Y-39400571D02*
X115474323Y-39638666D01*
X115474323Y-39638666D02*
X115426704Y-39829142D01*
X115426704Y-39829142D02*
X115379085Y-39924380D01*
X115379085Y-39924380D02*
X115331466Y-39972000D01*
X115331466Y-39972000D02*
X115236228Y-40019619D01*
X115236228Y-40019619D02*
X115140990Y-40019619D01*
X115140990Y-40019619D02*
X115045752Y-39972000D01*
X115045752Y-39972000D02*
X114998133Y-39924380D01*
X114998133Y-39924380D02*
X114950514Y-39829142D01*
X114950514Y-39829142D02*
X114902895Y-39638666D01*
X114902895Y-39638666D02*
X114902895Y-39400571D01*
X114902895Y-39400571D02*
X114950514Y-39210095D01*
X114950514Y-39210095D02*
X114998133Y-39114857D01*
X114998133Y-39114857D02*
X115045752Y-39067238D01*
X115045752Y-39067238D02*
X115140990Y-39019619D01*
X116093371Y-39019619D02*
X116188609Y-39019619D01*
X116188609Y-39019619D02*
X116283847Y-39067238D01*
X116283847Y-39067238D02*
X116331466Y-39114857D01*
X116331466Y-39114857D02*
X116379085Y-39210095D01*
X116379085Y-39210095D02*
X116426704Y-39400571D01*
X116426704Y-39400571D02*
X116426704Y-39638666D01*
X116426704Y-39638666D02*
X116379085Y-39829142D01*
X116379085Y-39829142D02*
X116331466Y-39924380D01*
X116331466Y-39924380D02*
X116283847Y-39972000D01*
X116283847Y-39972000D02*
X116188609Y-40019619D01*
X116188609Y-40019619D02*
X116093371Y-40019619D01*
X116093371Y-40019619D02*
X115998133Y-39972000D01*
X115998133Y-39972000D02*
X115950514Y-39924380D01*
X115950514Y-39924380D02*
X115902895Y-39829142D01*
X115902895Y-39829142D02*
X115855276Y-39638666D01*
X115855276Y-39638666D02*
X115855276Y-39400571D01*
X115855276Y-39400571D02*
X115902895Y-39210095D01*
X115902895Y-39210095D02*
X115950514Y-39114857D01*
X115950514Y-39114857D02*
X115998133Y-39067238D01*
X115998133Y-39067238D02*
X116093371Y-39019619D01*
X117045752Y-39019619D02*
X117140990Y-39019619D01*
X117140990Y-39019619D02*
X117236228Y-39067238D01*
X117236228Y-39067238D02*
X117283847Y-39114857D01*
X117283847Y-39114857D02*
X117331466Y-39210095D01*
X117331466Y-39210095D02*
X117379085Y-39400571D01*
X117379085Y-39400571D02*
X117379085Y-39638666D01*
X117379085Y-39638666D02*
X117331466Y-39829142D01*
X117331466Y-39829142D02*
X117283847Y-39924380D01*
X117283847Y-39924380D02*
X117236228Y-39972000D01*
X117236228Y-39972000D02*
X117140990Y-40019619D01*
X117140990Y-40019619D02*
X117045752Y-40019619D01*
X117045752Y-40019619D02*
X116950514Y-39972000D01*
X116950514Y-39972000D02*
X116902895Y-39924380D01*
X116902895Y-39924380D02*
X116855276Y-39829142D01*
X116855276Y-39829142D02*
X116807657Y-39638666D01*
X116807657Y-39638666D02*
X116807657Y-39400571D01*
X116807657Y-39400571D02*
X116855276Y-39210095D01*
X116855276Y-39210095D02*
X116902895Y-39114857D01*
X116902895Y-39114857D02*
X116950514Y-39067238D01*
X116950514Y-39067238D02*
X117045752Y-39019619D01*
X144406233Y-127446980D02*
X144358614Y-127494600D01*
X144358614Y-127494600D02*
X144215757Y-127542219D01*
X144215757Y-127542219D02*
X144120519Y-127542219D01*
X144120519Y-127542219D02*
X143977662Y-127494600D01*
X143977662Y-127494600D02*
X143882424Y-127399361D01*
X143882424Y-127399361D02*
X143834805Y-127304123D01*
X143834805Y-127304123D02*
X143787186Y-127113647D01*
X143787186Y-127113647D02*
X143787186Y-126970790D01*
X143787186Y-126970790D02*
X143834805Y-126780314D01*
X143834805Y-126780314D02*
X143882424Y-126685076D01*
X143882424Y-126685076D02*
X143977662Y-126589838D01*
X143977662Y-126589838D02*
X144120519Y-126542219D01*
X144120519Y-126542219D02*
X144215757Y-126542219D01*
X144215757Y-126542219D02*
X144358614Y-126589838D01*
X144358614Y-126589838D02*
X144406233Y-126637457D01*
X145358614Y-127542219D02*
X144787186Y-127542219D01*
X145072900Y-127542219D02*
X145072900Y-126542219D01*
X145072900Y-126542219D02*
X144977662Y-126685076D01*
X144977662Y-126685076D02*
X144882424Y-126780314D01*
X144882424Y-126780314D02*
X144787186Y-126827933D01*
D11*
X191476524Y-96527904D02*
X191952714Y-96527904D01*
X191381286Y-96813619D02*
X191714619Y-95813619D01*
X191714619Y-95813619D02*
X192047952Y-96813619D01*
X192381286Y-96813619D02*
X192381286Y-95813619D01*
X192381286Y-95813619D02*
X192619381Y-95813619D01*
X192619381Y-95813619D02*
X192762238Y-95861238D01*
X192762238Y-95861238D02*
X192857476Y-95956476D01*
X192857476Y-95956476D02*
X192905095Y-96051714D01*
X192905095Y-96051714D02*
X192952714Y-96242190D01*
X192952714Y-96242190D02*
X192952714Y-96385047D01*
X192952714Y-96385047D02*
X192905095Y-96575523D01*
X192905095Y-96575523D02*
X192857476Y-96670761D01*
X192857476Y-96670761D02*
X192762238Y-96766000D01*
X192762238Y-96766000D02*
X192619381Y-96813619D01*
X192619381Y-96813619D02*
X192381286Y-96813619D01*
X193333667Y-96766000D02*
X193476524Y-96813619D01*
X193476524Y-96813619D02*
X193714619Y-96813619D01*
X193714619Y-96813619D02*
X193809857Y-96766000D01*
X193809857Y-96766000D02*
X193857476Y-96718380D01*
X193857476Y-96718380D02*
X193905095Y-96623142D01*
X193905095Y-96623142D02*
X193905095Y-96527904D01*
X193905095Y-96527904D02*
X193857476Y-96432666D01*
X193857476Y-96432666D02*
X193809857Y-96385047D01*
X193809857Y-96385047D02*
X193714619Y-96337428D01*
X193714619Y-96337428D02*
X193524143Y-96289809D01*
X193524143Y-96289809D02*
X193428905Y-96242190D01*
X193428905Y-96242190D02*
X193381286Y-96194571D01*
X193381286Y-96194571D02*
X193333667Y-96099333D01*
X193333667Y-96099333D02*
X193333667Y-96004095D01*
X193333667Y-96004095D02*
X193381286Y-95908857D01*
X193381286Y-95908857D02*
X193428905Y-95861238D01*
X193428905Y-95861238D02*
X193524143Y-95813619D01*
X193524143Y-95813619D02*
X193762238Y-95813619D01*
X193762238Y-95813619D02*
X193905095Y-95861238D01*
X194857476Y-96813619D02*
X194286048Y-96813619D01*
X194571762Y-96813619D02*
X194571762Y-95813619D01*
X194571762Y-95813619D02*
X194476524Y-95956476D01*
X194476524Y-95956476D02*
X194381286Y-96051714D01*
X194381286Y-96051714D02*
X194286048Y-96099333D01*
D13*
X199403063Y-102266375D02*
X199819139Y-102266375D01*
X199319848Y-102516021D02*
X199611101Y-101642261D01*
X199611101Y-101642261D02*
X199902354Y-102516021D01*
X200193608Y-102183160D02*
X200859330Y-102183160D01*
X200526469Y-102516021D02*
X200526469Y-101850299D01*
X199068025Y-85640261D02*
X199359278Y-86514021D01*
X199359278Y-86514021D02*
X199650531Y-85640261D01*
X199941785Y-86514021D02*
X199941785Y-85640261D01*
X200357861Y-86514021D02*
X200357861Y-85640261D01*
X200357861Y-85640261D02*
X200857152Y-86514021D01*
X200857152Y-86514021D02*
X200857152Y-85640261D01*
X196860886Y-102266375D02*
X197276962Y-102266375D01*
X196777671Y-102516021D02*
X197068924Y-101642261D01*
X197068924Y-101642261D02*
X197360177Y-102516021D01*
X197568215Y-101642261D02*
X198109114Y-101642261D01*
X198109114Y-101642261D02*
X197817861Y-101975122D01*
X197817861Y-101975122D02*
X197942684Y-101975122D01*
X197942684Y-101975122D02*
X198025899Y-102016730D01*
X198025899Y-102016730D02*
X198067507Y-102058337D01*
X198067507Y-102058337D02*
X198109114Y-102141553D01*
X198109114Y-102141553D02*
X198109114Y-102349591D01*
X198109114Y-102349591D02*
X198067507Y-102432806D01*
X198067507Y-102432806D02*
X198025899Y-102474414D01*
X198025899Y-102474414D02*
X197942684Y-102516021D01*
X197942684Y-102516021D02*
X197693038Y-102516021D01*
X197693038Y-102516021D02*
X197609823Y-102474414D01*
X197609823Y-102474414D02*
X197568215Y-102432806D01*
X188219322Y-86264375D02*
X188635398Y-86264375D01*
X188136107Y-86514021D02*
X188427360Y-85640261D01*
X188427360Y-85640261D02*
X188718613Y-86514021D01*
X189009867Y-86514021D02*
X189009867Y-85640261D01*
X189009867Y-85640261D02*
X189217905Y-85640261D01*
X189217905Y-85640261D02*
X189342728Y-85681869D01*
X189342728Y-85681869D02*
X189425943Y-85765084D01*
X189425943Y-85765084D02*
X189467550Y-85848299D01*
X189467550Y-85848299D02*
X189509158Y-86014730D01*
X189509158Y-86014730D02*
X189509158Y-86139553D01*
X189509158Y-86139553D02*
X189467550Y-86305983D01*
X189467550Y-86305983D02*
X189425943Y-86389198D01*
X189425943Y-86389198D02*
X189342728Y-86472414D01*
X189342728Y-86472414D02*
X189217905Y-86514021D01*
X189217905Y-86514021D02*
X189009867Y-86514021D01*
X189883627Y-86514021D02*
X189883627Y-85640261D01*
X189883627Y-85640261D02*
X190091665Y-85640261D01*
X190091665Y-85640261D02*
X190216488Y-85681869D01*
X190216488Y-85681869D02*
X190299703Y-85765084D01*
X190299703Y-85765084D02*
X190341310Y-85848299D01*
X190341310Y-85848299D02*
X190382918Y-86014730D01*
X190382918Y-86014730D02*
X190382918Y-86139553D01*
X190382918Y-86139553D02*
X190341310Y-86305983D01*
X190341310Y-86305983D02*
X190299703Y-86389198D01*
X190299703Y-86389198D02*
X190216488Y-86472414D01*
X190216488Y-86472414D02*
X190091665Y-86514021D01*
X190091665Y-86514021D02*
X189883627Y-86514021D01*
X191256678Y-86514021D02*
X190965425Y-86097945D01*
X190757387Y-86514021D02*
X190757387Y-85640261D01*
X190757387Y-85640261D02*
X191090248Y-85640261D01*
X191090248Y-85640261D02*
X191173463Y-85681869D01*
X191173463Y-85681869D02*
X191215070Y-85723476D01*
X191215070Y-85723476D02*
X191256678Y-85806692D01*
X191256678Y-85806692D02*
X191256678Y-85931514D01*
X191256678Y-85931514D02*
X191215070Y-86014730D01*
X191215070Y-86014730D02*
X191173463Y-86056337D01*
X191173463Y-86056337D02*
X191090248Y-86097945D01*
X191090248Y-86097945D02*
X190757387Y-86097945D01*
X191217006Y-89774414D02*
X191341829Y-89816021D01*
X191341829Y-89816021D02*
X191549867Y-89816021D01*
X191549867Y-89816021D02*
X191633082Y-89774414D01*
X191633082Y-89774414D02*
X191674690Y-89732806D01*
X191674690Y-89732806D02*
X191716297Y-89649591D01*
X191716297Y-89649591D02*
X191716297Y-89566375D01*
X191716297Y-89566375D02*
X191674690Y-89483160D01*
X191674690Y-89483160D02*
X191633082Y-89441553D01*
X191633082Y-89441553D02*
X191549867Y-89399945D01*
X191549867Y-89399945D02*
X191383436Y-89358337D01*
X191383436Y-89358337D02*
X191300221Y-89316730D01*
X191300221Y-89316730D02*
X191258614Y-89275122D01*
X191258614Y-89275122D02*
X191217006Y-89191907D01*
X191217006Y-89191907D02*
X191217006Y-89108692D01*
X191217006Y-89108692D02*
X191258614Y-89025476D01*
X191258614Y-89025476D02*
X191300221Y-88983869D01*
X191300221Y-88983869D02*
X191383436Y-88942261D01*
X191383436Y-88942261D02*
X191591475Y-88942261D01*
X191591475Y-88942261D02*
X191716297Y-88983869D01*
X192090766Y-89816021D02*
X192090766Y-88942261D01*
X192090766Y-88942261D02*
X192298804Y-88942261D01*
X192298804Y-88942261D02*
X192423627Y-88983869D01*
X192423627Y-88983869D02*
X192506842Y-89067084D01*
X192506842Y-89067084D02*
X192548449Y-89150299D01*
X192548449Y-89150299D02*
X192590057Y-89316730D01*
X192590057Y-89316730D02*
X192590057Y-89441553D01*
X192590057Y-89441553D02*
X192548449Y-89607983D01*
X192548449Y-89607983D02*
X192506842Y-89691198D01*
X192506842Y-89691198D02*
X192423627Y-89774414D01*
X192423627Y-89774414D02*
X192298804Y-89816021D01*
X192298804Y-89816021D02*
X192090766Y-89816021D01*
X192922918Y-89566375D02*
X193338994Y-89566375D01*
X192839703Y-89816021D02*
X193130956Y-88942261D01*
X193130956Y-88942261D02*
X193422209Y-89816021D01*
X189113886Y-102266375D02*
X189529962Y-102266375D01*
X189030671Y-102516021D02*
X189321924Y-101642261D01*
X189321924Y-101642261D02*
X189613177Y-102516021D01*
X190070861Y-101642261D02*
X190154076Y-101642261D01*
X190154076Y-101642261D02*
X190237292Y-101683869D01*
X190237292Y-101683869D02*
X190278899Y-101725476D01*
X190278899Y-101725476D02*
X190320507Y-101808692D01*
X190320507Y-101808692D02*
X190362114Y-101975122D01*
X190362114Y-101975122D02*
X190362114Y-102183160D01*
X190362114Y-102183160D02*
X190320507Y-102349591D01*
X190320507Y-102349591D02*
X190278899Y-102432806D01*
X190278899Y-102432806D02*
X190237292Y-102474414D01*
X190237292Y-102474414D02*
X190154076Y-102516021D01*
X190154076Y-102516021D02*
X190070861Y-102516021D01*
X190070861Y-102516021D02*
X189987646Y-102474414D01*
X189987646Y-102474414D02*
X189946038Y-102432806D01*
X189946038Y-102432806D02*
X189904431Y-102349591D01*
X189904431Y-102349591D02*
X189862823Y-102183160D01*
X189862823Y-102183160D02*
X189862823Y-101975122D01*
X189862823Y-101975122D02*
X189904431Y-101808692D01*
X189904431Y-101808692D02*
X189946038Y-101725476D01*
X189946038Y-101725476D02*
X189987646Y-101683869D01*
X189987646Y-101683869D02*
X190070861Y-101642261D01*
X191780886Y-102266375D02*
X192196962Y-102266375D01*
X191697671Y-102516021D02*
X191988924Y-101642261D01*
X191988924Y-101642261D02*
X192280177Y-102516021D01*
X193029114Y-102516021D02*
X192529823Y-102516021D01*
X192779469Y-102516021D02*
X192779469Y-101642261D01*
X192779469Y-101642261D02*
X192696253Y-101767084D01*
X192696253Y-101767084D02*
X192613038Y-101850299D01*
X192613038Y-101850299D02*
X192529823Y-101891907D01*
X186449063Y-102266375D02*
X186865139Y-102266375D01*
X186365848Y-102516021D02*
X186657101Y-101642261D01*
X186657101Y-101642261D02*
X186948354Y-102516021D01*
X187239608Y-102183160D02*
X187905330Y-102183160D01*
X193777809Y-86472414D02*
X193902632Y-86514021D01*
X193902632Y-86514021D02*
X194110670Y-86514021D01*
X194110670Y-86514021D02*
X194193885Y-86472414D01*
X194193885Y-86472414D02*
X194235493Y-86430806D01*
X194235493Y-86430806D02*
X194277100Y-86347591D01*
X194277100Y-86347591D02*
X194277100Y-86264375D01*
X194277100Y-86264375D02*
X194235493Y-86181160D01*
X194235493Y-86181160D02*
X194193885Y-86139553D01*
X194193885Y-86139553D02*
X194110670Y-86097945D01*
X194110670Y-86097945D02*
X193944239Y-86056337D01*
X193944239Y-86056337D02*
X193861024Y-86014730D01*
X193861024Y-86014730D02*
X193819417Y-85973122D01*
X193819417Y-85973122D02*
X193777809Y-85889907D01*
X193777809Y-85889907D02*
X193777809Y-85806692D01*
X193777809Y-85806692D02*
X193819417Y-85723476D01*
X193819417Y-85723476D02*
X193861024Y-85681869D01*
X193861024Y-85681869D02*
X193944239Y-85640261D01*
X193944239Y-85640261D02*
X194152278Y-85640261D01*
X194152278Y-85640261D02*
X194277100Y-85681869D01*
X195150860Y-86430806D02*
X195109252Y-86472414D01*
X195109252Y-86472414D02*
X194984430Y-86514021D01*
X194984430Y-86514021D02*
X194901214Y-86514021D01*
X194901214Y-86514021D02*
X194776391Y-86472414D01*
X194776391Y-86472414D02*
X194693176Y-86389198D01*
X194693176Y-86389198D02*
X194651569Y-86305983D01*
X194651569Y-86305983D02*
X194609961Y-86139553D01*
X194609961Y-86139553D02*
X194609961Y-86014730D01*
X194609961Y-86014730D02*
X194651569Y-85848299D01*
X194651569Y-85848299D02*
X194693176Y-85765084D01*
X194693176Y-85765084D02*
X194776391Y-85681869D01*
X194776391Y-85681869D02*
X194901214Y-85640261D01*
X194901214Y-85640261D02*
X194984430Y-85640261D01*
X194984430Y-85640261D02*
X195109252Y-85681869D01*
X195109252Y-85681869D02*
X195150860Y-85723476D01*
X195941405Y-86514021D02*
X195525329Y-86514021D01*
X195525329Y-86514021D02*
X195525329Y-85640261D01*
X196692277Y-88983869D02*
X196609062Y-88942261D01*
X196609062Y-88942261D02*
X196484239Y-88942261D01*
X196484239Y-88942261D02*
X196359416Y-88983869D01*
X196359416Y-88983869D02*
X196276201Y-89067084D01*
X196276201Y-89067084D02*
X196234594Y-89150299D01*
X196234594Y-89150299D02*
X196192986Y-89316730D01*
X196192986Y-89316730D02*
X196192986Y-89441553D01*
X196192986Y-89441553D02*
X196234594Y-89607983D01*
X196234594Y-89607983D02*
X196276201Y-89691198D01*
X196276201Y-89691198D02*
X196359416Y-89774414D01*
X196359416Y-89774414D02*
X196484239Y-89816021D01*
X196484239Y-89816021D02*
X196567455Y-89816021D01*
X196567455Y-89816021D02*
X196692277Y-89774414D01*
X196692277Y-89774414D02*
X196733885Y-89732806D01*
X196733885Y-89732806D02*
X196733885Y-89441553D01*
X196733885Y-89441553D02*
X196567455Y-89441553D01*
X197108354Y-89816021D02*
X197108354Y-88942261D01*
X197108354Y-88942261D02*
X197607645Y-89816021D01*
X197607645Y-89816021D02*
X197607645Y-88942261D01*
X198023722Y-89816021D02*
X198023722Y-88942261D01*
X198023722Y-88942261D02*
X198231760Y-88942261D01*
X198231760Y-88942261D02*
X198356583Y-88983869D01*
X198356583Y-88983869D02*
X198439798Y-89067084D01*
X198439798Y-89067084D02*
X198481405Y-89150299D01*
X198481405Y-89150299D02*
X198523013Y-89316730D01*
X198523013Y-89316730D02*
X198523013Y-89441553D01*
X198523013Y-89441553D02*
X198481405Y-89607983D01*
X198481405Y-89607983D02*
X198439798Y-89691198D01*
X198439798Y-89691198D02*
X198356583Y-89774414D01*
X198356583Y-89774414D02*
X198231760Y-89816021D01*
X198231760Y-89816021D02*
X198023722Y-89816021D01*
X194193886Y-102266375D02*
X194609962Y-102266375D01*
X194110671Y-102516021D02*
X194401924Y-101642261D01*
X194401924Y-101642261D02*
X194693177Y-102516021D01*
X194942823Y-101725476D02*
X194984431Y-101683869D01*
X194984431Y-101683869D02*
X195067646Y-101642261D01*
X195067646Y-101642261D02*
X195275684Y-101642261D01*
X195275684Y-101642261D02*
X195358899Y-101683869D01*
X195358899Y-101683869D02*
X195400507Y-101725476D01*
X195400507Y-101725476D02*
X195442114Y-101808692D01*
X195442114Y-101808692D02*
X195442114Y-101891907D01*
X195442114Y-101891907D02*
X195400507Y-102016730D01*
X195400507Y-102016730D02*
X194901215Y-102516021D01*
X194901215Y-102516021D02*
X195442114Y-102516021D01*
X185739556Y-89566375D02*
X186155632Y-89566375D01*
X185656341Y-89816021D02*
X185947594Y-88942261D01*
X185947594Y-88942261D02*
X186238847Y-89816021D01*
X186946177Y-89816021D02*
X186530101Y-89816021D01*
X186530101Y-89816021D02*
X186530101Y-88942261D01*
X187736722Y-89816021D02*
X187445469Y-89399945D01*
X187237431Y-89816021D02*
X187237431Y-88942261D01*
X187237431Y-88942261D02*
X187570292Y-88942261D01*
X187570292Y-88942261D02*
X187653507Y-88983869D01*
X187653507Y-88983869D02*
X187695114Y-89025476D01*
X187695114Y-89025476D02*
X187736722Y-89108692D01*
X187736722Y-89108692D02*
X187736722Y-89233514D01*
X187736722Y-89233514D02*
X187695114Y-89316730D01*
X187695114Y-89316730D02*
X187653507Y-89358337D01*
X187653507Y-89358337D02*
X187570292Y-89399945D01*
X187570292Y-89399945D02*
X187237431Y-89399945D01*
X187986368Y-88942261D02*
X188485659Y-88942261D01*
X188236013Y-89816021D02*
X188236013Y-88942261D01*
D10*
X114085019Y-124598104D02*
X114894542Y-124598104D01*
X114894542Y-124598104D02*
X114989780Y-124550485D01*
X114989780Y-124550485D02*
X115037400Y-124502866D01*
X115037400Y-124502866D02*
X115085019Y-124407628D01*
X115085019Y-124407628D02*
X115085019Y-124217152D01*
X115085019Y-124217152D02*
X115037400Y-124121914D01*
X115037400Y-124121914D02*
X114989780Y-124074295D01*
X114989780Y-124074295D02*
X114894542Y-124026676D01*
X114894542Y-124026676D02*
X114085019Y-124026676D01*
X115085019Y-123026676D02*
X115085019Y-123598104D01*
X115085019Y-123312390D02*
X114085019Y-123312390D01*
X114085019Y-123312390D02*
X114227876Y-123407628D01*
X114227876Y-123407628D02*
X114323114Y-123502866D01*
X114323114Y-123502866D02*
X114370733Y-123598104D01*
X192771733Y-129059619D02*
X192438400Y-128583428D01*
X192200305Y-129059619D02*
X192200305Y-128059619D01*
X192200305Y-128059619D02*
X192581257Y-128059619D01*
X192581257Y-128059619D02*
X192676495Y-128107238D01*
X192676495Y-128107238D02*
X192724114Y-128154857D01*
X192724114Y-128154857D02*
X192771733Y-128250095D01*
X192771733Y-128250095D02*
X192771733Y-128392952D01*
X192771733Y-128392952D02*
X192724114Y-128488190D01*
X192724114Y-128488190D02*
X192676495Y-128535809D01*
X192676495Y-128535809D02*
X192581257Y-128583428D01*
X192581257Y-128583428D02*
X192200305Y-128583428D01*
X193152686Y-128154857D02*
X193200305Y-128107238D01*
X193200305Y-128107238D02*
X193295543Y-128059619D01*
X193295543Y-128059619D02*
X193533638Y-128059619D01*
X193533638Y-128059619D02*
X193628876Y-128107238D01*
X193628876Y-128107238D02*
X193676495Y-128154857D01*
X193676495Y-128154857D02*
X193724114Y-128250095D01*
X193724114Y-128250095D02*
X193724114Y-128345333D01*
X193724114Y-128345333D02*
X193676495Y-128488190D01*
X193676495Y-128488190D02*
X193105067Y-129059619D01*
X193105067Y-129059619D02*
X193724114Y-129059619D01*
X94067333Y-127740580D02*
X94019714Y-127788200D01*
X94019714Y-127788200D02*
X93876857Y-127835819D01*
X93876857Y-127835819D02*
X93781619Y-127835819D01*
X93781619Y-127835819D02*
X93638762Y-127788200D01*
X93638762Y-127788200D02*
X93543524Y-127692961D01*
X93543524Y-127692961D02*
X93495905Y-127597723D01*
X93495905Y-127597723D02*
X93448286Y-127407247D01*
X93448286Y-127407247D02*
X93448286Y-127264390D01*
X93448286Y-127264390D02*
X93495905Y-127073914D01*
X93495905Y-127073914D02*
X93543524Y-126978676D01*
X93543524Y-126978676D02*
X93638762Y-126883438D01*
X93638762Y-126883438D02*
X93781619Y-126835819D01*
X93781619Y-126835819D02*
X93876857Y-126835819D01*
X93876857Y-126835819D02*
X94019714Y-126883438D01*
X94019714Y-126883438D02*
X94067333Y-126931057D01*
X94924476Y-126835819D02*
X94734000Y-126835819D01*
X94734000Y-126835819D02*
X94638762Y-126883438D01*
X94638762Y-126883438D02*
X94591143Y-126931057D01*
X94591143Y-126931057D02*
X94495905Y-127073914D01*
X94495905Y-127073914D02*
X94448286Y-127264390D01*
X94448286Y-127264390D02*
X94448286Y-127645342D01*
X94448286Y-127645342D02*
X94495905Y-127740580D01*
X94495905Y-127740580D02*
X94543524Y-127788200D01*
X94543524Y-127788200D02*
X94638762Y-127835819D01*
X94638762Y-127835819D02*
X94829238Y-127835819D01*
X94829238Y-127835819D02*
X94924476Y-127788200D01*
X94924476Y-127788200D02*
X94972095Y-127740580D01*
X94972095Y-127740580D02*
X95019714Y-127645342D01*
X95019714Y-127645342D02*
X95019714Y-127407247D01*
X95019714Y-127407247D02*
X94972095Y-127312009D01*
X94972095Y-127312009D02*
X94924476Y-127264390D01*
X94924476Y-127264390D02*
X94829238Y-127216771D01*
X94829238Y-127216771D02*
X94638762Y-127216771D01*
X94638762Y-127216771D02*
X94543524Y-127264390D01*
X94543524Y-127264390D02*
X94495905Y-127312009D01*
X94495905Y-127312009D02*
X94448286Y-127407247D01*
X188210866Y-147827419D02*
X188210866Y-148541704D01*
X188210866Y-148541704D02*
X188163247Y-148684561D01*
X188163247Y-148684561D02*
X188068009Y-148779800D01*
X188068009Y-148779800D02*
X187925152Y-148827419D01*
X187925152Y-148827419D02*
X187829914Y-148827419D01*
X189210866Y-148827419D02*
X188639438Y-148827419D01*
X188925152Y-148827419D02*
X188925152Y-147827419D01*
X188925152Y-147827419D02*
X188829914Y-147970276D01*
X188829914Y-147970276D02*
X188734676Y-148065514D01*
X188734676Y-148065514D02*
X188639438Y-148113133D01*
X181356095Y-120993819D02*
X181356095Y-121803342D01*
X181356095Y-121803342D02*
X181403714Y-121898580D01*
X181403714Y-121898580D02*
X181451333Y-121946200D01*
X181451333Y-121946200D02*
X181546571Y-121993819D01*
X181546571Y-121993819D02*
X181737047Y-121993819D01*
X181737047Y-121993819D02*
X181832285Y-121946200D01*
X181832285Y-121946200D02*
X181879904Y-121898580D01*
X181879904Y-121898580D02*
X181927523Y-121803342D01*
X181927523Y-121803342D02*
X181927523Y-120993819D01*
X182356095Y-121089057D02*
X182403714Y-121041438D01*
X182403714Y-121041438D02*
X182498952Y-120993819D01*
X182498952Y-120993819D02*
X182737047Y-120993819D01*
X182737047Y-120993819D02*
X182832285Y-121041438D01*
X182832285Y-121041438D02*
X182879904Y-121089057D01*
X182879904Y-121089057D02*
X182927523Y-121184295D01*
X182927523Y-121184295D02*
X182927523Y-121279533D01*
X182927523Y-121279533D02*
X182879904Y-121422390D01*
X182879904Y-121422390D02*
X182308476Y-121993819D01*
X182308476Y-121993819D02*
X182927523Y-121993819D01*
X103909905Y-127708819D02*
X103909905Y-126708819D01*
X103909905Y-126708819D02*
X104148000Y-126708819D01*
X104148000Y-126708819D02*
X104290857Y-126756438D01*
X104290857Y-126756438D02*
X104386095Y-126851676D01*
X104386095Y-126851676D02*
X104433714Y-126946914D01*
X104433714Y-126946914D02*
X104481333Y-127137390D01*
X104481333Y-127137390D02*
X104481333Y-127280247D01*
X104481333Y-127280247D02*
X104433714Y-127470723D01*
X104433714Y-127470723D02*
X104386095Y-127565961D01*
X104386095Y-127565961D02*
X104290857Y-127661200D01*
X104290857Y-127661200D02*
X104148000Y-127708819D01*
X104148000Y-127708819D02*
X103909905Y-127708819D01*
X104862286Y-126804057D02*
X104909905Y-126756438D01*
X104909905Y-126756438D02*
X105005143Y-126708819D01*
X105005143Y-126708819D02*
X105243238Y-126708819D01*
X105243238Y-126708819D02*
X105338476Y-126756438D01*
X105338476Y-126756438D02*
X105386095Y-126804057D01*
X105386095Y-126804057D02*
X105433714Y-126899295D01*
X105433714Y-126899295D02*
X105433714Y-126994533D01*
X105433714Y-126994533D02*
X105386095Y-127137390D01*
X105386095Y-127137390D02*
X104814667Y-127708819D01*
X104814667Y-127708819D02*
X105433714Y-127708819D01*
X82429295Y-90804419D02*
X82429295Y-91613942D01*
X82429295Y-91613942D02*
X82476914Y-91709180D01*
X82476914Y-91709180D02*
X82524533Y-91756800D01*
X82524533Y-91756800D02*
X82619771Y-91804419D01*
X82619771Y-91804419D02*
X82810247Y-91804419D01*
X82810247Y-91804419D02*
X82905485Y-91756800D01*
X82905485Y-91756800D02*
X82953104Y-91709180D01*
X82953104Y-91709180D02*
X83000723Y-91613942D01*
X83000723Y-91613942D02*
X83000723Y-90804419D01*
X83953104Y-90804419D02*
X83476914Y-90804419D01*
X83476914Y-90804419D02*
X83429295Y-91280609D01*
X83429295Y-91280609D02*
X83476914Y-91232990D01*
X83476914Y-91232990D02*
X83572152Y-91185371D01*
X83572152Y-91185371D02*
X83810247Y-91185371D01*
X83810247Y-91185371D02*
X83905485Y-91232990D01*
X83905485Y-91232990D02*
X83953104Y-91280609D01*
X83953104Y-91280609D02*
X84000723Y-91375847D01*
X84000723Y-91375847D02*
X84000723Y-91613942D01*
X84000723Y-91613942D02*
X83953104Y-91709180D01*
X83953104Y-91709180D02*
X83905485Y-91756800D01*
X83905485Y-91756800D02*
X83810247Y-91804419D01*
X83810247Y-91804419D02*
X83572152Y-91804419D01*
X83572152Y-91804419D02*
X83476914Y-91756800D01*
X83476914Y-91756800D02*
X83429295Y-91709180D01*
X146214619Y-134488485D02*
X145214619Y-134488485D01*
X145214619Y-134488485D02*
X145214619Y-134107533D01*
X145214619Y-134107533D02*
X145262238Y-134012295D01*
X145262238Y-134012295D02*
X145309857Y-133964676D01*
X145309857Y-133964676D02*
X145405095Y-133917057D01*
X145405095Y-133917057D02*
X145547952Y-133917057D01*
X145547952Y-133917057D02*
X145643190Y-133964676D01*
X145643190Y-133964676D02*
X145690809Y-134012295D01*
X145690809Y-134012295D02*
X145738428Y-134107533D01*
X145738428Y-134107533D02*
X145738428Y-134488485D01*
X146167000Y-133536104D02*
X146214619Y-133393247D01*
X146214619Y-133393247D02*
X146214619Y-133155152D01*
X146214619Y-133155152D02*
X146167000Y-133059914D01*
X146167000Y-133059914D02*
X146119380Y-133012295D01*
X146119380Y-133012295D02*
X146024142Y-132964676D01*
X146024142Y-132964676D02*
X145928904Y-132964676D01*
X145928904Y-132964676D02*
X145833666Y-133012295D01*
X145833666Y-133012295D02*
X145786047Y-133059914D01*
X145786047Y-133059914D02*
X145738428Y-133155152D01*
X145738428Y-133155152D02*
X145690809Y-133345628D01*
X145690809Y-133345628D02*
X145643190Y-133440866D01*
X145643190Y-133440866D02*
X145595571Y-133488485D01*
X145595571Y-133488485D02*
X145500333Y-133536104D01*
X145500333Y-133536104D02*
X145405095Y-133536104D01*
X145405095Y-133536104D02*
X145309857Y-133488485D01*
X145309857Y-133488485D02*
X145262238Y-133440866D01*
X145262238Y-133440866D02*
X145214619Y-133345628D01*
X145214619Y-133345628D02*
X145214619Y-133107533D01*
X145214619Y-133107533D02*
X145262238Y-132964676D01*
X146214619Y-132012295D02*
X146214619Y-132583723D01*
X146214619Y-132298009D02*
X145214619Y-132298009D01*
X145214619Y-132298009D02*
X145357476Y-132393247D01*
X145357476Y-132393247D02*
X145452714Y-132488485D01*
X145452714Y-132488485D02*
X145500333Y-132583723D01*
X199398095Y-105372819D02*
X199969523Y-105372819D01*
X199683809Y-106372819D02*
X199683809Y-105372819D01*
X200302857Y-106372819D02*
X200302857Y-105372819D01*
X200302857Y-105372819D02*
X200683809Y-105372819D01*
X200683809Y-105372819D02*
X200779047Y-105420438D01*
X200779047Y-105420438D02*
X200826666Y-105468057D01*
X200826666Y-105468057D02*
X200874285Y-105563295D01*
X200874285Y-105563295D02*
X200874285Y-105706152D01*
X200874285Y-105706152D02*
X200826666Y-105801390D01*
X200826666Y-105801390D02*
X200779047Y-105849009D01*
X200779047Y-105849009D02*
X200683809Y-105896628D01*
X200683809Y-105896628D02*
X200302857Y-105896628D01*
X201207619Y-105372819D02*
X201874285Y-105372819D01*
X201874285Y-105372819D02*
X201445714Y-106372819D01*
X82784219Y-122342485D02*
X81784219Y-122342485D01*
X81784219Y-122342485D02*
X81784219Y-121961533D01*
X81784219Y-121961533D02*
X81831838Y-121866295D01*
X81831838Y-121866295D02*
X81879457Y-121818676D01*
X81879457Y-121818676D02*
X81974695Y-121771057D01*
X81974695Y-121771057D02*
X82117552Y-121771057D01*
X82117552Y-121771057D02*
X82212790Y-121818676D01*
X82212790Y-121818676D02*
X82260409Y-121866295D01*
X82260409Y-121866295D02*
X82308028Y-121961533D01*
X82308028Y-121961533D02*
X82308028Y-122342485D01*
X82736600Y-121390104D02*
X82784219Y-121247247D01*
X82784219Y-121247247D02*
X82784219Y-121009152D01*
X82784219Y-121009152D02*
X82736600Y-120913914D01*
X82736600Y-120913914D02*
X82688980Y-120866295D01*
X82688980Y-120866295D02*
X82593742Y-120818676D01*
X82593742Y-120818676D02*
X82498504Y-120818676D01*
X82498504Y-120818676D02*
X82403266Y-120866295D01*
X82403266Y-120866295D02*
X82355647Y-120913914D01*
X82355647Y-120913914D02*
X82308028Y-121009152D01*
X82308028Y-121009152D02*
X82260409Y-121199628D01*
X82260409Y-121199628D02*
X82212790Y-121294866D01*
X82212790Y-121294866D02*
X82165171Y-121342485D01*
X82165171Y-121342485D02*
X82069933Y-121390104D01*
X82069933Y-121390104D02*
X81974695Y-121390104D01*
X81974695Y-121390104D02*
X81879457Y-121342485D01*
X81879457Y-121342485D02*
X81831838Y-121294866D01*
X81831838Y-121294866D02*
X81784219Y-121199628D01*
X81784219Y-121199628D02*
X81784219Y-120961533D01*
X81784219Y-120961533D02*
X81831838Y-120818676D01*
X81879457Y-120437723D02*
X81831838Y-120390104D01*
X81831838Y-120390104D02*
X81784219Y-120294866D01*
X81784219Y-120294866D02*
X81784219Y-120056771D01*
X81784219Y-120056771D02*
X81831838Y-119961533D01*
X81831838Y-119961533D02*
X81879457Y-119913914D01*
X81879457Y-119913914D02*
X81974695Y-119866295D01*
X81974695Y-119866295D02*
X82069933Y-119866295D01*
X82069933Y-119866295D02*
X82212790Y-119913914D01*
X82212790Y-119913914D02*
X82784219Y-120485342D01*
X82784219Y-120485342D02*
X82784219Y-119866295D01*
X173836105Y-112048219D02*
X173836105Y-111048219D01*
X173836105Y-111048219D02*
X174074200Y-111048219D01*
X174074200Y-111048219D02*
X174217057Y-111095838D01*
X174217057Y-111095838D02*
X174312295Y-111191076D01*
X174312295Y-111191076D02*
X174359914Y-111286314D01*
X174359914Y-111286314D02*
X174407533Y-111476790D01*
X174407533Y-111476790D02*
X174407533Y-111619647D01*
X174407533Y-111619647D02*
X174359914Y-111810123D01*
X174359914Y-111810123D02*
X174312295Y-111905361D01*
X174312295Y-111905361D02*
X174217057Y-112000600D01*
X174217057Y-112000600D02*
X174074200Y-112048219D01*
X174074200Y-112048219D02*
X173836105Y-112048219D01*
X175312295Y-111048219D02*
X174836105Y-111048219D01*
X174836105Y-111048219D02*
X174788486Y-111524409D01*
X174788486Y-111524409D02*
X174836105Y-111476790D01*
X174836105Y-111476790D02*
X174931343Y-111429171D01*
X174931343Y-111429171D02*
X175169438Y-111429171D01*
X175169438Y-111429171D02*
X175264676Y-111476790D01*
X175264676Y-111476790D02*
X175312295Y-111524409D01*
X175312295Y-111524409D02*
X175359914Y-111619647D01*
X175359914Y-111619647D02*
X175359914Y-111857742D01*
X175359914Y-111857742D02*
X175312295Y-111952980D01*
X175312295Y-111952980D02*
X175264676Y-112000600D01*
X175264676Y-112000600D02*
X175169438Y-112048219D01*
X175169438Y-112048219D02*
X174931343Y-112048219D01*
X174931343Y-112048219D02*
X174836105Y-112000600D01*
X174836105Y-112000600D02*
X174788486Y-111952980D01*
D14*
%TO.C,J12*%
X193597000Y-122234000D02*
X202817000Y-122234000D01*
X203317000Y-125754000D02*
X203317000Y-121734000D01*
X193097000Y-123444000D02*
X193597000Y-123444000D01*
X193097000Y-121734000D02*
X193097000Y-125754000D01*
X194097000Y-124254000D02*
X194097000Y-125754000D01*
X193097000Y-124254000D02*
X194097000Y-124254000D01*
X203317000Y-121734000D02*
X193097000Y-121734000D01*
X192797000Y-126054000D02*
X195297000Y-126054000D01*
X193597000Y-123444000D02*
X193597000Y-122234000D01*
X203317000Y-124254000D02*
X202317000Y-124254000D01*
X192797000Y-123554000D02*
X192797000Y-126054000D01*
X202817000Y-122234000D02*
X202817000Y-123444000D01*
X202317000Y-124254000D02*
X202317000Y-125754000D01*
X202817000Y-123444000D02*
X203317000Y-123444000D01*
X193097000Y-125754000D02*
X203317000Y-125754000D01*
%TO.C,J11*%
X193597000Y-116011000D02*
X202817000Y-116011000D01*
X203317000Y-119531000D02*
X203317000Y-115511000D01*
X193097000Y-117221000D02*
X193597000Y-117221000D01*
X193097000Y-115511000D02*
X193097000Y-119531000D01*
X194097000Y-118031000D02*
X194097000Y-119531000D01*
X193097000Y-118031000D02*
X194097000Y-118031000D01*
X203317000Y-115511000D02*
X193097000Y-115511000D01*
X192797000Y-119831000D02*
X195297000Y-119831000D01*
X193597000Y-117221000D02*
X193597000Y-116011000D01*
X203317000Y-118031000D02*
X202317000Y-118031000D01*
X192797000Y-117331000D02*
X192797000Y-119831000D01*
X202817000Y-116011000D02*
X202817000Y-117221000D01*
X202317000Y-118031000D02*
X202317000Y-119531000D01*
X202817000Y-117221000D02*
X203317000Y-117221000D01*
X193097000Y-119531000D02*
X203317000Y-119531000D01*
%TO.C,J10*%
X193097000Y-113165000D02*
X203317000Y-113165000D01*
X202817000Y-110855000D02*
X203317000Y-110855000D01*
X202317000Y-111665000D02*
X202317000Y-113165000D01*
X202817000Y-109645000D02*
X202817000Y-110855000D01*
X192797000Y-110965000D02*
X192797000Y-113465000D01*
X203317000Y-111665000D02*
X202317000Y-111665000D01*
X193597000Y-110855000D02*
X193597000Y-109645000D01*
X192797000Y-113465000D02*
X195297000Y-113465000D01*
X203317000Y-109145000D02*
X193097000Y-109145000D01*
X193097000Y-111665000D02*
X194097000Y-111665000D01*
X194097000Y-111665000D02*
X194097000Y-113165000D01*
X193097000Y-109145000D02*
X193097000Y-113165000D01*
X193097000Y-110855000D02*
X193597000Y-110855000D01*
X203317000Y-113165000D02*
X203317000Y-109145000D01*
X193597000Y-109645000D02*
X202817000Y-109645000D01*
%TO.C,J9*%
X80655000Y-59968000D02*
X90875000Y-59968000D01*
X90375000Y-57658000D02*
X90875000Y-57658000D01*
X89875000Y-58468000D02*
X89875000Y-59968000D01*
X90375000Y-56448000D02*
X90375000Y-57658000D01*
X80355000Y-57768000D02*
X80355000Y-60268000D01*
X90875000Y-58468000D02*
X89875000Y-58468000D01*
X81155000Y-57658000D02*
X81155000Y-56448000D01*
X80355000Y-60268000D02*
X82855000Y-60268000D01*
X90875000Y-55948000D02*
X80655000Y-55948000D01*
X80655000Y-58468000D02*
X81655000Y-58468000D01*
X81655000Y-58468000D02*
X81655000Y-59968000D01*
X80655000Y-55948000D02*
X80655000Y-59968000D01*
X80655000Y-57658000D02*
X81155000Y-57658000D01*
X90875000Y-59968000D02*
X90875000Y-55948000D01*
X81155000Y-56448000D02*
X90375000Y-56448000D01*
%TO.C,J8*%
X76591000Y-75462000D02*
X86811000Y-75462000D01*
X86311000Y-73152000D02*
X86811000Y-73152000D01*
X85811000Y-73962000D02*
X85811000Y-75462000D01*
X86311000Y-71942000D02*
X86311000Y-73152000D01*
X76291000Y-73262000D02*
X76291000Y-75762000D01*
X86811000Y-73962000D02*
X85811000Y-73962000D01*
X77091000Y-73152000D02*
X77091000Y-71942000D01*
X76291000Y-75762000D02*
X78791000Y-75762000D01*
X86811000Y-71442000D02*
X76591000Y-71442000D01*
X76591000Y-73962000D02*
X77591000Y-73962000D01*
X77591000Y-73962000D02*
X77591000Y-75462000D01*
X76591000Y-71442000D02*
X76591000Y-75462000D01*
X76591000Y-73152000D02*
X77091000Y-73152000D01*
X86811000Y-75462000D02*
X86811000Y-71442000D01*
X77091000Y-71942000D02*
X86311000Y-71942000D01*
%TO.C,J7*%
X77861000Y-67461000D02*
X88081000Y-67461000D01*
X87581000Y-65151000D02*
X88081000Y-65151000D01*
X87081000Y-65961000D02*
X87081000Y-67461000D01*
X87581000Y-63941000D02*
X87581000Y-65151000D01*
X77561000Y-65261000D02*
X77561000Y-67761000D01*
X88081000Y-65961000D02*
X87081000Y-65961000D01*
X78361000Y-65151000D02*
X78361000Y-63941000D01*
X77561000Y-67761000D02*
X80061000Y-67761000D01*
X88081000Y-63441000D02*
X77861000Y-63441000D01*
X77861000Y-65961000D02*
X78861000Y-65961000D01*
X78861000Y-65961000D02*
X78861000Y-67461000D01*
X77861000Y-63441000D02*
X77861000Y-67461000D01*
X77861000Y-65151000D02*
X78361000Y-65151000D01*
X88081000Y-67461000D02*
X88081000Y-63441000D01*
X78361000Y-63941000D02*
X87581000Y-63941000D01*
%TO.C,J5*%
X97342000Y-75946000D02*
X97342000Y-60646000D01*
X97342000Y-75946000D02*
X94682000Y-75946000D01*
X97342000Y-60646000D02*
X94682000Y-60646000D01*
X96012000Y-78546000D02*
X94682000Y-78546000D01*
X94682000Y-78546000D02*
X94682000Y-77216000D01*
X94682000Y-75946000D02*
X94682000Y-60646000D01*
%TO.C,JP6*%
X77135000Y-102422800D02*
X76535000Y-102422800D01*
X75835000Y-101722800D02*
X75835000Y-100322800D01*
X77835000Y-100322800D02*
X77835000Y-101722800D01*
X76535000Y-99622800D02*
X77135000Y-99622800D01*
X75835000Y-101722800D02*
G75*
G03*
X76535000Y-102422800I699999J-1D01*
G01*
X77135000Y-102422800D02*
G75*
G03*
X77835000Y-101722800I1J699999D01*
G01*
X76535000Y-99622800D02*
G75*
G03*
X75835000Y-100322800I0J-700000D01*
G01*
X77835000Y-100322800D02*
G75*
G03*
X77135000Y-99622800I-700000J0D01*
G01*
%TO.C,JP8*%
X81983800Y-125415800D02*
X81983800Y-126015800D01*
X81283800Y-126715800D02*
X79883800Y-126715800D01*
X79883800Y-124715800D02*
X81283800Y-124715800D01*
X79183800Y-126015800D02*
X79183800Y-125415800D01*
X81283800Y-126715800D02*
G75*
G03*
X81983800Y-126015800I1J699999D01*
G01*
X81983800Y-125415800D02*
G75*
G03*
X81283800Y-124715800I-699999J1D01*
G01*
X79183800Y-126015800D02*
G75*
G03*
X79883800Y-126715800I700000J0D01*
G01*
X79883800Y-124715800D02*
G75*
G03*
X79183800Y-125415800I0J-700000D01*
G01*
%TO.C,C7*%
X97080400Y-126840652D02*
X97080400Y-126318148D01*
X98550400Y-126840652D02*
X98550400Y-126318148D01*
%TO.C,D3*%
X185871400Y-81220200D02*
X185871400Y-83140200D01*
X185871400Y-83140200D02*
X188731400Y-83140200D01*
X188731400Y-81220200D02*
X185871400Y-81220200D01*
D11*
%TO.C,BMR1*%
X178145200Y-46315400D02*
X178145200Y-105751400D01*
X141061200Y-46315400D02*
X178145200Y-46315400D01*
X178145200Y-105751400D02*
X141061200Y-105751400D01*
X141061200Y-105751400D02*
X141061200Y-46315400D01*
%TO.C,BMR2*%
X136235200Y-46010600D02*
X136235200Y-105446600D01*
X99151200Y-46010600D02*
X136235200Y-46010600D01*
X136235200Y-105446600D02*
X99151200Y-105446600D01*
X99151200Y-105446600D02*
X99151200Y-46010600D01*
D14*
%TO.C,D1*%
X108858600Y-40478600D02*
X108858600Y-42398600D01*
X108858600Y-42398600D02*
X111718600Y-42398600D01*
X111718600Y-40478600D02*
X108858600Y-40478600D01*
%TO.C,J2*%
X146781200Y-35799600D02*
X146781200Y-32649600D01*
X146781200Y-32649600D02*
X143931200Y-30049600D01*
X143931200Y-38349600D02*
X146781200Y-35799600D01*
X143931200Y-30049600D02*
X131081200Y-30049600D01*
X131081200Y-38349600D02*
X143931200Y-38349600D01*
X131081200Y-30049600D02*
X131081200Y-38349600D01*
%TO.C,R4*%
X109608864Y-125841200D02*
X109154736Y-125841200D01*
X109608864Y-124371200D02*
X109154736Y-124371200D01*
%TO.C,TP2*%
X204378600Y-76119800D02*
X202478600Y-76119800D01*
X204378600Y-74219800D02*
X204378600Y-76119800D01*
X202478600Y-76119800D02*
X202478600Y-74219800D01*
X202478600Y-74219800D02*
X204378600Y-74219800D01*
%TO.C,JP5*%
X70192200Y-91436600D02*
X70192200Y-90836600D01*
X70892200Y-90136600D02*
X72292200Y-90136600D01*
X72292200Y-92136600D02*
X70892200Y-92136600D01*
X72992200Y-90836600D02*
X72992200Y-91436600D01*
X70892200Y-90136600D02*
G75*
G03*
X70192200Y-90836600I-1J-699999D01*
G01*
X70192200Y-91436600D02*
G75*
G03*
X70892200Y-92136600I699999J-1D01*
G01*
X72992200Y-90836600D02*
G75*
G03*
X72292200Y-90136600I-700000J0D01*
G01*
X72292200Y-92136600D02*
G75*
G03*
X72992200Y-91436600I0J700000D01*
G01*
%TO.C,R1*%
X191184200Y-131238536D02*
X191184200Y-131692664D01*
X189714200Y-131238536D02*
X189714200Y-131692664D01*
%TO.C,FB1*%
X86605800Y-129235652D02*
X86605800Y-126463148D01*
X90025800Y-129235652D02*
X90025800Y-126463148D01*
%TO.C,JP3*%
X70192200Y-98536600D02*
X70192200Y-97936600D01*
X70892200Y-97236600D02*
X72292200Y-97236600D01*
X72292200Y-99236600D02*
X70892200Y-99236600D01*
X72992200Y-97936600D02*
X72992200Y-98536600D01*
X70892200Y-97236600D02*
G75*
G03*
X70192200Y-97936600I-1J-699999D01*
G01*
X70192200Y-98536600D02*
G75*
G03*
X70892200Y-99236600I699999J-1D01*
G01*
X72992200Y-97936600D02*
G75*
G03*
X72292200Y-97236600I-700000J0D01*
G01*
X72292200Y-99236600D02*
G75*
G03*
X72992200Y-98536600I0J700000D01*
G01*
%TO.C,J3*%
X94116200Y-98842600D02*
X94116200Y-83542600D01*
X94116200Y-98842600D02*
X91456200Y-98842600D01*
X94116200Y-83542600D02*
X91456200Y-83542600D01*
X92786200Y-101442600D02*
X91456200Y-101442600D01*
X91456200Y-101442600D02*
X91456200Y-100112600D01*
X91456200Y-98842600D02*
X91456200Y-83542600D01*
%TO.C,C2*%
X187347452Y-126450800D02*
X186824948Y-126450800D01*
X187347452Y-124980800D02*
X186824948Y-124980800D01*
%TO.C,R5*%
X193100464Y-82940600D02*
X192646336Y-82940600D01*
X193100464Y-81470600D02*
X192646336Y-81470600D01*
%TO.C,TP5*%
X194218600Y-56511000D02*
X192318600Y-56511000D01*
X194218600Y-54611000D02*
X194218600Y-56511000D01*
X192318600Y-56511000D02*
X192318600Y-54611000D01*
X192318600Y-54611000D02*
X194218600Y-54611000D01*
%TO.C,J6*%
X88860200Y-49803600D02*
X88860200Y-52303600D01*
X88860200Y-52303600D02*
X91360200Y-52303600D01*
X89160200Y-47983600D02*
X89160200Y-52003600D01*
X89160200Y-49693600D02*
X89660200Y-49693600D01*
X89160200Y-50503600D02*
X90160200Y-50503600D01*
X89160200Y-52003600D02*
X96880200Y-52003600D01*
X89660200Y-48483600D02*
X96380200Y-48483600D01*
X89660200Y-49693600D02*
X89660200Y-48483600D01*
X90160200Y-50503600D02*
X90160200Y-52003600D01*
X95880200Y-50503600D02*
X95880200Y-52003600D01*
X96380200Y-48483600D02*
X96380200Y-49693600D01*
X96380200Y-49693600D02*
X96880200Y-49693600D01*
X96880200Y-47983600D02*
X89160200Y-47983600D01*
X96880200Y-50503600D02*
X95880200Y-50503600D01*
X96880200Y-52003600D02*
X96880200Y-47983600D01*
%TO.C,TP1*%
X206207400Y-82266600D02*
X204307400Y-82266600D01*
X206207400Y-80366600D02*
X206207400Y-82266600D01*
X204307400Y-82266600D02*
X204307400Y-80366600D01*
X204307400Y-80366600D02*
X206207400Y-80366600D01*
%TO.C,C3*%
X191650252Y-107908800D02*
X191127748Y-107908800D01*
X191650252Y-106438800D02*
X191127748Y-106438800D01*
%TO.C,R3*%
X115981864Y-42122800D02*
X115527736Y-42122800D01*
X115981864Y-40652800D02*
X115527736Y-40652800D01*
%TO.C,C1*%
X141263648Y-126098400D02*
X141786152Y-126098400D01*
X141263648Y-127568400D02*
X141786152Y-127568400D01*
D15*
%TO.C,ADS1*%
X206375000Y-100468200D02*
X206375000Y-87768200D01*
X203835000Y-85228200D02*
X183515000Y-85228200D01*
X183515000Y-103008200D02*
X203835000Y-103008200D01*
X180975000Y-87768200D02*
X180975000Y-100468200D01*
X203835000Y-103008200D02*
G75*
G03*
X206375000Y-100468200I-1J2540001D01*
G01*
X206375000Y-87768200D02*
G75*
G03*
X203835000Y-85228200I-2540001J-1D01*
G01*
X180974998Y-100468200D02*
G75*
G03*
X183515000Y-103008200I2540001J1D01*
G01*
X183515000Y-85228200D02*
G75*
G03*
X180975000Y-87768200I-1J-2539999D01*
G01*
D14*
%TO.C,U1*%
X133286200Y-129148600D02*
X122366200Y-129148600D01*
X133286200Y-127148600D02*
X133286200Y-129148600D01*
X137686200Y-127148600D02*
X133286200Y-127148600D01*
X124446200Y-124908600D02*
X122366200Y-124908600D01*
X124446200Y-124908600D02*
X124446200Y-119148600D01*
X137686200Y-124193600D02*
X139566200Y-124193600D01*
X137686200Y-123683600D02*
X139566200Y-123683600D01*
X137686200Y-122283600D02*
X139566200Y-122283600D01*
X137686200Y-121773600D02*
X139566200Y-121773600D01*
X137686200Y-120373600D02*
X139566200Y-120373600D01*
X137686200Y-119863600D02*
X139566200Y-119863600D01*
X124446200Y-119148600D02*
X122366200Y-119148600D01*
X133286200Y-116908600D02*
X133286200Y-114908600D01*
X137686200Y-116908600D02*
X137686200Y-127148600D01*
X137686200Y-116908600D02*
X133286200Y-116908600D01*
X133286200Y-114908600D02*
X122366200Y-114908600D01*
%TO.C,R2*%
X193673400Y-131187736D02*
X193673400Y-131641864D01*
X192203400Y-131187736D02*
X192203400Y-131641864D01*
%TO.C,C6*%
X93185348Y-124828400D02*
X93707852Y-124828400D01*
X93185348Y-126298400D02*
X93707852Y-126298400D01*
D16*
%TO.C,J1*%
X91379000Y-138982200D02*
X91379000Y-152052200D01*
X91379000Y-152052200D02*
X186629000Y-152052200D01*
X99904000Y-138982200D02*
X91379000Y-138982200D01*
X186629000Y-138982200D02*
X178104000Y-138982200D01*
X186629000Y-152052200D02*
X186629000Y-138982200D01*
X90844000Y-148242200D02*
G75*
G03*
X90844000Y-148242200I-100000J0D01*
G01*
D14*
%TO.C,JP4*%
X70249200Y-95078600D02*
X70249200Y-94478600D01*
X70949200Y-93778600D02*
X72349200Y-93778600D01*
X72349200Y-95778600D02*
X70949200Y-95778600D01*
X73049200Y-94478600D02*
X73049200Y-95078600D01*
X70949200Y-93778600D02*
G75*
G03*
X70249200Y-94478600I-1J-699999D01*
G01*
X70249200Y-95078600D02*
G75*
G03*
X70949200Y-95778600I699999J-1D01*
G01*
X73049200Y-94478600D02*
G75*
G03*
X72349200Y-93778600I-700000J0D01*
G01*
X72349200Y-95778600D02*
G75*
G03*
X73049200Y-95078600I0J700000D01*
G01*
%TO.C,U2*%
X187020200Y-118583800D02*
X183570200Y-118583800D01*
X187020200Y-118583800D02*
X188970200Y-118583800D01*
X187020200Y-123703800D02*
X185070200Y-123703800D01*
X187020200Y-123703800D02*
X188970200Y-123703800D01*
%TO.C,D2*%
X101610600Y-124171600D02*
X101610600Y-126091600D01*
X101610600Y-126091600D02*
X104470600Y-126091600D01*
X104470600Y-124171600D02*
X101610600Y-124171600D01*
%TO.C,U5*%
X78146200Y-97338600D02*
X81596200Y-97338600D01*
X78146200Y-97338600D02*
X76196200Y-97338600D01*
X78146200Y-92218600D02*
X80096200Y-92218600D01*
X78146200Y-92218600D02*
X76196200Y-92218600D01*
%TO.C,TP3*%
X201838600Y-69566600D02*
X199938600Y-69566600D01*
X201838600Y-67666600D02*
X201838600Y-69566600D01*
X199938600Y-69566600D02*
X199938600Y-67666600D01*
X199938600Y-67666600D02*
X201838600Y-67666600D01*
%TO.C,TP4*%
X198536600Y-62505400D02*
X196636600Y-62505400D01*
X198536600Y-60605400D02*
X198536600Y-62505400D01*
X196636600Y-62505400D02*
X196636600Y-60605400D01*
X196636600Y-60605400D02*
X198536600Y-60605400D01*
D17*
%TO.C,PS1*%
X172897800Y-109104200D02*
X147497800Y-109104200D01*
X147497800Y-109104200D02*
X147497800Y-134504200D01*
X172897800Y-134504200D02*
X172897800Y-109104200D01*
X147497800Y-134504200D02*
X172897800Y-134504200D01*
D16*
X174297800Y-119304200D02*
G75*
G03*
X174297800Y-119304200I-100000J0D01*
G01*
D14*
%TO.C,TP7*%
X196720149Y-104598200D02*
X198620149Y-104598200D01*
X196720149Y-106498200D02*
X196720149Y-104598200D01*
X198620149Y-104598200D02*
X198620149Y-106498200D01*
X198620149Y-106498200D02*
X196720149Y-106498200D01*
D17*
%TO.C,PS2*%
X83579400Y-124098200D02*
X95769400Y-124098200D01*
X95769400Y-124098200D02*
X95769400Y-111908200D01*
X83579400Y-111908200D02*
X83579400Y-124098200D01*
X95769400Y-111908200D02*
X83579400Y-111908200D01*
D16*
X85199400Y-124703200D02*
G75*
G03*
X85199400Y-124703200I-100000J0D01*
G01*
D14*
%TO.C,D5*%
X180591800Y-112695000D02*
X180591800Y-110695000D01*
X180591800Y-112695000D02*
X176581800Y-112695000D01*
X180591800Y-110695000D02*
X176581800Y-110695000D01*
%TD*%
M02*
