%TF.GenerationSoftware,KiCad,Pcbnew,7.0.8*%
%TF.CreationDate,2024-05-08T13:20:20-04:00*%
%TF.ProjectId,PowerBoard_2024,506f7765-7242-46f6-9172-645f32303234,rev?*%
%TF.SameCoordinates,Original*%
%TF.FileFunction,Soldermask,Top*%
%TF.FilePolarity,Negative*%
%FSLAX46Y46*%
G04 Gerber Fmt 4.6, Leading zero omitted, Abs format (unit mm)*
G04 Created by KiCad (PCBNEW 7.0.8) date 2024-05-08 13:20:20*
%MOMM*%
%LPD*%
G01*
G04 APERTURE LIST*
G04 Aperture macros list*
%AMRoundRect*
0 Rectangle with rounded corners*
0 $1 Rounding radius*
0 $2 $3 $4 $5 $6 $7 $8 $9 X,Y pos of 4 corners*
0 Add a 4 corners polygon primitive as box body*
4,1,4,$2,$3,$4,$5,$6,$7,$8,$9,$2,$3,0*
0 Add four circle primitives for the rounded corners*
1,1,$1+$1,$2,$3*
1,1,$1+$1,$4,$5*
1,1,$1+$1,$6,$7*
1,1,$1+$1,$8,$9*
0 Add four rect primitives between the rounded corners*
20,1,$1+$1,$2,$3,$4,$5,0*
20,1,$1+$1,$4,$5,$6,$7,0*
20,1,$1+$1,$6,$7,$8,$9,0*
20,1,$1+$1,$8,$9,$2,$3,0*%
%AMHorizOval*
0 Thick line with rounded ends*
0 $1 width*
0 $2 $3 position (X,Y) of the first rounded end (center of the circle)*
0 $4 $5 position (X,Y) of the second rounded end (center of the circle)*
0 Add line between two ends*
20,1,$1,$2,$3,$4,$5,0*
0 Add two circle primitives to create the rounded ends*
1,1,$1,$2,$3*
1,1,$1,$4,$5*%
%AMFreePoly0*
4,1,19,0.500000,-0.750000,0.000000,-0.750000,0.000000,-0.744911,-0.071157,-0.744911,-0.207708,-0.704816,-0.327430,-0.627875,-0.420627,-0.520320,-0.479746,-0.390866,-0.500000,-0.250000,-0.500000,0.250000,-0.479746,0.390866,-0.420627,0.520320,-0.327430,0.627875,-0.207708,0.704816,-0.071157,0.744911,0.000000,0.744911,0.000000,0.750000,0.500000,0.750000,0.500000,-0.750000,0.500000,-0.750000,
$1*%
%AMFreePoly1*
4,1,19,0.000000,0.744911,0.071157,0.744911,0.207708,0.704816,0.327430,0.627875,0.420627,0.520320,0.479746,0.390866,0.500000,0.250000,0.500000,-0.250000,0.479746,-0.390866,0.420627,-0.520320,0.327430,-0.627875,0.207708,-0.704816,0.071157,-0.744911,0.000000,-0.744911,0.000000,-0.750000,-0.500000,-0.750000,-0.500000,0.750000,0.000000,0.750000,0.000000,0.744911,0.000000,0.744911,
$1*%
G04 Aperture macros list end*
%ADD10O,1.700000X1.950000*%
%ADD11RoundRect,0.250000X-0.600000X-0.725000X0.600000X-0.725000X0.600000X0.725000X-0.600000X0.725000X0*%
%ADD12R,1.700000X1.700000*%
%ADD13O,1.700000X1.700000*%
%ADD14FreePoly0,90.000000*%
%ADD15FreePoly1,90.000000*%
%ADD16FreePoly0,180.000000*%
%ADD17FreePoly1,180.000000*%
%ADD18RoundRect,0.250000X0.475000X-0.337500X0.475000X0.337500X-0.475000X0.337500X-0.475000X-0.337500X0*%
%ADD19RoundRect,0.250000X-0.325000X-0.450000X0.325000X-0.450000X0.325000X0.450000X-0.325000X0.450000X0*%
%ADD20C,7.620000*%
%ADD21C,3.101600*%
%ADD22C,3.784600*%
%ADD23C,1.801600*%
%ADD24RoundRect,1.500000X1.500000X1.500000X-1.500000X1.500000X-1.500000X-1.500000X1.500000X-1.500000X0*%
%ADD25C,6.000000*%
%ADD26RoundRect,0.250000X0.350000X0.450000X-0.350000X0.450000X-0.350000X-0.450000X0.350000X-0.450000X0*%
%ADD27R,1.500000X1.500000*%
%ADD28FreePoly0,0.000000*%
%ADD29FreePoly1,0.000000*%
%ADD30RoundRect,0.250000X-0.450000X0.350000X-0.450000X-0.350000X0.450000X-0.350000X0.450000X0.350000X0*%
%ADD31RoundRect,0.250000X1.450000X-0.400000X1.450000X0.400000X-1.450000X0.400000X-1.450000X-0.400000X0*%
%ADD32RoundRect,0.250000X0.337500X0.475000X-0.337500X0.475000X-0.337500X-0.475000X0.337500X-0.475000X0*%
%ADD33RoundRect,0.250000X-0.600000X-0.750000X0.600000X-0.750000X0.600000X0.750000X-0.600000X0.750000X0*%
%ADD34O,1.700000X2.000000*%
%ADD35RoundRect,0.250000X-0.337500X-0.475000X0.337500X-0.475000X0.337500X0.475000X-0.337500X0.475000X0*%
%ADD36C,1.879600*%
%ADD37C,3.301600*%
%ADD38C,1.500000*%
%ADD39HorizOval,0.800000X0.000000X0.000000X0.000000X0.000000X0*%
%ADD40HorizOval,0.800000X0.000000X0.000000X0.000000X0.000000X0*%
%ADD41C,0.800000*%
%ADD42O,6.000000X9.000000*%
%ADD43C,4.010000*%
%ADD44C,2.184000*%
%ADD45RoundRect,0.102000X-0.765000X-0.765000X0.765000X-0.765000X0.765000X0.765000X-0.765000X0.765000X0*%
%ADD46C,1.734000*%
%ADD47RoundRect,0.150000X-0.825000X-0.150000X0.825000X-0.150000X0.825000X0.150000X-0.825000X0.150000X0*%
%ADD48RoundRect,0.150000X0.725000X0.150000X-0.725000X0.150000X-0.725000X-0.150000X0.725000X-0.150000X0*%
%ADD49RoundRect,0.102000X-0.975000X0.975000X-0.975000X-0.975000X0.975000X-0.975000X0.975000X0.975000X0*%
%ADD50C,2.154000*%
%ADD51RoundRect,0.102000X0.530000X-0.530000X0.530000X0.530000X-0.530000X0.530000X-0.530000X-0.530000X0*%
%ADD52RoundRect,0.225000X0.225000X0.375000X-0.225000X0.375000X-0.225000X-0.375000X0.225000X-0.375000X0*%
%ADD53R,2.500000X1.500000*%
%ADD54O,2.500000X1.500000*%
%ADD55R,1.600000X1.600000*%
%ADD56C,1.600000*%
%ADD57O,2.108200X1.422400*%
G04 APERTURE END LIST*
D10*
%TO.C,J12*%
X200707000Y-123444000D03*
X198207000Y-123444000D03*
D11*
X195707000Y-123444000D03*
%TD*%
D10*
%TO.C,J11*%
X200707000Y-117221000D03*
X198207000Y-117221000D03*
D11*
X195707000Y-117221000D03*
%TD*%
%TO.C,J10*%
X195707000Y-110855000D03*
D10*
X198207000Y-110855000D03*
X200707000Y-110855000D03*
%TD*%
D11*
%TO.C,J9*%
X83265000Y-57658000D03*
D10*
X85765000Y-57658000D03*
X88265000Y-57658000D03*
%TD*%
D11*
%TO.C,J8*%
X79201000Y-73152000D03*
D10*
X81701000Y-73152000D03*
X84201000Y-73152000D03*
%TD*%
D11*
%TO.C,J7*%
X80471000Y-65151000D03*
D10*
X82971000Y-65151000D03*
X85471000Y-65151000D03*
%TD*%
D12*
%TO.C,J5*%
X96012000Y-77216000D03*
D13*
X96012000Y-74676000D03*
X96012000Y-72136000D03*
X96012000Y-69596000D03*
X96012000Y-67056000D03*
X96012000Y-64516000D03*
X96012000Y-61976000D03*
%TD*%
D14*
%TO.C,JP6*%
X76835000Y-101672800D03*
D15*
X76835000Y-100372800D03*
%TD*%
D16*
%TO.C,JP8*%
X81233800Y-125715800D03*
D17*
X79933800Y-125715800D03*
%TD*%
D18*
%TO.C,C7*%
X97815400Y-127616900D03*
X97815400Y-125541900D03*
%TD*%
D19*
%TO.C,D3*%
X186706400Y-82180200D03*
X188756400Y-82180200D03*
%TD*%
D20*
%TO.C,TP11*%
X158216600Y-34733000D03*
%TD*%
D21*
%TO.C,BMR1*%
X167477200Y-50379400D03*
X159857200Y-50379400D03*
X152237200Y-50379400D03*
D22*
X148427200Y-101179400D03*
X152237200Y-101179400D03*
X167477200Y-101179400D03*
X171287200Y-101179400D03*
D23*
X153857200Y-103719400D03*
X155857200Y-103719400D03*
X157857200Y-103719400D03*
X159857200Y-103719400D03*
X161857200Y-103719400D03*
X163857200Y-103719400D03*
X165857200Y-103719400D03*
%TD*%
D21*
%TO.C,BMR2*%
X125567200Y-50074600D03*
X117947200Y-50074600D03*
X110327200Y-50074600D03*
D22*
X106517200Y-100874600D03*
X110327200Y-100874600D03*
X125567200Y-100874600D03*
X129377200Y-100874600D03*
D23*
X111947200Y-103414600D03*
X113947200Y-103414600D03*
X115947200Y-103414600D03*
X117947200Y-103414600D03*
X119947200Y-103414600D03*
X121947200Y-103414600D03*
X123947200Y-103414600D03*
%TD*%
D19*
%TO.C,D1*%
X109693600Y-41438600D03*
X111743600Y-41438600D03*
%TD*%
D24*
%TO.C,J2*%
X142531200Y-34199600D03*
D25*
X135331200Y-34199600D03*
%TD*%
D26*
%TO.C,R4*%
X110381800Y-125106200D03*
X108381800Y-125106200D03*
%TD*%
D27*
%TO.C,TP2*%
X203428600Y-75169800D03*
%TD*%
D28*
%TO.C,JP5*%
X70942200Y-91136600D03*
D29*
X72242200Y-91136600D03*
%TD*%
D30*
%TO.C,R1*%
X190449200Y-130465600D03*
X190449200Y-132465600D03*
%TD*%
D31*
%TO.C,FB1*%
X88315800Y-130074400D03*
X88315800Y-125624400D03*
%TD*%
D28*
%TO.C,JP3*%
X70942200Y-98236600D03*
D29*
X72242200Y-98236600D03*
%TD*%
D12*
%TO.C,J3*%
X92786200Y-100112600D03*
D13*
X92786200Y-97572600D03*
X92786200Y-95032600D03*
X92786200Y-92492600D03*
X92786200Y-89952600D03*
X92786200Y-87412600D03*
X92786200Y-84872600D03*
%TD*%
D32*
%TO.C,C2*%
X188123700Y-125715800D03*
X186048700Y-125715800D03*
%TD*%
D26*
%TO.C,R5*%
X193873400Y-82205600D03*
X191873400Y-82205600D03*
%TD*%
D27*
%TO.C,TP5*%
X193268600Y-55561000D03*
%TD*%
D33*
%TO.C,J6*%
X91770200Y-49693600D03*
D34*
X94270200Y-49693600D03*
%TD*%
D27*
%TO.C,TP1*%
X205257400Y-81316600D03*
%TD*%
D20*
%TO.C,TP9*%
X122351800Y-33463000D03*
%TD*%
D32*
%TO.C,C3*%
X192426500Y-107173800D03*
X190351500Y-107173800D03*
%TD*%
D26*
%TO.C,R3*%
X116754800Y-41387800D03*
X114754800Y-41387800D03*
%TD*%
D35*
%TO.C,C1*%
X140487400Y-126833400D03*
X142562400Y-126833400D03*
%TD*%
D36*
%TO.C,ADS1*%
X200025000Y-87768200D03*
X197485000Y-87768200D03*
X194945000Y-87768200D03*
X192405000Y-87768200D03*
X189865000Y-87768200D03*
X187325000Y-87768200D03*
X189865000Y-100468200D03*
X192405000Y-100468200D03*
X194945000Y-100468200D03*
X197485000Y-100468200D03*
X200025000Y-100468200D03*
X187325000Y-100468200D03*
D37*
X203835000Y-100468200D03*
X203835000Y-87768200D03*
X183515000Y-100468200D03*
X183515000Y-87768200D03*
%TD*%
D27*
%TO.C,U1*%
X140466200Y-123938600D03*
D38*
X140466200Y-122028600D03*
X140466200Y-120118600D03*
D39*
X118436200Y-120978600D03*
D40*
X119696200Y-120978600D03*
D41*
X117406200Y-120228600D03*
X120726200Y-120228600D03*
X117016200Y-119028600D03*
X121116200Y-119028600D03*
X117016200Y-117698600D03*
X121116200Y-117698600D03*
D42*
X119066200Y-117028600D03*
D41*
X117016200Y-116358600D03*
X121116200Y-116358600D03*
X117016200Y-115028600D03*
X121116200Y-115028600D03*
X117406200Y-113828600D03*
X120726200Y-113828600D03*
X118436200Y-113078600D03*
X119696200Y-113078600D03*
X118436200Y-130978600D03*
X119696200Y-130978600D03*
X117406200Y-130228600D03*
X120726200Y-130228600D03*
X117016200Y-129028600D03*
X121116200Y-129028600D03*
X117016200Y-127698600D03*
X121116200Y-127698600D03*
D42*
X119066200Y-127028600D03*
D41*
X117016200Y-126358600D03*
X121116200Y-126358600D03*
X117016200Y-125028600D03*
X121116200Y-125028600D03*
X117406200Y-123828600D03*
X120726200Y-123828600D03*
D40*
X118436200Y-123078600D03*
D39*
X119696200Y-123078600D03*
%TD*%
D30*
%TO.C,R2*%
X192938400Y-130414800D03*
X192938400Y-132414800D03*
%TD*%
D35*
%TO.C,C6*%
X92409100Y-125563400D03*
X94484100Y-125563400D03*
%TD*%
D43*
%TO.C,J1*%
X95189000Y-144502200D03*
X182819000Y-144502200D03*
D44*
X101539000Y-139352200D03*
X101539000Y-141892200D03*
X101539000Y-144432200D03*
X101539000Y-146972200D03*
X104079000Y-139352200D03*
X104079000Y-141892200D03*
X104079000Y-144432200D03*
X104079000Y-146972200D03*
X107889000Y-139352200D03*
X107889000Y-141892200D03*
X107889000Y-144432200D03*
X107889000Y-146972200D03*
X110429000Y-139352200D03*
X110429000Y-141892200D03*
X110429000Y-144432200D03*
X110429000Y-146972200D03*
X114239000Y-139352200D03*
X114239000Y-141892200D03*
X114239000Y-144432200D03*
X114239000Y-146972200D03*
X116779000Y-139352200D03*
X116779000Y-141892200D03*
X116779000Y-144432200D03*
X116779000Y-146972200D03*
X120589000Y-139352200D03*
X120589000Y-141892200D03*
X120589000Y-144432200D03*
X120589000Y-146972200D03*
X123129000Y-139352200D03*
X123129000Y-141892200D03*
X123129000Y-144432200D03*
X123129000Y-146972200D03*
X154879000Y-139352200D03*
X154879000Y-141892200D03*
X154879000Y-144432200D03*
X154879000Y-146972200D03*
X157419000Y-139352200D03*
X157419000Y-141892200D03*
X157419000Y-144432200D03*
X157419000Y-146972200D03*
X161229000Y-139352200D03*
X161229000Y-141892200D03*
X161229000Y-144432200D03*
X161229000Y-146972200D03*
X163769000Y-139352200D03*
X163769000Y-141892200D03*
X163769000Y-144432200D03*
X163769000Y-146972200D03*
X167579000Y-139352200D03*
X167579000Y-141892200D03*
X167579000Y-144432200D03*
X167579000Y-146972200D03*
X170119000Y-139352200D03*
X170119000Y-141892200D03*
X170119000Y-144432200D03*
X170119000Y-146972200D03*
X173929000Y-139352200D03*
X173929000Y-141892200D03*
X173929000Y-144432200D03*
X173929000Y-146972200D03*
X176469000Y-139352200D03*
X176469000Y-141892200D03*
X176469000Y-144432200D03*
X176469000Y-146972200D03*
D45*
X127574000Y-146972200D03*
D46*
X127574000Y-144432200D03*
X127574000Y-141892200D03*
X127574000Y-139352200D03*
X130114000Y-146972200D03*
X130114000Y-144432200D03*
X130114000Y-141892200D03*
X130114000Y-139352200D03*
X132654000Y-146972200D03*
X132654000Y-144432200D03*
X132654000Y-141892200D03*
X132654000Y-139352200D03*
X135194000Y-146972200D03*
X135194000Y-144432200D03*
X135194000Y-141892200D03*
X135194000Y-139352200D03*
X137734000Y-146972200D03*
X137734000Y-144432200D03*
X137734000Y-141892200D03*
X137734000Y-139352200D03*
X140274000Y-146972200D03*
X140274000Y-144432200D03*
X140274000Y-141892200D03*
X140274000Y-139352200D03*
X142814000Y-146972200D03*
X142814000Y-144432200D03*
X142814000Y-141892200D03*
X142814000Y-139352200D03*
X145354000Y-146972200D03*
X145354000Y-144432200D03*
X145354000Y-141892200D03*
X145354000Y-139352200D03*
X147894000Y-146972200D03*
X147894000Y-144432200D03*
X147894000Y-141892200D03*
X147894000Y-139352200D03*
X150434000Y-146972200D03*
X150434000Y-144432200D03*
X150434000Y-141892200D03*
X150434000Y-139352200D03*
%TD*%
D28*
%TO.C,JP4*%
X70999200Y-94778600D03*
D29*
X72299200Y-94778600D03*
%TD*%
D47*
%TO.C,U2*%
X184545200Y-119238800D03*
X184545200Y-120508800D03*
X184545200Y-121778800D03*
X184545200Y-123048800D03*
X189495200Y-123048800D03*
X189495200Y-121778800D03*
X189495200Y-120508800D03*
X189495200Y-119238800D03*
%TD*%
D19*
%TO.C,D2*%
X102445600Y-125131600D03*
X104495600Y-125131600D03*
%TD*%
D48*
%TO.C,U5*%
X80721200Y-96683600D03*
X80721200Y-95413600D03*
X80721200Y-94143600D03*
X80721200Y-92873600D03*
X75571200Y-92873600D03*
X75571200Y-94143600D03*
X75571200Y-95413600D03*
X75571200Y-96683600D03*
%TD*%
D27*
%TO.C,TP3*%
X200888600Y-68616600D03*
%TD*%
%TO.C,TP4*%
X197586600Y-61555400D03*
%TD*%
D49*
%TO.C,PS1*%
X170397800Y-119304200D03*
D50*
X170397800Y-124384200D03*
X150077800Y-111644200D03*
X150077800Y-121804200D03*
X150077800Y-131964200D03*
X170397800Y-132004200D03*
%TD*%
D27*
%TO.C,TP7*%
X197670149Y-105548200D03*
%TD*%
D51*
%TO.C,PS2*%
X85099400Y-122578200D03*
X85099400Y-120288200D03*
X85099400Y-117998200D03*
X85099400Y-115708200D03*
X85099400Y-113418200D03*
X87389400Y-122578200D03*
X87389400Y-120288200D03*
X87389400Y-117998200D03*
X87389400Y-115708200D03*
X87389400Y-113418200D03*
X89679400Y-122578200D03*
X89679400Y-120288200D03*
X89679400Y-117998200D03*
X89679400Y-115708200D03*
X89679400Y-113418200D03*
X91969400Y-122578200D03*
X91969400Y-120288200D03*
X91969400Y-117998200D03*
X91969400Y-115708200D03*
X91969400Y-113418200D03*
X94259400Y-122578200D03*
X94259400Y-120288200D03*
X94259400Y-117998200D03*
X94259400Y-115708200D03*
X94259400Y-113418200D03*
%TD*%
D52*
%TO.C,D5*%
X179881800Y-111695000D03*
X176581800Y-111695000D03*
%TD*%
D53*
%TO.C,U6*%
X189204600Y-75462300D03*
D54*
X189204600Y-72922300D03*
X189204600Y-70382300D03*
%TD*%
D55*
%TO.C,C15*%
X182956200Y-75379925D03*
D56*
X182956200Y-72879925D03*
%TD*%
D57*
%TO.C,J4*%
X71907400Y-87076300D03*
X71907400Y-79176300D03*
%TD*%
M02*
