M48
; DRILL file {KiCad 7.0.8} date Wed May  8 13:20:16 2024
; FORMAT={-:-/ absolute / inch / decimal}
; #@! TF.CreationDate,2024-05-08T13:20:16-04:00
; #@! TF.GenerationSoftware,Kicad,Pcbnew,7.0.8
; #@! TF.FileFunction,Plated,1,2,PTH
FMAT,2
INCH
; #@! TA.AperFunction,Plated,PTH,ComponentDrill
T1C0.0010
; #@! TA.AperFunction,Plated,PTH,ViaDrill
T2C0.0157
; #@! TA.AperFunction,Plated,PTH,ComponentDrill
T3C0.0197
; #@! TA.AperFunction,Plated,PTH,ComponentDrill
T4C0.0315
; #@! TA.AperFunction,Plated,PTH,ComponentDrill
T5C0.0374
; #@! TA.AperFunction,Plated,PTH,ComponentDrill
T6C0.0394
; #@! TA.AperFunction,Plated,PTH,ComponentDrill
T7C0.0400
; #@! TA.AperFunction,Plated,PTH,ComponentDrill
T8C0.0402
; #@! TA.AperFunction,Plated,PTH,ComponentDrill
T9C0.0512
; #@! TA.AperFunction,Plated,PTH,ComponentDrill
T10C0.0520
; #@! TA.AperFunction,Plated,PTH,ComponentDrill
T11C0.0750
; #@! TA.AperFunction,Plated,PTH,ComponentDrill
T12C0.0787
; #@! TA.AperFunction,Plated,PTH,ComponentDrill
T13C0.0984
; #@! TA.AperFunction,Plated,PTH,ComponentDrill
T14C0.1000
; #@! TA.AperFunction,Plated,PTH,ComponentDrill
T15C0.1575
; #@! TA.AperFunction,Plated,PTH,ComponentDrill
T16C0.1772
%
G90
G05
T1
X2.831Y-3.1172
X2.831Y-3.4282
T2
X2.685Y-3.45
X2.72Y-4.005
X2.77Y-4.075
X2.819Y-3.6614
X2.84Y-4.075
X2.895Y-2.995
X2.92Y-2.72
X2.9324Y-3.5481
X3.033Y-5.0564
X3.075Y-4.45
X3.09Y-2.4
X3.12Y-3.375
X3.128Y-3.9764
X3.155Y-3.48
X3.155Y-4.45
X3.168Y-3.9714
X3.22Y-3.24
X3.22Y-4.085
X3.24Y-3.99
X3.257Y-5.0054
X3.275Y-5.12
X3.3Y-5.215
X3.301Y-4.5094
X3.301Y-4.5554
X3.301Y-4.6174
X3.303Y-4.6834
X3.335Y-5.255
X3.3356Y-4.061
X3.365Y-4.305
X3.368Y-4.0864
X3.393Y-3.9664
X3.405Y-4.215
X3.46Y-5.465
X3.51Y-4.085
X3.528Y-4.3464
X3.545Y-5.55
X3.585Y-4.215
X3.5978Y-3.9911
X3.635Y-4.09
X3.645Y-5.175
X3.68Y-5.42
X3.75Y-5.375
X3.77Y-1.765
X3.825Y-4.0814
X3.849Y-4.7634
X3.849Y-4.8294
X3.8513Y-3.9013
X3.91Y-1.59
X3.915Y-4.27
X3.945Y-5.19
X3.961Y-4.5254
X3.961Y-4.5774
X3.961Y-4.6474
X3.961Y-4.7174
X3.961Y-4.7834
X3.961Y-4.8434
X4.018Y-4.5254
X4.018Y-4.5774
X4.018Y-4.6474
X4.018Y-4.7174
X4.018Y-4.7834
X4.018Y-4.8434
X4.025Y-2.175
X4.06Y-1.61
X4.06Y-3.915
X4.065Y-5.105
X4.07Y-1.9
X4.075Y-1.705
X4.079Y-4.5254
X4.079Y-4.5774
X4.079Y-4.6474
X4.079Y-4.7174
X4.079Y-4.7834
X4.079Y-4.8434
X4.103Y-3.5394
X4.14Y-2.23
X4.195Y-4.75
X4.21Y-4.565
X4.21Y-4.665
X4.245Y-3.825
X4.245Y-5.2
X4.253Y-3.5414
X4.27Y-1.44
X4.295Y-4.22
X4.3Y-2.595
X4.305Y-4.575
X4.325Y-2.69
X4.335Y-4.7
X4.38Y-4.785
X4.395Y-5.085
X4.4Y-2.785
X4.4Y-3.76
X4.44Y-4.255
X4.445Y-2.89
X4.46Y-4.365
X4.475Y-5.19
X4.49Y-4.59
X4.565Y-3.0
X4.605Y-4.215
X4.62Y-3.22
X4.665Y-2.19
X4.68Y-3.14
X4.77Y-2.13
X4.795Y-3.165
X4.913Y-3.3814
X4.958Y-4.9314
X4.9729Y-4.8664
X4.9917Y-5.015
X5.02Y-3.135
X5.035Y-1.175
X5.14Y-1.105
X5.16Y-3.175
X5.16Y-4.415
X5.23Y-4.255
X5.2676Y-4.7554
X5.363Y-4.8864
X5.535Y-4.31
X5.54Y-4.18
X5.62Y-1.055
X5.62Y-4.21
X5.733Y-4.2014
X5.733Y-4.9014
X5.74Y-3.02
X5.825Y-1.725
X5.86Y-3.12
X5.873Y-5.8564
X5.875Y-1.105
X5.88Y-2.94
X5.94Y-1.695
X5.993Y-5.3614
X5.9936Y-2.3394
X6.013Y-5.6114
X6.035Y-1.74
X6.055Y-5.925
X6.08Y-1.585
X6.083Y-5.3614
X6.16Y-3.185
X6.17Y-4.82
X6.185Y-4.585
X6.225Y-4.68
X6.23Y-5.915
X6.25Y-4.875
X6.26Y-2.98
X6.325Y-3.245
X6.365Y-5.87
X6.393Y-2.7714
X6.505Y-3.0
X6.61Y-2.625
X6.735Y-2.41
X6.74Y-2.185
X6.785Y-3.39
X6.815Y-1.98
X6.88Y-2.145
X6.88Y-3.555
X6.915Y-5.915
X6.93Y-2.35
X6.94Y-4.58
X7.055Y-4.725
X7.065Y-4.915
X7.07Y-3.365
X7.08Y-3.61
X7.09Y-5.555
X7.125Y-1.875
X7.19Y-1.77
X7.23Y-4.44
X7.263Y-4.9414
X7.27Y-1.865
X7.305Y-3.71
X7.325Y-4.5
X7.373Y-5.1714
X7.39Y-1.925
X7.39Y-4.395
X7.435Y-3.615
X7.45Y-5.685
X7.48Y-5.505
X7.53Y-4.65
X7.55Y-4.86
X7.56Y-5.595
X7.5705Y-5.2889
X7.708Y-2.3114
X7.72Y-5.38
X7.76Y-2.915
X7.765Y-2.57
X7.785Y-3.655
X7.785Y-3.745
X7.86Y-5.265
X7.925Y-3.75
X7.963Y-3.1614
X7.98Y-5.15
X8.0114Y-4.8648
X8.045Y-4.89
X8.09Y-4.325
X8.14Y-3.545
X8.27Y-4.225
T3
X4.6069Y-4.5287
X4.6069Y-4.581
X4.6069Y-4.6338
X4.6069Y-4.6862
X4.6069Y-4.9224
X4.6069Y-4.9747
X4.6069Y-5.0275
X4.6069Y-5.0799
X4.6223Y-4.4814
X4.6223Y-4.7334
X4.6223Y-4.8751
X4.6223Y-5.1271
X4.6628Y-4.4519
X4.6628Y-4.7629
X4.6628Y-4.8456
X4.6628Y-5.1566
X4.7124Y-4.4519
X4.7124Y-4.7629
X4.7124Y-4.8456
X4.7124Y-5.1566
X4.753Y-4.4814
X4.753Y-4.7334
X4.753Y-4.8751
X4.753Y-5.1271
X4.7684Y-4.5287
X4.7684Y-4.581
X4.7684Y-4.6338
X4.7684Y-4.6862
X4.7684Y-4.9224
X4.7684Y-4.9747
X4.7684Y-5.0275
X4.7684Y-5.0799
T4
X5.5302Y-4.7291
X5.5302Y-4.8043
X5.5302Y-4.8795
X7.203Y-2.8693
X7.203Y-2.9677
T5
X3.1181Y-2.88
X3.1681Y-2.565
X3.2166Y-2.88
X3.2666Y-2.565
X3.2781Y-2.27
X3.315Y-2.88
X3.365Y-2.565
X3.3766Y-2.27
X3.475Y-2.27
X7.705Y-4.3644
X7.705Y-4.615
X7.705Y-4.86
X7.8034Y-4.3644
X7.8034Y-4.615
X7.8034Y-4.86
X7.9019Y-4.3644
X7.9019Y-4.615
X7.9019Y-4.86
T6
X3.613Y-1.9564
X3.653Y-3.3414
X3.653Y-3.4414
X3.653Y-3.5414
X3.653Y-3.6414
X3.653Y-3.7414
X3.653Y-3.8414
X3.653Y-3.9414
X3.7114Y-1.9564
X3.78Y-2.44
X3.78Y-2.54
X3.78Y-2.64
X3.78Y-2.74
X3.78Y-2.84
X3.78Y-2.94
X3.78Y-3.04
X7.375Y-3.4554
X7.375Y-3.9554
X7.449Y-2.771
X7.449Y-2.871
X7.449Y-2.971
X7.475Y-3.4554
X7.475Y-3.9554
X7.575Y-3.4554
X7.575Y-3.9554
X7.675Y-3.4554
X7.675Y-3.9554
X7.775Y-3.4554
X7.775Y-3.9554
X7.875Y-3.4554
X7.875Y-3.9554
T7
X4.4074Y-4.0714
X4.4861Y-4.0714
X4.5649Y-4.0714
X4.6436Y-4.0714
X4.7223Y-4.0714
X4.8011Y-4.0714
X4.8798Y-4.0714
X6.0574Y-4.0834
X6.1361Y-4.0834
X6.2149Y-4.0834
X6.2936Y-4.0834
X6.3723Y-4.0834
X6.4511Y-4.0834
X6.5298Y-4.0834
T8
X5.0226Y-5.4863
X5.0226Y-5.5863
X5.0226Y-5.6863
X5.0226Y-5.7863
X5.1226Y-5.4863
X5.1226Y-5.5863
X5.1226Y-5.6863
X5.1226Y-5.7863
X5.2226Y-5.4863
X5.2226Y-5.5863
X5.2226Y-5.6863
X5.2226Y-5.7863
X5.3226Y-5.4863
X5.3226Y-5.5863
X5.3226Y-5.6863
X5.3226Y-5.7863
X5.4226Y-5.4863
X5.4226Y-5.5863
X5.4226Y-5.6863
X5.4226Y-5.7863
X5.5226Y-5.4863
X5.5226Y-5.5863
X5.5226Y-5.6863
X5.5226Y-5.7863
X5.6226Y-5.4863
X5.6226Y-5.5863
X5.6226Y-5.6863
X5.6226Y-5.7863
X5.7226Y-5.4863
X5.7226Y-5.5863
X5.7226Y-5.6863
X5.7226Y-5.7863
X5.8226Y-5.4863
X5.8226Y-5.5863
X5.8226Y-5.6863
X5.8226Y-5.7863
X5.9226Y-5.4863
X5.9226Y-5.5863
X5.9226Y-5.6863
X5.9226Y-5.7863
T9
X5.9086Y-4.3954
X5.9086Y-4.7954
X5.9086Y-5.1954
X6.7086Y-4.697
X6.7086Y-4.897
X6.7086Y-5.197
T10
X3.9976Y-5.4863
X3.9976Y-5.5863
X3.9976Y-5.6863
X3.9976Y-5.7863
X4.0976Y-5.4863
X4.0976Y-5.5863
X4.0976Y-5.6863
X4.0976Y-5.7863
X4.2476Y-5.4863
X4.2476Y-5.5863
X4.2476Y-5.6863
X4.2476Y-5.7863
X4.3476Y-5.4863
X4.3476Y-5.5863
X4.3476Y-5.6863
X4.3476Y-5.7863
X4.4976Y-5.4863
X4.4976Y-5.5863
X4.4976Y-5.6863
X4.4976Y-5.7863
X4.5976Y-5.4863
X4.5976Y-5.5863
X4.5976Y-5.6863
X4.5976Y-5.7863
X4.7476Y-5.4863
X4.7476Y-5.5863
X4.7476Y-5.6863
X4.7476Y-5.7863
X4.8476Y-5.4863
X4.8476Y-5.5863
X4.8476Y-5.6863
X4.8476Y-5.7863
X6.0976Y-5.4863
X6.0976Y-5.5863
X6.0976Y-5.6863
X6.0976Y-5.7863
X6.1976Y-5.4863
X6.1976Y-5.5863
X6.1976Y-5.6863
X6.1976Y-5.7863
X6.3476Y-5.4863
X6.3476Y-5.5863
X6.3476Y-5.6863
X6.3476Y-5.7863
X6.4476Y-5.4863
X6.4476Y-5.5863
X6.4476Y-5.6863
X6.4476Y-5.7863
X6.5976Y-5.4863
X6.5976Y-5.5863
X6.5976Y-5.6863
X6.5976Y-5.7863
X6.6976Y-5.4863
X6.6976Y-5.5863
X6.6976Y-5.6863
X6.6976Y-5.7863
X6.8476Y-5.4863
X6.8476Y-5.5863
X6.8476Y-5.6863
X6.8476Y-5.7863
X6.9476Y-5.4863
X6.9476Y-5.5863
X6.9476Y-5.6863
X6.9476Y-5.7863
T11
X4.3436Y-1.9714
X4.6436Y-1.9714
X4.9436Y-1.9714
X5.9936Y-1.9834
X6.2936Y-1.9834
X6.5936Y-1.9834
T13
X7.225Y-3.4554
X7.225Y-3.9554
X8.025Y-3.4554
X8.025Y-3.9554
T14
X4.1936Y-3.9714
X4.3436Y-3.9714
X4.9436Y-3.9714
X5.0936Y-3.9714
X5.8436Y-3.9834
X5.9936Y-3.9834
X6.5936Y-3.9834
X6.7436Y-3.9834
T15
X4.817Y-1.3174
X6.229Y-1.3674
T16
X5.328Y-1.3464
X5.6115Y-1.3464
T12
G00X4.6876Y-4.6862
M15
G01X4.6876Y-4.5287
M16
G05
G00X4.6876Y-5.0799
M15
G01X4.6876Y-4.9224
M16
G05
T0
M30
