%TF.GenerationSoftware,KiCad,Pcbnew,7.0.8*%
%TF.CreationDate,2024-05-08T13:20:20-04:00*%
%TF.ProjectId,PowerBoard_2024,506f7765-7242-46f6-9172-645f32303234,rev?*%
%TF.SameCoordinates,Original*%
%TF.FileFunction,Soldermask,Bot*%
%TF.FilePolarity,Negative*%
%FSLAX46Y46*%
G04 Gerber Fmt 4.6, Leading zero omitted, Abs format (unit mm)*
G04 Created by KiCad (PCBNEW 7.0.8) date 2024-05-08 13:20:20*
%MOMM*%
%LPD*%
G01*
G04 APERTURE LIST*
G04 Aperture macros list*
%AMRoundRect*
0 Rectangle with rounded corners*
0 $1 Rounding radius*
0 $2 $3 $4 $5 $6 $7 $8 $9 X,Y pos of 4 corners*
0 Add a 4 corners polygon primitive as box body*
4,1,4,$2,$3,$4,$5,$6,$7,$8,$9,$2,$3,0*
0 Add four circle primitives for the rounded corners*
1,1,$1+$1,$2,$3*
1,1,$1+$1,$4,$5*
1,1,$1+$1,$6,$7*
1,1,$1+$1,$8,$9*
0 Add four rect primitives between the rounded corners*
20,1,$1+$1,$2,$3,$4,$5,0*
20,1,$1+$1,$4,$5,$6,$7,0*
20,1,$1+$1,$6,$7,$8,$9,0*
20,1,$1+$1,$8,$9,$2,$3,0*%
%AMHorizOval*
0 Thick line with rounded ends*
0 $1 width*
0 $2 $3 position (X,Y) of the first rounded end (center of the circle)*
0 $4 $5 position (X,Y) of the second rounded end (center of the circle)*
0 Add line between two ends*
20,1,$1,$2,$3,$4,$5,0*
0 Add two circle primitives to create the rounded ends*
1,1,$1,$2,$3*
1,1,$1,$4,$5*%
%AMFreePoly0*
4,1,19,0.500000,-0.750000,0.000000,-0.750000,0.000000,-0.744911,-0.071157,-0.744911,-0.207708,-0.704816,-0.327430,-0.627875,-0.420627,-0.520320,-0.479746,-0.390866,-0.500000,-0.250000,-0.500000,0.250000,-0.479746,0.390866,-0.420627,0.520320,-0.327430,0.627875,-0.207708,0.704816,-0.071157,0.744911,0.000000,0.744911,0.000000,0.750000,0.500000,0.750000,0.500000,-0.750000,0.500000,-0.750000,
$1*%
%AMFreePoly1*
4,1,19,0.000000,0.744911,0.071157,0.744911,0.207708,0.704816,0.327430,0.627875,0.420627,0.520320,0.479746,0.390866,0.500000,0.250000,0.500000,-0.250000,0.479746,-0.390866,0.420627,-0.520320,0.327430,-0.627875,0.207708,-0.704816,0.071157,-0.744911,0.000000,-0.744911,0.000000,-0.750000,-0.500000,-0.750000,-0.500000,0.750000,0.000000,0.750000,0.000000,0.744911,0.000000,0.744911,
$1*%
G04 Aperture macros list end*
%ADD10O,1.700000X1.950000*%
%ADD11RoundRect,0.250000X-0.600000X-0.725000X0.600000X-0.725000X0.600000X0.725000X-0.600000X0.725000X0*%
%ADD12R,1.700000X1.700000*%
%ADD13O,1.700000X1.700000*%
%ADD14C,7.620000*%
%ADD15C,3.101600*%
%ADD16C,3.784600*%
%ADD17C,1.801600*%
%ADD18RoundRect,1.500000X1.500000X1.500000X-1.500000X1.500000X-1.500000X-1.500000X1.500000X-1.500000X0*%
%ADD19C,6.000000*%
%ADD20RoundRect,0.250000X-0.600000X-0.750000X0.600000X-0.750000X0.600000X0.750000X-0.600000X0.750000X0*%
%ADD21O,1.700000X2.000000*%
%ADD22C,1.879600*%
%ADD23C,3.301600*%
%ADD24R,1.500000X1.500000*%
%ADD25C,1.500000*%
%ADD26HorizOval,0.800000X0.000000X0.000000X0.000000X0.000000X0*%
%ADD27HorizOval,0.800000X0.000000X0.000000X0.000000X0.000000X0*%
%ADD28C,0.800000*%
%ADD29O,6.000000X9.000000*%
%ADD30C,4.010000*%
%ADD31C,2.184000*%
%ADD32RoundRect,0.102000X-0.765000X-0.765000X0.765000X-0.765000X0.765000X0.765000X-0.765000X0.765000X0*%
%ADD33C,1.734000*%
%ADD34RoundRect,0.102000X-0.975000X0.975000X-0.975000X-0.975000X0.975000X-0.975000X0.975000X0.975000X0*%
%ADD35C,2.154000*%
%ADD36RoundRect,0.250000X-0.337500X-0.475000X0.337500X-0.475000X0.337500X0.475000X-0.337500X0.475000X0*%
%ADD37R,2.500000X1.500000*%
%ADD38O,2.500000X1.500000*%
%ADD39RoundRect,0.250000X0.650000X-0.412500X0.650000X0.412500X-0.650000X0.412500X-0.650000X-0.412500X0*%
%ADD40R,4.000000X4.000000*%
%ADD41R,1.900000X1.500000*%
%ADD42R,5.000000X10.000000*%
%ADD43RoundRect,0.250000X0.337500X0.475000X-0.337500X0.475000X-0.337500X-0.475000X0.337500X-0.475000X0*%
%ADD44R,3.810000X1.168400*%
%ADD45R,1.600000X1.600000*%
%ADD46C,1.600000*%
%ADD47FreePoly0,270.000000*%
%ADD48FreePoly1,270.000000*%
%ADD49R,1.371600X0.457200*%
%ADD50R,1.549400X1.422400*%
%ADD51R,1.905000X0.889000*%
%ADD52O,2.108200X1.422400*%
%ADD53RoundRect,0.150000X-0.825000X-0.150000X0.825000X-0.150000X0.825000X0.150000X-0.825000X0.150000X0*%
%ADD54RoundRect,0.225000X0.225000X0.375000X-0.225000X0.375000X-0.225000X-0.375000X0.225000X-0.375000X0*%
%ADD55RoundRect,0.102000X-2.665000X-2.795000X2.665000X-2.795000X2.665000X2.795000X-2.665000X2.795000X0*%
%ADD56RoundRect,0.102000X-3.175000X-2.640000X3.175000X-2.640000X3.175000X2.640000X-3.175000X2.640000X0*%
%ADD57FreePoly0,90.000000*%
%ADD58FreePoly1,90.000000*%
%ADD59RoundRect,0.250000X1.100000X-0.412500X1.100000X0.412500X-1.100000X0.412500X-1.100000X-0.412500X0*%
%ADD60R,2.000000X1.500000*%
%ADD61R,2.000000X3.800000*%
%ADD62FreePoly0,180.000000*%
%ADD63FreePoly1,180.000000*%
%ADD64FreePoly0,0.000000*%
%ADD65FreePoly1,0.000000*%
G04 APERTURE END LIST*
D10*
%TO.C,J12*%
X200707000Y-123444000D03*
X198207000Y-123444000D03*
D11*
X195707000Y-123444000D03*
%TD*%
D10*
%TO.C,J11*%
X200707000Y-117221000D03*
X198207000Y-117221000D03*
D11*
X195707000Y-117221000D03*
%TD*%
%TO.C,J10*%
X195707000Y-110855000D03*
D10*
X198207000Y-110855000D03*
X200707000Y-110855000D03*
%TD*%
D11*
%TO.C,J9*%
X83265000Y-57658000D03*
D10*
X85765000Y-57658000D03*
X88265000Y-57658000D03*
%TD*%
D11*
%TO.C,J8*%
X79201000Y-73152000D03*
D10*
X81701000Y-73152000D03*
X84201000Y-73152000D03*
%TD*%
D11*
%TO.C,J7*%
X80471000Y-65151000D03*
D10*
X82971000Y-65151000D03*
X85471000Y-65151000D03*
%TD*%
D12*
%TO.C,J5*%
X96012000Y-77216000D03*
D13*
X96012000Y-74676000D03*
X96012000Y-72136000D03*
X96012000Y-69596000D03*
X96012000Y-67056000D03*
X96012000Y-64516000D03*
X96012000Y-61976000D03*
%TD*%
D14*
%TO.C,TP11*%
X158216600Y-34733000D03*
%TD*%
D15*
%TO.C,BMR1*%
X167477200Y-50379400D03*
X159857200Y-50379400D03*
X152237200Y-50379400D03*
D16*
X148427200Y-101179400D03*
X152237200Y-101179400D03*
X167477200Y-101179400D03*
X171287200Y-101179400D03*
D17*
X153857200Y-103719400D03*
X155857200Y-103719400D03*
X157857200Y-103719400D03*
X159857200Y-103719400D03*
X161857200Y-103719400D03*
X163857200Y-103719400D03*
X165857200Y-103719400D03*
%TD*%
D15*
%TO.C,BMR2*%
X125567200Y-50074600D03*
X117947200Y-50074600D03*
X110327200Y-50074600D03*
D16*
X106517200Y-100874600D03*
X110327200Y-100874600D03*
X125567200Y-100874600D03*
X129377200Y-100874600D03*
D17*
X111947200Y-103414600D03*
X113947200Y-103414600D03*
X115947200Y-103414600D03*
X117947200Y-103414600D03*
X119947200Y-103414600D03*
X121947200Y-103414600D03*
X123947200Y-103414600D03*
%TD*%
D18*
%TO.C,J2*%
X142531200Y-34199600D03*
D19*
X135331200Y-34199600D03*
%TD*%
D12*
%TO.C,J3*%
X92786200Y-100112600D03*
D13*
X92786200Y-97572600D03*
X92786200Y-95032600D03*
X92786200Y-92492600D03*
X92786200Y-89952600D03*
X92786200Y-87412600D03*
X92786200Y-84872600D03*
%TD*%
D20*
%TO.C,J6*%
X91770200Y-49693600D03*
D21*
X94270200Y-49693600D03*
%TD*%
D14*
%TO.C,TP9*%
X122351800Y-33463000D03*
%TD*%
D22*
%TO.C,ADS1*%
X200025000Y-87768200D03*
X197485000Y-87768200D03*
X194945000Y-87768200D03*
X192405000Y-87768200D03*
X189865000Y-87768200D03*
X187325000Y-87768200D03*
X189865000Y-100468200D03*
X192405000Y-100468200D03*
X194945000Y-100468200D03*
X197485000Y-100468200D03*
X200025000Y-100468200D03*
X187325000Y-100468200D03*
D23*
X203835000Y-100468200D03*
X203835000Y-87768200D03*
X183515000Y-100468200D03*
X183515000Y-87768200D03*
%TD*%
D24*
%TO.C,U1*%
X140466200Y-123938600D03*
D25*
X140466200Y-122028600D03*
X140466200Y-120118600D03*
D26*
X118436200Y-120978600D03*
D27*
X119696200Y-120978600D03*
D28*
X117406200Y-120228600D03*
X120726200Y-120228600D03*
X117016200Y-119028600D03*
X121116200Y-119028600D03*
X117016200Y-117698600D03*
X121116200Y-117698600D03*
D29*
X119066200Y-117028600D03*
D28*
X117016200Y-116358600D03*
X121116200Y-116358600D03*
X117016200Y-115028600D03*
X121116200Y-115028600D03*
X117406200Y-113828600D03*
X120726200Y-113828600D03*
X118436200Y-113078600D03*
X119696200Y-113078600D03*
X118436200Y-130978600D03*
X119696200Y-130978600D03*
X117406200Y-130228600D03*
X120726200Y-130228600D03*
X117016200Y-129028600D03*
X121116200Y-129028600D03*
X117016200Y-127698600D03*
X121116200Y-127698600D03*
D29*
X119066200Y-127028600D03*
D28*
X117016200Y-126358600D03*
X121116200Y-126358600D03*
X117016200Y-125028600D03*
X121116200Y-125028600D03*
X117406200Y-123828600D03*
X120726200Y-123828600D03*
D27*
X118436200Y-123078600D03*
D26*
X119696200Y-123078600D03*
%TD*%
D30*
%TO.C,J1*%
X95189000Y-144502200D03*
X182819000Y-144502200D03*
D31*
X101539000Y-139352200D03*
X101539000Y-141892200D03*
X101539000Y-144432200D03*
X101539000Y-146972200D03*
X104079000Y-139352200D03*
X104079000Y-141892200D03*
X104079000Y-144432200D03*
X104079000Y-146972200D03*
X107889000Y-139352200D03*
X107889000Y-141892200D03*
X107889000Y-144432200D03*
X107889000Y-146972200D03*
X110429000Y-139352200D03*
X110429000Y-141892200D03*
X110429000Y-144432200D03*
X110429000Y-146972200D03*
X114239000Y-139352200D03*
X114239000Y-141892200D03*
X114239000Y-144432200D03*
X114239000Y-146972200D03*
X116779000Y-139352200D03*
X116779000Y-141892200D03*
X116779000Y-144432200D03*
X116779000Y-146972200D03*
X120589000Y-139352200D03*
X120589000Y-141892200D03*
X120589000Y-144432200D03*
X120589000Y-146972200D03*
X123129000Y-139352200D03*
X123129000Y-141892200D03*
X123129000Y-144432200D03*
X123129000Y-146972200D03*
X154879000Y-139352200D03*
X154879000Y-141892200D03*
X154879000Y-144432200D03*
X154879000Y-146972200D03*
X157419000Y-139352200D03*
X157419000Y-141892200D03*
X157419000Y-144432200D03*
X157419000Y-146972200D03*
X161229000Y-139352200D03*
X161229000Y-141892200D03*
X161229000Y-144432200D03*
X161229000Y-146972200D03*
X163769000Y-139352200D03*
X163769000Y-141892200D03*
X163769000Y-144432200D03*
X163769000Y-146972200D03*
X167579000Y-139352200D03*
X167579000Y-141892200D03*
X167579000Y-144432200D03*
X167579000Y-146972200D03*
X170119000Y-139352200D03*
X170119000Y-141892200D03*
X170119000Y-144432200D03*
X170119000Y-146972200D03*
X173929000Y-139352200D03*
X173929000Y-141892200D03*
X173929000Y-144432200D03*
X173929000Y-146972200D03*
X176469000Y-139352200D03*
X176469000Y-141892200D03*
X176469000Y-144432200D03*
X176469000Y-146972200D03*
D32*
X127574000Y-146972200D03*
D33*
X127574000Y-144432200D03*
X127574000Y-141892200D03*
X127574000Y-139352200D03*
X130114000Y-146972200D03*
X130114000Y-144432200D03*
X130114000Y-141892200D03*
X130114000Y-139352200D03*
X132654000Y-146972200D03*
X132654000Y-144432200D03*
X132654000Y-141892200D03*
X132654000Y-139352200D03*
X135194000Y-146972200D03*
X135194000Y-144432200D03*
X135194000Y-141892200D03*
X135194000Y-139352200D03*
X137734000Y-146972200D03*
X137734000Y-144432200D03*
X137734000Y-141892200D03*
X137734000Y-139352200D03*
X140274000Y-146972200D03*
X140274000Y-144432200D03*
X140274000Y-141892200D03*
X140274000Y-139352200D03*
X142814000Y-146972200D03*
X142814000Y-144432200D03*
X142814000Y-141892200D03*
X142814000Y-139352200D03*
X145354000Y-146972200D03*
X145354000Y-144432200D03*
X145354000Y-141892200D03*
X145354000Y-139352200D03*
X147894000Y-146972200D03*
X147894000Y-144432200D03*
X147894000Y-141892200D03*
X147894000Y-139352200D03*
X150434000Y-146972200D03*
X150434000Y-144432200D03*
X150434000Y-141892200D03*
X150434000Y-139352200D03*
%TD*%
D34*
%TO.C,PS1*%
X170397800Y-119304200D03*
D35*
X170397800Y-124384200D03*
X150077800Y-111644200D03*
X150077800Y-121804200D03*
X150077800Y-131964200D03*
X170397800Y-132004200D03*
%TD*%
D36*
%TO.C,C8*%
X128282700Y-116464600D03*
X130357700Y-116464600D03*
%TD*%
D37*
%TO.C,U6*%
X189204600Y-75462300D03*
D38*
X189204600Y-72922300D03*
X189204600Y-70382300D03*
%TD*%
D39*
%TO.C,C12*%
X173304200Y-79526300D03*
X173304200Y-76401300D03*
%TD*%
D40*
%TO.C,TP8*%
X181432200Y-53732200D03*
%TD*%
D41*
%TO.C,L1*%
X176301400Y-79627900D03*
X180401400Y-79627900D03*
%TD*%
D42*
%TO.C,TP15*%
X102130200Y-119162600D03*
%TD*%
D40*
%TO.C,TP10*%
X186969400Y-60945800D03*
%TD*%
D43*
%TO.C,C9*%
X130252200Y-124376600D03*
X128177200Y-124376600D03*
%TD*%
D42*
%TO.C,TP12*%
X76965200Y-119035600D03*
%TD*%
%TO.C,TP14*%
X96342200Y-119162600D03*
%TD*%
D44*
%TO.C,C4*%
X162538600Y-61961500D03*
X155833000Y-61961500D03*
%TD*%
D36*
%TO.C,C10*%
X103772700Y-82972200D03*
X105847700Y-82972200D03*
%TD*%
D45*
%TO.C,C15*%
X182956200Y-75379925D03*
D46*
X182956200Y-72879925D03*
%TD*%
D47*
%TO.C,JP9*%
X104200600Y-79335400D03*
D48*
X104200600Y-80635400D03*
%TD*%
D49*
%TO.C,J4*%
X74571601Y-81826300D03*
X74571601Y-82476301D03*
X74571601Y-83126300D03*
X74571601Y-83776299D03*
X74571601Y-84426300D03*
D50*
X74482701Y-85588799D03*
X74482701Y-80663801D03*
D51*
X71907400Y-84313800D03*
X71907400Y-81938800D03*
D52*
X71907400Y-87076300D03*
X71907400Y-79176300D03*
%TD*%
D53*
%TO.C,U3*%
X126887200Y-122337600D03*
X126887200Y-121067600D03*
X126887200Y-119797600D03*
X126887200Y-118527600D03*
X131837200Y-118527600D03*
X131837200Y-119797600D03*
X131837200Y-121067600D03*
X131837200Y-122337600D03*
%TD*%
D42*
%TO.C,TP13*%
X82727800Y-119010200D03*
%TD*%
D39*
%TO.C,C13*%
X170815000Y-79514000D03*
X170815000Y-76389000D03*
%TD*%
D47*
%TO.C,JP1*%
X175336200Y-125380998D03*
D48*
X175336200Y-126680998D03*
%TD*%
D44*
%TO.C,C5*%
X119866600Y-61961500D03*
X113161000Y-61961500D03*
%TD*%
D54*
%TO.C,D4*%
X130122200Y-128687600D03*
X126822200Y-128687600D03*
%TD*%
D55*
%TO.C,L3*%
X133588600Y-57948600D03*
X143738600Y-57948600D03*
D56*
X138663600Y-80023600D03*
%TD*%
D57*
%TO.C,JP7*%
X163195000Y-120483400D03*
D58*
X163195000Y-119183400D03*
%TD*%
D59*
%TO.C,C14*%
X177215800Y-76161200D03*
X177215800Y-73036200D03*
%TD*%
D36*
%TO.C,C11*%
X103772700Y-85105800D03*
X105847700Y-85105800D03*
%TD*%
D60*
%TO.C,U4*%
X104233400Y-92188200D03*
X104233400Y-89888200D03*
D61*
X110533400Y-89888200D03*
D60*
X104233400Y-87588200D03*
%TD*%
D62*
%TO.C,JP2*%
X162026600Y-128611400D03*
D63*
X160726600Y-128611400D03*
%TD*%
D64*
%TO.C,JP10*%
X118044200Y-85888600D03*
D65*
X119344200Y-85888600D03*
%TD*%
M02*
