%TF.GenerationSoftware,KiCad,Pcbnew,(6.0.2)*%
%TF.CreationDate,2023-10-23T02:54:13-04:00*%
%TF.ProjectId,USB_Splitter,5553425f-5370-46c6-9974-7465722e6b69,rev?*%
%TF.SameCoordinates,Original*%
%TF.FileFunction,Paste,Top*%
%TF.FilePolarity,Positive*%
%FSLAX46Y46*%
G04 Gerber Fmt 4.6, Leading zero omitted, Abs format (unit mm)*
G04 Created by KiCad (PCBNEW (6.0.2)) date 2023-10-23 02:54:13*
%MOMM*%
%LPD*%
G01*
G04 APERTURE LIST*
G04 Aperture macros list*
%AMRoundRect*
0 Rectangle with rounded corners*
0 $1 Rounding radius*
0 $2 $3 $4 $5 $6 $7 $8 $9 X,Y pos of 4 corners*
0 Add a 4 corners polygon primitive as box body*
4,1,4,$2,$3,$4,$5,$6,$7,$8,$9,$2,$3,0*
0 Add four circle primitives for the rounded corners*
1,1,$1+$1,$2,$3*
1,1,$1+$1,$4,$5*
1,1,$1+$1,$6,$7*
1,1,$1+$1,$8,$9*
0 Add four rect primitives between the rounded corners*
20,1,$1+$1,$2,$3,$4,$5,0*
20,1,$1+$1,$4,$5,$6,$7,0*
20,1,$1+$1,$6,$7,$8,$9,0*
20,1,$1+$1,$8,$9,$2,$3,0*%
G04 Aperture macros list end*
%ADD10RoundRect,0.250000X0.450000X-0.262500X0.450000X0.262500X-0.450000X0.262500X-0.450000X-0.262500X0*%
%ADD11RoundRect,0.250000X-0.450000X0.262500X-0.450000X-0.262500X0.450000X-0.262500X0.450000X0.262500X0*%
%ADD12RoundRect,0.250000X-0.250000X-0.475000X0.250000X-0.475000X0.250000X0.475000X-0.250000X0.475000X0*%
%ADD13RoundRect,0.243750X-0.243750X-0.456250X0.243750X-0.456250X0.243750X0.456250X-0.243750X0.456250X0*%
%ADD14RoundRect,0.250000X-0.262500X-0.450000X0.262500X-0.450000X0.262500X0.450000X-0.262500X0.450000X0*%
%ADD15RoundRect,0.100000X-0.637500X-0.100000X0.637500X-0.100000X0.637500X0.100000X-0.637500X0.100000X0*%
%ADD16RoundRect,0.250000X0.262500X0.450000X-0.262500X0.450000X-0.262500X-0.450000X0.262500X-0.450000X0*%
G04 APERTURE END LIST*
D10*
%TO.C,R12*%
X183000000Y-60325000D03*
X183000000Y-58500000D03*
%TD*%
%TO.C,R15*%
X201000000Y-60325000D03*
X201000000Y-58500000D03*
%TD*%
%TO.C,R21*%
X218500000Y-60325000D03*
X218500000Y-58500000D03*
%TD*%
%TO.C,R19*%
X213500000Y-60325000D03*
X213500000Y-58500000D03*
%TD*%
%TO.C,R9*%
X175500000Y-60325000D03*
X175500000Y-58500000D03*
%TD*%
D11*
%TO.C,R10*%
X178000000Y-58500000D03*
X178000000Y-60325000D03*
%TD*%
%TO.C,R7*%
X170500000Y-58500000D03*
X170500000Y-60325000D03*
%TD*%
D12*
%TO.C,C2*%
X165050000Y-74500000D03*
X166950000Y-74500000D03*
%TD*%
D10*
%TO.C,R11*%
X180500000Y-60325000D03*
X180500000Y-58500000D03*
%TD*%
%TO.C,R4*%
X191000000Y-60325000D03*
X191000000Y-58500000D03*
%TD*%
D13*
%TO.C,D3*%
X213062500Y-82500000D03*
X214937500Y-82500000D03*
%TD*%
D14*
%TO.C,R1*%
X190587500Y-82500000D03*
X192412500Y-82500000D03*
%TD*%
D10*
%TO.C,R18*%
X211000000Y-60325000D03*
X211000000Y-58500000D03*
%TD*%
D14*
%TO.C,R2*%
X208587500Y-82500000D03*
X210412500Y-82500000D03*
%TD*%
D10*
%TO.C,R14*%
X198500000Y-60325000D03*
X198500000Y-58500000D03*
%TD*%
D15*
%TO.C,U3*%
X209112500Y-70275000D03*
X209112500Y-70925000D03*
X209112500Y-71575000D03*
X209112500Y-72225000D03*
X209112500Y-72875000D03*
X209112500Y-73525000D03*
X209112500Y-74175000D03*
X209112500Y-74825000D03*
X209112500Y-75475000D03*
X209112500Y-76125000D03*
X209112500Y-76775000D03*
X209112500Y-77425000D03*
X209112500Y-78075000D03*
X209112500Y-78725000D03*
X214837500Y-78725000D03*
X214837500Y-78075000D03*
X214837500Y-77425000D03*
X214837500Y-76775000D03*
X214837500Y-76125000D03*
X214837500Y-75475000D03*
X214837500Y-74825000D03*
X214837500Y-74175000D03*
X214837500Y-73525000D03*
X214837500Y-72875000D03*
X214837500Y-72225000D03*
X214837500Y-71575000D03*
X214837500Y-70925000D03*
X214837500Y-70275000D03*
%TD*%
D12*
%TO.C,C3*%
X165050000Y-77000000D03*
X166950000Y-77000000D03*
%TD*%
D10*
%TO.C,R5*%
X193500000Y-60325000D03*
X193500000Y-58500000D03*
%TD*%
%TO.C,R8*%
X173000000Y-60325000D03*
X173000000Y-58500000D03*
%TD*%
%TO.C,R3*%
X188500000Y-60325000D03*
X188500000Y-58500000D03*
%TD*%
D13*
%TO.C,D2*%
X195062500Y-82500000D03*
X196937500Y-82500000D03*
%TD*%
D10*
%TO.C,R16*%
X206000000Y-60325000D03*
X206000000Y-58500000D03*
%TD*%
D13*
%TO.C,D1*%
X176562500Y-82500000D03*
X178437500Y-82500000D03*
%TD*%
D10*
%TO.C,R20*%
X216000000Y-60325000D03*
X216000000Y-58500000D03*
%TD*%
D16*
%TO.C,R13*%
X173912500Y-82500000D03*
X172087500Y-82500000D03*
%TD*%
D12*
%TO.C,C1*%
X165050000Y-79500000D03*
X166950000Y-79500000D03*
%TD*%
D15*
%TO.C,U2*%
X190875000Y-70275000D03*
X190875000Y-70925000D03*
X190875000Y-71575000D03*
X190875000Y-72225000D03*
X190875000Y-72875000D03*
X190875000Y-73525000D03*
X190875000Y-74175000D03*
X190875000Y-74825000D03*
X190875000Y-75475000D03*
X190875000Y-76125000D03*
X190875000Y-76775000D03*
X190875000Y-77425000D03*
X190875000Y-78075000D03*
X190875000Y-78725000D03*
X196600000Y-78725000D03*
X196600000Y-78075000D03*
X196600000Y-77425000D03*
X196600000Y-76775000D03*
X196600000Y-76125000D03*
X196600000Y-75475000D03*
X196600000Y-74825000D03*
X196600000Y-74175000D03*
X196600000Y-73525000D03*
X196600000Y-72875000D03*
X196600000Y-72225000D03*
X196600000Y-71575000D03*
X196600000Y-70925000D03*
X196600000Y-70275000D03*
%TD*%
D10*
%TO.C,R6*%
X196000000Y-60325000D03*
X196000000Y-58500000D03*
%TD*%
D15*
%TO.C,U1*%
X172637500Y-70275000D03*
X172637500Y-70925000D03*
X172637500Y-71575000D03*
X172637500Y-72225000D03*
X172637500Y-72875000D03*
X172637500Y-73525000D03*
X172637500Y-74175000D03*
X172637500Y-74825000D03*
X172637500Y-75475000D03*
X172637500Y-76125000D03*
X172637500Y-76775000D03*
X172637500Y-77425000D03*
X172637500Y-78075000D03*
X172637500Y-78725000D03*
X178362500Y-78725000D03*
X178362500Y-78075000D03*
X178362500Y-77425000D03*
X178362500Y-76775000D03*
X178362500Y-76125000D03*
X178362500Y-75475000D03*
X178362500Y-74825000D03*
X178362500Y-74175000D03*
X178362500Y-73525000D03*
X178362500Y-72875000D03*
X178362500Y-72225000D03*
X178362500Y-71575000D03*
X178362500Y-70925000D03*
X178362500Y-70275000D03*
%TD*%
D10*
%TO.C,R17*%
X208500000Y-60325000D03*
X208500000Y-58500000D03*
%TD*%
M02*
