%TF.GenerationSoftware,KiCad,Pcbnew,(6.0.2)*%
%TF.CreationDate,2023-10-23T02:54:13-04:00*%
%TF.ProjectId,USB_Splitter,5553425f-5370-46c6-9974-7465722e6b69,rev?*%
%TF.SameCoordinates,Original*%
%TF.FileFunction,Legend,Bot*%
%TF.FilePolarity,Positive*%
%FSLAX46Y46*%
G04 Gerber Fmt 4.6, Leading zero omitted, Abs format (unit mm)*
G04 Created by KiCad (PCBNEW (6.0.2)) date 2023-10-23 02:54:13*
%MOMM*%
%LPD*%
G01*
G04 APERTURE LIST*
%ADD10C,0.150000*%
%ADD11C,0.120000*%
G04 APERTURE END LIST*
D10*
X207738095Y-116452380D02*
X207166666Y-116452380D01*
X207452380Y-117452380D02*
X207452380Y-116452380D01*
X206833333Y-117452380D02*
X206833333Y-116452380D01*
X206452380Y-116452380D01*
X206357142Y-116500000D01*
X206309523Y-116547619D01*
X206261904Y-116642857D01*
X206261904Y-116785714D01*
X206309523Y-116880952D01*
X206357142Y-116928571D01*
X206452380Y-116976190D01*
X206833333Y-116976190D01*
X205404761Y-116785714D02*
X205404761Y-117452380D01*
X205642857Y-116404761D02*
X205880952Y-117119047D01*
X205261904Y-117119047D01*
X204404761Y-116452380D02*
X204880952Y-116452380D01*
X204928571Y-116928571D01*
X204880952Y-116880952D01*
X204785714Y-116833333D01*
X204547619Y-116833333D01*
X204452380Y-116880952D01*
X204404761Y-116928571D01*
X204357142Y-117023809D01*
X204357142Y-117261904D01*
X204404761Y-117357142D01*
X204452380Y-117404761D01*
X204547619Y-117452380D01*
X204785714Y-117452380D01*
X204880952Y-117404761D01*
X204928571Y-117357142D01*
X207738095Y-86452380D02*
X207166666Y-86452380D01*
X207452380Y-87452380D02*
X207452380Y-86452380D01*
X206833333Y-87452380D02*
X206833333Y-86452380D01*
X206452380Y-86452380D01*
X206357142Y-86500000D01*
X206309523Y-86547619D01*
X206261904Y-86642857D01*
X206261904Y-86785714D01*
X206309523Y-86880952D01*
X206357142Y-86928571D01*
X206452380Y-86976190D01*
X206833333Y-86976190D01*
X205928571Y-86452380D02*
X205309523Y-86452380D01*
X205642857Y-86833333D01*
X205500000Y-86833333D01*
X205404761Y-86880952D01*
X205357142Y-86928571D01*
X205309523Y-87023809D01*
X205309523Y-87261904D01*
X205357142Y-87357142D01*
X205404761Y-87404761D01*
X205500000Y-87452380D01*
X205785714Y-87452380D01*
X205880952Y-87404761D01*
X205928571Y-87357142D01*
X204976190Y-86452380D02*
X204357142Y-86452380D01*
X204690476Y-86833333D01*
X204547619Y-86833333D01*
X204452380Y-86880952D01*
X204404761Y-86928571D01*
X204357142Y-87023809D01*
X204357142Y-87261904D01*
X204404761Y-87357142D01*
X204452380Y-87404761D01*
X204547619Y-87452380D01*
X204833333Y-87452380D01*
X204928571Y-87404761D01*
X204976190Y-87357142D01*
X207738095Y-91452380D02*
X207166666Y-91452380D01*
X207452380Y-92452380D02*
X207452380Y-91452380D01*
X206833333Y-92452380D02*
X206833333Y-91452380D01*
X206452380Y-91452380D01*
X206357142Y-91500000D01*
X206309523Y-91547619D01*
X206261904Y-91642857D01*
X206261904Y-91785714D01*
X206309523Y-91880952D01*
X206357142Y-91928571D01*
X206452380Y-91976190D01*
X206833333Y-91976190D01*
X205928571Y-91452380D02*
X205309523Y-91452380D01*
X205642857Y-91833333D01*
X205500000Y-91833333D01*
X205404761Y-91880952D01*
X205357142Y-91928571D01*
X205309523Y-92023809D01*
X205309523Y-92261904D01*
X205357142Y-92357142D01*
X205404761Y-92404761D01*
X205500000Y-92452380D01*
X205785714Y-92452380D01*
X205880952Y-92404761D01*
X205928571Y-92357142D01*
X204404761Y-91452380D02*
X204880952Y-91452380D01*
X204928571Y-91928571D01*
X204880952Y-91880952D01*
X204785714Y-91833333D01*
X204547619Y-91833333D01*
X204452380Y-91880952D01*
X204404761Y-91928571D01*
X204357142Y-92023809D01*
X204357142Y-92261904D01*
X204404761Y-92357142D01*
X204452380Y-92404761D01*
X204547619Y-92452380D01*
X204785714Y-92452380D01*
X204880952Y-92404761D01*
X204928571Y-92357142D01*
X207738095Y-103952380D02*
X207166666Y-103952380D01*
X207452380Y-104952380D02*
X207452380Y-103952380D01*
X206833333Y-104952380D02*
X206833333Y-103952380D01*
X206452380Y-103952380D01*
X206357142Y-104000000D01*
X206309523Y-104047619D01*
X206261904Y-104142857D01*
X206261904Y-104285714D01*
X206309523Y-104380952D01*
X206357142Y-104428571D01*
X206452380Y-104476190D01*
X206833333Y-104476190D01*
X205404761Y-104285714D02*
X205404761Y-104952380D01*
X205642857Y-103904761D02*
X205880952Y-104619047D01*
X205261904Y-104619047D01*
X204690476Y-103952380D02*
X204595238Y-103952380D01*
X204500000Y-104000000D01*
X204452380Y-104047619D01*
X204404761Y-104142857D01*
X204357142Y-104333333D01*
X204357142Y-104571428D01*
X204404761Y-104761904D01*
X204452380Y-104857142D01*
X204500000Y-104904761D01*
X204595238Y-104952380D01*
X204690476Y-104952380D01*
X204785714Y-104904761D01*
X204833333Y-104857142D01*
X204880952Y-104761904D01*
X204928571Y-104571428D01*
X204928571Y-104333333D01*
X204880952Y-104142857D01*
X204833333Y-104047619D01*
X204785714Y-104000000D01*
X204690476Y-103952380D01*
X207738095Y-123952380D02*
X207166666Y-123952380D01*
X207452380Y-124952380D02*
X207452380Y-123952380D01*
X206833333Y-124952380D02*
X206833333Y-123952380D01*
X206452380Y-123952380D01*
X206357142Y-124000000D01*
X206309523Y-124047619D01*
X206261904Y-124142857D01*
X206261904Y-124285714D01*
X206309523Y-124380952D01*
X206357142Y-124428571D01*
X206452380Y-124476190D01*
X206833333Y-124476190D01*
X205404761Y-124285714D02*
X205404761Y-124952380D01*
X205642857Y-123904761D02*
X205880952Y-124619047D01*
X205261904Y-124619047D01*
X204738095Y-124380952D02*
X204833333Y-124333333D01*
X204880952Y-124285714D01*
X204928571Y-124190476D01*
X204928571Y-124142857D01*
X204880952Y-124047619D01*
X204833333Y-124000000D01*
X204738095Y-123952380D01*
X204547619Y-123952380D01*
X204452380Y-124000000D01*
X204404761Y-124047619D01*
X204357142Y-124142857D01*
X204357142Y-124190476D01*
X204404761Y-124285714D01*
X204452380Y-124333333D01*
X204547619Y-124380952D01*
X204738095Y-124380952D01*
X204833333Y-124428571D01*
X204880952Y-124476190D01*
X204928571Y-124571428D01*
X204928571Y-124761904D01*
X204880952Y-124857142D01*
X204833333Y-124904761D01*
X204738095Y-124952380D01*
X204547619Y-124952380D01*
X204452380Y-124904761D01*
X204404761Y-124857142D01*
X204357142Y-124761904D01*
X204357142Y-124571428D01*
X204404761Y-124476190D01*
X204452380Y-124428571D01*
X204547619Y-124380952D01*
X207738095Y-118952380D02*
X207166666Y-118952380D01*
X207452380Y-119952380D02*
X207452380Y-118952380D01*
X206833333Y-119952380D02*
X206833333Y-118952380D01*
X206452380Y-118952380D01*
X206357142Y-119000000D01*
X206309523Y-119047619D01*
X206261904Y-119142857D01*
X206261904Y-119285714D01*
X206309523Y-119380952D01*
X206357142Y-119428571D01*
X206452380Y-119476190D01*
X206833333Y-119476190D01*
X205404761Y-119285714D02*
X205404761Y-119952380D01*
X205642857Y-118904761D02*
X205880952Y-119619047D01*
X205261904Y-119619047D01*
X204452380Y-118952380D02*
X204642857Y-118952380D01*
X204738095Y-119000000D01*
X204785714Y-119047619D01*
X204880952Y-119190476D01*
X204928571Y-119380952D01*
X204928571Y-119761904D01*
X204880952Y-119857142D01*
X204833333Y-119904761D01*
X204738095Y-119952380D01*
X204547619Y-119952380D01*
X204452380Y-119904761D01*
X204404761Y-119857142D01*
X204357142Y-119761904D01*
X204357142Y-119523809D01*
X204404761Y-119428571D01*
X204452380Y-119380952D01*
X204547619Y-119333333D01*
X204738095Y-119333333D01*
X204833333Y-119380952D01*
X204880952Y-119428571D01*
X204928571Y-119523809D01*
X207738095Y-101452380D02*
X207166666Y-101452380D01*
X207452380Y-102452380D02*
X207452380Y-101452380D01*
X206833333Y-102452380D02*
X206833333Y-101452380D01*
X206452380Y-101452380D01*
X206357142Y-101500000D01*
X206309523Y-101547619D01*
X206261904Y-101642857D01*
X206261904Y-101785714D01*
X206309523Y-101880952D01*
X206357142Y-101928571D01*
X206452380Y-101976190D01*
X206833333Y-101976190D01*
X205928571Y-101452380D02*
X205309523Y-101452380D01*
X205642857Y-101833333D01*
X205500000Y-101833333D01*
X205404761Y-101880952D01*
X205357142Y-101928571D01*
X205309523Y-102023809D01*
X205309523Y-102261904D01*
X205357142Y-102357142D01*
X205404761Y-102404761D01*
X205500000Y-102452380D01*
X205785714Y-102452380D01*
X205880952Y-102404761D01*
X205928571Y-102357142D01*
X204833333Y-102452380D02*
X204642857Y-102452380D01*
X204547619Y-102404761D01*
X204500000Y-102357142D01*
X204404761Y-102214285D01*
X204357142Y-102023809D01*
X204357142Y-101642857D01*
X204404761Y-101547619D01*
X204452380Y-101500000D01*
X204547619Y-101452380D01*
X204738095Y-101452380D01*
X204833333Y-101500000D01*
X204880952Y-101547619D01*
X204928571Y-101642857D01*
X204928571Y-101880952D01*
X204880952Y-101976190D01*
X204833333Y-102023809D01*
X204738095Y-102071428D01*
X204547619Y-102071428D01*
X204452380Y-102023809D01*
X204404761Y-101976190D01*
X204357142Y-101880952D01*
X207738095Y-93952380D02*
X207166666Y-93952380D01*
X207452380Y-94952380D02*
X207452380Y-93952380D01*
X206833333Y-94952380D02*
X206833333Y-93952380D01*
X206452380Y-93952380D01*
X206357142Y-94000000D01*
X206309523Y-94047619D01*
X206261904Y-94142857D01*
X206261904Y-94285714D01*
X206309523Y-94380952D01*
X206357142Y-94428571D01*
X206452380Y-94476190D01*
X206833333Y-94476190D01*
X205928571Y-93952380D02*
X205309523Y-93952380D01*
X205642857Y-94333333D01*
X205500000Y-94333333D01*
X205404761Y-94380952D01*
X205357142Y-94428571D01*
X205309523Y-94523809D01*
X205309523Y-94761904D01*
X205357142Y-94857142D01*
X205404761Y-94904761D01*
X205500000Y-94952380D01*
X205785714Y-94952380D01*
X205880952Y-94904761D01*
X205928571Y-94857142D01*
X204452380Y-93952380D02*
X204642857Y-93952380D01*
X204738095Y-94000000D01*
X204785714Y-94047619D01*
X204880952Y-94190476D01*
X204928571Y-94380952D01*
X204928571Y-94761904D01*
X204880952Y-94857142D01*
X204833333Y-94904761D01*
X204738095Y-94952380D01*
X204547619Y-94952380D01*
X204452380Y-94904761D01*
X204404761Y-94857142D01*
X204357142Y-94761904D01*
X204357142Y-94523809D01*
X204404761Y-94428571D01*
X204452380Y-94380952D01*
X204547619Y-94333333D01*
X204738095Y-94333333D01*
X204833333Y-94380952D01*
X204880952Y-94428571D01*
X204928571Y-94523809D01*
X207738095Y-88952380D02*
X207166666Y-88952380D01*
X207452380Y-89952380D02*
X207452380Y-88952380D01*
X206833333Y-89952380D02*
X206833333Y-88952380D01*
X206452380Y-88952380D01*
X206357142Y-89000000D01*
X206309523Y-89047619D01*
X206261904Y-89142857D01*
X206261904Y-89285714D01*
X206309523Y-89380952D01*
X206357142Y-89428571D01*
X206452380Y-89476190D01*
X206833333Y-89476190D01*
X205928571Y-88952380D02*
X205309523Y-88952380D01*
X205642857Y-89333333D01*
X205500000Y-89333333D01*
X205404761Y-89380952D01*
X205357142Y-89428571D01*
X205309523Y-89523809D01*
X205309523Y-89761904D01*
X205357142Y-89857142D01*
X205404761Y-89904761D01*
X205500000Y-89952380D01*
X205785714Y-89952380D01*
X205880952Y-89904761D01*
X205928571Y-89857142D01*
X204452380Y-89285714D02*
X204452380Y-89952380D01*
X204690476Y-88904761D02*
X204928571Y-89619047D01*
X204309523Y-89619047D01*
X207738095Y-113952380D02*
X207166666Y-113952380D01*
X207452380Y-114952380D02*
X207452380Y-113952380D01*
X206833333Y-114952380D02*
X206833333Y-113952380D01*
X206452380Y-113952380D01*
X206357142Y-114000000D01*
X206309523Y-114047619D01*
X206261904Y-114142857D01*
X206261904Y-114285714D01*
X206309523Y-114380952D01*
X206357142Y-114428571D01*
X206452380Y-114476190D01*
X206833333Y-114476190D01*
X205404761Y-114285714D02*
X205404761Y-114952380D01*
X205642857Y-113904761D02*
X205880952Y-114619047D01*
X205261904Y-114619047D01*
X204452380Y-114285714D02*
X204452380Y-114952380D01*
X204690476Y-113904761D02*
X204928571Y-114619047D01*
X204309523Y-114619047D01*
X207738095Y-121452380D02*
X207166666Y-121452380D01*
X207452380Y-122452380D02*
X207452380Y-121452380D01*
X206833333Y-122452380D02*
X206833333Y-121452380D01*
X206452380Y-121452380D01*
X206357142Y-121500000D01*
X206309523Y-121547619D01*
X206261904Y-121642857D01*
X206261904Y-121785714D01*
X206309523Y-121880952D01*
X206357142Y-121928571D01*
X206452380Y-121976190D01*
X206833333Y-121976190D01*
X205404761Y-121785714D02*
X205404761Y-122452380D01*
X205642857Y-121404761D02*
X205880952Y-122119047D01*
X205261904Y-122119047D01*
X204976190Y-121452380D02*
X204309523Y-121452380D01*
X204738095Y-122452380D01*
X207738095Y-111452380D02*
X207166666Y-111452380D01*
X207452380Y-112452380D02*
X207452380Y-111452380D01*
X206833333Y-112452380D02*
X206833333Y-111452380D01*
X206452380Y-111452380D01*
X206357142Y-111500000D01*
X206309523Y-111547619D01*
X206261904Y-111642857D01*
X206261904Y-111785714D01*
X206309523Y-111880952D01*
X206357142Y-111928571D01*
X206452380Y-111976190D01*
X206833333Y-111976190D01*
X205404761Y-111785714D02*
X205404761Y-112452380D01*
X205642857Y-111404761D02*
X205880952Y-112119047D01*
X205261904Y-112119047D01*
X204976190Y-111452380D02*
X204357142Y-111452380D01*
X204690476Y-111833333D01*
X204547619Y-111833333D01*
X204452380Y-111880952D01*
X204404761Y-111928571D01*
X204357142Y-112023809D01*
X204357142Y-112261904D01*
X204404761Y-112357142D01*
X204452380Y-112404761D01*
X204547619Y-112452380D01*
X204833333Y-112452380D01*
X204928571Y-112404761D01*
X204976190Y-112357142D01*
X207738095Y-98952380D02*
X207166666Y-98952380D01*
X207452380Y-99952380D02*
X207452380Y-98952380D01*
X206833333Y-99952380D02*
X206833333Y-98952380D01*
X206452380Y-98952380D01*
X206357142Y-99000000D01*
X206309523Y-99047619D01*
X206261904Y-99142857D01*
X206261904Y-99285714D01*
X206309523Y-99380952D01*
X206357142Y-99428571D01*
X206452380Y-99476190D01*
X206833333Y-99476190D01*
X205928571Y-98952380D02*
X205309523Y-98952380D01*
X205642857Y-99333333D01*
X205500000Y-99333333D01*
X205404761Y-99380952D01*
X205357142Y-99428571D01*
X205309523Y-99523809D01*
X205309523Y-99761904D01*
X205357142Y-99857142D01*
X205404761Y-99904761D01*
X205500000Y-99952380D01*
X205785714Y-99952380D01*
X205880952Y-99904761D01*
X205928571Y-99857142D01*
X204738095Y-99380952D02*
X204833333Y-99333333D01*
X204880952Y-99285714D01*
X204928571Y-99190476D01*
X204928571Y-99142857D01*
X204880952Y-99047619D01*
X204833333Y-99000000D01*
X204738095Y-98952380D01*
X204547619Y-98952380D01*
X204452380Y-99000000D01*
X204404761Y-99047619D01*
X204357142Y-99142857D01*
X204357142Y-99190476D01*
X204404761Y-99285714D01*
X204452380Y-99333333D01*
X204547619Y-99380952D01*
X204738095Y-99380952D01*
X204833333Y-99428571D01*
X204880952Y-99476190D01*
X204928571Y-99571428D01*
X204928571Y-99761904D01*
X204880952Y-99857142D01*
X204833333Y-99904761D01*
X204738095Y-99952380D01*
X204547619Y-99952380D01*
X204452380Y-99904761D01*
X204404761Y-99857142D01*
X204357142Y-99761904D01*
X204357142Y-99571428D01*
X204404761Y-99476190D01*
X204452380Y-99428571D01*
X204547619Y-99380952D01*
X207738095Y-108952380D02*
X207166666Y-108952380D01*
X207452380Y-109952380D02*
X207452380Y-108952380D01*
X206833333Y-109952380D02*
X206833333Y-108952380D01*
X206452380Y-108952380D01*
X206357142Y-109000000D01*
X206309523Y-109047619D01*
X206261904Y-109142857D01*
X206261904Y-109285714D01*
X206309523Y-109380952D01*
X206357142Y-109428571D01*
X206452380Y-109476190D01*
X206833333Y-109476190D01*
X205404761Y-109285714D02*
X205404761Y-109952380D01*
X205642857Y-108904761D02*
X205880952Y-109619047D01*
X205261904Y-109619047D01*
X204928571Y-109047619D02*
X204880952Y-109000000D01*
X204785714Y-108952380D01*
X204547619Y-108952380D01*
X204452380Y-109000000D01*
X204404761Y-109047619D01*
X204357142Y-109142857D01*
X204357142Y-109238095D01*
X204404761Y-109380952D01*
X204976190Y-109952380D01*
X204357142Y-109952380D01*
X207738095Y-96452380D02*
X207166666Y-96452380D01*
X207452380Y-97452380D02*
X207452380Y-96452380D01*
X206833333Y-97452380D02*
X206833333Y-96452380D01*
X206452380Y-96452380D01*
X206357142Y-96500000D01*
X206309523Y-96547619D01*
X206261904Y-96642857D01*
X206261904Y-96785714D01*
X206309523Y-96880952D01*
X206357142Y-96928571D01*
X206452380Y-96976190D01*
X206833333Y-96976190D01*
X205928571Y-96452380D02*
X205309523Y-96452380D01*
X205642857Y-96833333D01*
X205500000Y-96833333D01*
X205404761Y-96880952D01*
X205357142Y-96928571D01*
X205309523Y-97023809D01*
X205309523Y-97261904D01*
X205357142Y-97357142D01*
X205404761Y-97404761D01*
X205500000Y-97452380D01*
X205785714Y-97452380D01*
X205880952Y-97404761D01*
X205928571Y-97357142D01*
X204976190Y-96452380D02*
X204309523Y-96452380D01*
X204738095Y-97452380D01*
X207738095Y-106452380D02*
X207166666Y-106452380D01*
X207452380Y-107452380D02*
X207452380Y-106452380D01*
X206833333Y-107452380D02*
X206833333Y-106452380D01*
X206452380Y-106452380D01*
X206357142Y-106500000D01*
X206309523Y-106547619D01*
X206261904Y-106642857D01*
X206261904Y-106785714D01*
X206309523Y-106880952D01*
X206357142Y-106928571D01*
X206452380Y-106976190D01*
X206833333Y-106976190D01*
X205404761Y-106785714D02*
X205404761Y-107452380D01*
X205642857Y-106404761D02*
X205880952Y-107119047D01*
X205261904Y-107119047D01*
X204357142Y-107452380D02*
X204928571Y-107452380D01*
X204642857Y-107452380D02*
X204642857Y-106452380D01*
X204738095Y-106595238D01*
X204833333Y-106690476D01*
X204928571Y-106738095D01*
X188738095Y-113452380D02*
X188166666Y-113452380D01*
X188452380Y-114452380D02*
X188452380Y-113452380D01*
X187833333Y-114452380D02*
X187833333Y-113452380D01*
X187452380Y-113452380D01*
X187357142Y-113500000D01*
X187309523Y-113547619D01*
X187261904Y-113642857D01*
X187261904Y-113785714D01*
X187309523Y-113880952D01*
X187357142Y-113928571D01*
X187452380Y-113976190D01*
X187833333Y-113976190D01*
X186880952Y-113547619D02*
X186833333Y-113500000D01*
X186738095Y-113452380D01*
X186500000Y-113452380D01*
X186404761Y-113500000D01*
X186357142Y-113547619D01*
X186309523Y-113642857D01*
X186309523Y-113738095D01*
X186357142Y-113880952D01*
X186928571Y-114452380D01*
X186309523Y-114452380D01*
X185738095Y-113880952D02*
X185833333Y-113833333D01*
X185880952Y-113785714D01*
X185928571Y-113690476D01*
X185928571Y-113642857D01*
X185880952Y-113547619D01*
X185833333Y-113500000D01*
X185738095Y-113452380D01*
X185547619Y-113452380D01*
X185452380Y-113500000D01*
X185404761Y-113547619D01*
X185357142Y-113642857D01*
X185357142Y-113690476D01*
X185404761Y-113785714D01*
X185452380Y-113833333D01*
X185547619Y-113880952D01*
X185738095Y-113880952D01*
X185833333Y-113928571D01*
X185880952Y-113976190D01*
X185928571Y-114071428D01*
X185928571Y-114261904D01*
X185880952Y-114357142D01*
X185833333Y-114404761D01*
X185738095Y-114452380D01*
X185547619Y-114452380D01*
X185452380Y-114404761D01*
X185404761Y-114357142D01*
X185357142Y-114261904D01*
X185357142Y-114071428D01*
X185404761Y-113976190D01*
X185452380Y-113928571D01*
X185547619Y-113880952D01*
X188738095Y-115952380D02*
X188166666Y-115952380D01*
X188452380Y-116952380D02*
X188452380Y-115952380D01*
X187833333Y-116952380D02*
X187833333Y-115952380D01*
X187452380Y-115952380D01*
X187357142Y-116000000D01*
X187309523Y-116047619D01*
X187261904Y-116142857D01*
X187261904Y-116285714D01*
X187309523Y-116380952D01*
X187357142Y-116428571D01*
X187452380Y-116476190D01*
X187833333Y-116476190D01*
X186880952Y-116047619D02*
X186833333Y-116000000D01*
X186738095Y-115952380D01*
X186500000Y-115952380D01*
X186404761Y-116000000D01*
X186357142Y-116047619D01*
X186309523Y-116142857D01*
X186309523Y-116238095D01*
X186357142Y-116380952D01*
X186928571Y-116952380D01*
X186309523Y-116952380D01*
X185833333Y-116952380D02*
X185642857Y-116952380D01*
X185547619Y-116904761D01*
X185500000Y-116857142D01*
X185404761Y-116714285D01*
X185357142Y-116523809D01*
X185357142Y-116142857D01*
X185404761Y-116047619D01*
X185452380Y-116000000D01*
X185547619Y-115952380D01*
X185738095Y-115952380D01*
X185833333Y-116000000D01*
X185880952Y-116047619D01*
X185928571Y-116142857D01*
X185928571Y-116380952D01*
X185880952Y-116476190D01*
X185833333Y-116523809D01*
X185738095Y-116571428D01*
X185547619Y-116571428D01*
X185452380Y-116523809D01*
X185404761Y-116476190D01*
X185357142Y-116380952D01*
X188738095Y-118452380D02*
X188166666Y-118452380D01*
X188452380Y-119452380D02*
X188452380Y-118452380D01*
X187833333Y-119452380D02*
X187833333Y-118452380D01*
X187452380Y-118452380D01*
X187357142Y-118500000D01*
X187309523Y-118547619D01*
X187261904Y-118642857D01*
X187261904Y-118785714D01*
X187309523Y-118880952D01*
X187357142Y-118928571D01*
X187452380Y-118976190D01*
X187833333Y-118976190D01*
X186928571Y-118452380D02*
X186309523Y-118452380D01*
X186642857Y-118833333D01*
X186500000Y-118833333D01*
X186404761Y-118880952D01*
X186357142Y-118928571D01*
X186309523Y-119023809D01*
X186309523Y-119261904D01*
X186357142Y-119357142D01*
X186404761Y-119404761D01*
X186500000Y-119452380D01*
X186785714Y-119452380D01*
X186880952Y-119404761D01*
X186928571Y-119357142D01*
X185690476Y-118452380D02*
X185595238Y-118452380D01*
X185500000Y-118500000D01*
X185452380Y-118547619D01*
X185404761Y-118642857D01*
X185357142Y-118833333D01*
X185357142Y-119071428D01*
X185404761Y-119261904D01*
X185452380Y-119357142D01*
X185500000Y-119404761D01*
X185595238Y-119452380D01*
X185690476Y-119452380D01*
X185785714Y-119404761D01*
X185833333Y-119357142D01*
X185880952Y-119261904D01*
X185928571Y-119071428D01*
X185928571Y-118833333D01*
X185880952Y-118642857D01*
X185833333Y-118547619D01*
X185785714Y-118500000D01*
X185690476Y-118452380D01*
X188738095Y-120952380D02*
X188166666Y-120952380D01*
X188452380Y-121952380D02*
X188452380Y-120952380D01*
X187833333Y-121952380D02*
X187833333Y-120952380D01*
X187452380Y-120952380D01*
X187357142Y-121000000D01*
X187309523Y-121047619D01*
X187261904Y-121142857D01*
X187261904Y-121285714D01*
X187309523Y-121380952D01*
X187357142Y-121428571D01*
X187452380Y-121476190D01*
X187833333Y-121476190D01*
X186928571Y-120952380D02*
X186309523Y-120952380D01*
X186642857Y-121333333D01*
X186500000Y-121333333D01*
X186404761Y-121380952D01*
X186357142Y-121428571D01*
X186309523Y-121523809D01*
X186309523Y-121761904D01*
X186357142Y-121857142D01*
X186404761Y-121904761D01*
X186500000Y-121952380D01*
X186785714Y-121952380D01*
X186880952Y-121904761D01*
X186928571Y-121857142D01*
X185357142Y-121952380D02*
X185928571Y-121952380D01*
X185642857Y-121952380D02*
X185642857Y-120952380D01*
X185738095Y-121095238D01*
X185833333Y-121190476D01*
X185928571Y-121238095D01*
X188738095Y-110952380D02*
X188166666Y-110952380D01*
X188452380Y-111952380D02*
X188452380Y-110952380D01*
X187833333Y-111952380D02*
X187833333Y-110952380D01*
X187452380Y-110952380D01*
X187357142Y-111000000D01*
X187309523Y-111047619D01*
X187261904Y-111142857D01*
X187261904Y-111285714D01*
X187309523Y-111380952D01*
X187357142Y-111428571D01*
X187452380Y-111476190D01*
X187833333Y-111476190D01*
X186880952Y-111047619D02*
X186833333Y-111000000D01*
X186738095Y-110952380D01*
X186500000Y-110952380D01*
X186404761Y-111000000D01*
X186357142Y-111047619D01*
X186309523Y-111142857D01*
X186309523Y-111238095D01*
X186357142Y-111380952D01*
X186928571Y-111952380D01*
X186309523Y-111952380D01*
X185976190Y-110952380D02*
X185309523Y-110952380D01*
X185738095Y-111952380D01*
X188738095Y-123452380D02*
X188166666Y-123452380D01*
X188452380Y-124452380D02*
X188452380Y-123452380D01*
X187833333Y-124452380D02*
X187833333Y-123452380D01*
X187452380Y-123452380D01*
X187357142Y-123500000D01*
X187309523Y-123547619D01*
X187261904Y-123642857D01*
X187261904Y-123785714D01*
X187309523Y-123880952D01*
X187357142Y-123928571D01*
X187452380Y-123976190D01*
X187833333Y-123976190D01*
X186928571Y-123452380D02*
X186309523Y-123452380D01*
X186642857Y-123833333D01*
X186500000Y-123833333D01*
X186404761Y-123880952D01*
X186357142Y-123928571D01*
X186309523Y-124023809D01*
X186309523Y-124261904D01*
X186357142Y-124357142D01*
X186404761Y-124404761D01*
X186500000Y-124452380D01*
X186785714Y-124452380D01*
X186880952Y-124404761D01*
X186928571Y-124357142D01*
X185928571Y-123547619D02*
X185880952Y-123500000D01*
X185785714Y-123452380D01*
X185547619Y-123452380D01*
X185452380Y-123500000D01*
X185404761Y-123547619D01*
X185357142Y-123642857D01*
X185357142Y-123738095D01*
X185404761Y-123880952D01*
X185976190Y-124452380D01*
X185357142Y-124452380D01*
X188738095Y-88452380D02*
X188166666Y-88452380D01*
X188452380Y-89452380D02*
X188452380Y-88452380D01*
X187833333Y-89452380D02*
X187833333Y-88452380D01*
X187452380Y-88452380D01*
X187357142Y-88500000D01*
X187309523Y-88547619D01*
X187261904Y-88642857D01*
X187261904Y-88785714D01*
X187309523Y-88880952D01*
X187357142Y-88928571D01*
X187452380Y-88976190D01*
X187833333Y-88976190D01*
X186309523Y-89452380D02*
X186880952Y-89452380D01*
X186595238Y-89452380D02*
X186595238Y-88452380D01*
X186690476Y-88595238D01*
X186785714Y-88690476D01*
X186880952Y-88738095D01*
X185738095Y-88880952D02*
X185833333Y-88833333D01*
X185880952Y-88785714D01*
X185928571Y-88690476D01*
X185928571Y-88642857D01*
X185880952Y-88547619D01*
X185833333Y-88500000D01*
X185738095Y-88452380D01*
X185547619Y-88452380D01*
X185452380Y-88500000D01*
X185404761Y-88547619D01*
X185357142Y-88642857D01*
X185357142Y-88690476D01*
X185404761Y-88785714D01*
X185452380Y-88833333D01*
X185547619Y-88880952D01*
X185738095Y-88880952D01*
X185833333Y-88928571D01*
X185880952Y-88976190D01*
X185928571Y-89071428D01*
X185928571Y-89261904D01*
X185880952Y-89357142D01*
X185833333Y-89404761D01*
X185738095Y-89452380D01*
X185547619Y-89452380D01*
X185452380Y-89404761D01*
X185404761Y-89357142D01*
X185357142Y-89261904D01*
X185357142Y-89071428D01*
X185404761Y-88976190D01*
X185452380Y-88928571D01*
X185547619Y-88880952D01*
X188738095Y-85952380D02*
X188166666Y-85952380D01*
X188452380Y-86952380D02*
X188452380Y-85952380D01*
X187833333Y-86952380D02*
X187833333Y-85952380D01*
X187452380Y-85952380D01*
X187357142Y-86000000D01*
X187309523Y-86047619D01*
X187261904Y-86142857D01*
X187261904Y-86285714D01*
X187309523Y-86380952D01*
X187357142Y-86428571D01*
X187452380Y-86476190D01*
X187833333Y-86476190D01*
X186309523Y-86952380D02*
X186880952Y-86952380D01*
X186595238Y-86952380D02*
X186595238Y-85952380D01*
X186690476Y-86095238D01*
X186785714Y-86190476D01*
X186880952Y-86238095D01*
X185976190Y-85952380D02*
X185309523Y-85952380D01*
X185738095Y-86952380D01*
X188738095Y-108452380D02*
X188166666Y-108452380D01*
X188452380Y-109452380D02*
X188452380Y-108452380D01*
X187833333Y-109452380D02*
X187833333Y-108452380D01*
X187452380Y-108452380D01*
X187357142Y-108500000D01*
X187309523Y-108547619D01*
X187261904Y-108642857D01*
X187261904Y-108785714D01*
X187309523Y-108880952D01*
X187357142Y-108928571D01*
X187452380Y-108976190D01*
X187833333Y-108976190D01*
X186880952Y-108547619D02*
X186833333Y-108500000D01*
X186738095Y-108452380D01*
X186500000Y-108452380D01*
X186404761Y-108500000D01*
X186357142Y-108547619D01*
X186309523Y-108642857D01*
X186309523Y-108738095D01*
X186357142Y-108880952D01*
X186928571Y-109452380D01*
X186309523Y-109452380D01*
X185452380Y-108452380D02*
X185642857Y-108452380D01*
X185738095Y-108500000D01*
X185785714Y-108547619D01*
X185880952Y-108690476D01*
X185928571Y-108880952D01*
X185928571Y-109261904D01*
X185880952Y-109357142D01*
X185833333Y-109404761D01*
X185738095Y-109452380D01*
X185547619Y-109452380D01*
X185452380Y-109404761D01*
X185404761Y-109357142D01*
X185357142Y-109261904D01*
X185357142Y-109023809D01*
X185404761Y-108928571D01*
X185452380Y-108880952D01*
X185547619Y-108833333D01*
X185738095Y-108833333D01*
X185833333Y-108880952D01*
X185880952Y-108928571D01*
X185928571Y-109023809D01*
X188738095Y-105952380D02*
X188166666Y-105952380D01*
X188452380Y-106952380D02*
X188452380Y-105952380D01*
X187833333Y-106952380D02*
X187833333Y-105952380D01*
X187452380Y-105952380D01*
X187357142Y-106000000D01*
X187309523Y-106047619D01*
X187261904Y-106142857D01*
X187261904Y-106285714D01*
X187309523Y-106380952D01*
X187357142Y-106428571D01*
X187452380Y-106476190D01*
X187833333Y-106476190D01*
X186880952Y-106047619D02*
X186833333Y-106000000D01*
X186738095Y-105952380D01*
X186500000Y-105952380D01*
X186404761Y-106000000D01*
X186357142Y-106047619D01*
X186309523Y-106142857D01*
X186309523Y-106238095D01*
X186357142Y-106380952D01*
X186928571Y-106952380D01*
X186309523Y-106952380D01*
X185404761Y-105952380D02*
X185880952Y-105952380D01*
X185928571Y-106428571D01*
X185880952Y-106380952D01*
X185785714Y-106333333D01*
X185547619Y-106333333D01*
X185452380Y-106380952D01*
X185404761Y-106428571D01*
X185357142Y-106523809D01*
X185357142Y-106761904D01*
X185404761Y-106857142D01*
X185452380Y-106904761D01*
X185547619Y-106952380D01*
X185785714Y-106952380D01*
X185880952Y-106904761D01*
X185928571Y-106857142D01*
X188738095Y-103452380D02*
X188166666Y-103452380D01*
X188452380Y-104452380D02*
X188452380Y-103452380D01*
X187833333Y-104452380D02*
X187833333Y-103452380D01*
X187452380Y-103452380D01*
X187357142Y-103500000D01*
X187309523Y-103547619D01*
X187261904Y-103642857D01*
X187261904Y-103785714D01*
X187309523Y-103880952D01*
X187357142Y-103928571D01*
X187452380Y-103976190D01*
X187833333Y-103976190D01*
X186880952Y-103547619D02*
X186833333Y-103500000D01*
X186738095Y-103452380D01*
X186500000Y-103452380D01*
X186404761Y-103500000D01*
X186357142Y-103547619D01*
X186309523Y-103642857D01*
X186309523Y-103738095D01*
X186357142Y-103880952D01*
X186928571Y-104452380D01*
X186309523Y-104452380D01*
X185452380Y-103785714D02*
X185452380Y-104452380D01*
X185690476Y-103404761D02*
X185928571Y-104119047D01*
X185309523Y-104119047D01*
X188738095Y-100952380D02*
X188166666Y-100952380D01*
X188452380Y-101952380D02*
X188452380Y-100952380D01*
X187833333Y-101952380D02*
X187833333Y-100952380D01*
X187452380Y-100952380D01*
X187357142Y-101000000D01*
X187309523Y-101047619D01*
X187261904Y-101142857D01*
X187261904Y-101285714D01*
X187309523Y-101380952D01*
X187357142Y-101428571D01*
X187452380Y-101476190D01*
X187833333Y-101476190D01*
X186880952Y-101047619D02*
X186833333Y-101000000D01*
X186738095Y-100952380D01*
X186500000Y-100952380D01*
X186404761Y-101000000D01*
X186357142Y-101047619D01*
X186309523Y-101142857D01*
X186309523Y-101238095D01*
X186357142Y-101380952D01*
X186928571Y-101952380D01*
X186309523Y-101952380D01*
X185976190Y-100952380D02*
X185357142Y-100952380D01*
X185690476Y-101333333D01*
X185547619Y-101333333D01*
X185452380Y-101380952D01*
X185404761Y-101428571D01*
X185357142Y-101523809D01*
X185357142Y-101761904D01*
X185404761Y-101857142D01*
X185452380Y-101904761D01*
X185547619Y-101952380D01*
X185833333Y-101952380D01*
X185928571Y-101904761D01*
X185976190Y-101857142D01*
X188738095Y-95952380D02*
X188166666Y-95952380D01*
X188452380Y-96952380D02*
X188452380Y-95952380D01*
X187833333Y-96952380D02*
X187833333Y-95952380D01*
X187452380Y-95952380D01*
X187357142Y-96000000D01*
X187309523Y-96047619D01*
X187261904Y-96142857D01*
X187261904Y-96285714D01*
X187309523Y-96380952D01*
X187357142Y-96428571D01*
X187452380Y-96476190D01*
X187833333Y-96476190D01*
X186880952Y-96047619D02*
X186833333Y-96000000D01*
X186738095Y-95952380D01*
X186500000Y-95952380D01*
X186404761Y-96000000D01*
X186357142Y-96047619D01*
X186309523Y-96142857D01*
X186309523Y-96238095D01*
X186357142Y-96380952D01*
X186928571Y-96952380D01*
X186309523Y-96952380D01*
X185357142Y-96952380D02*
X185928571Y-96952380D01*
X185642857Y-96952380D02*
X185642857Y-95952380D01*
X185738095Y-96095238D01*
X185833333Y-96190476D01*
X185928571Y-96238095D01*
X188738095Y-90952380D02*
X188166666Y-90952380D01*
X188452380Y-91952380D02*
X188452380Y-90952380D01*
X187833333Y-91952380D02*
X187833333Y-90952380D01*
X187452380Y-90952380D01*
X187357142Y-91000000D01*
X187309523Y-91047619D01*
X187261904Y-91142857D01*
X187261904Y-91285714D01*
X187309523Y-91380952D01*
X187357142Y-91428571D01*
X187452380Y-91476190D01*
X187833333Y-91476190D01*
X186309523Y-91952380D02*
X186880952Y-91952380D01*
X186595238Y-91952380D02*
X186595238Y-90952380D01*
X186690476Y-91095238D01*
X186785714Y-91190476D01*
X186880952Y-91238095D01*
X185833333Y-91952380D02*
X185642857Y-91952380D01*
X185547619Y-91904761D01*
X185500000Y-91857142D01*
X185404761Y-91714285D01*
X185357142Y-91523809D01*
X185357142Y-91142857D01*
X185404761Y-91047619D01*
X185452380Y-91000000D01*
X185547619Y-90952380D01*
X185738095Y-90952380D01*
X185833333Y-91000000D01*
X185880952Y-91047619D01*
X185928571Y-91142857D01*
X185928571Y-91380952D01*
X185880952Y-91476190D01*
X185833333Y-91523809D01*
X185738095Y-91571428D01*
X185547619Y-91571428D01*
X185452380Y-91523809D01*
X185404761Y-91476190D01*
X185357142Y-91380952D01*
X188738095Y-93452380D02*
X188166666Y-93452380D01*
X188452380Y-94452380D02*
X188452380Y-93452380D01*
X187833333Y-94452380D02*
X187833333Y-93452380D01*
X187452380Y-93452380D01*
X187357142Y-93500000D01*
X187309523Y-93547619D01*
X187261904Y-93642857D01*
X187261904Y-93785714D01*
X187309523Y-93880952D01*
X187357142Y-93928571D01*
X187452380Y-93976190D01*
X187833333Y-93976190D01*
X186880952Y-93547619D02*
X186833333Y-93500000D01*
X186738095Y-93452380D01*
X186500000Y-93452380D01*
X186404761Y-93500000D01*
X186357142Y-93547619D01*
X186309523Y-93642857D01*
X186309523Y-93738095D01*
X186357142Y-93880952D01*
X186928571Y-94452380D01*
X186309523Y-94452380D01*
X185690476Y-93452380D02*
X185595238Y-93452380D01*
X185500000Y-93500000D01*
X185452380Y-93547619D01*
X185404761Y-93642857D01*
X185357142Y-93833333D01*
X185357142Y-94071428D01*
X185404761Y-94261904D01*
X185452380Y-94357142D01*
X185500000Y-94404761D01*
X185595238Y-94452380D01*
X185690476Y-94452380D01*
X185785714Y-94404761D01*
X185833333Y-94357142D01*
X185880952Y-94261904D01*
X185928571Y-94071428D01*
X185928571Y-93833333D01*
X185880952Y-93642857D01*
X185833333Y-93547619D01*
X185785714Y-93500000D01*
X185690476Y-93452380D01*
X188738095Y-98452380D02*
X188166666Y-98452380D01*
X188452380Y-99452380D02*
X188452380Y-98452380D01*
X187833333Y-99452380D02*
X187833333Y-98452380D01*
X187452380Y-98452380D01*
X187357142Y-98500000D01*
X187309523Y-98547619D01*
X187261904Y-98642857D01*
X187261904Y-98785714D01*
X187309523Y-98880952D01*
X187357142Y-98928571D01*
X187452380Y-98976190D01*
X187833333Y-98976190D01*
X186880952Y-98547619D02*
X186833333Y-98500000D01*
X186738095Y-98452380D01*
X186500000Y-98452380D01*
X186404761Y-98500000D01*
X186357142Y-98547619D01*
X186309523Y-98642857D01*
X186309523Y-98738095D01*
X186357142Y-98880952D01*
X186928571Y-99452380D01*
X186309523Y-99452380D01*
X185928571Y-98547619D02*
X185880952Y-98500000D01*
X185785714Y-98452380D01*
X185547619Y-98452380D01*
X185452380Y-98500000D01*
X185404761Y-98547619D01*
X185357142Y-98642857D01*
X185357142Y-98738095D01*
X185404761Y-98880952D01*
X185976190Y-99452380D01*
X185357142Y-99452380D01*
X171238095Y-111585030D02*
X170666666Y-111585030D01*
X170952380Y-112585030D02*
X170952380Y-111585030D01*
X170333333Y-112585030D02*
X170333333Y-111585030D01*
X169952380Y-111585030D01*
X169857142Y-111632650D01*
X169809523Y-111680269D01*
X169761904Y-111775507D01*
X169761904Y-111918364D01*
X169809523Y-112013602D01*
X169857142Y-112061221D01*
X169952380Y-112108840D01*
X170333333Y-112108840D01*
X168809523Y-112585030D02*
X169380952Y-112585030D01*
X169095238Y-112585030D02*
X169095238Y-111585030D01*
X169190476Y-111727888D01*
X169285714Y-111823126D01*
X169380952Y-111870745D01*
X167857142Y-112585030D02*
X168428571Y-112585030D01*
X168142857Y-112585030D02*
X168142857Y-111585030D01*
X168238095Y-111727888D01*
X168333333Y-111823126D01*
X168428571Y-111870745D01*
X171238095Y-106558500D02*
X170666667Y-106558500D01*
X170952381Y-107558500D02*
X170952381Y-106558500D01*
X170333333Y-107558500D02*
X170333333Y-106558500D01*
X169952381Y-106558500D01*
X169857143Y-106606120D01*
X169809524Y-106653739D01*
X169761905Y-106748977D01*
X169761905Y-106891834D01*
X169809524Y-106987072D01*
X169857143Y-107034691D01*
X169952381Y-107082310D01*
X170333333Y-107082310D01*
X169285714Y-107558500D02*
X169095238Y-107558500D01*
X169000000Y-107510881D01*
X168952381Y-107463262D01*
X168857143Y-107320405D01*
X168809524Y-107129929D01*
X168809524Y-106748977D01*
X168857143Y-106653739D01*
X168904762Y-106606120D01*
X169000000Y-106558500D01*
X169190476Y-106558500D01*
X169285714Y-106606120D01*
X169333333Y-106653739D01*
X169380952Y-106748977D01*
X169380952Y-106987072D01*
X169333333Y-107082310D01*
X169285714Y-107129929D01*
X169190476Y-107177548D01*
X169000000Y-107177548D01*
X168904762Y-107129929D01*
X168857143Y-107082310D01*
X168809524Y-106987072D01*
X171238095Y-91478910D02*
X170666667Y-91478910D01*
X170952381Y-92478910D02*
X170952381Y-91478910D01*
X170333333Y-92478910D02*
X170333333Y-91478910D01*
X169952381Y-91478910D01*
X169857143Y-91526530D01*
X169809524Y-91574149D01*
X169761905Y-91669387D01*
X169761905Y-91812244D01*
X169809524Y-91907482D01*
X169857143Y-91955101D01*
X169952381Y-92002720D01*
X170333333Y-92002720D01*
X169428571Y-91478910D02*
X168809524Y-91478910D01*
X169142857Y-91859863D01*
X169000000Y-91859863D01*
X168904762Y-91907482D01*
X168857143Y-91955101D01*
X168809524Y-92050339D01*
X168809524Y-92288434D01*
X168857143Y-92383672D01*
X168904762Y-92431291D01*
X169000000Y-92478910D01*
X169285714Y-92478910D01*
X169380952Y-92431291D01*
X169428571Y-92383672D01*
X171238095Y-88965645D02*
X170666667Y-88965645D01*
X170952381Y-89965645D02*
X170952381Y-88965645D01*
X170333333Y-89965645D02*
X170333333Y-88965645D01*
X169952381Y-88965645D01*
X169857143Y-89013265D01*
X169809524Y-89060884D01*
X169761905Y-89156122D01*
X169761905Y-89298979D01*
X169809524Y-89394217D01*
X169857143Y-89441836D01*
X169952381Y-89489455D01*
X170333333Y-89489455D01*
X169380952Y-89060884D02*
X169333333Y-89013265D01*
X169238095Y-88965645D01*
X169000000Y-88965645D01*
X168904762Y-89013265D01*
X168857143Y-89060884D01*
X168809524Y-89156122D01*
X168809524Y-89251360D01*
X168857143Y-89394217D01*
X169428571Y-89965645D01*
X168809524Y-89965645D01*
X171238095Y-86452380D02*
X170666667Y-86452380D01*
X170952381Y-87452380D02*
X170952381Y-86452380D01*
X170333333Y-87452380D02*
X170333333Y-86452380D01*
X169952381Y-86452380D01*
X169857143Y-86500000D01*
X169809524Y-86547619D01*
X169761905Y-86642857D01*
X169761905Y-86785714D01*
X169809524Y-86880952D01*
X169857143Y-86928571D01*
X169952381Y-86976190D01*
X170333333Y-86976190D01*
X168809524Y-87452380D02*
X169380952Y-87452380D01*
X169095238Y-87452380D02*
X169095238Y-86452380D01*
X169190476Y-86595238D01*
X169285714Y-86690476D01*
X169380952Y-86738095D01*
X171238095Y-104045235D02*
X170666667Y-104045235D01*
X170952381Y-105045235D02*
X170952381Y-104045235D01*
X170333333Y-105045235D02*
X170333333Y-104045235D01*
X169952381Y-104045235D01*
X169857143Y-104092855D01*
X169809524Y-104140474D01*
X169761905Y-104235712D01*
X169761905Y-104378569D01*
X169809524Y-104473807D01*
X169857143Y-104521426D01*
X169952381Y-104569045D01*
X170333333Y-104569045D01*
X169190476Y-104473807D02*
X169285714Y-104426188D01*
X169333333Y-104378569D01*
X169380952Y-104283331D01*
X169380952Y-104235712D01*
X169333333Y-104140474D01*
X169285714Y-104092855D01*
X169190476Y-104045235D01*
X169000000Y-104045235D01*
X168904762Y-104092855D01*
X168857143Y-104140474D01*
X168809524Y-104235712D01*
X168809524Y-104283331D01*
X168857143Y-104378569D01*
X168904762Y-104426188D01*
X169000000Y-104473807D01*
X169190476Y-104473807D01*
X169285714Y-104521426D01*
X169333333Y-104569045D01*
X169380952Y-104664283D01*
X169380952Y-104854759D01*
X169333333Y-104949997D01*
X169285714Y-104997616D01*
X169190476Y-105045235D01*
X169000000Y-105045235D01*
X168904762Y-104997616D01*
X168857143Y-104949997D01*
X168809524Y-104854759D01*
X168809524Y-104664283D01*
X168857143Y-104569045D01*
X168904762Y-104521426D01*
X169000000Y-104473807D01*
X171238095Y-109071765D02*
X170666666Y-109071765D01*
X170952380Y-110071765D02*
X170952380Y-109071765D01*
X170333333Y-110071765D02*
X170333333Y-109071765D01*
X169952380Y-109071765D01*
X169857142Y-109119385D01*
X169809523Y-109167004D01*
X169761904Y-109262242D01*
X169761904Y-109405099D01*
X169809523Y-109500337D01*
X169857142Y-109547956D01*
X169952380Y-109595575D01*
X170333333Y-109595575D01*
X168809523Y-110071765D02*
X169380952Y-110071765D01*
X169095238Y-110071765D02*
X169095238Y-109071765D01*
X169190476Y-109214623D01*
X169285714Y-109309861D01*
X169380952Y-109357480D01*
X168190476Y-109071765D02*
X168095238Y-109071765D01*
X168000000Y-109119385D01*
X167952380Y-109167004D01*
X167904761Y-109262242D01*
X167857142Y-109452718D01*
X167857142Y-109690813D01*
X167904761Y-109881289D01*
X167952380Y-109976527D01*
X168000000Y-110024146D01*
X168095238Y-110071765D01*
X168190476Y-110071765D01*
X168285714Y-110024146D01*
X168333333Y-109976527D01*
X168380952Y-109881289D01*
X168428571Y-109690813D01*
X168428571Y-109452718D01*
X168380952Y-109262242D01*
X168333333Y-109167004D01*
X168285714Y-109119385D01*
X168190476Y-109071765D01*
X171238095Y-99018705D02*
X170666667Y-99018705D01*
X170952381Y-100018705D02*
X170952381Y-99018705D01*
X170333333Y-100018705D02*
X170333333Y-99018705D01*
X169952381Y-99018705D01*
X169857143Y-99066325D01*
X169809524Y-99113944D01*
X169761905Y-99209182D01*
X169761905Y-99352039D01*
X169809524Y-99447277D01*
X169857143Y-99494896D01*
X169952381Y-99542515D01*
X170333333Y-99542515D01*
X168904762Y-99018705D02*
X169095238Y-99018705D01*
X169190476Y-99066325D01*
X169238095Y-99113944D01*
X169333333Y-99256801D01*
X169380952Y-99447277D01*
X169380952Y-99828229D01*
X169333333Y-99923467D01*
X169285714Y-99971086D01*
X169190476Y-100018705D01*
X169000000Y-100018705D01*
X168904762Y-99971086D01*
X168857143Y-99923467D01*
X168809524Y-99828229D01*
X168809524Y-99590134D01*
X168857143Y-99494896D01*
X168904762Y-99447277D01*
X169000000Y-99399658D01*
X169190476Y-99399658D01*
X169285714Y-99447277D01*
X169333333Y-99494896D01*
X169380952Y-99590134D01*
X171238095Y-114098295D02*
X170666666Y-114098295D01*
X170952380Y-115098295D02*
X170952380Y-114098295D01*
X170333333Y-115098295D02*
X170333333Y-114098295D01*
X169952380Y-114098295D01*
X169857142Y-114145915D01*
X169809523Y-114193534D01*
X169761904Y-114288772D01*
X169761904Y-114431629D01*
X169809523Y-114526867D01*
X169857142Y-114574486D01*
X169952380Y-114622105D01*
X170333333Y-114622105D01*
X168809523Y-115098295D02*
X169380952Y-115098295D01*
X169095238Y-115098295D02*
X169095238Y-114098295D01*
X169190476Y-114241153D01*
X169285714Y-114336391D01*
X169380952Y-114384010D01*
X168428571Y-114193534D02*
X168380952Y-114145915D01*
X168285714Y-114098295D01*
X168047619Y-114098295D01*
X167952380Y-114145915D01*
X167904761Y-114193534D01*
X167857142Y-114288772D01*
X167857142Y-114384010D01*
X167904761Y-114526867D01*
X168476190Y-115098295D01*
X167857142Y-115098295D01*
X171238095Y-116611560D02*
X170666666Y-116611560D01*
X170952380Y-117611560D02*
X170952380Y-116611560D01*
X170333333Y-117611560D02*
X170333333Y-116611560D01*
X169952380Y-116611560D01*
X169857142Y-116659180D01*
X169809523Y-116706799D01*
X169761904Y-116802037D01*
X169761904Y-116944894D01*
X169809523Y-117040132D01*
X169857142Y-117087751D01*
X169952380Y-117135370D01*
X170333333Y-117135370D01*
X168809523Y-117611560D02*
X169380952Y-117611560D01*
X169095238Y-117611560D02*
X169095238Y-116611560D01*
X169190476Y-116754418D01*
X169285714Y-116849656D01*
X169380952Y-116897275D01*
X168476190Y-116611560D02*
X167857142Y-116611560D01*
X168190476Y-116992513D01*
X168047619Y-116992513D01*
X167952380Y-117040132D01*
X167904761Y-117087751D01*
X167857142Y-117182989D01*
X167857142Y-117421084D01*
X167904761Y-117516322D01*
X167952380Y-117563941D01*
X168047619Y-117611560D01*
X168333333Y-117611560D01*
X168428571Y-117563941D01*
X168476190Y-117516322D01*
X171238095Y-119124825D02*
X170666666Y-119124825D01*
X170952380Y-120124825D02*
X170952380Y-119124825D01*
X170333333Y-120124825D02*
X170333333Y-119124825D01*
X169952380Y-119124825D01*
X169857142Y-119172445D01*
X169809523Y-119220064D01*
X169761904Y-119315302D01*
X169761904Y-119458159D01*
X169809523Y-119553397D01*
X169857142Y-119601016D01*
X169952380Y-119648635D01*
X170333333Y-119648635D01*
X168809523Y-120124825D02*
X169380952Y-120124825D01*
X169095238Y-120124825D02*
X169095238Y-119124825D01*
X169190476Y-119267683D01*
X169285714Y-119362921D01*
X169380952Y-119410540D01*
X167952380Y-119458159D02*
X167952380Y-120124825D01*
X168190476Y-119077206D02*
X168428571Y-119791492D01*
X167809523Y-119791492D01*
X171238095Y-121638100D02*
X170666666Y-121638100D01*
X170952380Y-122638100D02*
X170952380Y-121638100D01*
X170333333Y-122638100D02*
X170333333Y-121638100D01*
X169952380Y-121638100D01*
X169857142Y-121685720D01*
X169809523Y-121733339D01*
X169761904Y-121828577D01*
X169761904Y-121971434D01*
X169809523Y-122066672D01*
X169857142Y-122114291D01*
X169952380Y-122161910D01*
X170333333Y-122161910D01*
X168809523Y-122638100D02*
X169380952Y-122638100D01*
X169095238Y-122638100D02*
X169095238Y-121638100D01*
X169190476Y-121780958D01*
X169285714Y-121876196D01*
X169380952Y-121923815D01*
X167904761Y-121638100D02*
X168380952Y-121638100D01*
X168428571Y-122114291D01*
X168380952Y-122066672D01*
X168285714Y-122019053D01*
X168047619Y-122019053D01*
X167952380Y-122066672D01*
X167904761Y-122114291D01*
X167857142Y-122209529D01*
X167857142Y-122447624D01*
X167904761Y-122542862D01*
X167952380Y-122590481D01*
X168047619Y-122638100D01*
X168285714Y-122638100D01*
X168380952Y-122590481D01*
X168428571Y-122542862D01*
X171238095Y-123952380D02*
X170666666Y-123952380D01*
X170952380Y-124952380D02*
X170952380Y-123952380D01*
X170333333Y-124952380D02*
X170333333Y-123952380D01*
X169952380Y-123952380D01*
X169857142Y-124000000D01*
X169809523Y-124047619D01*
X169761904Y-124142857D01*
X169761904Y-124285714D01*
X169809523Y-124380952D01*
X169857142Y-124428571D01*
X169952380Y-124476190D01*
X170333333Y-124476190D01*
X168809523Y-124952380D02*
X169380952Y-124952380D01*
X169095238Y-124952380D02*
X169095238Y-123952380D01*
X169190476Y-124095238D01*
X169285714Y-124190476D01*
X169380952Y-124238095D01*
X167952380Y-123952380D02*
X168142857Y-123952380D01*
X168238095Y-124000000D01*
X168285714Y-124047619D01*
X168380952Y-124190476D01*
X168428571Y-124380952D01*
X168428571Y-124761904D01*
X168380952Y-124857142D01*
X168333333Y-124904761D01*
X168238095Y-124952380D01*
X168047619Y-124952380D01*
X167952380Y-124904761D01*
X167904761Y-124857142D01*
X167857142Y-124761904D01*
X167857142Y-124523809D01*
X167904761Y-124428571D01*
X167952380Y-124380952D01*
X168047619Y-124333333D01*
X168238095Y-124333333D01*
X168333333Y-124380952D01*
X168380952Y-124428571D01*
X168428571Y-124523809D01*
X171238095Y-96505440D02*
X170666667Y-96505440D01*
X170952381Y-97505440D02*
X170952381Y-96505440D01*
X170333333Y-97505440D02*
X170333333Y-96505440D01*
X169952381Y-96505440D01*
X169857143Y-96553060D01*
X169809524Y-96600679D01*
X169761905Y-96695917D01*
X169761905Y-96838774D01*
X169809524Y-96934012D01*
X169857143Y-96981631D01*
X169952381Y-97029250D01*
X170333333Y-97029250D01*
X168857143Y-96505440D02*
X169333333Y-96505440D01*
X169380952Y-96981631D01*
X169333333Y-96934012D01*
X169238095Y-96886393D01*
X169000000Y-96886393D01*
X168904762Y-96934012D01*
X168857143Y-96981631D01*
X168809524Y-97076869D01*
X168809524Y-97314964D01*
X168857143Y-97410202D01*
X168904762Y-97457821D01*
X169000000Y-97505440D01*
X169238095Y-97505440D01*
X169333333Y-97457821D01*
X169380952Y-97410202D01*
X171238095Y-101531970D02*
X170666667Y-101531970D01*
X170952381Y-102531970D02*
X170952381Y-101531970D01*
X170333333Y-102531970D02*
X170333333Y-101531970D01*
X169952381Y-101531970D01*
X169857143Y-101579590D01*
X169809524Y-101627209D01*
X169761905Y-101722447D01*
X169761905Y-101865304D01*
X169809524Y-101960542D01*
X169857143Y-102008161D01*
X169952381Y-102055780D01*
X170333333Y-102055780D01*
X169428571Y-101531970D02*
X168761905Y-101531970D01*
X169190476Y-102531970D01*
X171238095Y-93992175D02*
X170666667Y-93992175D01*
X170952381Y-94992175D02*
X170952381Y-93992175D01*
X170333333Y-94992175D02*
X170333333Y-93992175D01*
X169952381Y-93992175D01*
X169857143Y-94039795D01*
X169809524Y-94087414D01*
X169761905Y-94182652D01*
X169761905Y-94325509D01*
X169809524Y-94420747D01*
X169857143Y-94468366D01*
X169952381Y-94515985D01*
X170333333Y-94515985D01*
X168904762Y-94325509D02*
X168904762Y-94992175D01*
X169142857Y-93944556D02*
X169380952Y-94658842D01*
X168761905Y-94658842D01*
%TO.C,TP48*%
X171952380Y-70761904D02*
X171952380Y-71333333D01*
X172952380Y-71047619D02*
X171952380Y-71047619D01*
X172952380Y-71666666D02*
X171952380Y-71666666D01*
X171952380Y-72047619D01*
X172000000Y-72142857D01*
X172047619Y-72190476D01*
X172142857Y-72238095D01*
X172285714Y-72238095D01*
X172380952Y-72190476D01*
X172428571Y-72142857D01*
X172476190Y-72047619D01*
X172476190Y-71666666D01*
X172285714Y-73095238D02*
X172952380Y-73095238D01*
X171904761Y-72857142D02*
X172619047Y-72619047D01*
X172619047Y-73238095D01*
X172380952Y-73761904D02*
X172333333Y-73666666D01*
X172285714Y-73619047D01*
X172190476Y-73571428D01*
X172142857Y-73571428D01*
X172047619Y-73619047D01*
X172000000Y-73666666D01*
X171952380Y-73761904D01*
X171952380Y-73952380D01*
X172000000Y-74047619D01*
X172047619Y-74095238D01*
X172142857Y-74142857D01*
X172190476Y-74142857D01*
X172285714Y-74095238D01*
X172333333Y-74047619D01*
X172380952Y-73952380D01*
X172380952Y-73761904D01*
X172428571Y-73666666D01*
X172476190Y-73619047D01*
X172571428Y-73571428D01*
X172761904Y-73571428D01*
X172857142Y-73619047D01*
X172904761Y-73666666D01*
X172952380Y-73761904D01*
X172952380Y-73952380D01*
X172904761Y-74047619D01*
X172857142Y-74095238D01*
X172761904Y-74142857D01*
X172571428Y-74142857D01*
X172476190Y-74095238D01*
X172428571Y-74047619D01*
X172380952Y-73952380D01*
%TO.C,TP47*%
X174452380Y-70761904D02*
X174452380Y-71333333D01*
X175452380Y-71047619D02*
X174452380Y-71047619D01*
X175452380Y-71666666D02*
X174452380Y-71666666D01*
X174452380Y-72047619D01*
X174500000Y-72142857D01*
X174547619Y-72190476D01*
X174642857Y-72238095D01*
X174785714Y-72238095D01*
X174880952Y-72190476D01*
X174928571Y-72142857D01*
X174976190Y-72047619D01*
X174976190Y-71666666D01*
X174785714Y-73095238D02*
X175452380Y-73095238D01*
X174404761Y-72857142D02*
X175119047Y-72619047D01*
X175119047Y-73238095D01*
X174452380Y-73523809D02*
X174452380Y-74190476D01*
X175452380Y-73761904D01*
%TO.C,TP46*%
X176952380Y-70761904D02*
X176952380Y-71333333D01*
X177952380Y-71047619D02*
X176952380Y-71047619D01*
X177952380Y-71666666D02*
X176952380Y-71666666D01*
X176952380Y-72047619D01*
X177000000Y-72142857D01*
X177047619Y-72190476D01*
X177142857Y-72238095D01*
X177285714Y-72238095D01*
X177380952Y-72190476D01*
X177428571Y-72142857D01*
X177476190Y-72047619D01*
X177476190Y-71666666D01*
X177285714Y-73095238D02*
X177952380Y-73095238D01*
X176904761Y-72857142D02*
X177619047Y-72619047D01*
X177619047Y-73238095D01*
X176952380Y-74047619D02*
X176952380Y-73857142D01*
X177000000Y-73761904D01*
X177047619Y-73714285D01*
X177190476Y-73619047D01*
X177380952Y-73571428D01*
X177761904Y-73571428D01*
X177857142Y-73619047D01*
X177904761Y-73666666D01*
X177952380Y-73761904D01*
X177952380Y-73952380D01*
X177904761Y-74047619D01*
X177857142Y-74095238D01*
X177761904Y-74142857D01*
X177523809Y-74142857D01*
X177428571Y-74095238D01*
X177380952Y-74047619D01*
X177333333Y-73952380D01*
X177333333Y-73761904D01*
X177380952Y-73666666D01*
X177428571Y-73619047D01*
X177523809Y-73571428D01*
%TO.C,TP45*%
X179452380Y-70761904D02*
X179452380Y-71333333D01*
X180452380Y-71047619D02*
X179452380Y-71047619D01*
X180452380Y-71666666D02*
X179452380Y-71666666D01*
X179452380Y-72047619D01*
X179500000Y-72142857D01*
X179547619Y-72190476D01*
X179642857Y-72238095D01*
X179785714Y-72238095D01*
X179880952Y-72190476D01*
X179928571Y-72142857D01*
X179976190Y-72047619D01*
X179976190Y-71666666D01*
X179785714Y-73095238D02*
X180452380Y-73095238D01*
X179404761Y-72857142D02*
X180119047Y-72619047D01*
X180119047Y-73238095D01*
X179452380Y-74095238D02*
X179452380Y-73619047D01*
X179928571Y-73571428D01*
X179880952Y-73619047D01*
X179833333Y-73714285D01*
X179833333Y-73952380D01*
X179880952Y-74047619D01*
X179928571Y-74095238D01*
X180023809Y-74142857D01*
X180261904Y-74142857D01*
X180357142Y-74095238D01*
X180404761Y-74047619D01*
X180452380Y-73952380D01*
X180452380Y-73714285D01*
X180404761Y-73619047D01*
X180357142Y-73571428D01*
%TO.C,TP44*%
X181952380Y-70761904D02*
X181952380Y-71333333D01*
X182952380Y-71047619D02*
X181952380Y-71047619D01*
X182952380Y-71666666D02*
X181952380Y-71666666D01*
X181952380Y-72047619D01*
X182000000Y-72142857D01*
X182047619Y-72190476D01*
X182142857Y-72238095D01*
X182285714Y-72238095D01*
X182380952Y-72190476D01*
X182428571Y-72142857D01*
X182476190Y-72047619D01*
X182476190Y-71666666D01*
X182285714Y-73095238D02*
X182952380Y-73095238D01*
X181904761Y-72857142D02*
X182619047Y-72619047D01*
X182619047Y-73238095D01*
X182285714Y-74047619D02*
X182952380Y-74047619D01*
X181904761Y-73809523D02*
X182619047Y-73571428D01*
X182619047Y-74190476D01*
%TO.C,TP43*%
X184452380Y-70761904D02*
X184452380Y-71333333D01*
X185452380Y-71047619D02*
X184452380Y-71047619D01*
X185452380Y-71666666D02*
X184452380Y-71666666D01*
X184452380Y-72047619D01*
X184500000Y-72142857D01*
X184547619Y-72190476D01*
X184642857Y-72238095D01*
X184785714Y-72238095D01*
X184880952Y-72190476D01*
X184928571Y-72142857D01*
X184976190Y-72047619D01*
X184976190Y-71666666D01*
X184785714Y-73095238D02*
X185452380Y-73095238D01*
X184404761Y-72857142D02*
X185119047Y-72619047D01*
X185119047Y-73238095D01*
X184452380Y-73523809D02*
X184452380Y-74142857D01*
X184833333Y-73809523D01*
X184833333Y-73952380D01*
X184880952Y-74047619D01*
X184928571Y-74095238D01*
X185023809Y-74142857D01*
X185261904Y-74142857D01*
X185357142Y-74095238D01*
X185404761Y-74047619D01*
X185452380Y-73952380D01*
X185452380Y-73666666D01*
X185404761Y-73571428D01*
X185357142Y-73523809D01*
%TO.C,TP42*%
X186952380Y-70761904D02*
X186952380Y-71333333D01*
X187952380Y-71047619D02*
X186952380Y-71047619D01*
X187952380Y-71666666D02*
X186952380Y-71666666D01*
X186952380Y-72047619D01*
X187000000Y-72142857D01*
X187047619Y-72190476D01*
X187142857Y-72238095D01*
X187285714Y-72238095D01*
X187380952Y-72190476D01*
X187428571Y-72142857D01*
X187476190Y-72047619D01*
X187476190Y-71666666D01*
X187285714Y-73095238D02*
X187952380Y-73095238D01*
X186904761Y-72857142D02*
X187619047Y-72619047D01*
X187619047Y-73238095D01*
X187047619Y-73571428D02*
X187000000Y-73619047D01*
X186952380Y-73714285D01*
X186952380Y-73952380D01*
X187000000Y-74047619D01*
X187047619Y-74095238D01*
X187142857Y-74142857D01*
X187238095Y-74142857D01*
X187380952Y-74095238D01*
X187952380Y-73523809D01*
X187952380Y-74142857D01*
%TO.C,TP41*%
X189452380Y-70761904D02*
X189452380Y-71333333D01*
X190452380Y-71047619D02*
X189452380Y-71047619D01*
X190452380Y-71666666D02*
X189452380Y-71666666D01*
X189452380Y-72047619D01*
X189500000Y-72142857D01*
X189547619Y-72190476D01*
X189642857Y-72238095D01*
X189785714Y-72238095D01*
X189880952Y-72190476D01*
X189928571Y-72142857D01*
X189976190Y-72047619D01*
X189976190Y-71666666D01*
X189785714Y-73095238D02*
X190452380Y-73095238D01*
X189404761Y-72857142D02*
X190119047Y-72619047D01*
X190119047Y-73238095D01*
X190452380Y-74142857D02*
X190452380Y-73571428D01*
X190452380Y-73857142D02*
X189452380Y-73857142D01*
X189595238Y-73761904D01*
X189690476Y-73666666D01*
X189738095Y-73571428D01*
%TO.C,TP40*%
X191952380Y-70761904D02*
X191952380Y-71333333D01*
X192952380Y-71047619D02*
X191952380Y-71047619D01*
X192952380Y-71666666D02*
X191952380Y-71666666D01*
X191952380Y-72047619D01*
X192000000Y-72142857D01*
X192047619Y-72190476D01*
X192142857Y-72238095D01*
X192285714Y-72238095D01*
X192380952Y-72190476D01*
X192428571Y-72142857D01*
X192476190Y-72047619D01*
X192476190Y-71666666D01*
X192285714Y-73095238D02*
X192952380Y-73095238D01*
X191904761Y-72857142D02*
X192619047Y-72619047D01*
X192619047Y-73238095D01*
X191952380Y-73809523D02*
X191952380Y-73904761D01*
X192000000Y-74000000D01*
X192047619Y-74047619D01*
X192142857Y-74095238D01*
X192333333Y-74142857D01*
X192571428Y-74142857D01*
X192761904Y-74095238D01*
X192857142Y-74047619D01*
X192904761Y-74000000D01*
X192952380Y-73904761D01*
X192952380Y-73809523D01*
X192904761Y-73714285D01*
X192857142Y-73666666D01*
X192761904Y-73619047D01*
X192571428Y-73571428D01*
X192333333Y-73571428D01*
X192142857Y-73619047D01*
X192047619Y-73666666D01*
X192000000Y-73714285D01*
X191952380Y-73809523D01*
%TO.C,TP39*%
X194452380Y-70761904D02*
X194452380Y-71333333D01*
X195452380Y-71047619D02*
X194452380Y-71047619D01*
X195452380Y-71666666D02*
X194452380Y-71666666D01*
X194452380Y-72047619D01*
X194500000Y-72142857D01*
X194547619Y-72190476D01*
X194642857Y-72238095D01*
X194785714Y-72238095D01*
X194880952Y-72190476D01*
X194928571Y-72142857D01*
X194976190Y-72047619D01*
X194976190Y-71666666D01*
X194452380Y-72571428D02*
X194452380Y-73190476D01*
X194833333Y-72857142D01*
X194833333Y-73000000D01*
X194880952Y-73095238D01*
X194928571Y-73142857D01*
X195023809Y-73190476D01*
X195261904Y-73190476D01*
X195357142Y-73142857D01*
X195404761Y-73095238D01*
X195452380Y-73000000D01*
X195452380Y-72714285D01*
X195404761Y-72619047D01*
X195357142Y-72571428D01*
X195452380Y-73666666D02*
X195452380Y-73857142D01*
X195404761Y-73952380D01*
X195357142Y-74000000D01*
X195214285Y-74095238D01*
X195023809Y-74142857D01*
X194642857Y-74142857D01*
X194547619Y-74095238D01*
X194500000Y-74047619D01*
X194452380Y-73952380D01*
X194452380Y-73761904D01*
X194500000Y-73666666D01*
X194547619Y-73619047D01*
X194642857Y-73571428D01*
X194880952Y-73571428D01*
X194976190Y-73619047D01*
X195023809Y-73666666D01*
X195071428Y-73761904D01*
X195071428Y-73952380D01*
X195023809Y-74047619D01*
X194976190Y-74095238D01*
X194880952Y-74142857D01*
%TO.C,TP38*%
X196952380Y-70761904D02*
X196952380Y-71333333D01*
X197952380Y-71047619D02*
X196952380Y-71047619D01*
X197952380Y-71666666D02*
X196952380Y-71666666D01*
X196952380Y-72047619D01*
X197000000Y-72142857D01*
X197047619Y-72190476D01*
X197142857Y-72238095D01*
X197285714Y-72238095D01*
X197380952Y-72190476D01*
X197428571Y-72142857D01*
X197476190Y-72047619D01*
X197476190Y-71666666D01*
X196952380Y-72571428D02*
X196952380Y-73190476D01*
X197333333Y-72857142D01*
X197333333Y-73000000D01*
X197380952Y-73095238D01*
X197428571Y-73142857D01*
X197523809Y-73190476D01*
X197761904Y-73190476D01*
X197857142Y-73142857D01*
X197904761Y-73095238D01*
X197952380Y-73000000D01*
X197952380Y-72714285D01*
X197904761Y-72619047D01*
X197857142Y-72571428D01*
X197380952Y-73761904D02*
X197333333Y-73666666D01*
X197285714Y-73619047D01*
X197190476Y-73571428D01*
X197142857Y-73571428D01*
X197047619Y-73619047D01*
X197000000Y-73666666D01*
X196952380Y-73761904D01*
X196952380Y-73952380D01*
X197000000Y-74047619D01*
X197047619Y-74095238D01*
X197142857Y-74142857D01*
X197190476Y-74142857D01*
X197285714Y-74095238D01*
X197333333Y-74047619D01*
X197380952Y-73952380D01*
X197380952Y-73761904D01*
X197428571Y-73666666D01*
X197476190Y-73619047D01*
X197571428Y-73571428D01*
X197761904Y-73571428D01*
X197857142Y-73619047D01*
X197904761Y-73666666D01*
X197952380Y-73761904D01*
X197952380Y-73952380D01*
X197904761Y-74047619D01*
X197857142Y-74095238D01*
X197761904Y-74142857D01*
X197571428Y-74142857D01*
X197476190Y-74095238D01*
X197428571Y-74047619D01*
X197380952Y-73952380D01*
%TO.C,TP37*%
X199452380Y-70761904D02*
X199452380Y-71333333D01*
X200452380Y-71047619D02*
X199452380Y-71047619D01*
X200452380Y-71666666D02*
X199452380Y-71666666D01*
X199452380Y-72047619D01*
X199500000Y-72142857D01*
X199547619Y-72190476D01*
X199642857Y-72238095D01*
X199785714Y-72238095D01*
X199880952Y-72190476D01*
X199928571Y-72142857D01*
X199976190Y-72047619D01*
X199976190Y-71666666D01*
X199452380Y-72571428D02*
X199452380Y-73190476D01*
X199833333Y-72857142D01*
X199833333Y-73000000D01*
X199880952Y-73095238D01*
X199928571Y-73142857D01*
X200023809Y-73190476D01*
X200261904Y-73190476D01*
X200357142Y-73142857D01*
X200404761Y-73095238D01*
X200452380Y-73000000D01*
X200452380Y-72714285D01*
X200404761Y-72619047D01*
X200357142Y-72571428D01*
X199452380Y-73523809D02*
X199452380Y-74190476D01*
X200452380Y-73761904D01*
%TO.C,TP36*%
X201952380Y-70761904D02*
X201952380Y-71333333D01*
X202952380Y-71047619D02*
X201952380Y-71047619D01*
X202952380Y-71666666D02*
X201952380Y-71666666D01*
X201952380Y-72047619D01*
X202000000Y-72142857D01*
X202047619Y-72190476D01*
X202142857Y-72238095D01*
X202285714Y-72238095D01*
X202380952Y-72190476D01*
X202428571Y-72142857D01*
X202476190Y-72047619D01*
X202476190Y-71666666D01*
X201952380Y-72571428D02*
X201952380Y-73190476D01*
X202333333Y-72857142D01*
X202333333Y-73000000D01*
X202380952Y-73095238D01*
X202428571Y-73142857D01*
X202523809Y-73190476D01*
X202761904Y-73190476D01*
X202857142Y-73142857D01*
X202904761Y-73095238D01*
X202952380Y-73000000D01*
X202952380Y-72714285D01*
X202904761Y-72619047D01*
X202857142Y-72571428D01*
X201952380Y-74047619D02*
X201952380Y-73857142D01*
X202000000Y-73761904D01*
X202047619Y-73714285D01*
X202190476Y-73619047D01*
X202380952Y-73571428D01*
X202761904Y-73571428D01*
X202857142Y-73619047D01*
X202904761Y-73666666D01*
X202952380Y-73761904D01*
X202952380Y-73952380D01*
X202904761Y-74047619D01*
X202857142Y-74095238D01*
X202761904Y-74142857D01*
X202523809Y-74142857D01*
X202428571Y-74095238D01*
X202380952Y-74047619D01*
X202333333Y-73952380D01*
X202333333Y-73761904D01*
X202380952Y-73666666D01*
X202428571Y-73619047D01*
X202523809Y-73571428D01*
%TO.C,TP35*%
X204452380Y-70761904D02*
X204452380Y-71333333D01*
X205452380Y-71047619D02*
X204452380Y-71047619D01*
X205452380Y-71666666D02*
X204452380Y-71666666D01*
X204452380Y-72047619D01*
X204500000Y-72142857D01*
X204547619Y-72190476D01*
X204642857Y-72238095D01*
X204785714Y-72238095D01*
X204880952Y-72190476D01*
X204928571Y-72142857D01*
X204976190Y-72047619D01*
X204976190Y-71666666D01*
X204452380Y-72571428D02*
X204452380Y-73190476D01*
X204833333Y-72857142D01*
X204833333Y-73000000D01*
X204880952Y-73095238D01*
X204928571Y-73142857D01*
X205023809Y-73190476D01*
X205261904Y-73190476D01*
X205357142Y-73142857D01*
X205404761Y-73095238D01*
X205452380Y-73000000D01*
X205452380Y-72714285D01*
X205404761Y-72619047D01*
X205357142Y-72571428D01*
X204452380Y-74095238D02*
X204452380Y-73619047D01*
X204928571Y-73571428D01*
X204880952Y-73619047D01*
X204833333Y-73714285D01*
X204833333Y-73952380D01*
X204880952Y-74047619D01*
X204928571Y-74095238D01*
X205023809Y-74142857D01*
X205261904Y-74142857D01*
X205357142Y-74095238D01*
X205404761Y-74047619D01*
X205452380Y-73952380D01*
X205452380Y-73714285D01*
X205404761Y-73619047D01*
X205357142Y-73571428D01*
%TO.C,TP34*%
X206952380Y-70761904D02*
X206952380Y-71333333D01*
X207952380Y-71047619D02*
X206952380Y-71047619D01*
X207952380Y-71666666D02*
X206952380Y-71666666D01*
X206952380Y-72047619D01*
X207000000Y-72142857D01*
X207047619Y-72190476D01*
X207142857Y-72238095D01*
X207285714Y-72238095D01*
X207380952Y-72190476D01*
X207428571Y-72142857D01*
X207476190Y-72047619D01*
X207476190Y-71666666D01*
X206952380Y-72571428D02*
X206952380Y-73190476D01*
X207333333Y-72857142D01*
X207333333Y-73000000D01*
X207380952Y-73095238D01*
X207428571Y-73142857D01*
X207523809Y-73190476D01*
X207761904Y-73190476D01*
X207857142Y-73142857D01*
X207904761Y-73095238D01*
X207952380Y-73000000D01*
X207952380Y-72714285D01*
X207904761Y-72619047D01*
X207857142Y-72571428D01*
X207285714Y-74047619D02*
X207952380Y-74047619D01*
X206904761Y-73809523D02*
X207619047Y-73571428D01*
X207619047Y-74190476D01*
%TO.C,TP33*%
X209452380Y-70761904D02*
X209452380Y-71333333D01*
X210452380Y-71047619D02*
X209452380Y-71047619D01*
X210452380Y-71666666D02*
X209452380Y-71666666D01*
X209452380Y-72047619D01*
X209500000Y-72142857D01*
X209547619Y-72190476D01*
X209642857Y-72238095D01*
X209785714Y-72238095D01*
X209880952Y-72190476D01*
X209928571Y-72142857D01*
X209976190Y-72047619D01*
X209976190Y-71666666D01*
X209452380Y-72571428D02*
X209452380Y-73190476D01*
X209833333Y-72857142D01*
X209833333Y-73000000D01*
X209880952Y-73095238D01*
X209928571Y-73142857D01*
X210023809Y-73190476D01*
X210261904Y-73190476D01*
X210357142Y-73142857D01*
X210404761Y-73095238D01*
X210452380Y-73000000D01*
X210452380Y-72714285D01*
X210404761Y-72619047D01*
X210357142Y-72571428D01*
X209452380Y-73523809D02*
X209452380Y-74142857D01*
X209833333Y-73809523D01*
X209833333Y-73952380D01*
X209880952Y-74047619D01*
X209928571Y-74095238D01*
X210023809Y-74142857D01*
X210261904Y-74142857D01*
X210357142Y-74095238D01*
X210404761Y-74047619D01*
X210452380Y-73952380D01*
X210452380Y-73666666D01*
X210404761Y-73571428D01*
X210357142Y-73523809D01*
%TO.C,TP32*%
X171952380Y-62261904D02*
X171952380Y-62833333D01*
X172952380Y-62547619D02*
X171952380Y-62547619D01*
X172952380Y-63166666D02*
X171952380Y-63166666D01*
X171952380Y-63547619D01*
X172000000Y-63642857D01*
X172047619Y-63690476D01*
X172142857Y-63738095D01*
X172285714Y-63738095D01*
X172380952Y-63690476D01*
X172428571Y-63642857D01*
X172476190Y-63547619D01*
X172476190Y-63166666D01*
X171952380Y-64071428D02*
X171952380Y-64690476D01*
X172333333Y-64357142D01*
X172333333Y-64500000D01*
X172380952Y-64595238D01*
X172428571Y-64642857D01*
X172523809Y-64690476D01*
X172761904Y-64690476D01*
X172857142Y-64642857D01*
X172904761Y-64595238D01*
X172952380Y-64500000D01*
X172952380Y-64214285D01*
X172904761Y-64119047D01*
X172857142Y-64071428D01*
X172047619Y-65071428D02*
X172000000Y-65119047D01*
X171952380Y-65214285D01*
X171952380Y-65452380D01*
X172000000Y-65547619D01*
X172047619Y-65595238D01*
X172142857Y-65642857D01*
X172238095Y-65642857D01*
X172380952Y-65595238D01*
X172952380Y-65023809D01*
X172952380Y-65642857D01*
%TO.C,TP31*%
X174452380Y-62261904D02*
X174452380Y-62833333D01*
X175452380Y-62547619D02*
X174452380Y-62547619D01*
X175452380Y-63166666D02*
X174452380Y-63166666D01*
X174452380Y-63547619D01*
X174500000Y-63642857D01*
X174547619Y-63690476D01*
X174642857Y-63738095D01*
X174785714Y-63738095D01*
X174880952Y-63690476D01*
X174928571Y-63642857D01*
X174976190Y-63547619D01*
X174976190Y-63166666D01*
X174452380Y-64071428D02*
X174452380Y-64690476D01*
X174833333Y-64357142D01*
X174833333Y-64500000D01*
X174880952Y-64595238D01*
X174928571Y-64642857D01*
X175023809Y-64690476D01*
X175261904Y-64690476D01*
X175357142Y-64642857D01*
X175404761Y-64595238D01*
X175452380Y-64500000D01*
X175452380Y-64214285D01*
X175404761Y-64119047D01*
X175357142Y-64071428D01*
X175452380Y-65642857D02*
X175452380Y-65071428D01*
X175452380Y-65357142D02*
X174452380Y-65357142D01*
X174595238Y-65261904D01*
X174690476Y-65166666D01*
X174738095Y-65071428D01*
%TO.C,TP30*%
X176952380Y-62261904D02*
X176952380Y-62833333D01*
X177952380Y-62547619D02*
X176952380Y-62547619D01*
X177952380Y-63166666D02*
X176952380Y-63166666D01*
X176952380Y-63547619D01*
X177000000Y-63642857D01*
X177047619Y-63690476D01*
X177142857Y-63738095D01*
X177285714Y-63738095D01*
X177380952Y-63690476D01*
X177428571Y-63642857D01*
X177476190Y-63547619D01*
X177476190Y-63166666D01*
X176952380Y-64071428D02*
X176952380Y-64690476D01*
X177333333Y-64357142D01*
X177333333Y-64500000D01*
X177380952Y-64595238D01*
X177428571Y-64642857D01*
X177523809Y-64690476D01*
X177761904Y-64690476D01*
X177857142Y-64642857D01*
X177904761Y-64595238D01*
X177952380Y-64500000D01*
X177952380Y-64214285D01*
X177904761Y-64119047D01*
X177857142Y-64071428D01*
X176952380Y-65309523D02*
X176952380Y-65404761D01*
X177000000Y-65500000D01*
X177047619Y-65547619D01*
X177142857Y-65595238D01*
X177333333Y-65642857D01*
X177571428Y-65642857D01*
X177761904Y-65595238D01*
X177857142Y-65547619D01*
X177904761Y-65500000D01*
X177952380Y-65404761D01*
X177952380Y-65309523D01*
X177904761Y-65214285D01*
X177857142Y-65166666D01*
X177761904Y-65119047D01*
X177571428Y-65071428D01*
X177333333Y-65071428D01*
X177142857Y-65119047D01*
X177047619Y-65166666D01*
X177000000Y-65214285D01*
X176952380Y-65309523D01*
%TO.C,TP29*%
X179452380Y-62261904D02*
X179452380Y-62833333D01*
X180452380Y-62547619D02*
X179452380Y-62547619D01*
X180452380Y-63166666D02*
X179452380Y-63166666D01*
X179452380Y-63547619D01*
X179500000Y-63642857D01*
X179547619Y-63690476D01*
X179642857Y-63738095D01*
X179785714Y-63738095D01*
X179880952Y-63690476D01*
X179928571Y-63642857D01*
X179976190Y-63547619D01*
X179976190Y-63166666D01*
X179547619Y-64119047D02*
X179500000Y-64166666D01*
X179452380Y-64261904D01*
X179452380Y-64500000D01*
X179500000Y-64595238D01*
X179547619Y-64642857D01*
X179642857Y-64690476D01*
X179738095Y-64690476D01*
X179880952Y-64642857D01*
X180452380Y-64071428D01*
X180452380Y-64690476D01*
X180452380Y-65166666D02*
X180452380Y-65357142D01*
X180404761Y-65452380D01*
X180357142Y-65500000D01*
X180214285Y-65595238D01*
X180023809Y-65642857D01*
X179642857Y-65642857D01*
X179547619Y-65595238D01*
X179500000Y-65547619D01*
X179452380Y-65452380D01*
X179452380Y-65261904D01*
X179500000Y-65166666D01*
X179547619Y-65119047D01*
X179642857Y-65071428D01*
X179880952Y-65071428D01*
X179976190Y-65119047D01*
X180023809Y-65166666D01*
X180071428Y-65261904D01*
X180071428Y-65452380D01*
X180023809Y-65547619D01*
X179976190Y-65595238D01*
X179880952Y-65642857D01*
%TO.C,TP28*%
X181952380Y-62261904D02*
X181952380Y-62833333D01*
X182952380Y-62547619D02*
X181952380Y-62547619D01*
X182952380Y-63166666D02*
X181952380Y-63166666D01*
X181952380Y-63547619D01*
X182000000Y-63642857D01*
X182047619Y-63690476D01*
X182142857Y-63738095D01*
X182285714Y-63738095D01*
X182380952Y-63690476D01*
X182428571Y-63642857D01*
X182476190Y-63547619D01*
X182476190Y-63166666D01*
X182047619Y-64119047D02*
X182000000Y-64166666D01*
X181952380Y-64261904D01*
X181952380Y-64500000D01*
X182000000Y-64595238D01*
X182047619Y-64642857D01*
X182142857Y-64690476D01*
X182238095Y-64690476D01*
X182380952Y-64642857D01*
X182952380Y-64071428D01*
X182952380Y-64690476D01*
X182380952Y-65261904D02*
X182333333Y-65166666D01*
X182285714Y-65119047D01*
X182190476Y-65071428D01*
X182142857Y-65071428D01*
X182047619Y-65119047D01*
X182000000Y-65166666D01*
X181952380Y-65261904D01*
X181952380Y-65452380D01*
X182000000Y-65547619D01*
X182047619Y-65595238D01*
X182142857Y-65642857D01*
X182190476Y-65642857D01*
X182285714Y-65595238D01*
X182333333Y-65547619D01*
X182380952Y-65452380D01*
X182380952Y-65261904D01*
X182428571Y-65166666D01*
X182476190Y-65119047D01*
X182571428Y-65071428D01*
X182761904Y-65071428D01*
X182857142Y-65119047D01*
X182904761Y-65166666D01*
X182952380Y-65261904D01*
X182952380Y-65452380D01*
X182904761Y-65547619D01*
X182857142Y-65595238D01*
X182761904Y-65642857D01*
X182571428Y-65642857D01*
X182476190Y-65595238D01*
X182428571Y-65547619D01*
X182380952Y-65452380D01*
%TO.C,TP27*%
X184452380Y-62261904D02*
X184452380Y-62833333D01*
X185452380Y-62547619D02*
X184452380Y-62547619D01*
X185452380Y-63166666D02*
X184452380Y-63166666D01*
X184452380Y-63547619D01*
X184500000Y-63642857D01*
X184547619Y-63690476D01*
X184642857Y-63738095D01*
X184785714Y-63738095D01*
X184880952Y-63690476D01*
X184928571Y-63642857D01*
X184976190Y-63547619D01*
X184976190Y-63166666D01*
X184547619Y-64119047D02*
X184500000Y-64166666D01*
X184452380Y-64261904D01*
X184452380Y-64500000D01*
X184500000Y-64595238D01*
X184547619Y-64642857D01*
X184642857Y-64690476D01*
X184738095Y-64690476D01*
X184880952Y-64642857D01*
X185452380Y-64071428D01*
X185452380Y-64690476D01*
X184452380Y-65023809D02*
X184452380Y-65690476D01*
X185452380Y-65261904D01*
%TO.C,TP26*%
X186952380Y-62261904D02*
X186952380Y-62833333D01*
X187952380Y-62547619D02*
X186952380Y-62547619D01*
X187952380Y-63166666D02*
X186952380Y-63166666D01*
X186952380Y-63547619D01*
X187000000Y-63642857D01*
X187047619Y-63690476D01*
X187142857Y-63738095D01*
X187285714Y-63738095D01*
X187380952Y-63690476D01*
X187428571Y-63642857D01*
X187476190Y-63547619D01*
X187476190Y-63166666D01*
X187047619Y-64119047D02*
X187000000Y-64166666D01*
X186952380Y-64261904D01*
X186952380Y-64500000D01*
X187000000Y-64595238D01*
X187047619Y-64642857D01*
X187142857Y-64690476D01*
X187238095Y-64690476D01*
X187380952Y-64642857D01*
X187952380Y-64071428D01*
X187952380Y-64690476D01*
X186952380Y-65547619D02*
X186952380Y-65357142D01*
X187000000Y-65261904D01*
X187047619Y-65214285D01*
X187190476Y-65119047D01*
X187380952Y-65071428D01*
X187761904Y-65071428D01*
X187857142Y-65119047D01*
X187904761Y-65166666D01*
X187952380Y-65261904D01*
X187952380Y-65452380D01*
X187904761Y-65547619D01*
X187857142Y-65595238D01*
X187761904Y-65642857D01*
X187523809Y-65642857D01*
X187428571Y-65595238D01*
X187380952Y-65547619D01*
X187333333Y-65452380D01*
X187333333Y-65261904D01*
X187380952Y-65166666D01*
X187428571Y-65119047D01*
X187523809Y-65071428D01*
%TO.C,TP25*%
X189452380Y-62261904D02*
X189452380Y-62833333D01*
X190452380Y-62547619D02*
X189452380Y-62547619D01*
X190452380Y-63166666D02*
X189452380Y-63166666D01*
X189452380Y-63547619D01*
X189500000Y-63642857D01*
X189547619Y-63690476D01*
X189642857Y-63738095D01*
X189785714Y-63738095D01*
X189880952Y-63690476D01*
X189928571Y-63642857D01*
X189976190Y-63547619D01*
X189976190Y-63166666D01*
X189547619Y-64119047D02*
X189500000Y-64166666D01*
X189452380Y-64261904D01*
X189452380Y-64500000D01*
X189500000Y-64595238D01*
X189547619Y-64642857D01*
X189642857Y-64690476D01*
X189738095Y-64690476D01*
X189880952Y-64642857D01*
X190452380Y-64071428D01*
X190452380Y-64690476D01*
X189452380Y-65595238D02*
X189452380Y-65119047D01*
X189928571Y-65071428D01*
X189880952Y-65119047D01*
X189833333Y-65214285D01*
X189833333Y-65452380D01*
X189880952Y-65547619D01*
X189928571Y-65595238D01*
X190023809Y-65642857D01*
X190261904Y-65642857D01*
X190357142Y-65595238D01*
X190404761Y-65547619D01*
X190452380Y-65452380D01*
X190452380Y-65214285D01*
X190404761Y-65119047D01*
X190357142Y-65071428D01*
%TO.C,TP24*%
X191952380Y-62261904D02*
X191952380Y-62833333D01*
X192952380Y-62547619D02*
X191952380Y-62547619D01*
X192952380Y-63166666D02*
X191952380Y-63166666D01*
X191952380Y-63547619D01*
X192000000Y-63642857D01*
X192047619Y-63690476D01*
X192142857Y-63738095D01*
X192285714Y-63738095D01*
X192380952Y-63690476D01*
X192428571Y-63642857D01*
X192476190Y-63547619D01*
X192476190Y-63166666D01*
X192047619Y-64119047D02*
X192000000Y-64166666D01*
X191952380Y-64261904D01*
X191952380Y-64500000D01*
X192000000Y-64595238D01*
X192047619Y-64642857D01*
X192142857Y-64690476D01*
X192238095Y-64690476D01*
X192380952Y-64642857D01*
X192952380Y-64071428D01*
X192952380Y-64690476D01*
X192285714Y-65547619D02*
X192952380Y-65547619D01*
X191904761Y-65309523D02*
X192619047Y-65071428D01*
X192619047Y-65690476D01*
%TO.C,TP23*%
X194452380Y-62261904D02*
X194452380Y-62833333D01*
X195452380Y-62547619D02*
X194452380Y-62547619D01*
X195452380Y-63166666D02*
X194452380Y-63166666D01*
X194452380Y-63547619D01*
X194500000Y-63642857D01*
X194547619Y-63690476D01*
X194642857Y-63738095D01*
X194785714Y-63738095D01*
X194880952Y-63690476D01*
X194928571Y-63642857D01*
X194976190Y-63547619D01*
X194976190Y-63166666D01*
X194547619Y-64119047D02*
X194500000Y-64166666D01*
X194452380Y-64261904D01*
X194452380Y-64500000D01*
X194500000Y-64595238D01*
X194547619Y-64642857D01*
X194642857Y-64690476D01*
X194738095Y-64690476D01*
X194880952Y-64642857D01*
X195452380Y-64071428D01*
X195452380Y-64690476D01*
X194452380Y-65023809D02*
X194452380Y-65642857D01*
X194833333Y-65309523D01*
X194833333Y-65452380D01*
X194880952Y-65547619D01*
X194928571Y-65595238D01*
X195023809Y-65642857D01*
X195261904Y-65642857D01*
X195357142Y-65595238D01*
X195404761Y-65547619D01*
X195452380Y-65452380D01*
X195452380Y-65166666D01*
X195404761Y-65071428D01*
X195357142Y-65023809D01*
%TO.C,TP22*%
X196952380Y-62261904D02*
X196952380Y-62833333D01*
X197952380Y-62547619D02*
X196952380Y-62547619D01*
X197952380Y-63166666D02*
X196952380Y-63166666D01*
X196952380Y-63547619D01*
X197000000Y-63642857D01*
X197047619Y-63690476D01*
X197142857Y-63738095D01*
X197285714Y-63738095D01*
X197380952Y-63690476D01*
X197428571Y-63642857D01*
X197476190Y-63547619D01*
X197476190Y-63166666D01*
X197047619Y-64119047D02*
X197000000Y-64166666D01*
X196952380Y-64261904D01*
X196952380Y-64500000D01*
X197000000Y-64595238D01*
X197047619Y-64642857D01*
X197142857Y-64690476D01*
X197238095Y-64690476D01*
X197380952Y-64642857D01*
X197952380Y-64071428D01*
X197952380Y-64690476D01*
X197047619Y-65071428D02*
X197000000Y-65119047D01*
X196952380Y-65214285D01*
X196952380Y-65452380D01*
X197000000Y-65547619D01*
X197047619Y-65595238D01*
X197142857Y-65642857D01*
X197238095Y-65642857D01*
X197380952Y-65595238D01*
X197952380Y-65023809D01*
X197952380Y-65642857D01*
%TO.C,TP21*%
X199452380Y-62261904D02*
X199452380Y-62833333D01*
X200452380Y-62547619D02*
X199452380Y-62547619D01*
X200452380Y-63166666D02*
X199452380Y-63166666D01*
X199452380Y-63547619D01*
X199500000Y-63642857D01*
X199547619Y-63690476D01*
X199642857Y-63738095D01*
X199785714Y-63738095D01*
X199880952Y-63690476D01*
X199928571Y-63642857D01*
X199976190Y-63547619D01*
X199976190Y-63166666D01*
X199547619Y-64119047D02*
X199500000Y-64166666D01*
X199452380Y-64261904D01*
X199452380Y-64500000D01*
X199500000Y-64595238D01*
X199547619Y-64642857D01*
X199642857Y-64690476D01*
X199738095Y-64690476D01*
X199880952Y-64642857D01*
X200452380Y-64071428D01*
X200452380Y-64690476D01*
X200452380Y-65642857D02*
X200452380Y-65071428D01*
X200452380Y-65357142D02*
X199452380Y-65357142D01*
X199595238Y-65261904D01*
X199690476Y-65166666D01*
X199738095Y-65071428D01*
%TO.C,TP20*%
X201952380Y-62261904D02*
X201952380Y-62833333D01*
X202952380Y-62547619D02*
X201952380Y-62547619D01*
X202952380Y-63166666D02*
X201952380Y-63166666D01*
X201952380Y-63547619D01*
X202000000Y-63642857D01*
X202047619Y-63690476D01*
X202142857Y-63738095D01*
X202285714Y-63738095D01*
X202380952Y-63690476D01*
X202428571Y-63642857D01*
X202476190Y-63547619D01*
X202476190Y-63166666D01*
X202047619Y-64119047D02*
X202000000Y-64166666D01*
X201952380Y-64261904D01*
X201952380Y-64500000D01*
X202000000Y-64595238D01*
X202047619Y-64642857D01*
X202142857Y-64690476D01*
X202238095Y-64690476D01*
X202380952Y-64642857D01*
X202952380Y-64071428D01*
X202952380Y-64690476D01*
X201952380Y-65309523D02*
X201952380Y-65404761D01*
X202000000Y-65500000D01*
X202047619Y-65547619D01*
X202142857Y-65595238D01*
X202333333Y-65642857D01*
X202571428Y-65642857D01*
X202761904Y-65595238D01*
X202857142Y-65547619D01*
X202904761Y-65500000D01*
X202952380Y-65404761D01*
X202952380Y-65309523D01*
X202904761Y-65214285D01*
X202857142Y-65166666D01*
X202761904Y-65119047D01*
X202571428Y-65071428D01*
X202333333Y-65071428D01*
X202142857Y-65119047D01*
X202047619Y-65166666D01*
X202000000Y-65214285D01*
X201952380Y-65309523D01*
%TO.C,TP19*%
X204452380Y-62261904D02*
X204452380Y-62833333D01*
X205452380Y-62547619D02*
X204452380Y-62547619D01*
X205452380Y-63166666D02*
X204452380Y-63166666D01*
X204452380Y-63547619D01*
X204500000Y-63642857D01*
X204547619Y-63690476D01*
X204642857Y-63738095D01*
X204785714Y-63738095D01*
X204880952Y-63690476D01*
X204928571Y-63642857D01*
X204976190Y-63547619D01*
X204976190Y-63166666D01*
X205452380Y-64690476D02*
X205452380Y-64119047D01*
X205452380Y-64404761D02*
X204452380Y-64404761D01*
X204595238Y-64309523D01*
X204690476Y-64214285D01*
X204738095Y-64119047D01*
X205452380Y-65166666D02*
X205452380Y-65357142D01*
X205404761Y-65452380D01*
X205357142Y-65500000D01*
X205214285Y-65595238D01*
X205023809Y-65642857D01*
X204642857Y-65642857D01*
X204547619Y-65595238D01*
X204500000Y-65547619D01*
X204452380Y-65452380D01*
X204452380Y-65261904D01*
X204500000Y-65166666D01*
X204547619Y-65119047D01*
X204642857Y-65071428D01*
X204880952Y-65071428D01*
X204976190Y-65119047D01*
X205023809Y-65166666D01*
X205071428Y-65261904D01*
X205071428Y-65452380D01*
X205023809Y-65547619D01*
X204976190Y-65595238D01*
X204880952Y-65642857D01*
%TO.C,TP18*%
X206952380Y-62261904D02*
X206952380Y-62833333D01*
X207952380Y-62547619D02*
X206952380Y-62547619D01*
X207952380Y-63166666D02*
X206952380Y-63166666D01*
X206952380Y-63547619D01*
X207000000Y-63642857D01*
X207047619Y-63690476D01*
X207142857Y-63738095D01*
X207285714Y-63738095D01*
X207380952Y-63690476D01*
X207428571Y-63642857D01*
X207476190Y-63547619D01*
X207476190Y-63166666D01*
X207952380Y-64690476D02*
X207952380Y-64119047D01*
X207952380Y-64404761D02*
X206952380Y-64404761D01*
X207095238Y-64309523D01*
X207190476Y-64214285D01*
X207238095Y-64119047D01*
X207380952Y-65261904D02*
X207333333Y-65166666D01*
X207285714Y-65119047D01*
X207190476Y-65071428D01*
X207142857Y-65071428D01*
X207047619Y-65119047D01*
X207000000Y-65166666D01*
X206952380Y-65261904D01*
X206952380Y-65452380D01*
X207000000Y-65547619D01*
X207047619Y-65595238D01*
X207142857Y-65642857D01*
X207190476Y-65642857D01*
X207285714Y-65595238D01*
X207333333Y-65547619D01*
X207380952Y-65452380D01*
X207380952Y-65261904D01*
X207428571Y-65166666D01*
X207476190Y-65119047D01*
X207571428Y-65071428D01*
X207761904Y-65071428D01*
X207857142Y-65119047D01*
X207904761Y-65166666D01*
X207952380Y-65261904D01*
X207952380Y-65452380D01*
X207904761Y-65547619D01*
X207857142Y-65595238D01*
X207761904Y-65642857D01*
X207571428Y-65642857D01*
X207476190Y-65595238D01*
X207428571Y-65547619D01*
X207380952Y-65452380D01*
%TO.C,TP17*%
X209452380Y-62261904D02*
X209452380Y-62833333D01*
X210452380Y-62547619D02*
X209452380Y-62547619D01*
X210452380Y-63166666D02*
X209452380Y-63166666D01*
X209452380Y-63547619D01*
X209500000Y-63642857D01*
X209547619Y-63690476D01*
X209642857Y-63738095D01*
X209785714Y-63738095D01*
X209880952Y-63690476D01*
X209928571Y-63642857D01*
X209976190Y-63547619D01*
X209976190Y-63166666D01*
X210452380Y-64690476D02*
X210452380Y-64119047D01*
X210452380Y-64404761D02*
X209452380Y-64404761D01*
X209595238Y-64309523D01*
X209690476Y-64214285D01*
X209738095Y-64119047D01*
X209452380Y-65023809D02*
X209452380Y-65690476D01*
X210452380Y-65261904D01*
%TO.C,TP16*%
X171952380Y-54261904D02*
X171952380Y-54833333D01*
X172952380Y-54547619D02*
X171952380Y-54547619D01*
X172952380Y-55166666D02*
X171952380Y-55166666D01*
X171952380Y-55547619D01*
X172000000Y-55642857D01*
X172047619Y-55690476D01*
X172142857Y-55738095D01*
X172285714Y-55738095D01*
X172380952Y-55690476D01*
X172428571Y-55642857D01*
X172476190Y-55547619D01*
X172476190Y-55166666D01*
X172952380Y-56690476D02*
X172952380Y-56119047D01*
X172952380Y-56404761D02*
X171952380Y-56404761D01*
X172095238Y-56309523D01*
X172190476Y-56214285D01*
X172238095Y-56119047D01*
X171952380Y-57547619D02*
X171952380Y-57357142D01*
X172000000Y-57261904D01*
X172047619Y-57214285D01*
X172190476Y-57119047D01*
X172380952Y-57071428D01*
X172761904Y-57071428D01*
X172857142Y-57119047D01*
X172904761Y-57166666D01*
X172952380Y-57261904D01*
X172952380Y-57452380D01*
X172904761Y-57547619D01*
X172857142Y-57595238D01*
X172761904Y-57642857D01*
X172523809Y-57642857D01*
X172428571Y-57595238D01*
X172380952Y-57547619D01*
X172333333Y-57452380D01*
X172333333Y-57261904D01*
X172380952Y-57166666D01*
X172428571Y-57119047D01*
X172523809Y-57071428D01*
%TO.C,TP15*%
X174266660Y-54261904D02*
X174266660Y-54833333D01*
X175266660Y-54547619D02*
X174266660Y-54547619D01*
X175266660Y-55166666D02*
X174266660Y-55166666D01*
X174266660Y-55547619D01*
X174314280Y-55642857D01*
X174361899Y-55690476D01*
X174457137Y-55738095D01*
X174599994Y-55738095D01*
X174695232Y-55690476D01*
X174742851Y-55642857D01*
X174790470Y-55547619D01*
X174790470Y-55166666D01*
X175266660Y-56690476D02*
X175266660Y-56119047D01*
X175266660Y-56404761D02*
X174266660Y-56404761D01*
X174409518Y-56309523D01*
X174504756Y-56214285D01*
X174552375Y-56119047D01*
X174266660Y-57595238D02*
X174266660Y-57119047D01*
X174742851Y-57071428D01*
X174695232Y-57119047D01*
X174647613Y-57214285D01*
X174647613Y-57452380D01*
X174695232Y-57547619D01*
X174742851Y-57595238D01*
X174838089Y-57642857D01*
X175076184Y-57642857D01*
X175171422Y-57595238D01*
X175219041Y-57547619D01*
X175266660Y-57452380D01*
X175266660Y-57214285D01*
X175219041Y-57119047D01*
X175171422Y-57071428D01*
%TO.C,TP14*%
X176779935Y-54261904D02*
X176779935Y-54833333D01*
X177779935Y-54547619D02*
X176779935Y-54547619D01*
X177779935Y-55166666D02*
X176779935Y-55166666D01*
X176779935Y-55547619D01*
X176827555Y-55642857D01*
X176875174Y-55690476D01*
X176970412Y-55738095D01*
X177113269Y-55738095D01*
X177208507Y-55690476D01*
X177256126Y-55642857D01*
X177303745Y-55547619D01*
X177303745Y-55166666D01*
X177779935Y-56690476D02*
X177779935Y-56119047D01*
X177779935Y-56404761D02*
X176779935Y-56404761D01*
X176922793Y-56309523D01*
X177018031Y-56214285D01*
X177065650Y-56119047D01*
X177113269Y-57547619D02*
X177779935Y-57547619D01*
X176732316Y-57309523D02*
X177446602Y-57071428D01*
X177446602Y-57690476D01*
%TO.C,TP13*%
X179293200Y-54261904D02*
X179293200Y-54833333D01*
X180293200Y-54547619D02*
X179293200Y-54547619D01*
X180293200Y-55166666D02*
X179293200Y-55166666D01*
X179293200Y-55547619D01*
X179340820Y-55642857D01*
X179388439Y-55690476D01*
X179483677Y-55738095D01*
X179626534Y-55738095D01*
X179721772Y-55690476D01*
X179769391Y-55642857D01*
X179817010Y-55547619D01*
X179817010Y-55166666D01*
X180293200Y-56690476D02*
X180293200Y-56119047D01*
X180293200Y-56404761D02*
X179293200Y-56404761D01*
X179436058Y-56309523D01*
X179531296Y-56214285D01*
X179578915Y-56119047D01*
X179293200Y-57023809D02*
X179293200Y-57642857D01*
X179674153Y-57309523D01*
X179674153Y-57452380D01*
X179721772Y-57547619D01*
X179769391Y-57595238D01*
X179864629Y-57642857D01*
X180102724Y-57642857D01*
X180197962Y-57595238D01*
X180245581Y-57547619D01*
X180293200Y-57452380D01*
X180293200Y-57166666D01*
X180245581Y-57071428D01*
X180197962Y-57023809D01*
%TO.C,TP12*%
X181806465Y-54261904D02*
X181806465Y-54833333D01*
X182806465Y-54547619D02*
X181806465Y-54547619D01*
X182806465Y-55166666D02*
X181806465Y-55166666D01*
X181806465Y-55547619D01*
X181854085Y-55642857D01*
X181901704Y-55690476D01*
X181996942Y-55738095D01*
X182139799Y-55738095D01*
X182235037Y-55690476D01*
X182282656Y-55642857D01*
X182330275Y-55547619D01*
X182330275Y-55166666D01*
X182806465Y-56690476D02*
X182806465Y-56119047D01*
X182806465Y-56404761D02*
X181806465Y-56404761D01*
X181949323Y-56309523D01*
X182044561Y-56214285D01*
X182092180Y-56119047D01*
X181901704Y-57071428D02*
X181854085Y-57119047D01*
X181806465Y-57214285D01*
X181806465Y-57452380D01*
X181854085Y-57547619D01*
X181901704Y-57595238D01*
X181996942Y-57642857D01*
X182092180Y-57642857D01*
X182235037Y-57595238D01*
X182806465Y-57023809D01*
X182806465Y-57642857D01*
%TO.C,TP11*%
X184319730Y-54261904D02*
X184319730Y-54833333D01*
X185319730Y-54547619D02*
X184319730Y-54547619D01*
X185319730Y-55166666D02*
X184319730Y-55166666D01*
X184319730Y-55547619D01*
X184367350Y-55642857D01*
X184414969Y-55690476D01*
X184510207Y-55738095D01*
X184653064Y-55738095D01*
X184748302Y-55690476D01*
X184795921Y-55642857D01*
X184843540Y-55547619D01*
X184843540Y-55166666D01*
X185319730Y-56690476D02*
X185319730Y-56119047D01*
X185319730Y-56404761D02*
X184319730Y-56404761D01*
X184462588Y-56309523D01*
X184557826Y-56214285D01*
X184605445Y-56119047D01*
X185319730Y-57642857D02*
X185319730Y-57071428D01*
X185319730Y-57357142D02*
X184319730Y-57357142D01*
X184462588Y-57261904D01*
X184557826Y-57166666D01*
X184605445Y-57071428D01*
%TO.C,TP10*%
X186832995Y-54261904D02*
X186832995Y-54833333D01*
X187832995Y-54547619D02*
X186832995Y-54547619D01*
X187832995Y-55166666D02*
X186832995Y-55166666D01*
X186832995Y-55547619D01*
X186880615Y-55642857D01*
X186928234Y-55690476D01*
X187023472Y-55738095D01*
X187166329Y-55738095D01*
X187261567Y-55690476D01*
X187309186Y-55642857D01*
X187356805Y-55547619D01*
X187356805Y-55166666D01*
X187832995Y-56690476D02*
X187832995Y-56119047D01*
X187832995Y-56404761D02*
X186832995Y-56404761D01*
X186975853Y-56309523D01*
X187071091Y-56214285D01*
X187118710Y-56119047D01*
X186832995Y-57309523D02*
X186832995Y-57404761D01*
X186880615Y-57500000D01*
X186928234Y-57547619D01*
X187023472Y-57595238D01*
X187213948Y-57642857D01*
X187452043Y-57642857D01*
X187642519Y-57595238D01*
X187737757Y-57547619D01*
X187785376Y-57500000D01*
X187832995Y-57404761D01*
X187832995Y-57309523D01*
X187785376Y-57214285D01*
X187737757Y-57166666D01*
X187642519Y-57119047D01*
X187452043Y-57071428D01*
X187213948Y-57071428D01*
X187023472Y-57119047D01*
X186928234Y-57166666D01*
X186880615Y-57214285D01*
X186832995Y-57309523D01*
%TO.C,TP9*%
X189346260Y-55214286D02*
X189346260Y-55785714D01*
X190346260Y-55500000D02*
X189346260Y-55500000D01*
X190346260Y-56119048D02*
X189346260Y-56119048D01*
X189346260Y-56500000D01*
X189393880Y-56595238D01*
X189441499Y-56642857D01*
X189536737Y-56690476D01*
X189679594Y-56690476D01*
X189774832Y-56642857D01*
X189822451Y-56595238D01*
X189870070Y-56500000D01*
X189870070Y-56119048D01*
X190346260Y-57166667D02*
X190346260Y-57357143D01*
X190298641Y-57452381D01*
X190251022Y-57500000D01*
X190108165Y-57595238D01*
X189917689Y-57642857D01*
X189536737Y-57642857D01*
X189441499Y-57595238D01*
X189393880Y-57547619D01*
X189346260Y-57452381D01*
X189346260Y-57261905D01*
X189393880Y-57166667D01*
X189441499Y-57119048D01*
X189536737Y-57071429D01*
X189774832Y-57071429D01*
X189870070Y-57119048D01*
X189917689Y-57166667D01*
X189965308Y-57261905D01*
X189965308Y-57452381D01*
X189917689Y-57547619D01*
X189870070Y-57595238D01*
X189774832Y-57642857D01*
%TO.C,TP8*%
X191859525Y-55214286D02*
X191859525Y-55785714D01*
X192859525Y-55500000D02*
X191859525Y-55500000D01*
X192859525Y-56119048D02*
X191859525Y-56119048D01*
X191859525Y-56500000D01*
X191907145Y-56595238D01*
X191954764Y-56642857D01*
X192050002Y-56690476D01*
X192192859Y-56690476D01*
X192288097Y-56642857D01*
X192335716Y-56595238D01*
X192383335Y-56500000D01*
X192383335Y-56119048D01*
X192288097Y-57261905D02*
X192240478Y-57166667D01*
X192192859Y-57119048D01*
X192097621Y-57071429D01*
X192050002Y-57071429D01*
X191954764Y-57119048D01*
X191907145Y-57166667D01*
X191859525Y-57261905D01*
X191859525Y-57452381D01*
X191907145Y-57547619D01*
X191954764Y-57595238D01*
X192050002Y-57642857D01*
X192097621Y-57642857D01*
X192192859Y-57595238D01*
X192240478Y-57547619D01*
X192288097Y-57452381D01*
X192288097Y-57261905D01*
X192335716Y-57166667D01*
X192383335Y-57119048D01*
X192478573Y-57071429D01*
X192669049Y-57071429D01*
X192764287Y-57119048D01*
X192811906Y-57166667D01*
X192859525Y-57261905D01*
X192859525Y-57452381D01*
X192811906Y-57547619D01*
X192764287Y-57595238D01*
X192669049Y-57642857D01*
X192478573Y-57642857D01*
X192383335Y-57595238D01*
X192335716Y-57547619D01*
X192288097Y-57452381D01*
%TO.C,TP7*%
X194372790Y-55214286D02*
X194372790Y-55785714D01*
X195372790Y-55500000D02*
X194372790Y-55500000D01*
X195372790Y-56119048D02*
X194372790Y-56119048D01*
X194372790Y-56500000D01*
X194420410Y-56595238D01*
X194468029Y-56642857D01*
X194563267Y-56690476D01*
X194706124Y-56690476D01*
X194801362Y-56642857D01*
X194848981Y-56595238D01*
X194896600Y-56500000D01*
X194896600Y-56119048D01*
X194372790Y-57023810D02*
X194372790Y-57690476D01*
X195372790Y-57261905D01*
%TO.C,TP6*%
X196886055Y-55214286D02*
X196886055Y-55785714D01*
X197886055Y-55500000D02*
X196886055Y-55500000D01*
X197886055Y-56119048D02*
X196886055Y-56119048D01*
X196886055Y-56500000D01*
X196933675Y-56595238D01*
X196981294Y-56642857D01*
X197076532Y-56690476D01*
X197219389Y-56690476D01*
X197314627Y-56642857D01*
X197362246Y-56595238D01*
X197409865Y-56500000D01*
X197409865Y-56119048D01*
X196886055Y-57547619D02*
X196886055Y-57357143D01*
X196933675Y-57261905D01*
X196981294Y-57214286D01*
X197124151Y-57119048D01*
X197314627Y-57071429D01*
X197695579Y-57071429D01*
X197790817Y-57119048D01*
X197838436Y-57166667D01*
X197886055Y-57261905D01*
X197886055Y-57452381D01*
X197838436Y-57547619D01*
X197790817Y-57595238D01*
X197695579Y-57642857D01*
X197457484Y-57642857D01*
X197362246Y-57595238D01*
X197314627Y-57547619D01*
X197267008Y-57452381D01*
X197267008Y-57261905D01*
X197314627Y-57166667D01*
X197362246Y-57119048D01*
X197457484Y-57071429D01*
%TO.C,TP5*%
X199399320Y-55214286D02*
X199399320Y-55785714D01*
X200399320Y-55500000D02*
X199399320Y-55500000D01*
X200399320Y-56119048D02*
X199399320Y-56119048D01*
X199399320Y-56500000D01*
X199446940Y-56595238D01*
X199494559Y-56642857D01*
X199589797Y-56690476D01*
X199732654Y-56690476D01*
X199827892Y-56642857D01*
X199875511Y-56595238D01*
X199923130Y-56500000D01*
X199923130Y-56119048D01*
X199399320Y-57595238D02*
X199399320Y-57119048D01*
X199875511Y-57071429D01*
X199827892Y-57119048D01*
X199780273Y-57214286D01*
X199780273Y-57452381D01*
X199827892Y-57547619D01*
X199875511Y-57595238D01*
X199970749Y-57642857D01*
X200208844Y-57642857D01*
X200304082Y-57595238D01*
X200351701Y-57547619D01*
X200399320Y-57452381D01*
X200399320Y-57214286D01*
X200351701Y-57119048D01*
X200304082Y-57071429D01*
%TO.C,TP4*%
X201912585Y-55214286D02*
X201912585Y-55785714D01*
X202912585Y-55500000D02*
X201912585Y-55500000D01*
X202912585Y-56119048D02*
X201912585Y-56119048D01*
X201912585Y-56500000D01*
X201960205Y-56595238D01*
X202007824Y-56642857D01*
X202103062Y-56690476D01*
X202245919Y-56690476D01*
X202341157Y-56642857D01*
X202388776Y-56595238D01*
X202436395Y-56500000D01*
X202436395Y-56119048D01*
X202245919Y-57547619D02*
X202912585Y-57547619D01*
X201864966Y-57309524D02*
X202579252Y-57071429D01*
X202579252Y-57690476D01*
%TO.C,TP3*%
X204425850Y-55214286D02*
X204425850Y-55785714D01*
X205425850Y-55500000D02*
X204425850Y-55500000D01*
X205425850Y-56119048D02*
X204425850Y-56119048D01*
X204425850Y-56500000D01*
X204473470Y-56595238D01*
X204521089Y-56642857D01*
X204616327Y-56690476D01*
X204759184Y-56690476D01*
X204854422Y-56642857D01*
X204902041Y-56595238D01*
X204949660Y-56500000D01*
X204949660Y-56119048D01*
X204425850Y-57023810D02*
X204425850Y-57642857D01*
X204806803Y-57309524D01*
X204806803Y-57452381D01*
X204854422Y-57547619D01*
X204902041Y-57595238D01*
X204997279Y-57642857D01*
X205235374Y-57642857D01*
X205330612Y-57595238D01*
X205378231Y-57547619D01*
X205425850Y-57452381D01*
X205425850Y-57166667D01*
X205378231Y-57071429D01*
X205330612Y-57023810D01*
%TO.C,TP2*%
X206939115Y-55214286D02*
X206939115Y-55785714D01*
X207939115Y-55500000D02*
X206939115Y-55500000D01*
X207939115Y-56119048D02*
X206939115Y-56119048D01*
X206939115Y-56500000D01*
X206986735Y-56595238D01*
X207034354Y-56642857D01*
X207129592Y-56690476D01*
X207272449Y-56690476D01*
X207367687Y-56642857D01*
X207415306Y-56595238D01*
X207462925Y-56500000D01*
X207462925Y-56119048D01*
X207034354Y-57071429D02*
X206986735Y-57119048D01*
X206939115Y-57214286D01*
X206939115Y-57452381D01*
X206986735Y-57547619D01*
X207034354Y-57595238D01*
X207129592Y-57642857D01*
X207224830Y-57642857D01*
X207367687Y-57595238D01*
X207939115Y-57023810D01*
X207939115Y-57642857D01*
%TO.C,TP1*%
X209452380Y-55214286D02*
X209452380Y-55785714D01*
X210452380Y-55500000D02*
X209452380Y-55500000D01*
X210452380Y-56119048D02*
X209452380Y-56119048D01*
X209452380Y-56500000D01*
X209500000Y-56595238D01*
X209547619Y-56642857D01*
X209642857Y-56690476D01*
X209785714Y-56690476D01*
X209880952Y-56642857D01*
X209928571Y-56595238D01*
X209976190Y-56500000D01*
X209976190Y-56119048D01*
X210452380Y-57642857D02*
X210452380Y-57071429D01*
X210452380Y-57357143D02*
X209452380Y-57357143D01*
X209595238Y-57261905D01*
X209690476Y-57166667D01*
X209738095Y-57071429D01*
D11*
%TO.C,TP48*%
X173200000Y-76000000D02*
G75*
G03*
X173200000Y-76000000I-700000J0D01*
G01*
%TO.C,TP47*%
X175700000Y-76000000D02*
G75*
G03*
X175700000Y-76000000I-700000J0D01*
G01*
%TO.C,TP46*%
X178200000Y-76000000D02*
G75*
G03*
X178200000Y-76000000I-700000J0D01*
G01*
%TO.C,TP45*%
X180700000Y-76000000D02*
G75*
G03*
X180700000Y-76000000I-700000J0D01*
G01*
%TO.C,TP44*%
X183200000Y-76000000D02*
G75*
G03*
X183200000Y-76000000I-700000J0D01*
G01*
%TO.C,TP43*%
X185700000Y-76000000D02*
G75*
G03*
X185700000Y-76000000I-700000J0D01*
G01*
%TO.C,TP42*%
X188200000Y-76000000D02*
G75*
G03*
X188200000Y-76000000I-700000J0D01*
G01*
%TO.C,TP41*%
X190700000Y-76000000D02*
G75*
G03*
X190700000Y-76000000I-700000J0D01*
G01*
%TO.C,TP40*%
X193200000Y-76000000D02*
G75*
G03*
X193200000Y-76000000I-700000J0D01*
G01*
%TO.C,TP39*%
X195700000Y-76000000D02*
G75*
G03*
X195700000Y-76000000I-700000J0D01*
G01*
%TO.C,TP38*%
X198200000Y-76000000D02*
G75*
G03*
X198200000Y-76000000I-700000J0D01*
G01*
%TO.C,TP37*%
X200700000Y-76000000D02*
G75*
G03*
X200700000Y-76000000I-700000J0D01*
G01*
%TO.C,TP36*%
X203200000Y-76000000D02*
G75*
G03*
X203200000Y-76000000I-700000J0D01*
G01*
%TO.C,TP35*%
X205700000Y-76000000D02*
G75*
G03*
X205700000Y-76000000I-700000J0D01*
G01*
%TO.C,TP34*%
X208200000Y-76000000D02*
G75*
G03*
X208200000Y-76000000I-700000J0D01*
G01*
%TO.C,TP33*%
X210700000Y-76000000D02*
G75*
G03*
X210700000Y-76000000I-700000J0D01*
G01*
%TO.C,TP32*%
X173200000Y-67500000D02*
G75*
G03*
X173200000Y-67500000I-700000J0D01*
G01*
%TO.C,TP31*%
X175700000Y-67500000D02*
G75*
G03*
X175700000Y-67500000I-700000J0D01*
G01*
%TO.C,TP30*%
X178200000Y-67500000D02*
G75*
G03*
X178200000Y-67500000I-700000J0D01*
G01*
%TO.C,TP29*%
X180700000Y-67500000D02*
G75*
G03*
X180700000Y-67500000I-700000J0D01*
G01*
%TO.C,TP28*%
X183200000Y-67500000D02*
G75*
G03*
X183200000Y-67500000I-700000J0D01*
G01*
%TO.C,TP27*%
X185700000Y-67500000D02*
G75*
G03*
X185700000Y-67500000I-700000J0D01*
G01*
%TO.C,TP26*%
X188200000Y-67500000D02*
G75*
G03*
X188200000Y-67500000I-700000J0D01*
G01*
%TO.C,TP25*%
X190700000Y-67500000D02*
G75*
G03*
X190700000Y-67500000I-700000J0D01*
G01*
%TO.C,TP24*%
X193200000Y-67500000D02*
G75*
G03*
X193200000Y-67500000I-700000J0D01*
G01*
%TO.C,TP23*%
X195700000Y-67500000D02*
G75*
G03*
X195700000Y-67500000I-700000J0D01*
G01*
%TO.C,TP22*%
X198200000Y-67500000D02*
G75*
G03*
X198200000Y-67500000I-700000J0D01*
G01*
%TO.C,TP21*%
X200700000Y-67500000D02*
G75*
G03*
X200700000Y-67500000I-700000J0D01*
G01*
%TO.C,TP20*%
X203200000Y-67500000D02*
G75*
G03*
X203200000Y-67500000I-700000J0D01*
G01*
%TO.C,TP19*%
X205700000Y-67500000D02*
G75*
G03*
X205700000Y-67500000I-700000J0D01*
G01*
%TO.C,TP18*%
X208200000Y-67500000D02*
G75*
G03*
X208200000Y-67500000I-700000J0D01*
G01*
%TO.C,TP17*%
X210700000Y-67500000D02*
G75*
G03*
X210700000Y-67500000I-700000J0D01*
G01*
%TO.C,TP16*%
X173200000Y-59500000D02*
G75*
G03*
X173200000Y-59500000I-700000J0D01*
G01*
%TO.C,TP15*%
X175700000Y-59500000D02*
G75*
G03*
X175700000Y-59500000I-700000J0D01*
G01*
%TO.C,TP14*%
X178200000Y-59500000D02*
G75*
G03*
X178200000Y-59500000I-700000J0D01*
G01*
%TO.C,TP13*%
X180700000Y-59500000D02*
G75*
G03*
X180700000Y-59500000I-700000J0D01*
G01*
%TO.C,TP12*%
X183200000Y-59500000D02*
G75*
G03*
X183200000Y-59500000I-700000J0D01*
G01*
%TO.C,TP11*%
X185700000Y-59500000D02*
G75*
G03*
X185700000Y-59500000I-700000J0D01*
G01*
%TO.C,TP10*%
X188200000Y-59500000D02*
G75*
G03*
X188200000Y-59500000I-700000J0D01*
G01*
%TO.C,TP9*%
X190700000Y-59500000D02*
G75*
G03*
X190700000Y-59500000I-700000J0D01*
G01*
%TO.C,TP8*%
X193200000Y-59500000D02*
G75*
G03*
X193200000Y-59500000I-700000J0D01*
G01*
%TO.C,TP7*%
X195700000Y-59500000D02*
G75*
G03*
X195700000Y-59500000I-700000J0D01*
G01*
%TO.C,TP6*%
X198200000Y-59500000D02*
G75*
G03*
X198200000Y-59500000I-700000J0D01*
G01*
%TO.C,TP5*%
X200700000Y-59500000D02*
G75*
G03*
X200700000Y-59500000I-700000J0D01*
G01*
%TO.C,TP4*%
X203200000Y-59500000D02*
G75*
G03*
X203200000Y-59500000I-700000J0D01*
G01*
%TO.C,TP3*%
X205700000Y-59500000D02*
G75*
G03*
X205700000Y-59500000I-700000J0D01*
G01*
%TO.C,TP2*%
X208200000Y-59500000D02*
G75*
G03*
X208200000Y-59500000I-700000J0D01*
G01*
%TO.C,TP1*%
X210700000Y-59500000D02*
G75*
G03*
X210700000Y-59500000I-700000J0D01*
G01*
%TD*%
M02*
