%TF.GenerationSoftware,KiCad,Pcbnew,(6.0.2)*%
%TF.CreationDate,2023-10-23T02:54:13-04:00*%
%TF.ProjectId,USB_Splitter,5553425f-5370-46c6-9974-7465722e6b69,rev?*%
%TF.SameCoordinates,Original*%
%TF.FileFunction,Copper,L3,Inr*%
%TF.FilePolarity,Positive*%
%FSLAX46Y46*%
G04 Gerber Fmt 4.6, Leading zero omitted, Abs format (unit mm)*
G04 Created by KiCad (PCBNEW (6.0.2)) date 2023-10-23 02:54:13*
%MOMM*%
%LPD*%
G01*
G04 APERTURE LIST*
%TA.AperFunction,ComponentPad*%
%ADD10R,1.700000X1.700000*%
%TD*%
%TA.AperFunction,ComponentPad*%
%ADD11O,1.700000X1.700000*%
%TD*%
%TA.AperFunction,ViaPad*%
%ADD12C,0.800000*%
%TD*%
%TA.AperFunction,Conductor*%
%ADD13C,0.250000*%
%TD*%
G04 APERTURE END LIST*
D10*
%TO.N,PWM16*%
%TO.C,J3*%
X192025000Y-86500000D03*
D11*
%TO.N,PWM17*%
X192025000Y-89040000D03*
%TO.N,PWM18*%
X192025000Y-91580000D03*
%TO.N,PWM19*%
X192025000Y-94120000D03*
%TO.N,PWM20*%
X192025000Y-96660000D03*
%TO.N,PWM21*%
X192025000Y-99200000D03*
%TO.N,PWM22*%
X192025000Y-101740000D03*
%TO.N,PWM23*%
X192025000Y-104280000D03*
%TO.N,PWM24*%
X192025000Y-106820000D03*
%TO.N,PWM25*%
X192025000Y-109360000D03*
%TO.N,PWM26*%
X192025000Y-111900000D03*
%TO.N,PWM27*%
X192025000Y-114440000D03*
%TO.N,PWM28*%
X192025000Y-116980000D03*
%TO.N,PWM29*%
X192025000Y-119520000D03*
%TO.N,PWM30*%
X192025000Y-122060000D03*
%TO.N,PWM31*%
X192025000Y-124600000D03*
%TD*%
D10*
%TO.N,GND*%
%TO.C,J10*%
X215025000Y-86500000D03*
D11*
X215025000Y-89040000D03*
X215025000Y-91580000D03*
X215025000Y-94120000D03*
X215025000Y-96660000D03*
X215025000Y-99200000D03*
X215025000Y-101740000D03*
X215025000Y-104280000D03*
X215025000Y-106820000D03*
X215025000Y-109360000D03*
X215025000Y-111900000D03*
X215025000Y-114440000D03*
X215025000Y-116980000D03*
X215025000Y-119520000D03*
X215025000Y-122060000D03*
X215025000Y-124600000D03*
%TD*%
D10*
%TO.N,VCC*%
%TO.C,J9*%
X212525000Y-86500000D03*
D11*
X212525000Y-89040000D03*
X212525000Y-91580000D03*
X212525000Y-94120000D03*
X212525000Y-96660000D03*
X212525000Y-99200000D03*
X212525000Y-101740000D03*
X212525000Y-104280000D03*
X212525000Y-106820000D03*
X212525000Y-109360000D03*
X212525000Y-111900000D03*
X212525000Y-114440000D03*
X212525000Y-116980000D03*
X212525000Y-119520000D03*
X212525000Y-122060000D03*
X212525000Y-124600000D03*
%TD*%
D10*
%TO.N,VCC*%
%TO.C,J4*%
X194525000Y-86500000D03*
D11*
X194525000Y-89040000D03*
X194525000Y-91580000D03*
X194525000Y-94120000D03*
X194525000Y-96660000D03*
X194525000Y-99200000D03*
X194525000Y-101740000D03*
X194525000Y-104280000D03*
X194525000Y-106820000D03*
X194525000Y-109360000D03*
X194525000Y-111900000D03*
X194525000Y-114440000D03*
X194525000Y-116980000D03*
X194525000Y-119520000D03*
X194525000Y-122060000D03*
X194525000Y-124600000D03*
%TD*%
D10*
%TO.N,GND*%
%TO.C,J6*%
X178500000Y-86500000D03*
D11*
X178500000Y-89040000D03*
X178500000Y-91580000D03*
X178500000Y-94120000D03*
X178500000Y-96660000D03*
X178500000Y-99200000D03*
X178500000Y-101740000D03*
X178500000Y-104280000D03*
X178500000Y-106820000D03*
X178500000Y-109360000D03*
X178500000Y-111900000D03*
X178500000Y-114440000D03*
X178500000Y-116980000D03*
X178500000Y-119520000D03*
X178500000Y-122060000D03*
X178500000Y-124600000D03*
%TD*%
D10*
%TO.N,VCC*%
%TO.C,J5*%
X176000000Y-86500000D03*
D11*
X176000000Y-89040000D03*
X176000000Y-91580000D03*
X176000000Y-94120000D03*
X176000000Y-96660000D03*
X176000000Y-99200000D03*
X176000000Y-101740000D03*
X176000000Y-104280000D03*
X176000000Y-106820000D03*
X176000000Y-109360000D03*
X176000000Y-111900000D03*
X176000000Y-114440000D03*
X176000000Y-116980000D03*
X176000000Y-119520000D03*
X176000000Y-122060000D03*
X176000000Y-124600000D03*
%TD*%
D10*
%TO.N,GND*%
%TO.C,J1*%
X165975000Y-68120000D03*
D11*
%TO.N,SDA*%
X165975000Y-65580000D03*
%TO.N,SCL*%
X165975000Y-63040000D03*
%TO.N,VCC*%
X165975000Y-60500000D03*
%TD*%
D10*
%TO.N,GND*%
%TO.C,J7*%
X197025000Y-86500000D03*
D11*
X197025000Y-89040000D03*
X197025000Y-91580000D03*
X197025000Y-94120000D03*
X197025000Y-96660000D03*
X197025000Y-99200000D03*
X197025000Y-101740000D03*
X197025000Y-104280000D03*
X197025000Y-106820000D03*
X197025000Y-109360000D03*
X197025000Y-111900000D03*
X197025000Y-114440000D03*
X197025000Y-116980000D03*
X197025000Y-119520000D03*
X197025000Y-122060000D03*
X197025000Y-124600000D03*
%TD*%
D10*
%TO.N,PWM32*%
%TO.C,J8*%
X210025000Y-86500000D03*
D11*
%TO.N,PWM33*%
X210025000Y-89040000D03*
%TO.N,PWM34*%
X210025000Y-91580000D03*
%TO.N,PWM35*%
X210025000Y-94120000D03*
%TO.N,PWM36*%
X210025000Y-96660000D03*
%TO.N,PWM37*%
X210025000Y-99200000D03*
%TO.N,PWM38*%
X210025000Y-101740000D03*
%TO.N,PWM39*%
X210025000Y-104280000D03*
%TO.N,PWM40*%
X210025000Y-106820000D03*
%TO.N,PWM41*%
X210025000Y-109360000D03*
%TO.N,PWM42*%
X210025000Y-111900000D03*
%TO.N,PWM43*%
X210025000Y-114440000D03*
%TO.N,PWM44*%
X210025000Y-116980000D03*
%TO.N,PWM45*%
X210025000Y-119520000D03*
%TO.N,PWM46*%
X210025000Y-122060000D03*
%TO.N,PWM47*%
X210025000Y-124600000D03*
%TD*%
D10*
%TO.N,PWM0*%
%TO.C,J2*%
X173500000Y-86500000D03*
D11*
%TO.N,PWM1*%
X173500000Y-89040000D03*
%TO.N,PWM2*%
X173500000Y-91580000D03*
%TO.N,PWM3*%
X173500000Y-94120000D03*
%TO.N,PWM4*%
X173500000Y-96660000D03*
%TO.N,PWM5*%
X173500000Y-99200000D03*
%TO.N,PWM6*%
X173500000Y-101740000D03*
%TO.N,PWM7*%
X173500000Y-104280000D03*
%TO.N,PWM8*%
X173500000Y-106820000D03*
%TO.N,PWM9*%
X173500000Y-109360000D03*
%TO.N,PWM10*%
X173500000Y-111900000D03*
%TO.N,PWM11*%
X173500000Y-114440000D03*
%TO.N,PWM12*%
X173500000Y-116980000D03*
%TO.N,PWM13*%
X173500000Y-119520000D03*
%TO.N,PWM14*%
X173500000Y-122060000D03*
%TO.N,PWM15*%
X173500000Y-124600000D03*
%TD*%
D12*
%TO.N,Net-(U3-Pad27)*%
X213447500Y-71029500D03*
X186196200Y-70699600D03*
%TO.N,Net-(U3-Pad26)*%
X216181600Y-71575000D03*
X184419500Y-77379000D03*
%TO.N,A2_4*%
X216000000Y-63094200D03*
X210485100Y-72192400D03*
%TO.N,A2_3*%
X207751600Y-71925600D03*
X213448200Y-64729300D03*
%TO.N,A2_2*%
X210212200Y-69617800D03*
X211224300Y-64722300D03*
%TO.N,A2_1*%
X207612000Y-69492800D03*
X207520000Y-64998300D03*
%TO.N,A0_5*%
X176916900Y-68719900D03*
X181503100Y-63933200D03*
%TO.N,A0_4*%
X174923100Y-71239400D03*
X179071000Y-64952400D03*
%TO.N,A0_3*%
X171279700Y-71877300D03*
X176971000Y-63042200D03*
%TO.N,A0_1*%
X171277400Y-70295400D03*
X172018300Y-65016700D03*
%TO.N,A1_5*%
X198073100Y-73168000D03*
X199864100Y-65161300D03*
%TO.N,A1_4*%
X195480400Y-68971600D03*
X197585300Y-64947700D03*
%TO.N,A1_2*%
X192533900Y-69146400D03*
X194721700Y-65234100D03*
%TO.N,A1_1*%
X190519400Y-69125900D03*
X189952500Y-65051600D03*
%TO.N,PWM47*%
X213483500Y-74348400D03*
X174298000Y-73347500D03*
%TO.N,PWM46*%
X216190000Y-75426800D03*
X197017300Y-83802000D03*
%TO.N,PWM45*%
X212582000Y-75329000D03*
X181082600Y-78619500D03*
%TO.N,PWM44*%
X212739800Y-78075500D03*
X182762500Y-79155200D03*
%TO.N,PWM43*%
X185980200Y-79154700D03*
%TO.N,PWM42*%
X186368400Y-77368400D03*
X215506700Y-79584300D03*
%TO.N,PWM41*%
X213331000Y-78899200D03*
X187660800Y-77615900D03*
%TO.N,PWM40*%
X214740200Y-80812600D03*
X190792200Y-79765400D03*
%TO.N,PWM37*%
X204485900Y-78858600D03*
%TO.N,PWM36*%
X205821800Y-78130600D03*
%TO.N,PWM33*%
X207772800Y-74420500D03*
%TO.N,PWM31*%
X197958300Y-74207400D03*
X172472500Y-68600500D03*
%TO.N,PWM30*%
X198530100Y-75050500D03*
X174982900Y-69474500D03*
%TO.N,PWM29*%
X204081300Y-70334200D03*
X176845900Y-65099300D03*
%TO.N,PWM28*%
X199348500Y-79976600D03*
X180229200Y-68827300D03*
%TO.N,PWM27*%
X180802800Y-74344100D03*
%TO.N,PWM26*%
X196319100Y-80722400D03*
%TO.N,PWM25*%
X194611200Y-79817700D03*
%TO.N,PWM24*%
X195611600Y-80015000D03*
%TO.N,PWM23*%
X192870200Y-79642600D03*
%TO.N,PWM22*%
X187376400Y-93957300D03*
X193628600Y-74542500D03*
%TO.N,PWM21*%
X190952000Y-84512500D03*
X189629300Y-81179000D03*
X197500000Y-68618600D03*
%TO.N,PWM20*%
X192581200Y-74542500D03*
X186732700Y-90497400D03*
%TO.N,PWM19*%
X201890300Y-68451100D03*
%TO.N,PWM18*%
X189199800Y-69421900D03*
X204399400Y-68503000D03*
%TO.N,PWM15*%
X175566900Y-72465600D03*
%TO.N,PWM14*%
X174476300Y-72207400D03*
%TO.N,PWM13*%
X179884600Y-79973400D03*
%TO.N,PWM12*%
X176026600Y-74793400D03*
%TO.N,PWM11*%
X177012300Y-77639100D03*
X183484400Y-62289200D03*
%TO.N,PWM10*%
X179382200Y-81527900D03*
X185735400Y-65360400D03*
%TO.N,PWM9*%
X176229700Y-79229200D03*
X186864000Y-62008800D03*
%TO.N,PWM8*%
X186842100Y-63693400D03*
X177241700Y-79540000D03*
%TO.N,PWM7*%
X181550300Y-65093100D03*
X171291100Y-78009100D03*
%TO.N,PWM6*%
X182933700Y-68849900D03*
%TO.N,PWM5*%
X168914200Y-78741800D03*
X195174000Y-61454100D03*
%TO.N,PWM4*%
X174001000Y-76826300D03*
X196860000Y-61630100D03*
%TO.N,PWM3*%
X185385400Y-62459100D03*
X175066600Y-77407500D03*
%TO.N,PWM2*%
X174209600Y-75102300D03*
X203858300Y-59926700D03*
%TO.N,PWM1*%
X171213300Y-75591700D03*
X204125600Y-62153700D03*
%TO.N,PWM0*%
X174176800Y-81080400D03*
X184849700Y-79137200D03*
%TO.N,SCL*%
X204650000Y-74354700D03*
X177917300Y-68823500D03*
%TO.N,SDA*%
X180732600Y-71115600D03*
X203624000Y-74517600D03*
%TO.N,PWM17*%
X189191800Y-72673800D03*
X186732700Y-88264500D03*
%TO.N,PWM16*%
X194968300Y-71322900D03*
%TO.N,GND*%
X211874200Y-82603600D03*
X209340000Y-79529900D03*
%TO.N,VCC*%
X170655600Y-68252100D03*
X171432900Y-83841500D03*
%TD*%
D13*
%TO.N,A2_4*%
X216000000Y-66677500D02*
X216000000Y-63094200D01*
X210485100Y-72192400D02*
X216000000Y-66677500D01*
%TO.N,A2_3*%
X207751600Y-70425900D02*
X207751600Y-71925600D01*
X213448200Y-64729300D02*
X207751600Y-70425900D01*
%TO.N,A2_1*%
X207520000Y-69400800D02*
X207612000Y-69492800D01*
X207520000Y-64998300D02*
X207520000Y-69400800D01*
%TO.N,A0_5*%
X176916900Y-68519400D02*
X176916900Y-68719900D01*
X181503100Y-63933200D02*
X176916900Y-68519400D01*
%TO.N,A0_4*%
X175809800Y-68213600D02*
X179071000Y-64952400D01*
X175809800Y-70352700D02*
X175809800Y-68213600D01*
X174923100Y-71239400D02*
X175809800Y-70352700D01*
%TO.N,A0_3*%
X173356800Y-66656400D02*
X176971000Y-63042200D01*
X173356800Y-69800200D02*
X173356800Y-66656400D01*
X171279700Y-71877300D02*
X173356800Y-69800200D01*
%TO.N,A0_1*%
X171639000Y-69933800D02*
X171277400Y-70295400D01*
X171639000Y-65396000D02*
X171639000Y-69933800D01*
X172018300Y-65016700D02*
X171639000Y-65396000D01*
%TO.N,A1_5*%
X199864100Y-71377000D02*
X198073100Y-73168000D01*
X199864100Y-65161300D02*
X199864100Y-71377000D01*
%TO.N,PWM47*%
X210025000Y-124600000D02*
X211200300Y-124600000D01*
X216240600Y-77105500D02*
X213483500Y-74348400D01*
X216240600Y-125117700D02*
X216240600Y-77105500D01*
X215559300Y-125799000D02*
X216240600Y-125117700D01*
X212032000Y-125799000D02*
X215559300Y-125799000D01*
X211200300Y-124967300D02*
X212032000Y-125799000D01*
X211200300Y-124600000D02*
X211200300Y-124967300D01*
%TO.N,PWM46*%
X210025000Y-122060000D02*
X210025000Y-120884700D01*
X206279500Y-83802000D02*
X197017300Y-83802000D01*
X206279500Y-80526100D02*
X206279500Y-83802000D01*
X213185400Y-73620200D02*
X206279500Y-80526100D01*
X214383400Y-73620200D02*
X213185400Y-73620200D01*
X216190000Y-75426800D02*
X214383400Y-73620200D01*
X209657700Y-120884700D02*
X210025000Y-120884700D01*
X206279500Y-117506500D02*
X209657700Y-120884700D01*
X206279500Y-83802000D02*
X206279500Y-117506500D01*
%TO.N,PWM45*%
X210025000Y-119520000D02*
X210025000Y-118344700D01*
X212491700Y-75329000D02*
X212582000Y-75329000D01*
X207921600Y-79899100D02*
X212491700Y-75329000D01*
X207921600Y-116608600D02*
X207921600Y-79899100D01*
X209657700Y-118344700D02*
X207921600Y-116608600D01*
X210025000Y-118344700D02*
X209657700Y-118344700D01*
%TO.N,PWM44*%
X210025000Y-116980000D02*
X210025000Y-115804700D01*
X208372000Y-82443300D02*
X212739800Y-78075500D01*
X208372000Y-114519000D02*
X208372000Y-82443300D01*
X209657700Y-115804700D02*
X208372000Y-114519000D01*
X210025000Y-115804700D02*
X209657700Y-115804700D01*
%TO.N,PWM41*%
X210025000Y-109360000D02*
X210025000Y-108184700D01*
X208831000Y-83399200D02*
X213331000Y-78899200D01*
X208831000Y-107358000D02*
X208831000Y-83399200D01*
X209657700Y-108184700D02*
X208831000Y-107358000D01*
X210025000Y-108184700D02*
X209657700Y-108184700D01*
%TO.N,PWM40*%
X211200300Y-84352500D02*
X214740200Y-80812600D01*
X211200300Y-104836800D02*
X211200300Y-84352500D01*
X210392400Y-105644700D02*
X211200300Y-104836800D01*
X210025000Y-105644700D02*
X210392400Y-105644700D01*
X210025000Y-106820000D02*
X210025000Y-105644700D01*
%TO.N,PWM31*%
X192025000Y-124600000D02*
X192025000Y-123424700D01*
X196585700Y-74207400D02*
X197958300Y-74207400D01*
X191517500Y-79275600D02*
X196585700Y-74207400D01*
X191517500Y-80373700D02*
X191517500Y-79275600D01*
X188553700Y-83337500D02*
X191517500Y-80373700D01*
X188553700Y-120320700D02*
X188553700Y-83337500D01*
X191657700Y-123424700D02*
X188553700Y-120320700D01*
X192025000Y-123424700D02*
X191657700Y-123424700D01*
%TO.N,PWM30*%
X192025000Y-122060000D02*
X192025000Y-120884700D01*
X196379500Y-75050500D02*
X198530100Y-75050500D01*
X191967800Y-79462200D02*
X196379500Y-75050500D01*
X191967800Y-80560300D02*
X191967800Y-79462200D01*
X189004000Y-83524100D02*
X191967800Y-80560300D01*
X189004000Y-118231100D02*
X189004000Y-83524100D01*
X191657600Y-120884700D02*
X189004000Y-118231100D01*
X192025000Y-120884700D02*
X191657600Y-120884700D01*
%TO.N,PWM28*%
X192025000Y-116980000D02*
X193200300Y-116980000D01*
X202701800Y-76623300D02*
X199348500Y-79976600D01*
X202701800Y-66212200D02*
X202701800Y-76623300D01*
X199747900Y-63258300D02*
X202701800Y-66212200D01*
X189589700Y-63258300D02*
X199747900Y-63258300D01*
X187614800Y-61283400D02*
X189589700Y-63258300D01*
X183464300Y-61283400D02*
X187614800Y-61283400D01*
X182671000Y-62076700D02*
X183464300Y-61283400D01*
X182671000Y-62715300D02*
X182671000Y-62076700D01*
X182770400Y-62814700D02*
X182671000Y-62715300D01*
X182770400Y-66286100D02*
X182770400Y-62814700D01*
X180229200Y-68827300D02*
X182770400Y-66286100D01*
X199348500Y-79992600D02*
X199348500Y-79976600D01*
X195775000Y-83566100D02*
X199348500Y-79992600D01*
X195775000Y-117420900D02*
X195775000Y-83566100D01*
X195040600Y-118155300D02*
X195775000Y-117420900D01*
X194008200Y-118155300D02*
X195040600Y-118155300D01*
X193200300Y-117347400D02*
X194008200Y-118155300D01*
X193200300Y-116980000D02*
X193200300Y-117347400D01*
%TO.N,PWM26*%
X192025000Y-111900000D02*
X192025000Y-110724700D01*
X195936300Y-80722400D02*
X196319100Y-80722400D01*
X191420900Y-85237800D02*
X195936300Y-80722400D01*
X191126800Y-85237800D02*
X191420900Y-85237800D01*
X190834500Y-85530100D02*
X191126800Y-85237800D01*
X190834500Y-94619400D02*
X190834500Y-85530100D01*
X191679700Y-95464600D02*
X190834500Y-94619400D01*
X192577100Y-95464600D02*
X191679700Y-95464600D01*
X193275000Y-96162500D02*
X192577100Y-95464600D01*
X193275000Y-109842000D02*
X193275000Y-96162500D01*
X192392300Y-110724700D02*
X193275000Y-109842000D01*
X192025000Y-110724700D02*
X192392300Y-110724700D01*
%TO.N,PWM25*%
X192025000Y-109360000D02*
X192025000Y-108184700D01*
X193984200Y-79817700D02*
X194611200Y-79817700D01*
X189476600Y-84325300D02*
X193984200Y-79817700D01*
X189476600Y-106003600D02*
X189476600Y-84325300D01*
X191657700Y-108184700D02*
X189476600Y-106003600D01*
X192025000Y-108184700D02*
X191657700Y-108184700D01*
%TO.N,PWM24*%
X192025000Y-106820000D02*
X192025000Y-105644700D01*
X191839400Y-83787200D02*
X195611600Y-80015000D01*
X190651600Y-83787200D02*
X191839400Y-83787200D01*
X189927000Y-84511800D02*
X190651600Y-83787200D01*
X189927000Y-103914100D02*
X189927000Y-84511800D01*
X191657600Y-105644700D02*
X189927000Y-103914100D01*
X192025000Y-105644700D02*
X191657600Y-105644700D01*
%TO.N,PWM22*%
X187908400Y-80262700D02*
X193628600Y-74542500D01*
X187908400Y-93425300D02*
X187908400Y-80262700D01*
X187376400Y-93957300D02*
X187908400Y-93425300D01*
%TO.N,PWM21*%
X191657700Y-98024700D02*
X192025000Y-98024700D01*
X190377400Y-96744400D02*
X191657700Y-98024700D01*
X190377400Y-85087100D02*
X190377400Y-96744400D01*
X190952000Y-84512500D02*
X190377400Y-85087100D01*
X192025000Y-99200000D02*
X192025000Y-98024700D01*
X189629300Y-79845200D02*
X189629300Y-81179000D01*
X197500000Y-71974500D02*
X189629300Y-79845200D01*
X197500000Y-68618600D02*
X197500000Y-71974500D01*
%TO.N,PWM20*%
X187458000Y-79665700D02*
X192581200Y-74542500D01*
X187458000Y-89772100D02*
X187458000Y-79665700D01*
X186732700Y-90497400D02*
X187458000Y-89772100D01*
%TO.N,PWM19*%
X192025000Y-94120000D02*
X192025000Y-92944700D01*
X201890300Y-76335000D02*
X201890300Y-68451100D01*
X198549100Y-79676200D02*
X201890300Y-76335000D01*
X198549100Y-80155100D02*
X198549100Y-79676200D01*
X193200300Y-85503900D02*
X198549100Y-80155100D01*
X193200300Y-92136800D02*
X193200300Y-85503900D01*
X192392400Y-92944700D02*
X193200300Y-92136800D01*
X192025000Y-92944700D02*
X192392400Y-92944700D01*
%TO.N,PWM14*%
X173500000Y-122060000D02*
X173500000Y-120884700D01*
X174410300Y-72207400D02*
X174476300Y-72207400D01*
X172149300Y-74468400D02*
X174410300Y-72207400D01*
X172149300Y-75916300D02*
X172149300Y-74468400D01*
X170558900Y-77506700D02*
X172149300Y-75916300D01*
X170558900Y-118310900D02*
X170558900Y-77506700D01*
X173132700Y-120884700D02*
X170558900Y-118310900D01*
X173500000Y-120884700D02*
X173132700Y-120884700D01*
%TO.N,PWM13*%
X174750000Y-120884600D02*
X173500000Y-119634600D01*
X174750000Y-125029100D02*
X174750000Y-120884600D01*
X175512600Y-125791700D02*
X174750000Y-125029100D01*
X176484500Y-125791700D02*
X175512600Y-125791700D01*
X177250000Y-125026200D02*
X176484500Y-125791700D01*
X177250000Y-82608000D02*
X177250000Y-125026200D01*
X179884600Y-79973400D02*
X177250000Y-82608000D01*
X173500000Y-119520000D02*
X173500000Y-119634600D01*
%TO.N,PWM11*%
X180062700Y-74588700D02*
X177012300Y-77639100D01*
X180062700Y-74055200D02*
X180062700Y-74588700D01*
X183952400Y-70165500D02*
X180062700Y-74055200D01*
X183952400Y-64637500D02*
X183952400Y-70165500D01*
X185405500Y-63184400D02*
X183952400Y-64637500D01*
X185685900Y-63184400D02*
X185405500Y-63184400D01*
X186110700Y-62759600D02*
X185685900Y-63184400D01*
X186110700Y-62158600D02*
X186110700Y-62759600D01*
X185685800Y-61733700D02*
X186110700Y-62158600D01*
X184039900Y-61733700D02*
X185685800Y-61733700D01*
X183484400Y-62289200D02*
X184039900Y-61733700D01*
%TO.N,PWM10*%
X185460300Y-65635500D02*
X185735400Y-65360400D01*
X185460300Y-71986200D02*
X185460300Y-65635500D01*
X181824100Y-75622400D02*
X185460300Y-71986200D01*
X181824100Y-79086000D02*
X181824100Y-75622400D01*
X179382200Y-81527900D02*
X181824100Y-79086000D01*
%TO.N,PWM9*%
X186863900Y-62008800D02*
X186864000Y-62008800D01*
X186863900Y-62643300D02*
X186863900Y-62008800D01*
X185872500Y-63634700D02*
X186863900Y-62643300D01*
X185592100Y-63634700D02*
X185872500Y-63634700D01*
X184402700Y-64824100D02*
X185592100Y-63634700D01*
X184402700Y-71770000D02*
X184402700Y-64824100D01*
X181103300Y-75069400D02*
X184402700Y-71770000D01*
X180616300Y-75069400D02*
X181103300Y-75069400D01*
X176456500Y-79229200D02*
X180616300Y-75069400D01*
X176229700Y-79229200D02*
X176456500Y-79229200D01*
%TO.N,PWM8*%
X186450500Y-64085000D02*
X186842100Y-63693400D01*
X185915900Y-64085000D02*
X186450500Y-64085000D01*
X185010000Y-64990900D02*
X185915900Y-64085000D01*
X185010000Y-71799600D02*
X185010000Y-64990900D01*
X177269600Y-79540000D02*
X185010000Y-71799600D01*
X177241700Y-79540000D02*
X177269600Y-79540000D01*
%TO.N,PWM7*%
X173500000Y-104280000D02*
X173500000Y-103104700D01*
X171920400Y-78009100D02*
X171291100Y-78009100D01*
X172158200Y-78246900D02*
X171920400Y-78009100D01*
X172158200Y-84142000D02*
X172158200Y-78246900D01*
X171380100Y-84920100D02*
X172158200Y-84142000D01*
X171380100Y-101300300D02*
X171380100Y-84920100D01*
X173184500Y-103104700D02*
X171380100Y-101300300D01*
X173500000Y-103104700D02*
X173184500Y-103104700D01*
X179032000Y-67611400D02*
X181550300Y-65093100D01*
X179032000Y-70026300D02*
X179032000Y-67611400D01*
X174719400Y-74338900D02*
X179032000Y-70026300D01*
X173922200Y-74338900D02*
X174719400Y-74338900D01*
X172775500Y-75485600D02*
X173922200Y-74338900D01*
X172775500Y-77154000D02*
X172775500Y-75485600D01*
X171920400Y-78009100D02*
X172775500Y-77154000D01*
%TO.N,PWM6*%
X173500000Y-101740000D02*
X173500000Y-100564700D01*
X173867300Y-100564700D02*
X173500000Y-100564700D01*
X174756300Y-99675700D02*
X173867300Y-100564700D01*
X174756300Y-81526700D02*
X174756300Y-99675700D01*
X174902100Y-81380900D02*
X174756300Y-81526700D01*
X174902100Y-78723500D02*
X174902100Y-81380900D01*
X179424900Y-74200700D02*
X174902100Y-78723500D01*
X179424900Y-73504800D02*
X179424900Y-74200700D01*
X182933700Y-69996000D02*
X179424900Y-73504800D01*
X182933700Y-68849900D02*
X182933700Y-69996000D01*
%TO.N,PWM5*%
X194018000Y-60298100D02*
X195174000Y-61454100D01*
X182699600Y-60298100D02*
X194018000Y-60298100D01*
X174257500Y-68740200D02*
X182699600Y-60298100D01*
X174257500Y-70700300D02*
X174257500Y-68740200D01*
X168914200Y-76043600D02*
X174257500Y-70700300D01*
X168914200Y-78741800D02*
X168914200Y-76043600D01*
%TO.N,PWM4*%
X173500000Y-96660000D02*
X173500000Y-95484700D01*
X172608500Y-78218800D02*
X174001000Y-76826300D01*
X172608500Y-84328600D02*
X172608500Y-78218800D01*
X171830500Y-85106600D02*
X172608500Y-84328600D01*
X171830500Y-94182500D02*
X171830500Y-85106600D01*
X173132700Y-95484700D02*
X171830500Y-94182500D01*
X173500000Y-95484700D02*
X173132700Y-95484700D01*
X196292700Y-62197400D02*
X196860000Y-61630100D01*
X189165700Y-62197400D02*
X196292700Y-62197400D01*
X187762900Y-60794600D02*
X189165700Y-62197400D01*
X183314100Y-60794600D02*
X187762900Y-60794600D01*
X182206600Y-61902100D02*
X183314100Y-60794600D01*
X182206600Y-62887800D02*
X182206600Y-61902100D01*
X182297200Y-62978400D02*
X182206600Y-62887800D01*
X182297200Y-65660200D02*
X182297200Y-62978400D01*
X179482300Y-68475100D02*
X182297200Y-65660200D01*
X179482300Y-70311900D02*
X179482300Y-68475100D01*
X175074900Y-74719300D02*
X179482300Y-70311900D01*
X175074900Y-75752400D02*
X175074900Y-74719300D01*
X174001000Y-76826300D02*
X175074900Y-75752400D01*
%TO.N,PWM3*%
X173500000Y-94120000D02*
X173500000Y-92944700D01*
X173451400Y-79022700D02*
X175066600Y-77407500D01*
X173451400Y-84227300D02*
X173451400Y-79022700D01*
X172313800Y-85364900D02*
X173451400Y-84227300D01*
X172313800Y-92065900D02*
X172313800Y-85364900D01*
X173192600Y-92944700D02*
X172313800Y-92065900D01*
X173500000Y-92944700D02*
X173192600Y-92944700D01*
X183502100Y-64342400D02*
X185385400Y-62459100D01*
X183502100Y-67255700D02*
X183502100Y-64342400D01*
X178974600Y-71783200D02*
X183502100Y-67255700D01*
X178974600Y-73499500D02*
X178974600Y-71783200D01*
X175066600Y-77407500D02*
X178974600Y-73499500D01*
%TO.N,PWM1*%
X201809400Y-59837500D02*
X204125600Y-62153700D01*
X182362600Y-59837500D02*
X201809400Y-59837500D01*
X177895500Y-64304600D02*
X182362600Y-59837500D01*
X176567700Y-64304600D02*
X177895500Y-64304600D01*
X173807200Y-67065100D02*
X176567700Y-64304600D01*
X173807200Y-70467400D02*
X173807200Y-67065100D01*
X168170700Y-76103900D02*
X173807200Y-70467400D01*
X168170700Y-79050500D02*
X168170700Y-76103900D01*
X168631800Y-79511600D02*
X168170700Y-79050500D01*
X169205700Y-79511600D02*
X168631800Y-79511600D01*
X169871600Y-78845700D02*
X169205700Y-79511600D01*
X169871600Y-76933400D02*
X169871600Y-78845700D01*
X171213300Y-75591700D02*
X169871600Y-76933400D01*
%TO.N,PWM0*%
X173500000Y-86500000D02*
X173500000Y-85324700D01*
X174176800Y-84647900D02*
X174176800Y-81080400D01*
X173500000Y-85324700D02*
X174176800Y-84647900D01*
%TO.N,PWM17*%
X189191800Y-77226400D02*
X189191800Y-72673800D01*
X186732700Y-79685500D02*
X189191800Y-77226400D01*
X186732700Y-88264500D02*
X186732700Y-79685500D01*
%TO.N,PWM16*%
X192025000Y-86500000D02*
X192025000Y-85324700D01*
X196548900Y-69742300D02*
X194968300Y-71322900D01*
X196548900Y-67434700D02*
X196548900Y-69742300D01*
X199556900Y-64426700D02*
X196548900Y-67434700D01*
X200220600Y-64426700D02*
X199556900Y-64426700D01*
X200589500Y-64795600D02*
X200220600Y-64426700D01*
X200589500Y-76998900D02*
X200589500Y-64795600D01*
X197340100Y-80248300D02*
X200589500Y-76998900D01*
X197340100Y-80727200D02*
X197340100Y-80248300D01*
X192742600Y-85324700D02*
X197340100Y-80727200D01*
X192025000Y-85324700D02*
X192742600Y-85324700D01*
%TO.N,GND*%
X197025000Y-124600000D02*
X197025000Y-122060000D01*
X197025000Y-119520000D02*
X197025000Y-116980000D01*
X197025000Y-116980000D02*
X197025000Y-114440000D01*
X197025000Y-114440000D02*
X197025000Y-111900000D01*
X197025000Y-111900000D02*
X197025000Y-109360000D01*
X197025000Y-109360000D02*
X197025000Y-106820000D01*
X197025000Y-106820000D02*
X197025000Y-104280000D01*
X197025000Y-104280000D02*
X197025000Y-101740000D01*
X197025000Y-101740000D02*
X197025000Y-99200000D01*
X197025000Y-99200000D02*
X197025000Y-96660000D01*
X197025000Y-96660000D02*
X197025000Y-94120000D01*
X197025000Y-94120000D02*
X197025000Y-91580000D01*
X197025000Y-91580000D02*
X197025000Y-89040000D01*
X197025000Y-89040000D02*
X197025000Y-86500000D01*
X178500000Y-124600000D02*
X178500000Y-122060000D01*
X178500000Y-122060000D02*
X178500000Y-119520000D01*
X178500000Y-119520000D02*
X178500000Y-116980000D01*
X178500000Y-116980000D02*
X178500000Y-114440000D01*
X178500000Y-114440000D02*
X178500000Y-111900000D01*
X178500000Y-111900000D02*
X178500000Y-109360000D01*
X178500000Y-109360000D02*
X178500000Y-106820000D01*
X178500000Y-106820000D02*
X178500000Y-104280000D01*
X178500000Y-104280000D02*
X178500000Y-101740000D01*
X178500000Y-101740000D02*
X178500000Y-99200000D01*
X178500000Y-99200000D02*
X178500000Y-96660000D01*
X178500000Y-96660000D02*
X178500000Y-94120000D01*
X178500000Y-94120000D02*
X178500000Y-91580000D01*
X178500000Y-91580000D02*
X178500000Y-89040000D01*
X178500000Y-89040000D02*
X178500000Y-86500000D01*
X215025000Y-124600000D02*
X215025000Y-122060000D01*
X215025000Y-122060000D02*
X215025000Y-119520000D01*
X215025000Y-119520000D02*
X215025000Y-116980000D01*
X215025000Y-116980000D02*
X215025000Y-114440000D01*
X215025000Y-114440000D02*
X215025000Y-111900000D01*
X215025000Y-111900000D02*
X215025000Y-109360000D01*
X215025000Y-109360000D02*
X215025000Y-106820000D01*
X215025000Y-106820000D02*
X215025000Y-104280000D01*
X215025000Y-104280000D02*
X215025000Y-101740000D01*
X215025000Y-101740000D02*
X215025000Y-99200000D01*
X215025000Y-99200000D02*
X215025000Y-96660000D01*
X215025000Y-96660000D02*
X215025000Y-94120000D01*
X215025000Y-94120000D02*
X215025000Y-91580000D01*
X215025000Y-91580000D02*
X215025000Y-89040000D01*
X215025000Y-89040000D02*
X215025000Y-86500000D01*
X214095600Y-80382200D02*
X211874200Y-82603600D01*
X214095600Y-78405500D02*
X214095600Y-80382200D01*
X213035500Y-77345400D02*
X214095600Y-78405500D01*
X211524500Y-77345400D02*
X213035500Y-77345400D01*
X209340000Y-79529900D02*
X211524500Y-77345400D01*
%TO.N,VCC*%
X176000000Y-124600000D02*
X176000000Y-122060000D01*
X176000000Y-122060000D02*
X176000000Y-119520000D01*
X176000000Y-119520000D02*
X176000000Y-116980000D01*
X176000000Y-116980000D02*
X176000000Y-114440000D01*
X176000000Y-114440000D02*
X176000000Y-111900000D01*
X176000000Y-111900000D02*
X176000000Y-109360000D01*
X176000000Y-109360000D02*
X176000000Y-106820000D01*
X176000000Y-106820000D02*
X176000000Y-104280000D01*
X176000000Y-104280000D02*
X176000000Y-101740000D01*
X176000000Y-101740000D02*
X176000000Y-99200000D01*
X176000000Y-99200000D02*
X176000000Y-96660000D01*
X176000000Y-96660000D02*
X176000000Y-94120000D01*
X176000000Y-94120000D02*
X176000000Y-91580000D01*
X176000000Y-91580000D02*
X176000000Y-89040000D01*
X194525000Y-116980000D02*
X194525000Y-114440000D01*
X194525000Y-114440000D02*
X194525000Y-111900000D01*
X194525000Y-111900000D02*
X194525000Y-109360000D01*
X194525000Y-109360000D02*
X194525000Y-106820000D01*
X194525000Y-106820000D02*
X194525000Y-104280000D01*
X194525000Y-104280000D02*
X194525000Y-101740000D01*
X194525000Y-101740000D02*
X194525000Y-99200000D01*
X194525000Y-99200000D02*
X194525000Y-96660000D01*
X194525000Y-96660000D02*
X194525000Y-94120000D01*
X194525000Y-94120000D02*
X194525000Y-91580000D01*
X194525000Y-91580000D02*
X194525000Y-89040000D01*
X212525000Y-124600000D02*
X212525000Y-122060000D01*
X212525000Y-122060000D02*
X212525000Y-119520000D01*
X212525000Y-116980000D02*
X212525000Y-114440000D01*
X212525000Y-114440000D02*
X212525000Y-111900000D01*
X212525000Y-111900000D02*
X212525000Y-109360000D01*
X212525000Y-109360000D02*
X212525000Y-106820000D01*
X212525000Y-106820000D02*
X212525000Y-104280000D01*
X212525000Y-104280000D02*
X212525000Y-101740000D01*
X212525000Y-101740000D02*
X212525000Y-99200000D01*
X212525000Y-99200000D02*
X212525000Y-96660000D01*
X212525000Y-96660000D02*
X212525000Y-94120000D01*
X212525000Y-94120000D02*
X212525000Y-91580000D01*
X212525000Y-91580000D02*
X212525000Y-89040000D01*
X212525000Y-89040000D02*
X212525000Y-86500000D01*
X170655600Y-65988600D02*
X170655600Y-68252100D01*
X166342300Y-61675300D02*
X170655600Y-65988600D01*
X165975000Y-61675300D02*
X166342300Y-61675300D01*
X165975000Y-60500000D02*
X165975000Y-61675300D01*
X194525000Y-119520000D02*
X194525000Y-122060000D01*
X194525000Y-122060000D02*
X194525000Y-124600000D01*
%TD*%
M02*
