%TF.GenerationSoftware,KiCad,Pcbnew,(6.0.2)*%
%TF.CreationDate,2023-10-23T02:54:13-04:00*%
%TF.ProjectId,USB_Splitter,5553425f-5370-46c6-9974-7465722e6b69,rev?*%
%TF.SameCoordinates,Original*%
%TF.FileFunction,Copper,L2,Inr*%
%TF.FilePolarity,Positive*%
%FSLAX46Y46*%
G04 Gerber Fmt 4.6, Leading zero omitted, Abs format (unit mm)*
G04 Created by KiCad (PCBNEW (6.0.2)) date 2023-10-23 02:54:13*
%MOMM*%
%LPD*%
G01*
G04 APERTURE LIST*
%TA.AperFunction,ComponentPad*%
%ADD10R,1.700000X1.700000*%
%TD*%
%TA.AperFunction,ComponentPad*%
%ADD11O,1.700000X1.700000*%
%TD*%
%TA.AperFunction,ViaPad*%
%ADD12C,0.800000*%
%TD*%
%TA.AperFunction,Conductor*%
%ADD13C,0.250000*%
%TD*%
G04 APERTURE END LIST*
D10*
%TO.N,PWM16*%
%TO.C,J3*%
X192025000Y-86500000D03*
D11*
%TO.N,PWM17*%
X192025000Y-89040000D03*
%TO.N,PWM18*%
X192025000Y-91580000D03*
%TO.N,PWM19*%
X192025000Y-94120000D03*
%TO.N,PWM20*%
X192025000Y-96660000D03*
%TO.N,PWM21*%
X192025000Y-99200000D03*
%TO.N,PWM22*%
X192025000Y-101740000D03*
%TO.N,PWM23*%
X192025000Y-104280000D03*
%TO.N,PWM24*%
X192025000Y-106820000D03*
%TO.N,PWM25*%
X192025000Y-109360000D03*
%TO.N,PWM26*%
X192025000Y-111900000D03*
%TO.N,PWM27*%
X192025000Y-114440000D03*
%TO.N,PWM28*%
X192025000Y-116980000D03*
%TO.N,PWM29*%
X192025000Y-119520000D03*
%TO.N,PWM30*%
X192025000Y-122060000D03*
%TO.N,PWM31*%
X192025000Y-124600000D03*
%TD*%
D10*
%TO.N,GND*%
%TO.C,J10*%
X215025000Y-86500000D03*
D11*
X215025000Y-89040000D03*
X215025000Y-91580000D03*
X215025000Y-94120000D03*
X215025000Y-96660000D03*
X215025000Y-99200000D03*
X215025000Y-101740000D03*
X215025000Y-104280000D03*
X215025000Y-106820000D03*
X215025000Y-109360000D03*
X215025000Y-111900000D03*
X215025000Y-114440000D03*
X215025000Y-116980000D03*
X215025000Y-119520000D03*
X215025000Y-122060000D03*
X215025000Y-124600000D03*
%TD*%
D10*
%TO.N,VCC*%
%TO.C,J9*%
X212525000Y-86500000D03*
D11*
X212525000Y-89040000D03*
X212525000Y-91580000D03*
X212525000Y-94120000D03*
X212525000Y-96660000D03*
X212525000Y-99200000D03*
X212525000Y-101740000D03*
X212525000Y-104280000D03*
X212525000Y-106820000D03*
X212525000Y-109360000D03*
X212525000Y-111900000D03*
X212525000Y-114440000D03*
X212525000Y-116980000D03*
X212525000Y-119520000D03*
X212525000Y-122060000D03*
X212525000Y-124600000D03*
%TD*%
D10*
%TO.N,VCC*%
%TO.C,J4*%
X194525000Y-86500000D03*
D11*
X194525000Y-89040000D03*
X194525000Y-91580000D03*
X194525000Y-94120000D03*
X194525000Y-96660000D03*
X194525000Y-99200000D03*
X194525000Y-101740000D03*
X194525000Y-104280000D03*
X194525000Y-106820000D03*
X194525000Y-109360000D03*
X194525000Y-111900000D03*
X194525000Y-114440000D03*
X194525000Y-116980000D03*
X194525000Y-119520000D03*
X194525000Y-122060000D03*
X194525000Y-124600000D03*
%TD*%
D10*
%TO.N,GND*%
%TO.C,J6*%
X178500000Y-86500000D03*
D11*
X178500000Y-89040000D03*
X178500000Y-91580000D03*
X178500000Y-94120000D03*
X178500000Y-96660000D03*
X178500000Y-99200000D03*
X178500000Y-101740000D03*
X178500000Y-104280000D03*
X178500000Y-106820000D03*
X178500000Y-109360000D03*
X178500000Y-111900000D03*
X178500000Y-114440000D03*
X178500000Y-116980000D03*
X178500000Y-119520000D03*
X178500000Y-122060000D03*
X178500000Y-124600000D03*
%TD*%
D10*
%TO.N,VCC*%
%TO.C,J5*%
X176000000Y-86500000D03*
D11*
X176000000Y-89040000D03*
X176000000Y-91580000D03*
X176000000Y-94120000D03*
X176000000Y-96660000D03*
X176000000Y-99200000D03*
X176000000Y-101740000D03*
X176000000Y-104280000D03*
X176000000Y-106820000D03*
X176000000Y-109360000D03*
X176000000Y-111900000D03*
X176000000Y-114440000D03*
X176000000Y-116980000D03*
X176000000Y-119520000D03*
X176000000Y-122060000D03*
X176000000Y-124600000D03*
%TD*%
D10*
%TO.N,GND*%
%TO.C,J1*%
X165975000Y-68120000D03*
D11*
%TO.N,SDA*%
X165975000Y-65580000D03*
%TO.N,SCL*%
X165975000Y-63040000D03*
%TO.N,VCC*%
X165975000Y-60500000D03*
%TD*%
D10*
%TO.N,GND*%
%TO.C,J7*%
X197025000Y-86500000D03*
D11*
X197025000Y-89040000D03*
X197025000Y-91580000D03*
X197025000Y-94120000D03*
X197025000Y-96660000D03*
X197025000Y-99200000D03*
X197025000Y-101740000D03*
X197025000Y-104280000D03*
X197025000Y-106820000D03*
X197025000Y-109360000D03*
X197025000Y-111900000D03*
X197025000Y-114440000D03*
X197025000Y-116980000D03*
X197025000Y-119520000D03*
X197025000Y-122060000D03*
X197025000Y-124600000D03*
%TD*%
D10*
%TO.N,PWM32*%
%TO.C,J8*%
X210025000Y-86500000D03*
D11*
%TO.N,PWM33*%
X210025000Y-89040000D03*
%TO.N,PWM34*%
X210025000Y-91580000D03*
%TO.N,PWM35*%
X210025000Y-94120000D03*
%TO.N,PWM36*%
X210025000Y-96660000D03*
%TO.N,PWM37*%
X210025000Y-99200000D03*
%TO.N,PWM38*%
X210025000Y-101740000D03*
%TO.N,PWM39*%
X210025000Y-104280000D03*
%TO.N,PWM40*%
X210025000Y-106820000D03*
%TO.N,PWM41*%
X210025000Y-109360000D03*
%TO.N,PWM42*%
X210025000Y-111900000D03*
%TO.N,PWM43*%
X210025000Y-114440000D03*
%TO.N,PWM44*%
X210025000Y-116980000D03*
%TO.N,PWM45*%
X210025000Y-119520000D03*
%TO.N,PWM46*%
X210025000Y-122060000D03*
%TO.N,PWM47*%
X210025000Y-124600000D03*
%TD*%
D10*
%TO.N,PWM0*%
%TO.C,J2*%
X173500000Y-86500000D03*
D11*
%TO.N,PWM1*%
X173500000Y-89040000D03*
%TO.N,PWM2*%
X173500000Y-91580000D03*
%TO.N,PWM3*%
X173500000Y-94120000D03*
%TO.N,PWM4*%
X173500000Y-96660000D03*
%TO.N,PWM5*%
X173500000Y-99200000D03*
%TO.N,PWM6*%
X173500000Y-101740000D03*
%TO.N,PWM7*%
X173500000Y-104280000D03*
%TO.N,PWM8*%
X173500000Y-106820000D03*
%TO.N,PWM9*%
X173500000Y-109360000D03*
%TO.N,PWM10*%
X173500000Y-111900000D03*
%TO.N,PWM11*%
X173500000Y-114440000D03*
%TO.N,PWM12*%
X173500000Y-116980000D03*
%TO.N,PWM13*%
X173500000Y-119520000D03*
%TO.N,PWM14*%
X173500000Y-122060000D03*
%TO.N,PWM15*%
X173500000Y-124600000D03*
%TD*%
D12*
%TO.N,Net-(U3-Pad27)*%
X213447500Y-71029500D03*
X186196200Y-70699600D03*
%TO.N,Net-(U3-Pad26)*%
X216181600Y-71575000D03*
X184419500Y-77379000D03*
%TO.N,A2_4*%
X216000000Y-63094200D03*
X210485100Y-72192400D03*
%TO.N,A2_3*%
X207751600Y-71925600D03*
X213448200Y-64729300D03*
%TO.N,A2_2*%
X210212200Y-69617800D03*
X211224300Y-64722300D03*
%TO.N,A2_1*%
X207612000Y-69492800D03*
X207520000Y-64998300D03*
%TO.N,A0_5*%
X176916900Y-68719900D03*
X181503100Y-63933200D03*
%TO.N,A0_4*%
X174923100Y-71239400D03*
X179071000Y-64952400D03*
%TO.N,A0_3*%
X171279700Y-71877300D03*
X176971000Y-63042200D03*
%TO.N,A0_1*%
X171277400Y-70295400D03*
X172018300Y-65016700D03*
%TO.N,A1_5*%
X198073100Y-73168000D03*
X199864100Y-65161300D03*
%TO.N,A1_4*%
X195480400Y-68971600D03*
X197585300Y-64947700D03*
%TO.N,A1_2*%
X192533900Y-69146400D03*
X194721700Y-65234100D03*
%TO.N,A1_1*%
X190519400Y-69125900D03*
X189952500Y-65051600D03*
%TO.N,PWM47*%
X213483500Y-74348400D03*
X174298000Y-73347500D03*
%TO.N,PWM46*%
X216190000Y-75426800D03*
X197017300Y-83802000D03*
%TO.N,PWM45*%
X212582000Y-75329000D03*
X181082600Y-78619500D03*
%TO.N,PWM44*%
X212739800Y-78075500D03*
X182762500Y-79155200D03*
%TO.N,PWM43*%
X185980200Y-79154700D03*
%TO.N,PWM42*%
X186368400Y-77368400D03*
X215506700Y-79584300D03*
%TO.N,PWM41*%
X213331000Y-78899200D03*
X187660800Y-77615900D03*
%TO.N,PWM40*%
X214740200Y-80812600D03*
X190792200Y-79765400D03*
%TO.N,PWM37*%
X204485900Y-78858600D03*
%TO.N,PWM36*%
X205821800Y-78130600D03*
%TO.N,PWM33*%
X207772800Y-74420500D03*
%TO.N,PWM31*%
X197958300Y-74207400D03*
X172472500Y-68600500D03*
%TO.N,PWM30*%
X198530100Y-75050500D03*
X174982900Y-69474500D03*
%TO.N,PWM29*%
X204081300Y-70334200D03*
X176845900Y-65099300D03*
%TO.N,PWM28*%
X199348500Y-79976600D03*
X180229200Y-68827300D03*
%TO.N,PWM27*%
X180802800Y-74344100D03*
%TO.N,PWM26*%
X196319100Y-80722400D03*
%TO.N,PWM25*%
X194611200Y-79817700D03*
%TO.N,PWM24*%
X195611600Y-80015000D03*
%TO.N,PWM23*%
X192870200Y-79642600D03*
%TO.N,PWM22*%
X187376400Y-93957300D03*
X193628600Y-74542500D03*
%TO.N,PWM21*%
X190952000Y-84512500D03*
X189629300Y-81179000D03*
X197500000Y-68618600D03*
%TO.N,PWM20*%
X192581200Y-74542500D03*
X186732700Y-90497400D03*
%TO.N,PWM19*%
X201890300Y-68451100D03*
%TO.N,PWM18*%
X189199800Y-69421900D03*
X204399400Y-68503000D03*
%TO.N,PWM15*%
X175566900Y-72465600D03*
%TO.N,PWM14*%
X174476300Y-72207400D03*
%TO.N,PWM13*%
X179884600Y-79973400D03*
%TO.N,PWM12*%
X176026600Y-74793400D03*
%TO.N,PWM11*%
X177012300Y-77639100D03*
X183484400Y-62289200D03*
%TO.N,PWM10*%
X179382200Y-81527900D03*
X185735400Y-65360400D03*
%TO.N,PWM9*%
X176229700Y-79229200D03*
X186864000Y-62008800D03*
%TO.N,PWM8*%
X186842100Y-63693400D03*
X177241700Y-79540000D03*
%TO.N,PWM7*%
X181550300Y-65093100D03*
X171291100Y-78009100D03*
%TO.N,PWM6*%
X182933700Y-68849900D03*
%TO.N,PWM5*%
X168914200Y-78741800D03*
X195174000Y-61454100D03*
%TO.N,PWM4*%
X174001000Y-76826300D03*
X196860000Y-61630100D03*
%TO.N,PWM3*%
X185385400Y-62459100D03*
X175066600Y-77407500D03*
%TO.N,PWM2*%
X174209600Y-75102300D03*
X203858300Y-59926700D03*
%TO.N,PWM1*%
X171213300Y-75591700D03*
X204125600Y-62153700D03*
%TO.N,PWM0*%
X174176800Y-81080400D03*
X184849700Y-79137200D03*
%TO.N,SCL*%
X204650000Y-74354700D03*
X177917300Y-68823500D03*
%TO.N,SDA*%
X180732600Y-71115600D03*
X203624000Y-74517600D03*
%TO.N,PWM17*%
X189191800Y-72673800D03*
X186732700Y-88264500D03*
%TO.N,PWM16*%
X194968300Y-71322900D03*
%TO.N,GND*%
X211874200Y-82603600D03*
X209340000Y-79529900D03*
%TO.N,VCC*%
X170655600Y-68252100D03*
X171432900Y-83841500D03*
%TD*%
D13*
%TO.N,Net-(U3-Pad27)*%
X186319500Y-70822900D02*
X186196200Y-70699600D01*
X194442600Y-70822900D02*
X186319500Y-70822900D01*
X194667900Y-70597600D02*
X194442600Y-70822900D01*
X195268800Y-70597600D02*
X194667900Y-70597600D01*
X195756600Y-71085400D02*
X195268800Y-70597600D01*
X213391600Y-71085400D02*
X195756600Y-71085400D01*
X213447500Y-71029500D02*
X213391600Y-71085400D01*
%TO.N,Net-(U3-Pad26)*%
X185376100Y-76422400D02*
X184419500Y-77379000D01*
X196001700Y-76422400D02*
X185376100Y-76422400D01*
X196255700Y-76676400D02*
X196001700Y-76422400D01*
X199932500Y-76676400D02*
X196255700Y-76676400D01*
X200338800Y-76270100D02*
X199932500Y-76676400D01*
X212666700Y-76270100D02*
X200338800Y-76270100D01*
X216181600Y-72755200D02*
X212666700Y-76270100D01*
X216181600Y-71575000D02*
X216181600Y-72755200D01*
%TO.N,A2_2*%
X211224300Y-68605700D02*
X210212200Y-69617800D01*
X211224300Y-64722300D02*
X211224300Y-68605700D01*
%TO.N,A1_4*%
X195480400Y-67052600D02*
X195480400Y-68971600D01*
X197585300Y-64947700D02*
X195480400Y-67052600D01*
%TO.N,A1_2*%
X192533900Y-67421900D02*
X192533900Y-69146400D01*
X194721700Y-65234100D02*
X192533900Y-67421900D01*
%TO.N,A1_1*%
X190519400Y-65618500D02*
X189952500Y-65051600D01*
X190519400Y-69125900D02*
X190519400Y-65618500D01*
%TO.N,PWM47*%
X178733800Y-73347500D02*
X174298000Y-73347500D01*
X180654200Y-75267900D02*
X178733800Y-73347500D01*
X196121000Y-75267900D02*
X180654200Y-75267900D01*
X196628900Y-75775800D02*
X196121000Y-75267900D01*
X199559300Y-75775800D02*
X196628900Y-75775800D01*
X200020300Y-75314800D02*
X199559300Y-75775800D01*
X210934000Y-75314800D02*
X200020300Y-75314800D01*
X211900400Y-74348400D02*
X210934000Y-75314800D01*
X213483500Y-74348400D02*
X211900400Y-74348400D01*
%TO.N,PWM45*%
X183730000Y-75972100D02*
X181082600Y-78619500D01*
X196188300Y-75972100D02*
X183730000Y-75972100D01*
X196442300Y-76226100D02*
X196188300Y-75972100D01*
X199745900Y-76226100D02*
X196442300Y-76226100D01*
X200152200Y-75819800D02*
X199745900Y-76226100D01*
X212091200Y-75819800D02*
X200152200Y-75819800D01*
X212582000Y-75329000D02*
X212091200Y-75819800D01*
%TO.N,PWM44*%
X183505800Y-78411900D02*
X182762500Y-79155200D01*
X190811400Y-78411900D02*
X183505800Y-78411900D01*
X191253600Y-77969700D02*
X190811400Y-78411900D01*
X195451800Y-77969700D02*
X191253600Y-77969700D01*
X195509400Y-78027300D02*
X195451800Y-77969700D01*
X204692800Y-78027300D02*
X195509400Y-78027300D01*
X205521400Y-78855900D02*
X204692800Y-78027300D01*
X206122300Y-78855900D02*
X205521400Y-78855900D01*
X206902700Y-78075500D02*
X206122300Y-78855900D01*
X212739800Y-78075500D02*
X206902700Y-78075500D01*
%TO.N,PWM43*%
X210025000Y-114440000D02*
X210025000Y-113264700D01*
X209657700Y-113264700D02*
X210025000Y-113264700D01*
X208831500Y-112438500D02*
X209657700Y-113264700D01*
X208831500Y-106274100D02*
X208831500Y-112438500D01*
X209555800Y-105549800D02*
X208831500Y-106274100D01*
X210480900Y-105549800D02*
X209555800Y-105549800D01*
X211275000Y-104755700D02*
X210480900Y-105549800D01*
X211275000Y-103839100D02*
X211275000Y-104755700D01*
X212178700Y-102935400D02*
X211275000Y-103839100D01*
X213076700Y-102935400D02*
X212178700Y-102935400D01*
X213775000Y-102237100D02*
X213076700Y-102935400D01*
X213775000Y-91139100D02*
X213775000Y-102237100D01*
X214604100Y-90310000D02*
X213775000Y-91139100D01*
X215449700Y-90310000D02*
X214604100Y-90310000D01*
X216200400Y-89559300D02*
X215449700Y-90310000D01*
X216200400Y-85457000D02*
X216200400Y-89559300D01*
X212008300Y-81264900D02*
X216200400Y-85457000D01*
X198732500Y-81264900D02*
X212008300Y-81264900D01*
X196610100Y-79142500D02*
X198732500Y-81264900D01*
X195312200Y-79142500D02*
X196610100Y-79142500D01*
X195087000Y-78917300D02*
X195312200Y-79142500D01*
X192546500Y-78917300D02*
X195087000Y-78917300D01*
X192115700Y-79348100D02*
X192546500Y-78917300D01*
X192115700Y-79479700D02*
X192115700Y-79348100D01*
X191094700Y-80500700D02*
X192115700Y-79479700D01*
X189977000Y-80500700D02*
X191094700Y-80500700D01*
X188631000Y-79154700D02*
X189977000Y-80500700D01*
X185980200Y-79154700D02*
X188631000Y-79154700D01*
%TO.N,PWM42*%
X210025000Y-111900000D02*
X210025000Y-110724700D01*
X216650700Y-80728300D02*
X215506700Y-79584300D01*
X216650700Y-104401400D02*
X216650700Y-80728300D01*
X215502100Y-105550000D02*
X216650700Y-104401400D01*
X214604100Y-105550000D02*
X215502100Y-105550000D01*
X213775000Y-106379100D02*
X214604100Y-105550000D01*
X213775000Y-107243100D02*
X213775000Y-106379100D01*
X212833500Y-108184600D02*
X213775000Y-107243100D01*
X212029000Y-108184600D02*
X212833500Y-108184600D01*
X211200300Y-109013300D02*
X212029000Y-108184600D01*
X211200300Y-109916800D02*
X211200300Y-109013300D01*
X210392400Y-110724700D02*
X211200300Y-109916800D01*
X210025000Y-110724700D02*
X210392400Y-110724700D01*
X186852200Y-76884600D02*
X186368400Y-77368400D01*
X195827000Y-76884600D02*
X186852200Y-76884600D01*
X196069100Y-77126700D02*
X195827000Y-76884600D01*
X200119100Y-77126700D02*
X196069100Y-77126700D01*
X200361200Y-76884600D02*
X200119100Y-77126700D01*
X213211600Y-76884600D02*
X200361200Y-76884600D01*
X215506700Y-79179700D02*
X213211600Y-76884600D01*
X215506700Y-79584300D02*
X215506700Y-79179700D01*
%TO.N,PWM41*%
X187757300Y-77519400D02*
X187660800Y-77615900D01*
X195824900Y-77519400D02*
X187757300Y-77519400D01*
X195882500Y-77577000D02*
X195824900Y-77519400D01*
X200305700Y-77577000D02*
X195882500Y-77577000D01*
X200547800Y-77334900D02*
X200305700Y-77577000D01*
X213025000Y-77334900D02*
X200547800Y-77334900D01*
X213465100Y-77775000D02*
X213025000Y-77334900D01*
X213465100Y-78765100D02*
X213465100Y-77775000D01*
X213331000Y-78899200D02*
X213465100Y-78765100D01*
%TO.N,PWM40*%
X192090700Y-78466900D02*
X190792200Y-79765400D01*
X195312100Y-78466900D02*
X192090700Y-78466900D01*
X195402000Y-78556800D02*
X195312100Y-78466900D01*
X201127700Y-78556800D02*
X195402000Y-78556800D01*
X203383500Y-80812600D02*
X201127700Y-78556800D01*
X214740200Y-80812600D02*
X203383500Y-80812600D01*
%TO.N,PWM31*%
X172472500Y-68600600D02*
X172472500Y-68600500D01*
X175134800Y-68600600D02*
X172472500Y-68600600D01*
X178332100Y-71797900D02*
X175134800Y-68600600D01*
X178875800Y-71797900D02*
X178332100Y-71797900D01*
X180026800Y-72948900D02*
X178875800Y-71797900D01*
X182420200Y-72948900D02*
X180026800Y-72948900D01*
X182870500Y-73399200D02*
X182420200Y-72948900D01*
X191444000Y-73399200D02*
X182870500Y-73399200D01*
X191500300Y-73342900D02*
X191444000Y-73399200D01*
X197093800Y-73342900D02*
X191500300Y-73342900D01*
X197958300Y-74207400D02*
X197093800Y-73342900D01*
%TO.N,PWM30*%
X178240400Y-72732000D02*
X174982900Y-69474500D01*
X178755200Y-72732000D02*
X178240400Y-72732000D01*
X179614700Y-73591500D02*
X178755200Y-72732000D01*
X181102700Y-73591500D02*
X179614700Y-73591500D01*
X181383200Y-73872000D02*
X181102700Y-73591500D01*
X191833400Y-73872000D02*
X181383200Y-73872000D01*
X191912200Y-73793200D02*
X191833400Y-73872000D01*
X195339700Y-73793200D02*
X191912200Y-73793200D01*
X196597000Y-75050500D02*
X195339700Y-73793200D01*
X198530100Y-75050500D02*
X196597000Y-75050500D01*
%TO.N,PWM29*%
X177935500Y-65099300D02*
X176845900Y-65099300D01*
X182810500Y-69974300D02*
X177935500Y-65099300D01*
X187598200Y-69974300D02*
X182810500Y-69974300D01*
X187958000Y-70334100D02*
X187598200Y-69974300D01*
X194294500Y-70334100D02*
X187958000Y-70334100D01*
X194481300Y-70147300D02*
X194294500Y-70334100D01*
X203894400Y-70147300D02*
X194481300Y-70147300D01*
X204081300Y-70334200D02*
X203894400Y-70147300D01*
%TO.N,PWM23*%
X192025000Y-104280000D02*
X193200300Y-104280000D01*
X195701800Y-82474200D02*
X192870200Y-79642600D01*
X195701800Y-102257000D02*
X195701800Y-82474200D01*
X194854100Y-103104700D02*
X195701800Y-102257000D01*
X194008200Y-103104700D02*
X194854100Y-103104700D01*
X193200300Y-103912600D02*
X194008200Y-103104700D01*
X193200300Y-104280000D02*
X193200300Y-103912600D01*
%TO.N,PWM22*%
X187376400Y-96283400D02*
X187376400Y-93957300D01*
X191657700Y-100564700D02*
X187376400Y-96283400D01*
X192025000Y-100564700D02*
X191657700Y-100564700D01*
X192025000Y-101740000D02*
X192025000Y-100564700D01*
%TO.N,PWM20*%
X191720000Y-95484700D02*
X186732700Y-90497400D01*
X192025000Y-95484700D02*
X191720000Y-95484700D01*
X192025000Y-96660000D02*
X192025000Y-95484700D01*
%TO.N,PWM18*%
X189653400Y-69875500D02*
X189199800Y-69421900D01*
X194116200Y-69875500D02*
X189653400Y-69875500D01*
X194294700Y-69697000D02*
X194116200Y-69875500D01*
X203205400Y-69697000D02*
X194294700Y-69697000D01*
X204399400Y-68503000D02*
X203205400Y-69697000D01*
%TO.N,PWM12*%
X173500000Y-116980000D02*
X173500000Y-115804700D01*
X173867300Y-115804700D02*
X173500000Y-115804700D01*
X174695000Y-114977000D02*
X173867300Y-115804700D01*
X174695000Y-88500900D02*
X174695000Y-114977000D01*
X173869800Y-87675700D02*
X174695000Y-88500900D01*
X172488600Y-87675700D02*
X173869800Y-87675700D01*
X172291300Y-87478400D02*
X172488600Y-87675700D01*
X172291300Y-85536700D02*
X172291300Y-87478400D01*
X178006300Y-79821700D02*
X172291300Y-85536700D01*
X178006300Y-76773100D02*
X178006300Y-79821700D01*
X176026600Y-74793400D02*
X178006300Y-76773100D01*
%TO.N,PWM11*%
X173500000Y-114440000D02*
X173500000Y-113264700D01*
X173132600Y-113264700D02*
X173500000Y-113264700D01*
X170205900Y-110338000D02*
X173132600Y-113264700D01*
X170205900Y-83300200D02*
X170205900Y-110338000D01*
X175867000Y-77639100D02*
X170205900Y-83300200D01*
X177012300Y-77639100D02*
X175867000Y-77639100D01*
%TO.N,PWM9*%
X174984500Y-79229200D02*
X176229700Y-79229200D01*
X170707500Y-83506200D02*
X174984500Y-79229200D01*
X170707500Y-105759500D02*
X170707500Y-83506200D01*
X173132700Y-108184700D02*
X170707500Y-105759500D01*
X173500000Y-108184700D02*
X173132700Y-108184700D01*
X173500000Y-109360000D02*
X173500000Y-108184700D01*
%TO.N,PWM8*%
X173500000Y-106820000D02*
X173500000Y-105644700D01*
X171826200Y-84955500D02*
X177241700Y-79540000D01*
X171826200Y-104338200D02*
X171826200Y-84955500D01*
X173132700Y-105644700D02*
X171826200Y-104338200D01*
X173500000Y-105644700D02*
X173132700Y-105644700D01*
%TO.N,PWM2*%
X180315200Y-59926700D02*
X203858300Y-59926700D01*
X178412800Y-61829100D02*
X180315200Y-59926700D01*
X165496800Y-61829100D02*
X178412800Y-61829100D01*
X164797300Y-62528600D02*
X165496800Y-61829100D01*
X164797300Y-69203000D02*
X164797300Y-62528600D01*
X165003900Y-69409600D02*
X164797300Y-69203000D01*
X167174100Y-69409600D02*
X165003900Y-69409600D01*
X172866800Y-75102300D02*
X167174100Y-69409600D01*
X174209600Y-75102300D02*
X172866800Y-75102300D01*
%TO.N,PWM0*%
X173500000Y-86500000D02*
X174675300Y-86500000D01*
X178662200Y-85324700D02*
X184849700Y-79137200D01*
X174969100Y-85324700D02*
X178662200Y-85324700D01*
X174675300Y-85618500D02*
X174969100Y-85324700D01*
X174675300Y-86500000D02*
X174675300Y-85618500D01*
%TO.N,SCL*%
X165975000Y-63040000D02*
X167150300Y-63040000D01*
X177917300Y-68694500D02*
X177917300Y-68823500D01*
X172262800Y-63040000D02*
X177917300Y-68694500D01*
X167150300Y-63040000D02*
X172262800Y-63040000D01*
X179461700Y-70367900D02*
X177917300Y-68823500D01*
X181377300Y-70367900D02*
X179461700Y-70367900D01*
X182434400Y-71425000D02*
X181377300Y-70367900D01*
X190242600Y-71425000D02*
X182434400Y-71425000D01*
X190865900Y-72048300D02*
X190242600Y-71425000D01*
X195495100Y-72048300D02*
X190865900Y-72048300D01*
X195581600Y-71961800D02*
X195495100Y-72048300D01*
X202257100Y-71961800D02*
X195581600Y-71961800D01*
X204650000Y-74354700D02*
X202257100Y-71961800D01*
%TO.N,SDA*%
X165975000Y-65580000D02*
X167150300Y-65580000D01*
X201518600Y-72412200D02*
X203624000Y-74517600D01*
X196657800Y-72412200D02*
X201518600Y-72412200D01*
X196571300Y-72498700D02*
X196657800Y-72412200D01*
X190361100Y-72498700D02*
X196571300Y-72498700D01*
X189744900Y-71882500D02*
X190361100Y-72498700D01*
X181499500Y-71882500D02*
X189744900Y-71882500D01*
X180732600Y-71115600D02*
X181499500Y-71882500D01*
X167359400Y-65789100D02*
X167150300Y-65580000D01*
X172960300Y-65789100D02*
X167359400Y-65789100D01*
X178286800Y-71115600D02*
X172960300Y-65789100D01*
X180732600Y-71115600D02*
X178286800Y-71115600D01*
%TO.N,PWM17*%
X187508200Y-89040000D02*
X186732700Y-88264500D01*
X192025000Y-89040000D02*
X187508200Y-89040000D01*
%TO.N,GND*%
X197025000Y-122060000D02*
X195849700Y-122060000D01*
X178500000Y-122060000D02*
X179675300Y-122060000D01*
X214595300Y-85324700D02*
X211874200Y-82603600D01*
X215025000Y-85324700D02*
X214595300Y-85324700D01*
X215025000Y-86500000D02*
X215025000Y-85324700D01*
X202096700Y-82603600D02*
X198200300Y-86500000D01*
X211874200Y-82603600D02*
X202096700Y-82603600D01*
X197025000Y-119520000D02*
X197025000Y-120695300D01*
X196847100Y-120695300D02*
X195849700Y-121692700D01*
X197025000Y-120695300D02*
X196847100Y-120695300D01*
X195849700Y-122060000D02*
X195849700Y-121692700D01*
X180850600Y-120884700D02*
X179675300Y-122060000D01*
X195041700Y-120884700D02*
X180850600Y-120884700D01*
X195849700Y-121692700D02*
X195041700Y-120884700D01*
X197025000Y-86500000D02*
X198200300Y-86500000D01*
%TO.N,VCC*%
X194525000Y-119520000D02*
X195700300Y-119520000D01*
X212525000Y-119520000D02*
X211349700Y-119520000D01*
X194525000Y-89040000D02*
X193349700Y-89040000D01*
X176000000Y-89040000D02*
X177175300Y-89040000D01*
X176000000Y-86500000D02*
X176000000Y-87675300D01*
X194525000Y-116980000D02*
X194525000Y-118155300D01*
X194702900Y-118155300D02*
X194525000Y-118155300D01*
X195700300Y-119152700D02*
X194702900Y-118155300D01*
X195700300Y-119520000D02*
X195700300Y-119152700D01*
X194525000Y-86500000D02*
X194525000Y-87675300D01*
X212525000Y-116980000D02*
X211349700Y-116980000D01*
X211349700Y-117704900D02*
X210709900Y-118344700D01*
X211349700Y-116980000D02*
X211349700Y-117704900D01*
X211349700Y-118984500D02*
X210709900Y-118344700D01*
X211349700Y-119520000D02*
X211349700Y-118984500D01*
X196508300Y-118344700D02*
X195700300Y-119152700D01*
X210709900Y-118344700D02*
X196508300Y-118344700D01*
X176178000Y-87675300D02*
X176000000Y-87675300D01*
X177175300Y-88672600D02*
X176178000Y-87675300D01*
X177175300Y-88672600D02*
X177175300Y-89040000D01*
X194347100Y-87675300D02*
X194525000Y-87675300D01*
X193349700Y-88672700D02*
X194347100Y-87675300D01*
X193349700Y-89040000D02*
X193349700Y-88672700D01*
X177983200Y-87864700D02*
X177175300Y-88672600D01*
X186106800Y-87864700D02*
X177983200Y-87864700D01*
X186432300Y-87539200D02*
X186106800Y-87864700D01*
X187033200Y-87539200D02*
X186432300Y-87539200D01*
X187358700Y-87864700D02*
X187033200Y-87539200D01*
X192541700Y-87864700D02*
X187358700Y-87864700D01*
X193349700Y-88672700D02*
X192541700Y-87864700D01*
%TD*%
M02*
