%TF.GenerationSoftware,KiCad,Pcbnew,(6.0.2)*%
%TF.CreationDate,2023-10-23T02:54:13-04:00*%
%TF.ProjectId,USB_Splitter,5553425f-5370-46c6-9974-7465722e6b69,rev?*%
%TF.SameCoordinates,Original*%
%TF.FileFunction,Soldermask,Top*%
%TF.FilePolarity,Negative*%
%FSLAX46Y46*%
G04 Gerber Fmt 4.6, Leading zero omitted, Abs format (unit mm)*
G04 Created by KiCad (PCBNEW (6.0.2)) date 2023-10-23 02:54:13*
%MOMM*%
%LPD*%
G01*
G04 APERTURE LIST*
G04 Aperture macros list*
%AMRoundRect*
0 Rectangle with rounded corners*
0 $1 Rounding radius*
0 $2 $3 $4 $5 $6 $7 $8 $9 X,Y pos of 4 corners*
0 Add a 4 corners polygon primitive as box body*
4,1,4,$2,$3,$4,$5,$6,$7,$8,$9,$2,$3,0*
0 Add four circle primitives for the rounded corners*
1,1,$1+$1,$2,$3*
1,1,$1+$1,$4,$5*
1,1,$1+$1,$6,$7*
1,1,$1+$1,$8,$9*
0 Add four rect primitives between the rounded corners*
20,1,$1+$1,$2,$3,$4,$5,0*
20,1,$1+$1,$4,$5,$6,$7,0*
20,1,$1+$1,$6,$7,$8,$9,0*
20,1,$1+$1,$8,$9,$2,$3,0*%
%AMFreePoly0*
4,1,22,0.500000,-0.750000,0.000000,-0.750000,0.000000,-0.745033,-0.079941,-0.743568,-0.215256,-0.701293,-0.333266,-0.622738,-0.424486,-0.514219,-0.481581,-0.384460,-0.499164,-0.250000,-0.500000,-0.250000,-0.500000,0.250000,-0.499164,0.250000,-0.499963,0.256109,-0.478152,0.396186,-0.417904,0.524511,-0.324060,0.630769,-0.204165,0.706417,-0.067858,0.745374,0.000000,0.744959,0.000000,0.750000,
0.500000,0.750000,0.500000,-0.750000,0.500000,-0.750000,$1*%
%AMFreePoly1*
4,1,20,0.000000,0.744959,0.073905,0.744508,0.209726,0.703889,0.328688,0.626782,0.421226,0.519385,0.479903,0.390333,0.500000,0.250000,0.500000,-0.250000,0.499851,-0.262216,0.476331,-0.402017,0.414519,-0.529596,0.319384,-0.634700,0.198574,-0.708877,0.061801,-0.746166,0.000000,-0.745033,0.000000,-0.750000,-0.500000,-0.750000,-0.500000,0.750000,0.000000,0.750000,0.000000,0.744959,
0.000000,0.744959,$1*%
G04 Aperture macros list end*
%ADD10FreePoly0,180.000000*%
%ADD11FreePoly1,180.000000*%
%ADD12RoundRect,0.250000X0.450000X-0.262500X0.450000X0.262500X-0.450000X0.262500X-0.450000X-0.262500X0*%
%ADD13R,1.700000X1.700000*%
%ADD14O,1.700000X1.700000*%
%ADD15FreePoly0,90.000000*%
%ADD16FreePoly1,90.000000*%
%ADD17RoundRect,0.250000X-0.450000X0.262500X-0.450000X-0.262500X0.450000X-0.262500X0.450000X0.262500X0*%
%ADD18RoundRect,0.250000X-0.250000X-0.475000X0.250000X-0.475000X0.250000X0.475000X-0.250000X0.475000X0*%
%ADD19RoundRect,0.243750X-0.243750X-0.456250X0.243750X-0.456250X0.243750X0.456250X-0.243750X0.456250X0*%
%ADD20RoundRect,0.250000X-0.262500X-0.450000X0.262500X-0.450000X0.262500X0.450000X-0.262500X0.450000X0*%
%ADD21RoundRect,0.100000X-0.637500X-0.100000X0.637500X-0.100000X0.637500X0.100000X-0.637500X0.100000X0*%
%ADD22RoundRect,0.250000X0.262500X0.450000X-0.262500X0.450000X-0.262500X-0.450000X0.262500X-0.450000X0*%
G04 APERTURE END LIST*
D10*
%TO.C,A21*%
X186000000Y-73000000D03*
D11*
X184700000Y-73000000D03*
%TD*%
D10*
%TO.C,A20*%
X186000000Y-76000000D03*
D11*
X184700000Y-76000000D03*
%TD*%
D10*
%TO.C,A19*%
X204650000Y-76000000D03*
D11*
X203350000Y-76000000D03*
%TD*%
D10*
%TO.C,A18*%
X204650000Y-73000000D03*
D11*
X203350000Y-73000000D03*
%TD*%
D12*
%TO.C,R12*%
X183000000Y-60325000D03*
X183000000Y-58500000D03*
%TD*%
%TO.C,R15*%
X201000000Y-60325000D03*
X201000000Y-58500000D03*
%TD*%
D13*
%TO.C,J3*%
X192025000Y-86500000D03*
D14*
X192025000Y-89040000D03*
X192025000Y-91580000D03*
X192025000Y-94120000D03*
X192025000Y-96660000D03*
X192025000Y-99200000D03*
X192025000Y-101740000D03*
X192025000Y-104280000D03*
X192025000Y-106820000D03*
X192025000Y-109360000D03*
X192025000Y-111900000D03*
X192025000Y-114440000D03*
X192025000Y-116980000D03*
X192025000Y-119520000D03*
X192025000Y-122060000D03*
X192025000Y-124600000D03*
%TD*%
D12*
%TO.C,R21*%
X218500000Y-60325000D03*
X218500000Y-58500000D03*
%TD*%
D13*
%TO.C,J10*%
X215025000Y-86500000D03*
D14*
X215025000Y-89040000D03*
X215025000Y-91580000D03*
X215025000Y-94120000D03*
X215025000Y-96660000D03*
X215025000Y-99200000D03*
X215025000Y-101740000D03*
X215025000Y-104280000D03*
X215025000Y-106820000D03*
X215025000Y-109360000D03*
X215025000Y-111900000D03*
X215025000Y-114440000D03*
X215025000Y-116980000D03*
X215025000Y-119520000D03*
X215025000Y-122060000D03*
X215025000Y-124600000D03*
%TD*%
D15*
%TO.C,A17*%
X218500000Y-67150000D03*
D16*
X218500000Y-65850000D03*
%TD*%
D12*
%TO.C,R19*%
X213500000Y-60325000D03*
X213500000Y-58500000D03*
%TD*%
D15*
%TO.C,A0*%
X170500000Y-67150000D03*
D16*
X170500000Y-65850000D03*
%TD*%
D13*
%TO.C,J9*%
X212525000Y-86500000D03*
D14*
X212525000Y-89040000D03*
X212525000Y-91580000D03*
X212525000Y-94120000D03*
X212525000Y-96660000D03*
X212525000Y-99200000D03*
X212525000Y-101740000D03*
X212525000Y-104280000D03*
X212525000Y-106820000D03*
X212525000Y-109360000D03*
X212525000Y-111900000D03*
X212525000Y-114440000D03*
X212525000Y-116980000D03*
X212525000Y-119520000D03*
X212525000Y-122060000D03*
X212525000Y-124600000D03*
%TD*%
D15*
%TO.C,A2*%
X175500000Y-67150000D03*
D16*
X175500000Y-65850000D03*
%TD*%
D15*
%TO.C,A14*%
X211000000Y-67150000D03*
D16*
X211000000Y-65850000D03*
%TD*%
D15*
%TO.C,A15*%
X213500000Y-67150000D03*
D16*
X213500000Y-65850000D03*
%TD*%
D12*
%TO.C,R9*%
X175500000Y-60325000D03*
X175500000Y-58500000D03*
%TD*%
D15*
%TO.C,A3*%
X178000000Y-67150000D03*
D16*
X178000000Y-65850000D03*
%TD*%
D17*
%TO.C,R10*%
X178000000Y-58500000D03*
X178000000Y-60325000D03*
%TD*%
%TO.C,R7*%
X170500000Y-58500000D03*
X170500000Y-60325000D03*
%TD*%
D13*
%TO.C,J4*%
X194525000Y-86500000D03*
D14*
X194525000Y-89040000D03*
X194525000Y-91580000D03*
X194525000Y-94120000D03*
X194525000Y-96660000D03*
X194525000Y-99200000D03*
X194525000Y-101740000D03*
X194525000Y-104280000D03*
X194525000Y-106820000D03*
X194525000Y-109360000D03*
X194525000Y-111900000D03*
X194525000Y-114440000D03*
X194525000Y-116980000D03*
X194525000Y-119520000D03*
X194525000Y-122060000D03*
X194525000Y-124600000D03*
%TD*%
D18*
%TO.C,C2*%
X165050000Y-74500000D03*
X166950000Y-74500000D03*
%TD*%
D15*
%TO.C,A11*%
X201000000Y-67150000D03*
D16*
X201000000Y-65850000D03*
%TD*%
D12*
%TO.C,R11*%
X180500000Y-60325000D03*
X180500000Y-58500000D03*
%TD*%
D15*
%TO.C,A10*%
X198500000Y-67150000D03*
D16*
X198500000Y-65850000D03*
%TD*%
D15*
%TO.C,A8*%
X193500000Y-67150000D03*
D16*
X193500000Y-65850000D03*
%TD*%
D12*
%TO.C,R4*%
X191000000Y-60325000D03*
X191000000Y-58500000D03*
%TD*%
D19*
%TO.C,D3*%
X213062500Y-82500000D03*
X214937500Y-82500000D03*
%TD*%
D15*
%TO.C,A12*%
X206000000Y-67150000D03*
D16*
X206000000Y-65850000D03*
%TD*%
D13*
%TO.C,J6*%
X178500000Y-86500000D03*
D14*
X178500000Y-89040000D03*
X178500000Y-91580000D03*
X178500000Y-94120000D03*
X178500000Y-96660000D03*
X178500000Y-99200000D03*
X178500000Y-101740000D03*
X178500000Y-104280000D03*
X178500000Y-106820000D03*
X178500000Y-109360000D03*
X178500000Y-111900000D03*
X178500000Y-114440000D03*
X178500000Y-116980000D03*
X178500000Y-119520000D03*
X178500000Y-122060000D03*
X178500000Y-124600000D03*
%TD*%
D20*
%TO.C,R1*%
X190587500Y-82500000D03*
X192412500Y-82500000D03*
%TD*%
D12*
%TO.C,R18*%
X211000000Y-60325000D03*
X211000000Y-58500000D03*
%TD*%
D20*
%TO.C,R2*%
X208587500Y-82500000D03*
X210412500Y-82500000D03*
%TD*%
D15*
%TO.C,A13*%
X208500000Y-67150000D03*
D16*
X208500000Y-65850000D03*
%TD*%
D12*
%TO.C,R14*%
X198500000Y-60325000D03*
X198500000Y-58500000D03*
%TD*%
D21*
%TO.C,U3*%
X209112500Y-70275000D03*
X209112500Y-70925000D03*
X209112500Y-71575000D03*
X209112500Y-72225000D03*
X209112500Y-72875000D03*
X209112500Y-73525000D03*
X209112500Y-74175000D03*
X209112500Y-74825000D03*
X209112500Y-75475000D03*
X209112500Y-76125000D03*
X209112500Y-76775000D03*
X209112500Y-77425000D03*
X209112500Y-78075000D03*
X209112500Y-78725000D03*
X214837500Y-78725000D03*
X214837500Y-78075000D03*
X214837500Y-77425000D03*
X214837500Y-76775000D03*
X214837500Y-76125000D03*
X214837500Y-75475000D03*
X214837500Y-74825000D03*
X214837500Y-74175000D03*
X214837500Y-73525000D03*
X214837500Y-72875000D03*
X214837500Y-72225000D03*
X214837500Y-71575000D03*
X214837500Y-70925000D03*
X214837500Y-70275000D03*
%TD*%
D13*
%TO.C,J5*%
X176000000Y-86500000D03*
D14*
X176000000Y-89040000D03*
X176000000Y-91580000D03*
X176000000Y-94120000D03*
X176000000Y-96660000D03*
X176000000Y-99200000D03*
X176000000Y-101740000D03*
X176000000Y-104280000D03*
X176000000Y-106820000D03*
X176000000Y-109360000D03*
X176000000Y-111900000D03*
X176000000Y-114440000D03*
X176000000Y-116980000D03*
X176000000Y-119520000D03*
X176000000Y-122060000D03*
X176000000Y-124600000D03*
%TD*%
D18*
%TO.C,C3*%
X165050000Y-77000000D03*
X166950000Y-77000000D03*
%TD*%
D12*
%TO.C,R5*%
X193500000Y-60325000D03*
X193500000Y-58500000D03*
%TD*%
%TO.C,R8*%
X173000000Y-60325000D03*
X173000000Y-58500000D03*
%TD*%
D15*
%TO.C,A1*%
X173000000Y-67150000D03*
D16*
X173000000Y-65850000D03*
%TD*%
D15*
%TO.C,A7*%
X191000000Y-67150000D03*
D16*
X191000000Y-65850000D03*
%TD*%
D12*
%TO.C,R3*%
X188500000Y-60325000D03*
X188500000Y-58500000D03*
%TD*%
D13*
%TO.C,J1*%
X165975000Y-68120000D03*
D14*
X165975000Y-65580000D03*
X165975000Y-63040000D03*
X165975000Y-60500000D03*
%TD*%
D19*
%TO.C,D2*%
X195062500Y-82500000D03*
X196937500Y-82500000D03*
%TD*%
D15*
%TO.C,A6*%
X188500000Y-67150000D03*
D16*
X188500000Y-65850000D03*
%TD*%
D15*
%TO.C,A9*%
X196000000Y-67150000D03*
D16*
X196000000Y-65850000D03*
%TD*%
D12*
%TO.C,R16*%
X206000000Y-60325000D03*
X206000000Y-58500000D03*
%TD*%
D13*
%TO.C,J7*%
X197025000Y-86500000D03*
D14*
X197025000Y-89040000D03*
X197025000Y-91580000D03*
X197025000Y-94120000D03*
X197025000Y-96660000D03*
X197025000Y-99200000D03*
X197025000Y-101740000D03*
X197025000Y-104280000D03*
X197025000Y-106820000D03*
X197025000Y-109360000D03*
X197025000Y-111900000D03*
X197025000Y-114440000D03*
X197025000Y-116980000D03*
X197025000Y-119520000D03*
X197025000Y-122060000D03*
X197025000Y-124600000D03*
%TD*%
D19*
%TO.C,D1*%
X176562500Y-82500000D03*
X178437500Y-82500000D03*
%TD*%
D15*
%TO.C,A4*%
X180500000Y-67150000D03*
D16*
X180500000Y-65850000D03*
%TD*%
D12*
%TO.C,R20*%
X216000000Y-60325000D03*
X216000000Y-58500000D03*
%TD*%
D22*
%TO.C,R13*%
X173912500Y-82500000D03*
X172087500Y-82500000D03*
%TD*%
D15*
%TO.C,A5*%
X183000000Y-67150000D03*
D16*
X183000000Y-65850000D03*
%TD*%
D18*
%TO.C,C1*%
X165050000Y-79500000D03*
X166950000Y-79500000D03*
%TD*%
D21*
%TO.C,U2*%
X190875000Y-70275000D03*
X190875000Y-70925000D03*
X190875000Y-71575000D03*
X190875000Y-72225000D03*
X190875000Y-72875000D03*
X190875000Y-73525000D03*
X190875000Y-74175000D03*
X190875000Y-74825000D03*
X190875000Y-75475000D03*
X190875000Y-76125000D03*
X190875000Y-76775000D03*
X190875000Y-77425000D03*
X190875000Y-78075000D03*
X190875000Y-78725000D03*
X196600000Y-78725000D03*
X196600000Y-78075000D03*
X196600000Y-77425000D03*
X196600000Y-76775000D03*
X196600000Y-76125000D03*
X196600000Y-75475000D03*
X196600000Y-74825000D03*
X196600000Y-74175000D03*
X196600000Y-73525000D03*
X196600000Y-72875000D03*
X196600000Y-72225000D03*
X196600000Y-71575000D03*
X196600000Y-70925000D03*
X196600000Y-70275000D03*
%TD*%
D13*
%TO.C,J8*%
X210025000Y-86500000D03*
D14*
X210025000Y-89040000D03*
X210025000Y-91580000D03*
X210025000Y-94120000D03*
X210025000Y-96660000D03*
X210025000Y-99200000D03*
X210025000Y-101740000D03*
X210025000Y-104280000D03*
X210025000Y-106820000D03*
X210025000Y-109360000D03*
X210025000Y-111900000D03*
X210025000Y-114440000D03*
X210025000Y-116980000D03*
X210025000Y-119520000D03*
X210025000Y-122060000D03*
X210025000Y-124600000D03*
%TD*%
D12*
%TO.C,R6*%
X196000000Y-60325000D03*
X196000000Y-58500000D03*
%TD*%
D21*
%TO.C,U1*%
X172637500Y-70275000D03*
X172637500Y-70925000D03*
X172637500Y-71575000D03*
X172637500Y-72225000D03*
X172637500Y-72875000D03*
X172637500Y-73525000D03*
X172637500Y-74175000D03*
X172637500Y-74825000D03*
X172637500Y-75475000D03*
X172637500Y-76125000D03*
X172637500Y-76775000D03*
X172637500Y-77425000D03*
X172637500Y-78075000D03*
X172637500Y-78725000D03*
X178362500Y-78725000D03*
X178362500Y-78075000D03*
X178362500Y-77425000D03*
X178362500Y-76775000D03*
X178362500Y-76125000D03*
X178362500Y-75475000D03*
X178362500Y-74825000D03*
X178362500Y-74175000D03*
X178362500Y-73525000D03*
X178362500Y-72875000D03*
X178362500Y-72225000D03*
X178362500Y-71575000D03*
X178362500Y-70925000D03*
X178362500Y-70275000D03*
%TD*%
D13*
%TO.C,J2*%
X173500000Y-86500000D03*
D14*
X173500000Y-89040000D03*
X173500000Y-91580000D03*
X173500000Y-94120000D03*
X173500000Y-96660000D03*
X173500000Y-99200000D03*
X173500000Y-101740000D03*
X173500000Y-104280000D03*
X173500000Y-106820000D03*
X173500000Y-109360000D03*
X173500000Y-111900000D03*
X173500000Y-114440000D03*
X173500000Y-116980000D03*
X173500000Y-119520000D03*
X173500000Y-122060000D03*
X173500000Y-124600000D03*
%TD*%
D12*
%TO.C,R17*%
X208500000Y-60325000D03*
X208500000Y-58500000D03*
%TD*%
D15*
%TO.C,A16*%
X216000000Y-67150000D03*
D16*
X216000000Y-65850000D03*
%TD*%
M02*
