%FSLAX45Y45*%
G04 Gerber Fmt 4.5, Leading zero omitted, Abs format (unit mm)*
G04 Created by KiCad (PCBNEW (6.0.2)) date 2023-10-23 02:54:10*
%MOMM*%
%LPD*%
G01*
G04 APERTURE LIST*
%TA.AperFunction,Profile*%
%ADD10C,0.100000*%
%TD*%
%ADD11C,0.200000*%
%ADD12C,0.040000*%
%ADD13C,0.100000*%
G04 APERTURE END LIST*
D10*
X22400000Y-12600000D02*
G75*
G03*
X22400000Y-12600000I-300000J0D01*
G01*
X22550000Y-5250000D02*
G75*
G03*
X22200000Y-4900000I-350000J0D01*
G01*
X15900000Y-12700000D02*
G75*
G03*
X16250000Y-13050000I350000J0D01*
G01*
X16650000Y-12600000D02*
G75*
G03*
X16650000Y-12600000I-300000J0D01*
G01*
X22200000Y-4900000D02*
X16250000Y-4900000D01*
X22200000Y-13050000D02*
G75*
G03*
X22550000Y-12700000I0J350000D01*
G01*
X22400000Y-5350000D02*
G75*
G03*
X22400000Y-5350000I-300000J0D01*
G01*
X16250000Y-4900000D02*
G75*
G03*
X15900000Y-5250000I0J-350000D01*
G01*
X16650000Y-5350000D02*
G75*
G03*
X16650000Y-5350000I-300000J0D01*
G01*
X15900000Y-5250000D02*
X15900000Y-12700000D01*
X16250000Y-13050000D02*
X22200000Y-13050000D01*
X22550000Y-12700000D02*
X22550000Y-5250000D01*
D11*
D12*
X16871420Y-7854180D02*
X16911420Y-7894180D01*
X16911420Y-7854180D02*
X16871420Y-7894180D01*
X17045560Y-6805210D02*
X17085560Y-6845210D01*
X17085560Y-6805210D02*
X17045560Y-6845210D01*
X17101330Y-7539170D02*
X17141330Y-7579170D01*
X17141330Y-7539170D02*
X17101330Y-7579170D01*
X17107740Y-7009540D02*
X17147740Y-7049540D01*
X17147740Y-7009540D02*
X17107740Y-7049540D01*
X17107970Y-7167730D02*
X17147970Y-7207730D01*
X17147970Y-7167730D02*
X17107970Y-7207730D01*
X17109110Y-7780910D02*
X17149110Y-7820910D01*
X17149110Y-7780910D02*
X17109110Y-7820910D01*
X17123290Y-8364150D02*
X17163290Y-8404150D01*
X17163290Y-8364150D02*
X17123290Y-8404150D01*
X17181830Y-6481670D02*
X17221830Y-6521670D01*
X17221830Y-6481670D02*
X17181830Y-6521670D01*
X17227250Y-6840050D02*
X17267250Y-6880050D01*
X17267250Y-6840050D02*
X17227250Y-6880050D01*
X17380100Y-7662630D02*
X17420100Y-7702630D01*
X17420100Y-7662630D02*
X17380100Y-7702630D01*
X17397680Y-8088040D02*
X17437680Y-8128040D01*
X17437680Y-8088040D02*
X17397680Y-8128040D01*
X17400960Y-7490230D02*
X17440960Y-7530230D01*
X17440960Y-7490230D02*
X17400960Y-7530230D01*
X17409800Y-7314750D02*
X17449800Y-7354750D01*
X17449800Y-7314750D02*
X17409800Y-7354750D01*
X17427630Y-7200740D02*
X17467630Y-7240740D01*
X17467630Y-7200740D02*
X17427630Y-7240740D01*
X17472310Y-7103940D02*
X17512310Y-7143940D01*
X17512310Y-7103940D02*
X17472310Y-7143940D01*
X17478290Y-6927450D02*
X17518290Y-6967450D01*
X17518290Y-6927450D02*
X17478290Y-6967450D01*
X17486660Y-7720750D02*
X17526660Y-7760750D01*
X17526660Y-7720750D02*
X17486660Y-7760750D01*
X17536690Y-7226560D02*
X17576690Y-7266560D01*
X17576690Y-7226560D02*
X17536690Y-7266560D01*
X17582660Y-7459340D02*
X17622660Y-7499340D01*
X17622660Y-7459340D02*
X17582660Y-7499340D01*
X17602970Y-7902920D02*
X17642970Y-7942920D01*
X17642970Y-7902920D02*
X17602970Y-7942920D01*
X17664590Y-6489930D02*
X17704590Y-6529930D01*
X17704590Y-6489930D02*
X17664590Y-6529930D01*
X17671690Y-6851990D02*
X17711690Y-6891990D01*
X17711690Y-6851990D02*
X17671690Y-6891990D01*
X17677100Y-6284220D02*
X17717100Y-6324220D01*
X17717100Y-6284220D02*
X17677100Y-6324220D01*
X17681230Y-7743910D02*
X17721230Y-7783910D01*
X17721230Y-7743910D02*
X17681230Y-7783910D01*
X17704170Y-7934000D02*
X17744170Y-7974000D01*
X17744170Y-7934000D02*
X17704170Y-7974000D01*
X17771730Y-6862350D02*
X17811730Y-6902350D01*
X17811730Y-6862350D02*
X17771730Y-6902350D01*
X17887100Y-6475240D02*
X17927100Y-6515240D01*
X17927100Y-6475240D02*
X17887100Y-6515240D01*
X17918220Y-8132790D02*
X17958220Y-8172790D01*
X17958220Y-8132790D02*
X17918220Y-8172790D01*
X17968460Y-7977340D02*
X18008460Y-8017340D01*
X18008460Y-7977340D02*
X17968460Y-8017340D01*
X18002920Y-6862730D02*
X18042920Y-6902730D01*
X18042920Y-6862730D02*
X18002920Y-6902730D01*
X18053260Y-7091560D02*
X18093260Y-7131560D01*
X18093260Y-7091560D02*
X18053260Y-7131560D01*
X18060280Y-7414410D02*
X18100280Y-7454410D01*
X18100280Y-7414410D02*
X18060280Y-7454410D01*
X18088260Y-7841950D02*
X18128260Y-7881950D01*
X18128260Y-7841950D02*
X18088260Y-7881950D01*
X18130310Y-6373320D02*
X18170310Y-6413320D01*
X18170310Y-6373320D02*
X18130310Y-6413320D01*
X18135030Y-6489310D02*
X18175030Y-6529310D01*
X18175030Y-6489310D02*
X18135030Y-6529310D01*
X18256250Y-7895520D02*
X18296250Y-7935520D01*
X18296250Y-7895520D02*
X18256250Y-7935520D01*
X18273370Y-6864990D02*
X18313370Y-6904990D01*
X18313370Y-6864990D02*
X18273370Y-6904990D01*
X18328440Y-6208920D02*
X18368440Y-6248920D01*
X18368440Y-6208920D02*
X18328440Y-6248920D01*
X18421950Y-7717900D02*
X18461950Y-7757900D01*
X18461950Y-7717900D02*
X18421950Y-7757900D01*
X18464970Y-7893720D02*
X18504970Y-7933720D01*
X18504970Y-7893720D02*
X18464970Y-7933720D01*
X18518540Y-6225910D02*
X18558540Y-6265910D01*
X18558540Y-6225910D02*
X18518540Y-6265910D01*
X18553540Y-6516040D02*
X18593540Y-6556040D01*
X18593540Y-6516040D02*
X18553540Y-6556040D01*
X18578020Y-7895470D02*
X18618020Y-7935470D01*
X18618020Y-7895470D02*
X18578020Y-7935470D01*
X18599620Y-7049960D02*
X18639620Y-7089960D01*
X18639620Y-7049960D02*
X18599620Y-7089960D01*
X18616840Y-7716840D02*
X18656840Y-7756840D01*
X18656840Y-7716840D02*
X18616840Y-7756840D01*
X18653270Y-8806450D02*
X18693270Y-8846450D01*
X18693270Y-8806450D02*
X18653270Y-8846450D01*
X18653270Y-9029740D02*
X18693270Y-9069740D01*
X18693270Y-9029740D02*
X18653270Y-9069740D01*
X18664210Y-6349340D02*
X18704210Y-6389340D01*
X18704210Y-6349340D02*
X18664210Y-6389340D01*
X18666400Y-6180880D02*
X18706400Y-6220880D01*
X18706400Y-6180880D02*
X18666400Y-6220880D01*
X18717640Y-9375730D02*
X18757640Y-9415730D01*
X18757640Y-9375730D02*
X18717640Y-9415730D01*
X18746080Y-7741590D02*
X18786080Y-7781590D01*
X18786080Y-7741590D02*
X18746080Y-7781590D01*
X18899180Y-7247380D02*
X18939180Y-7287380D01*
X18939180Y-7247380D02*
X18899180Y-7287380D01*
X18899980Y-6922190D02*
X18939980Y-6962190D01*
X18939980Y-6922190D02*
X18899980Y-6962190D01*
X18942930Y-8097900D02*
X18982930Y-8137900D01*
X18982930Y-8097900D02*
X18942930Y-8137900D01*
X18975250Y-6485160D02*
X19015250Y-6525160D01*
X19015250Y-6485160D02*
X18975250Y-6525160D01*
X19031940Y-6892590D02*
X19071940Y-6932590D01*
X19071940Y-6892590D02*
X19031940Y-6932590D01*
X19059220Y-7956540D02*
X19099220Y-7996540D01*
X19099220Y-7956540D02*
X19059220Y-7996540D01*
X19075200Y-8431250D02*
X19115200Y-8471250D01*
X19115200Y-8431250D02*
X19075200Y-8471250D01*
X19233390Y-6894640D02*
X19273390Y-6934640D01*
X19273390Y-6894640D02*
X19233390Y-6934640D01*
X19238120Y-7434250D02*
X19278120Y-7474250D01*
X19278120Y-7434250D02*
X19238120Y-7474250D01*
X19267020Y-7944260D02*
X19307020Y-7984260D01*
X19307020Y-7944260D02*
X19267020Y-7984260D01*
X19342860Y-7434250D02*
X19382860Y-7474250D01*
X19382860Y-7434250D02*
X19342860Y-7474250D01*
X19441120Y-7961770D02*
X19481120Y-8001770D01*
X19481120Y-7961770D02*
X19441120Y-8001770D01*
X19452170Y-6503410D02*
X19492170Y-6543410D01*
X19492170Y-6503410D02*
X19452170Y-6543410D01*
X19476830Y-7112290D02*
X19516830Y-7152290D01*
X19516830Y-7112290D02*
X19476830Y-7152290D01*
X19497400Y-6125410D02*
X19537400Y-6165410D01*
X19537400Y-6125410D02*
X19497400Y-6165410D01*
X19528040Y-6877160D02*
X19568040Y-6917160D01*
X19568040Y-6877160D02*
X19528040Y-6917160D01*
X19541160Y-7981500D02*
X19581160Y-8021500D01*
X19581160Y-7981500D02*
X19541160Y-8021500D01*
X19611910Y-8052240D02*
X19651910Y-8092240D01*
X19651910Y-8052240D02*
X19611910Y-8092240D01*
X19666000Y-6143010D02*
X19706000Y-6183010D01*
X19706000Y-6143010D02*
X19666000Y-6183010D01*
X19681730Y-8360200D02*
X19721730Y-8400200D01*
X19721730Y-8360200D02*
X19681730Y-8400200D01*
X19730000Y-6841860D02*
X19770000Y-6881860D01*
X19770000Y-6841860D02*
X19730000Y-6881860D01*
X19738530Y-6474770D02*
X19778530Y-6514770D01*
X19778530Y-6474770D02*
X19738530Y-6514770D01*
X19775830Y-7400740D02*
X19815830Y-7440740D01*
X19815830Y-7400740D02*
X19775830Y-7440740D01*
X19787310Y-7296800D02*
X19827310Y-7336800D01*
X19827310Y-7296800D02*
X19787310Y-7336800D01*
X19833010Y-7485050D02*
X19873010Y-7525050D01*
X19873010Y-7485050D02*
X19833010Y-7525050D01*
X19914850Y-7977660D02*
X19954850Y-8017660D01*
X19954850Y-7977660D02*
X19914850Y-8017660D01*
X19966410Y-6496130D02*
X20006410Y-6536130D01*
X20006410Y-6496130D02*
X19966410Y-6536130D01*
X20169030Y-6825110D02*
X20209030Y-6865110D01*
X20209030Y-6825110D02*
X20169030Y-6865110D01*
X20342400Y-7431760D02*
X20382400Y-7471760D01*
X20382400Y-7431760D02*
X20342400Y-7471760D01*
X20365830Y-5972670D02*
X20405830Y-6012670D01*
X20405830Y-5972670D02*
X20365830Y-6012670D01*
X20388130Y-7013420D02*
X20428130Y-7053420D01*
X20428130Y-7013420D02*
X20388130Y-7053420D01*
X20392560Y-6195370D02*
X20432560Y-6235370D01*
X20432560Y-6195370D02*
X20392560Y-6235370D01*
X20419940Y-6830300D02*
X20459940Y-6870300D01*
X20459940Y-6830300D02*
X20419940Y-6870300D01*
X20428590Y-7865860D02*
X20468590Y-7905860D01*
X20468590Y-7865860D02*
X20428590Y-7905860D01*
X20445000Y-7415470D02*
X20485000Y-7455470D01*
X20485000Y-7415470D02*
X20445000Y-7455470D01*
X20562180Y-7793060D02*
X20602180Y-7833060D01*
X20602180Y-7793060D02*
X20562180Y-7833060D01*
X20732000Y-6479830D02*
X20772000Y-6519830D01*
X20772000Y-6479830D02*
X20732000Y-6519830D01*
X20741200Y-6929280D02*
X20781200Y-6969280D01*
X20781200Y-6929280D02*
X20741200Y-6969280D01*
X20755160Y-7172560D02*
X20795160Y-7212560D01*
X20795160Y-7172560D02*
X20755160Y-7212560D01*
X20757280Y-7422050D02*
X20797280Y-7462050D01*
X20797280Y-7422050D02*
X20757280Y-7462050D01*
X20914000Y-7932990D02*
X20954000Y-7972990D01*
X20954000Y-7932990D02*
X20914000Y-7972990D01*
X21001220Y-6941780D02*
X21041220Y-6981780D01*
X21041220Y-6941780D02*
X21001220Y-6981780D01*
X21028510Y-7199240D02*
X21068510Y-7239240D01*
X21068510Y-7199240D02*
X21028510Y-7239240D01*
X21102430Y-6452230D02*
X21142430Y-6492230D01*
X21142430Y-6452230D02*
X21102430Y-6492230D01*
X21167420Y-8240360D02*
X21207420Y-8280360D01*
X21207420Y-8240360D02*
X21167420Y-8280360D01*
X21238200Y-7512900D02*
X21278200Y-7552900D01*
X21278200Y-7512900D02*
X21238200Y-7552900D01*
X21253980Y-7787550D02*
X21293980Y-7827550D01*
X21293980Y-7787550D02*
X21253980Y-7827550D01*
X21313100Y-7869920D02*
X21353100Y-7909920D01*
X21353100Y-7869920D02*
X21313100Y-7909920D01*
X21324750Y-7082950D02*
X21364750Y-7122950D01*
X21364750Y-7082950D02*
X21324750Y-7122950D01*
X21324820Y-6452930D02*
X21364820Y-6492930D01*
X21364820Y-6452930D02*
X21324820Y-6492930D01*
X21328350Y-7414840D02*
X21368350Y-7454840D01*
X21368350Y-7414840D02*
X21328350Y-7454840D01*
X21454020Y-8061260D02*
X21494020Y-8101260D01*
X21494020Y-8061260D02*
X21454020Y-8101260D01*
X21530670Y-7938430D02*
X21570670Y-7978430D01*
X21570670Y-7938430D02*
X21530670Y-7978430D01*
X21580000Y-6289420D02*
X21620000Y-6329420D01*
X21620000Y-6289420D02*
X21580000Y-6329420D01*
X21598160Y-7137500D02*
X21638160Y-7177500D01*
X21638160Y-7137500D02*
X21598160Y-7177500D01*
X21599000Y-7522680D02*
X21639000Y-7562680D01*
X21639000Y-7522680D02*
X21599000Y-7562680D01*
D13*
X16647500Y-6050000D02*
G75*
G03*
X16647500Y-6050000I-50000J0D01*
G01*
X16647500Y-6304000D02*
G75*
G03*
X16647500Y-6304000I-50000J0D01*
G01*
X16647500Y-6558000D02*
G75*
G03*
X16647500Y-6558000I-50000J0D01*
G01*
X16647500Y-6812000D02*
G75*
G03*
X16647500Y-6812000I-50000J0D01*
G01*
X17400000Y-8650000D02*
G75*
G03*
X17400000Y-8650000I-50000J0D01*
G01*
X17400000Y-8904000D02*
G75*
G03*
X17400000Y-8904000I-50000J0D01*
G01*
X17400000Y-9158000D02*
G75*
G03*
X17400000Y-9158000I-50000J0D01*
G01*
X17400000Y-9412000D02*
G75*
G03*
X17400000Y-9412000I-50000J0D01*
G01*
X17400000Y-9666000D02*
G75*
G03*
X17400000Y-9666000I-50000J0D01*
G01*
X17400000Y-9920000D02*
G75*
G03*
X17400000Y-9920000I-50000J0D01*
G01*
X17400000Y-10174000D02*
G75*
G03*
X17400000Y-10174000I-50000J0D01*
G01*
X17400000Y-10428000D02*
G75*
G03*
X17400000Y-10428000I-50000J0D01*
G01*
X17400000Y-10682000D02*
G75*
G03*
X17400000Y-10682000I-50000J0D01*
G01*
X17400000Y-10936000D02*
G75*
G03*
X17400000Y-10936000I-50000J0D01*
G01*
X17400000Y-11190000D02*
G75*
G03*
X17400000Y-11190000I-50000J0D01*
G01*
X17400000Y-11444000D02*
G75*
G03*
X17400000Y-11444000I-50000J0D01*
G01*
X17400000Y-11698000D02*
G75*
G03*
X17400000Y-11698000I-50000J0D01*
G01*
X17400000Y-11952000D02*
G75*
G03*
X17400000Y-11952000I-50000J0D01*
G01*
X17400000Y-12206000D02*
G75*
G03*
X17400000Y-12206000I-50000J0D01*
G01*
X17400000Y-12460000D02*
G75*
G03*
X17400000Y-12460000I-50000J0D01*
G01*
X17650000Y-8650000D02*
G75*
G03*
X17650000Y-8650000I-50000J0D01*
G01*
X17650000Y-8904000D02*
G75*
G03*
X17650000Y-8904000I-50000J0D01*
G01*
X17650000Y-9158000D02*
G75*
G03*
X17650000Y-9158000I-50000J0D01*
G01*
X17650000Y-9412000D02*
G75*
G03*
X17650000Y-9412000I-50000J0D01*
G01*
X17650000Y-9666000D02*
G75*
G03*
X17650000Y-9666000I-50000J0D01*
G01*
X17650000Y-9920000D02*
G75*
G03*
X17650000Y-9920000I-50000J0D01*
G01*
X17650000Y-10174000D02*
G75*
G03*
X17650000Y-10174000I-50000J0D01*
G01*
X17650000Y-10428000D02*
G75*
G03*
X17650000Y-10428000I-50000J0D01*
G01*
X17650000Y-10682000D02*
G75*
G03*
X17650000Y-10682000I-50000J0D01*
G01*
X17650000Y-10936000D02*
G75*
G03*
X17650000Y-10936000I-50000J0D01*
G01*
X17650000Y-11190000D02*
G75*
G03*
X17650000Y-11190000I-50000J0D01*
G01*
X17650000Y-11444000D02*
G75*
G03*
X17650000Y-11444000I-50000J0D01*
G01*
X17650000Y-11698000D02*
G75*
G03*
X17650000Y-11698000I-50000J0D01*
G01*
X17650000Y-11952000D02*
G75*
G03*
X17650000Y-11952000I-50000J0D01*
G01*
X17650000Y-12206000D02*
G75*
G03*
X17650000Y-12206000I-50000J0D01*
G01*
X17650000Y-12460000D02*
G75*
G03*
X17650000Y-12460000I-50000J0D01*
G01*
X17900000Y-8650000D02*
G75*
G03*
X17900000Y-8650000I-50000J0D01*
G01*
X17900000Y-8904000D02*
G75*
G03*
X17900000Y-8904000I-50000J0D01*
G01*
X17900000Y-9158000D02*
G75*
G03*
X17900000Y-9158000I-50000J0D01*
G01*
X17900000Y-9412000D02*
G75*
G03*
X17900000Y-9412000I-50000J0D01*
G01*
X17900000Y-9666000D02*
G75*
G03*
X17900000Y-9666000I-50000J0D01*
G01*
X17900000Y-9920000D02*
G75*
G03*
X17900000Y-9920000I-50000J0D01*
G01*
X17900000Y-10174000D02*
G75*
G03*
X17900000Y-10174000I-50000J0D01*
G01*
X17900000Y-10428000D02*
G75*
G03*
X17900000Y-10428000I-50000J0D01*
G01*
X17900000Y-10682000D02*
G75*
G03*
X17900000Y-10682000I-50000J0D01*
G01*
X17900000Y-10936000D02*
G75*
G03*
X17900000Y-10936000I-50000J0D01*
G01*
X17900000Y-11190000D02*
G75*
G03*
X17900000Y-11190000I-50000J0D01*
G01*
X17900000Y-11444000D02*
G75*
G03*
X17900000Y-11444000I-50000J0D01*
G01*
X17900000Y-11698000D02*
G75*
G03*
X17900000Y-11698000I-50000J0D01*
G01*
X17900000Y-11952000D02*
G75*
G03*
X17900000Y-11952000I-50000J0D01*
G01*
X17900000Y-12206000D02*
G75*
G03*
X17900000Y-12206000I-50000J0D01*
G01*
X17900000Y-12460000D02*
G75*
G03*
X17900000Y-12460000I-50000J0D01*
G01*
X19252500Y-8650000D02*
G75*
G03*
X19252500Y-8650000I-50000J0D01*
G01*
X19252500Y-8904000D02*
G75*
G03*
X19252500Y-8904000I-50000J0D01*
G01*
X19252500Y-9158000D02*
G75*
G03*
X19252500Y-9158000I-50000J0D01*
G01*
X19252500Y-9412000D02*
G75*
G03*
X19252500Y-9412000I-50000J0D01*
G01*
X19252500Y-9666000D02*
G75*
G03*
X19252500Y-9666000I-50000J0D01*
G01*
X19252500Y-9920000D02*
G75*
G03*
X19252500Y-9920000I-50000J0D01*
G01*
X19252500Y-10174000D02*
G75*
G03*
X19252500Y-10174000I-50000J0D01*
G01*
X19252500Y-10428000D02*
G75*
G03*
X19252500Y-10428000I-50000J0D01*
G01*
X19252500Y-10682000D02*
G75*
G03*
X19252500Y-10682000I-50000J0D01*
G01*
X19252500Y-10936000D02*
G75*
G03*
X19252500Y-10936000I-50000J0D01*
G01*
X19252500Y-11190000D02*
G75*
G03*
X19252500Y-11190000I-50000J0D01*
G01*
X19252500Y-11444000D02*
G75*
G03*
X19252500Y-11444000I-50000J0D01*
G01*
X19252500Y-11698000D02*
G75*
G03*
X19252500Y-11698000I-50000J0D01*
G01*
X19252500Y-11952000D02*
G75*
G03*
X19252500Y-11952000I-50000J0D01*
G01*
X19252500Y-12206000D02*
G75*
G03*
X19252500Y-12206000I-50000J0D01*
G01*
X19252500Y-12460000D02*
G75*
G03*
X19252500Y-12460000I-50000J0D01*
G01*
X19502500Y-8650000D02*
G75*
G03*
X19502500Y-8650000I-50000J0D01*
G01*
X19502500Y-8904000D02*
G75*
G03*
X19502500Y-8904000I-50000J0D01*
G01*
X19502500Y-9158000D02*
G75*
G03*
X19502500Y-9158000I-50000J0D01*
G01*
X19502500Y-9412000D02*
G75*
G03*
X19502500Y-9412000I-50000J0D01*
G01*
X19502500Y-9666000D02*
G75*
G03*
X19502500Y-9666000I-50000J0D01*
G01*
X19502500Y-9920000D02*
G75*
G03*
X19502500Y-9920000I-50000J0D01*
G01*
X19502500Y-10174000D02*
G75*
G03*
X19502500Y-10174000I-50000J0D01*
G01*
X19502500Y-10428000D02*
G75*
G03*
X19502500Y-10428000I-50000J0D01*
G01*
X19502500Y-10682000D02*
G75*
G03*
X19502500Y-10682000I-50000J0D01*
G01*
X19502500Y-10936000D02*
G75*
G03*
X19502500Y-10936000I-50000J0D01*
G01*
X19502500Y-11190000D02*
G75*
G03*
X19502500Y-11190000I-50000J0D01*
G01*
X19502500Y-11444000D02*
G75*
G03*
X19502500Y-11444000I-50000J0D01*
G01*
X19502500Y-11698000D02*
G75*
G03*
X19502500Y-11698000I-50000J0D01*
G01*
X19502500Y-11952000D02*
G75*
G03*
X19502500Y-11952000I-50000J0D01*
G01*
X19502500Y-12206000D02*
G75*
G03*
X19502500Y-12206000I-50000J0D01*
G01*
X19502500Y-12460000D02*
G75*
G03*
X19502500Y-12460000I-50000J0D01*
G01*
X19752500Y-8650000D02*
G75*
G03*
X19752500Y-8650000I-50000J0D01*
G01*
X19752500Y-8904000D02*
G75*
G03*
X19752500Y-8904000I-50000J0D01*
G01*
X19752500Y-9158000D02*
G75*
G03*
X19752500Y-9158000I-50000J0D01*
G01*
X19752500Y-9412000D02*
G75*
G03*
X19752500Y-9412000I-50000J0D01*
G01*
X19752500Y-9666000D02*
G75*
G03*
X19752500Y-9666000I-50000J0D01*
G01*
X19752500Y-9920000D02*
G75*
G03*
X19752500Y-9920000I-50000J0D01*
G01*
X19752500Y-10174000D02*
G75*
G03*
X19752500Y-10174000I-50000J0D01*
G01*
X19752500Y-10428000D02*
G75*
G03*
X19752500Y-10428000I-50000J0D01*
G01*
X19752500Y-10682000D02*
G75*
G03*
X19752500Y-10682000I-50000J0D01*
G01*
X19752500Y-10936000D02*
G75*
G03*
X19752500Y-10936000I-50000J0D01*
G01*
X19752500Y-11190000D02*
G75*
G03*
X19752500Y-11190000I-50000J0D01*
G01*
X19752500Y-11444000D02*
G75*
G03*
X19752500Y-11444000I-50000J0D01*
G01*
X19752500Y-11698000D02*
G75*
G03*
X19752500Y-11698000I-50000J0D01*
G01*
X19752500Y-11952000D02*
G75*
G03*
X19752500Y-11952000I-50000J0D01*
G01*
X19752500Y-12206000D02*
G75*
G03*
X19752500Y-12206000I-50000J0D01*
G01*
X19752500Y-12460000D02*
G75*
G03*
X19752500Y-12460000I-50000J0D01*
G01*
X21052500Y-8650000D02*
G75*
G03*
X21052500Y-8650000I-50000J0D01*
G01*
X21052500Y-8904000D02*
G75*
G03*
X21052500Y-8904000I-50000J0D01*
G01*
X21052500Y-9158000D02*
G75*
G03*
X21052500Y-9158000I-50000J0D01*
G01*
X21052500Y-9412000D02*
G75*
G03*
X21052500Y-9412000I-50000J0D01*
G01*
X21052500Y-9666000D02*
G75*
G03*
X21052500Y-9666000I-50000J0D01*
G01*
X21052500Y-9920000D02*
G75*
G03*
X21052500Y-9920000I-50000J0D01*
G01*
X21052500Y-10174000D02*
G75*
G03*
X21052500Y-10174000I-50000J0D01*
G01*
X21052500Y-10428000D02*
G75*
G03*
X21052500Y-10428000I-50000J0D01*
G01*
X21052500Y-10682000D02*
G75*
G03*
X21052500Y-10682000I-50000J0D01*
G01*
X21052500Y-10936000D02*
G75*
G03*
X21052500Y-10936000I-50000J0D01*
G01*
X21052500Y-11190000D02*
G75*
G03*
X21052500Y-11190000I-50000J0D01*
G01*
X21052500Y-11444000D02*
G75*
G03*
X21052500Y-11444000I-50000J0D01*
G01*
X21052500Y-11698000D02*
G75*
G03*
X21052500Y-11698000I-50000J0D01*
G01*
X21052500Y-11952000D02*
G75*
G03*
X21052500Y-11952000I-50000J0D01*
G01*
X21052500Y-12206000D02*
G75*
G03*
X21052500Y-12206000I-50000J0D01*
G01*
X21052500Y-12460000D02*
G75*
G03*
X21052500Y-12460000I-50000J0D01*
G01*
X21302500Y-8650000D02*
G75*
G03*
X21302500Y-8650000I-50000J0D01*
G01*
X21302500Y-8904000D02*
G75*
G03*
X21302500Y-8904000I-50000J0D01*
G01*
X21302500Y-9158000D02*
G75*
G03*
X21302500Y-9158000I-50000J0D01*
G01*
X21302500Y-9412000D02*
G75*
G03*
X21302500Y-9412000I-50000J0D01*
G01*
X21302500Y-9666000D02*
G75*
G03*
X21302500Y-9666000I-50000J0D01*
G01*
X21302500Y-9920000D02*
G75*
G03*
X21302500Y-9920000I-50000J0D01*
G01*
X21302500Y-10174000D02*
G75*
G03*
X21302500Y-10174000I-50000J0D01*
G01*
X21302500Y-10428000D02*
G75*
G03*
X21302500Y-10428000I-50000J0D01*
G01*
X21302500Y-10682000D02*
G75*
G03*
X21302500Y-10682000I-50000J0D01*
G01*
X21302500Y-10936000D02*
G75*
G03*
X21302500Y-10936000I-50000J0D01*
G01*
X21302500Y-11190000D02*
G75*
G03*
X21302500Y-11190000I-50000J0D01*
G01*
X21302500Y-11444000D02*
G75*
G03*
X21302500Y-11444000I-50000J0D01*
G01*
X21302500Y-11698000D02*
G75*
G03*
X21302500Y-11698000I-50000J0D01*
G01*
X21302500Y-11952000D02*
G75*
G03*
X21302500Y-11952000I-50000J0D01*
G01*
X21302500Y-12206000D02*
G75*
G03*
X21302500Y-12206000I-50000J0D01*
G01*
X21302500Y-12460000D02*
G75*
G03*
X21302500Y-12460000I-50000J0D01*
G01*
X21552500Y-8650000D02*
G75*
G03*
X21552500Y-8650000I-50000J0D01*
G01*
X21552500Y-8904000D02*
G75*
G03*
X21552500Y-8904000I-50000J0D01*
G01*
X21552500Y-9158000D02*
G75*
G03*
X21552500Y-9158000I-50000J0D01*
G01*
X21552500Y-9412000D02*
G75*
G03*
X21552500Y-9412000I-50000J0D01*
G01*
X21552500Y-9666000D02*
G75*
G03*
X21552500Y-9666000I-50000J0D01*
G01*
X21552500Y-9920000D02*
G75*
G03*
X21552500Y-9920000I-50000J0D01*
G01*
X21552500Y-10174000D02*
G75*
G03*
X21552500Y-10174000I-50000J0D01*
G01*
X21552500Y-10428000D02*
G75*
G03*
X21552500Y-10428000I-50000J0D01*
G01*
X21552500Y-10682000D02*
G75*
G03*
X21552500Y-10682000I-50000J0D01*
G01*
X21552500Y-10936000D02*
G75*
G03*
X21552500Y-10936000I-50000J0D01*
G01*
X21552500Y-11190000D02*
G75*
G03*
X21552500Y-11190000I-50000J0D01*
G01*
X21552500Y-11444000D02*
G75*
G03*
X21552500Y-11444000I-50000J0D01*
G01*
X21552500Y-11698000D02*
G75*
G03*
X21552500Y-11698000I-50000J0D01*
G01*
X21552500Y-11952000D02*
G75*
G03*
X21552500Y-11952000I-50000J0D01*
G01*
X21552500Y-12206000D02*
G75*
G03*
X21552500Y-12206000I-50000J0D01*
G01*
X21552500Y-12460000D02*
G75*
G03*
X21552500Y-12460000I-50000J0D01*
G01*
D11*
X16152619Y-13365476D02*
X16152619Y-13165476D01*
X16200238Y-13165476D01*
X16228809Y-13175000D01*
X16247857Y-13194048D01*
X16257381Y-13213095D01*
X16266905Y-13251190D01*
X16266905Y-13279762D01*
X16257381Y-13317857D01*
X16247857Y-13336905D01*
X16228809Y-13355952D01*
X16200238Y-13365476D01*
X16152619Y-13365476D01*
X16352619Y-13365476D02*
X16352619Y-13232143D01*
X16352619Y-13270238D02*
X16362143Y-13251190D01*
X16371667Y-13241667D01*
X16390714Y-13232143D01*
X16409762Y-13232143D01*
X16476428Y-13365476D02*
X16476428Y-13232143D01*
X16476428Y-13165476D02*
X16466905Y-13175000D01*
X16476428Y-13184524D01*
X16485952Y-13175000D01*
X16476428Y-13165476D01*
X16476428Y-13184524D01*
X16600238Y-13365476D02*
X16581190Y-13355952D01*
X16571667Y-13336905D01*
X16571667Y-13165476D01*
X16705000Y-13365476D02*
X16685952Y-13355952D01*
X16676428Y-13336905D01*
X16676428Y-13165476D01*
X16933571Y-13365476D02*
X16933571Y-13165476D01*
X17000238Y-13308333D01*
X17066905Y-13165476D01*
X17066905Y-13365476D01*
X17247857Y-13365476D02*
X17247857Y-13260714D01*
X17238333Y-13241667D01*
X17219286Y-13232143D01*
X17181190Y-13232143D01*
X17162143Y-13241667D01*
X17247857Y-13355952D02*
X17228810Y-13365476D01*
X17181190Y-13365476D01*
X17162143Y-13355952D01*
X17152619Y-13336905D01*
X17152619Y-13317857D01*
X17162143Y-13298809D01*
X17181190Y-13289286D01*
X17228810Y-13289286D01*
X17247857Y-13279762D01*
X17343095Y-13232143D02*
X17343095Y-13432143D01*
X17343095Y-13241667D02*
X17362143Y-13232143D01*
X17400238Y-13232143D01*
X17419286Y-13241667D01*
X17428810Y-13251190D01*
X17438333Y-13270238D01*
X17438333Y-13327381D01*
X17428810Y-13346428D01*
X17419286Y-13355952D01*
X17400238Y-13365476D01*
X17362143Y-13365476D01*
X17343095Y-13355952D01*
X17524048Y-13346428D02*
X17533571Y-13355952D01*
X17524048Y-13365476D01*
X17514524Y-13355952D01*
X17524048Y-13346428D01*
X17524048Y-13365476D01*
X17524048Y-13241667D02*
X17533571Y-13251190D01*
X17524048Y-13260714D01*
X17514524Y-13251190D01*
X17524048Y-13241667D01*
X17524048Y-13260714D01*
D12*
X15855000Y-13675000D02*
X15895000Y-13715000D01*
X15895000Y-13675000D02*
X15855000Y-13715000D01*
D11*
X16190714Y-13585476D02*
X16209762Y-13585476D01*
X16228809Y-13595000D01*
X16238333Y-13604524D01*
X16247857Y-13623571D01*
X16257381Y-13661667D01*
X16257381Y-13709286D01*
X16247857Y-13747381D01*
X16238333Y-13766428D01*
X16228809Y-13775952D01*
X16209762Y-13785476D01*
X16190714Y-13785476D01*
X16171667Y-13775952D01*
X16162143Y-13766428D01*
X16152619Y-13747381D01*
X16143095Y-13709286D01*
X16143095Y-13661667D01*
X16152619Y-13623571D01*
X16162143Y-13604524D01*
X16171667Y-13595000D01*
X16190714Y-13585476D01*
X16343095Y-13766428D02*
X16352619Y-13775952D01*
X16343095Y-13785476D01*
X16333571Y-13775952D01*
X16343095Y-13766428D01*
X16343095Y-13785476D01*
X16524048Y-13652143D02*
X16524048Y-13785476D01*
X16476428Y-13575952D02*
X16428809Y-13718809D01*
X16552619Y-13718809D01*
X16666905Y-13585476D02*
X16685952Y-13585476D01*
X16705000Y-13595000D01*
X16714524Y-13604524D01*
X16724048Y-13623571D01*
X16733571Y-13661667D01*
X16733571Y-13709286D01*
X16724048Y-13747381D01*
X16714524Y-13766428D01*
X16705000Y-13775952D01*
X16685952Y-13785476D01*
X16666905Y-13785476D01*
X16647857Y-13775952D01*
X16638333Y-13766428D01*
X16628809Y-13747381D01*
X16619286Y-13709286D01*
X16619286Y-13661667D01*
X16628809Y-13623571D01*
X16638333Y-13604524D01*
X16647857Y-13595000D01*
X16666905Y-13585476D01*
X16857381Y-13585476D02*
X16876429Y-13585476D01*
X16895476Y-13595000D01*
X16905000Y-13604524D01*
X16914524Y-13623571D01*
X16924048Y-13661667D01*
X16924048Y-13709286D01*
X16914524Y-13747381D01*
X16905000Y-13766428D01*
X16895476Y-13775952D01*
X16876429Y-13785476D01*
X16857381Y-13785476D01*
X16838333Y-13775952D01*
X16828810Y-13766428D01*
X16819286Y-13747381D01*
X16809762Y-13709286D01*
X16809762Y-13661667D01*
X16819286Y-13623571D01*
X16828810Y-13604524D01*
X16838333Y-13595000D01*
X16857381Y-13585476D01*
X17009762Y-13785476D02*
X17009762Y-13652143D01*
X17009762Y-13671190D02*
X17019286Y-13661667D01*
X17038333Y-13652143D01*
X17066905Y-13652143D01*
X17085952Y-13661667D01*
X17095476Y-13680714D01*
X17095476Y-13785476D01*
X17095476Y-13680714D02*
X17105000Y-13661667D01*
X17124048Y-13652143D01*
X17152619Y-13652143D01*
X17171667Y-13661667D01*
X17181190Y-13680714D01*
X17181190Y-13785476D01*
X17276429Y-13785476D02*
X17276429Y-13652143D01*
X17276429Y-13671190D02*
X17285952Y-13661667D01*
X17305000Y-13652143D01*
X17333571Y-13652143D01*
X17352619Y-13661667D01*
X17362143Y-13680714D01*
X17362143Y-13785476D01*
X17362143Y-13680714D02*
X17371667Y-13661667D01*
X17390714Y-13652143D01*
X17419286Y-13652143D01*
X17438333Y-13661667D01*
X17447857Y-13680714D01*
X17447857Y-13785476D01*
X17838333Y-13575952D02*
X17666905Y-13833095D01*
X18095476Y-13585476D02*
X18114524Y-13585476D01*
X18133571Y-13595000D01*
X18143095Y-13604524D01*
X18152619Y-13623571D01*
X18162143Y-13661667D01*
X18162143Y-13709286D01*
X18152619Y-13747381D01*
X18143095Y-13766428D01*
X18133571Y-13775952D01*
X18114524Y-13785476D01*
X18095476Y-13785476D01*
X18076429Y-13775952D01*
X18066905Y-13766428D01*
X18057381Y-13747381D01*
X18047857Y-13709286D01*
X18047857Y-13661667D01*
X18057381Y-13623571D01*
X18066905Y-13604524D01*
X18076429Y-13595000D01*
X18095476Y-13585476D01*
X18247857Y-13766428D02*
X18257381Y-13775952D01*
X18247857Y-13785476D01*
X18238333Y-13775952D01*
X18247857Y-13766428D01*
X18247857Y-13785476D01*
X18381190Y-13585476D02*
X18400238Y-13585476D01*
X18419286Y-13595000D01*
X18428810Y-13604524D01*
X18438333Y-13623571D01*
X18447857Y-13661667D01*
X18447857Y-13709286D01*
X18438333Y-13747381D01*
X18428810Y-13766428D01*
X18419286Y-13775952D01*
X18400238Y-13785476D01*
X18381190Y-13785476D01*
X18362143Y-13775952D01*
X18352619Y-13766428D01*
X18343095Y-13747381D01*
X18333571Y-13709286D01*
X18333571Y-13661667D01*
X18343095Y-13623571D01*
X18352619Y-13604524D01*
X18362143Y-13595000D01*
X18381190Y-13585476D01*
X18638333Y-13785476D02*
X18524048Y-13785476D01*
X18581190Y-13785476D02*
X18581190Y-13585476D01*
X18562143Y-13614048D01*
X18543095Y-13633095D01*
X18524048Y-13642619D01*
X18819286Y-13585476D02*
X18724048Y-13585476D01*
X18714524Y-13680714D01*
X18724048Y-13671190D01*
X18743095Y-13661667D01*
X18790714Y-13661667D01*
X18809762Y-13671190D01*
X18819286Y-13680714D01*
X18828810Y-13699762D01*
X18828810Y-13747381D01*
X18819286Y-13766428D01*
X18809762Y-13775952D01*
X18790714Y-13785476D01*
X18743095Y-13785476D01*
X18724048Y-13775952D01*
X18714524Y-13766428D01*
X18895476Y-13585476D02*
X19028810Y-13585476D01*
X18943095Y-13785476D01*
X19095476Y-13585476D02*
X19095476Y-13623571D01*
X19171667Y-13585476D02*
X19171667Y-13623571D01*
X19466905Y-13861667D02*
X19457381Y-13852143D01*
X19438333Y-13823571D01*
X19428810Y-13804524D01*
X19419286Y-13775952D01*
X19409762Y-13728333D01*
X19409762Y-13690238D01*
X19419286Y-13642619D01*
X19428810Y-13614048D01*
X19438333Y-13595000D01*
X19457381Y-13566428D01*
X19466905Y-13556905D01*
X19647857Y-13785476D02*
X19533571Y-13785476D01*
X19590714Y-13785476D02*
X19590714Y-13585476D01*
X19571667Y-13614048D01*
X19552619Y-13633095D01*
X19533571Y-13642619D01*
X19771667Y-13585476D02*
X19790714Y-13585476D01*
X19809762Y-13595000D01*
X19819286Y-13604524D01*
X19828810Y-13623571D01*
X19838333Y-13661667D01*
X19838333Y-13709286D01*
X19828810Y-13747381D01*
X19819286Y-13766428D01*
X19809762Y-13775952D01*
X19790714Y-13785476D01*
X19771667Y-13785476D01*
X19752619Y-13775952D01*
X19743095Y-13766428D01*
X19733571Y-13747381D01*
X19724048Y-13709286D01*
X19724048Y-13661667D01*
X19733571Y-13623571D01*
X19743095Y-13604524D01*
X19752619Y-13595000D01*
X19771667Y-13585476D01*
X19905000Y-13585476D02*
X20038333Y-13585476D01*
X19952619Y-13785476D01*
X20266905Y-13785476D02*
X20266905Y-13585476D01*
X20352619Y-13785476D02*
X20352619Y-13680714D01*
X20343095Y-13661667D01*
X20324048Y-13652143D01*
X20295476Y-13652143D01*
X20276429Y-13661667D01*
X20266905Y-13671190D01*
X20476429Y-13785476D02*
X20457381Y-13775952D01*
X20447857Y-13766428D01*
X20438333Y-13747381D01*
X20438333Y-13690238D01*
X20447857Y-13671190D01*
X20457381Y-13661667D01*
X20476429Y-13652143D01*
X20505000Y-13652143D01*
X20524048Y-13661667D01*
X20533571Y-13671190D01*
X20543095Y-13690238D01*
X20543095Y-13747381D01*
X20533571Y-13766428D01*
X20524048Y-13775952D01*
X20505000Y-13785476D01*
X20476429Y-13785476D01*
X20657381Y-13785476D02*
X20638333Y-13775952D01*
X20628810Y-13756905D01*
X20628810Y-13585476D01*
X20809762Y-13775952D02*
X20790714Y-13785476D01*
X20752619Y-13785476D01*
X20733571Y-13775952D01*
X20724048Y-13756905D01*
X20724048Y-13680714D01*
X20733571Y-13661667D01*
X20752619Y-13652143D01*
X20790714Y-13652143D01*
X20809762Y-13661667D01*
X20819286Y-13680714D01*
X20819286Y-13699762D01*
X20724048Y-13718809D01*
X20895476Y-13775952D02*
X20914524Y-13785476D01*
X20952619Y-13785476D01*
X20971667Y-13775952D01*
X20981190Y-13756905D01*
X20981190Y-13747381D01*
X20971667Y-13728333D01*
X20952619Y-13718809D01*
X20924048Y-13718809D01*
X20905000Y-13709286D01*
X20895476Y-13690238D01*
X20895476Y-13680714D01*
X20905000Y-13661667D01*
X20924048Y-13652143D01*
X20952619Y-13652143D01*
X20971667Y-13661667D01*
X21047857Y-13861667D02*
X21057381Y-13852143D01*
X21076429Y-13823571D01*
X21085952Y-13804524D01*
X21095476Y-13775952D01*
X21105000Y-13728333D01*
X21105000Y-13690238D01*
X21095476Y-13642619D01*
X21085952Y-13614048D01*
X21076429Y-13595000D01*
X21057381Y-13566428D01*
X21047857Y-13556905D01*
D13*
X15895000Y-13959000D02*
G75*
G03*
X15895000Y-13959000I-50000J0D01*
G01*
D11*
X16257381Y-14049476D02*
X16143095Y-14049476D01*
X16200238Y-14049476D02*
X16200238Y-13849476D01*
X16181190Y-13878048D01*
X16162143Y-13897095D01*
X16143095Y-13906619D01*
X16343095Y-14030428D02*
X16352619Y-14039952D01*
X16343095Y-14049476D01*
X16333571Y-14039952D01*
X16343095Y-14030428D01*
X16343095Y-14049476D01*
X16476428Y-13849476D02*
X16495476Y-13849476D01*
X16514524Y-13859000D01*
X16524048Y-13868524D01*
X16533571Y-13887571D01*
X16543095Y-13925667D01*
X16543095Y-13973286D01*
X16533571Y-14011381D01*
X16524048Y-14030428D01*
X16514524Y-14039952D01*
X16495476Y-14049476D01*
X16476428Y-14049476D01*
X16457381Y-14039952D01*
X16447857Y-14030428D01*
X16438333Y-14011381D01*
X16428809Y-13973286D01*
X16428809Y-13925667D01*
X16438333Y-13887571D01*
X16447857Y-13868524D01*
X16457381Y-13859000D01*
X16476428Y-13849476D01*
X16666905Y-13849476D02*
X16685952Y-13849476D01*
X16705000Y-13859000D01*
X16714524Y-13868524D01*
X16724048Y-13887571D01*
X16733571Y-13925667D01*
X16733571Y-13973286D01*
X16724048Y-14011381D01*
X16714524Y-14030428D01*
X16705000Y-14039952D01*
X16685952Y-14049476D01*
X16666905Y-14049476D01*
X16647857Y-14039952D01*
X16638333Y-14030428D01*
X16628809Y-14011381D01*
X16619286Y-13973286D01*
X16619286Y-13925667D01*
X16628809Y-13887571D01*
X16638333Y-13868524D01*
X16647857Y-13859000D01*
X16666905Y-13849476D01*
X16857381Y-13849476D02*
X16876429Y-13849476D01*
X16895476Y-13859000D01*
X16905000Y-13868524D01*
X16914524Y-13887571D01*
X16924048Y-13925667D01*
X16924048Y-13973286D01*
X16914524Y-14011381D01*
X16905000Y-14030428D01*
X16895476Y-14039952D01*
X16876429Y-14049476D01*
X16857381Y-14049476D01*
X16838333Y-14039952D01*
X16828810Y-14030428D01*
X16819286Y-14011381D01*
X16809762Y-13973286D01*
X16809762Y-13925667D01*
X16819286Y-13887571D01*
X16828810Y-13868524D01*
X16838333Y-13859000D01*
X16857381Y-13849476D01*
X17009762Y-14049476D02*
X17009762Y-13916143D01*
X17009762Y-13935190D02*
X17019286Y-13925667D01*
X17038333Y-13916143D01*
X17066905Y-13916143D01*
X17085952Y-13925667D01*
X17095476Y-13944714D01*
X17095476Y-14049476D01*
X17095476Y-13944714D02*
X17105000Y-13925667D01*
X17124048Y-13916143D01*
X17152619Y-13916143D01*
X17171667Y-13925667D01*
X17181190Y-13944714D01*
X17181190Y-14049476D01*
X17276429Y-14049476D02*
X17276429Y-13916143D01*
X17276429Y-13935190D02*
X17285952Y-13925667D01*
X17305000Y-13916143D01*
X17333571Y-13916143D01*
X17352619Y-13925667D01*
X17362143Y-13944714D01*
X17362143Y-14049476D01*
X17362143Y-13944714D02*
X17371667Y-13925667D01*
X17390714Y-13916143D01*
X17419286Y-13916143D01*
X17438333Y-13925667D01*
X17447857Y-13944714D01*
X17447857Y-14049476D01*
X17838333Y-13839952D02*
X17666905Y-14097095D01*
X18095476Y-13849476D02*
X18114524Y-13849476D01*
X18133571Y-13859000D01*
X18143095Y-13868524D01*
X18152619Y-13887571D01*
X18162143Y-13925667D01*
X18162143Y-13973286D01*
X18152619Y-14011381D01*
X18143095Y-14030428D01*
X18133571Y-14039952D01*
X18114524Y-14049476D01*
X18095476Y-14049476D01*
X18076429Y-14039952D01*
X18066905Y-14030428D01*
X18057381Y-14011381D01*
X18047857Y-13973286D01*
X18047857Y-13925667D01*
X18057381Y-13887571D01*
X18066905Y-13868524D01*
X18076429Y-13859000D01*
X18095476Y-13849476D01*
X18247857Y-14030428D02*
X18257381Y-14039952D01*
X18247857Y-14049476D01*
X18238333Y-14039952D01*
X18247857Y-14030428D01*
X18247857Y-14049476D01*
X18381190Y-13849476D02*
X18400238Y-13849476D01*
X18419286Y-13859000D01*
X18428810Y-13868524D01*
X18438333Y-13887571D01*
X18447857Y-13925667D01*
X18447857Y-13973286D01*
X18438333Y-14011381D01*
X18428810Y-14030428D01*
X18419286Y-14039952D01*
X18400238Y-14049476D01*
X18381190Y-14049476D01*
X18362143Y-14039952D01*
X18352619Y-14030428D01*
X18343095Y-14011381D01*
X18333571Y-13973286D01*
X18333571Y-13925667D01*
X18343095Y-13887571D01*
X18352619Y-13868524D01*
X18362143Y-13859000D01*
X18381190Y-13849476D01*
X18514524Y-13849476D02*
X18638333Y-13849476D01*
X18571667Y-13925667D01*
X18600238Y-13925667D01*
X18619286Y-13935190D01*
X18628810Y-13944714D01*
X18638333Y-13963762D01*
X18638333Y-14011381D01*
X18628810Y-14030428D01*
X18619286Y-14039952D01*
X18600238Y-14049476D01*
X18543095Y-14049476D01*
X18524048Y-14039952D01*
X18514524Y-14030428D01*
X18733571Y-14049476D02*
X18771667Y-14049476D01*
X18790714Y-14039952D01*
X18800238Y-14030428D01*
X18819286Y-14001857D01*
X18828810Y-13963762D01*
X18828810Y-13887571D01*
X18819286Y-13868524D01*
X18809762Y-13859000D01*
X18790714Y-13849476D01*
X18752619Y-13849476D01*
X18733571Y-13859000D01*
X18724048Y-13868524D01*
X18714524Y-13887571D01*
X18714524Y-13935190D01*
X18724048Y-13954238D01*
X18733571Y-13963762D01*
X18752619Y-13973286D01*
X18790714Y-13973286D01*
X18809762Y-13963762D01*
X18819286Y-13954238D01*
X18828810Y-13935190D01*
X19000238Y-13916143D02*
X19000238Y-14049476D01*
X18952619Y-13839952D02*
X18905000Y-13982809D01*
X19028810Y-13982809D01*
X19095476Y-13849476D02*
X19095476Y-13887571D01*
X19171667Y-13849476D02*
X19171667Y-13887571D01*
X19466905Y-14125667D02*
X19457381Y-14116143D01*
X19438333Y-14087571D01*
X19428810Y-14068524D01*
X19419286Y-14039952D01*
X19409762Y-13992333D01*
X19409762Y-13954238D01*
X19419286Y-13906619D01*
X19428810Y-13878048D01*
X19438333Y-13859000D01*
X19457381Y-13830428D01*
X19466905Y-13820905D01*
X19647857Y-14049476D02*
X19533571Y-14049476D01*
X19590714Y-14049476D02*
X19590714Y-13849476D01*
X19571667Y-13878048D01*
X19552619Y-13897095D01*
X19533571Y-13906619D01*
X19819286Y-13916143D02*
X19819286Y-14049476D01*
X19771667Y-13839952D02*
X19724048Y-13982809D01*
X19847857Y-13982809D01*
X19952619Y-13935190D02*
X19933571Y-13925667D01*
X19924048Y-13916143D01*
X19914524Y-13897095D01*
X19914524Y-13887571D01*
X19924048Y-13868524D01*
X19933571Y-13859000D01*
X19952619Y-13849476D01*
X19990714Y-13849476D01*
X20009762Y-13859000D01*
X20019286Y-13868524D01*
X20028810Y-13887571D01*
X20028810Y-13897095D01*
X20019286Y-13916143D01*
X20009762Y-13925667D01*
X19990714Y-13935190D01*
X19952619Y-13935190D01*
X19933571Y-13944714D01*
X19924048Y-13954238D01*
X19914524Y-13973286D01*
X19914524Y-14011381D01*
X19924048Y-14030428D01*
X19933571Y-14039952D01*
X19952619Y-14049476D01*
X19990714Y-14049476D01*
X20009762Y-14039952D01*
X20019286Y-14030428D01*
X20028810Y-14011381D01*
X20028810Y-13973286D01*
X20019286Y-13954238D01*
X20009762Y-13944714D01*
X19990714Y-13935190D01*
X20266905Y-14049476D02*
X20266905Y-13849476D01*
X20352619Y-14049476D02*
X20352619Y-13944714D01*
X20343095Y-13925667D01*
X20324048Y-13916143D01*
X20295476Y-13916143D01*
X20276429Y-13925667D01*
X20266905Y-13935190D01*
X20476429Y-14049476D02*
X20457381Y-14039952D01*
X20447857Y-14030428D01*
X20438333Y-14011381D01*
X20438333Y-13954238D01*
X20447857Y-13935190D01*
X20457381Y-13925667D01*
X20476429Y-13916143D01*
X20505000Y-13916143D01*
X20524048Y-13925667D01*
X20533571Y-13935190D01*
X20543095Y-13954238D01*
X20543095Y-14011381D01*
X20533571Y-14030428D01*
X20524048Y-14039952D01*
X20505000Y-14049476D01*
X20476429Y-14049476D01*
X20657381Y-14049476D02*
X20638333Y-14039952D01*
X20628810Y-14020905D01*
X20628810Y-13849476D01*
X20809762Y-14039952D02*
X20790714Y-14049476D01*
X20752619Y-14049476D01*
X20733571Y-14039952D01*
X20724048Y-14020905D01*
X20724048Y-13944714D01*
X20733571Y-13925667D01*
X20752619Y-13916143D01*
X20790714Y-13916143D01*
X20809762Y-13925667D01*
X20819286Y-13944714D01*
X20819286Y-13963762D01*
X20724048Y-13982809D01*
X20895476Y-14039952D02*
X20914524Y-14049476D01*
X20952619Y-14049476D01*
X20971667Y-14039952D01*
X20981190Y-14020905D01*
X20981190Y-14011381D01*
X20971667Y-13992333D01*
X20952619Y-13982809D01*
X20924048Y-13982809D01*
X20905000Y-13973286D01*
X20895476Y-13954238D01*
X20895476Y-13944714D01*
X20905000Y-13925667D01*
X20924048Y-13916143D01*
X20952619Y-13916143D01*
X20971667Y-13925667D01*
X21047857Y-14125667D02*
X21057381Y-14116143D01*
X21076429Y-14087571D01*
X21085952Y-14068524D01*
X21095476Y-14039952D01*
X21105000Y-13992333D01*
X21105000Y-13954238D01*
X21095476Y-13906619D01*
X21085952Y-13878048D01*
X21076429Y-13859000D01*
X21057381Y-13830428D01*
X21047857Y-13820905D01*
M02*
