M48
; DRILL file {KiCad (6.0.2)} date Mon Oct 23 02:54:10 2023
; FORMAT={-:-/ absolute / metric / decimal}
; #@! TF.CreationDate,2023-10-23T02:54:10-04:00
; #@! TF.GenerationSoftware,Kicad,Pcbnew,(6.0.2)
; #@! TF.FileFunction,MixedPlating,1,4
FMAT,2
METRIC
; #@! TA.AperFunction,Plated,PTH,ViaDrill
T1C0.400
; #@! TA.AperFunction,Plated,PTH,ComponentDrill
T2C1.000
%
G90
G05
T1
X168.914Y-78.742
X170.656Y-68.252
X171.213Y-75.592
X171.277Y-70.295
X171.28Y-71.877
X171.291Y-78.009
X171.433Y-83.841
X172.018Y-65.017
X172.472Y-68.6
X174.001Y-76.826
X174.177Y-81.08
X174.21Y-75.102
X174.298Y-73.347
X174.476Y-72.207
X174.923Y-71.239
X174.983Y-69.474
X175.067Y-77.407
X175.567Y-72.466
X176.027Y-74.793
X176.23Y-79.229
X176.846Y-65.099
X176.917Y-68.72
X176.971Y-63.042
X177.012Y-77.639
X177.242Y-79.54
X177.917Y-68.823
X179.071Y-64.952
X179.382Y-81.528
X179.885Y-79.973
X180.229Y-68.827
X180.733Y-71.116
X180.803Y-74.344
X181.083Y-78.62
X181.503Y-63.933
X181.55Y-65.093
X182.762Y-79.155
X182.934Y-68.85
X183.484Y-62.289
X184.419Y-77.379
X184.85Y-79.137
X185.385Y-62.459
X185.735Y-65.36
X185.98Y-79.155
X186.196Y-70.7
X186.368Y-77.368
X186.733Y-88.264
X186.733Y-90.497
X186.842Y-63.693
X186.864Y-62.009
X187.376Y-93.957
X187.661Y-77.616
X189.192Y-72.674
X189.2Y-69.422
X189.629Y-81.179
X189.952Y-65.052
X190.519Y-69.126
X190.792Y-79.765
X190.952Y-84.513
X192.534Y-69.146
X192.581Y-74.542
X192.87Y-79.643
X193.629Y-74.542
X194.611Y-79.818
X194.722Y-65.234
X194.968Y-71.323
X195.174Y-61.454
X195.48Y-68.972
X195.612Y-80.015
X196.319Y-80.722
X196.86Y-61.63
X197.017Y-83.802
X197.5Y-68.619
X197.585Y-64.948
X197.958Y-74.207
X198.073Y-73.168
X198.53Y-75.05
X199.349Y-79.977
X199.864Y-65.161
X201.89Y-68.451
X203.624Y-74.518
X203.858Y-59.927
X204.081Y-70.334
X204.126Y-62.154
X204.399Y-68.503
X204.486Y-78.859
X204.65Y-74.355
X205.822Y-78.131
X207.52Y-64.998
X207.612Y-69.493
X207.752Y-71.926
X207.773Y-74.42
X209.34Y-79.53
X210.212Y-69.618
X210.485Y-72.192
X211.224Y-64.722
X211.874Y-82.604
X212.582Y-75.329
X212.74Y-78.075
X213.331Y-78.899
X213.447Y-71.029
X213.448Y-64.729
X213.483Y-74.348
X214.74Y-80.813
X215.507Y-79.584
X216.0Y-63.094
X216.182Y-71.575
X216.19Y-75.427
T2
X165.975Y-60.5
X165.975Y-63.04
X165.975Y-65.58
X165.975Y-68.12
X173.5Y-86.5
X173.5Y-89.04
X173.5Y-91.58
X173.5Y-94.12
X173.5Y-96.66
X173.5Y-99.2
X173.5Y-101.74
X173.5Y-104.28
X173.5Y-106.82
X173.5Y-109.36
X173.5Y-111.9
X173.5Y-114.44
X173.5Y-116.98
X173.5Y-119.52
X173.5Y-122.06
X173.5Y-124.6
X176.0Y-86.5
X176.0Y-89.04
X176.0Y-91.58
X176.0Y-94.12
X176.0Y-96.66
X176.0Y-99.2
X176.0Y-101.74
X176.0Y-104.28
X176.0Y-106.82
X176.0Y-109.36
X176.0Y-111.9
X176.0Y-114.44
X176.0Y-116.98
X176.0Y-119.52
X176.0Y-122.06
X176.0Y-124.6
X178.5Y-86.5
X178.5Y-89.04
X178.5Y-91.58
X178.5Y-94.12
X178.5Y-96.66
X178.5Y-99.2
X178.5Y-101.74
X178.5Y-104.28
X178.5Y-106.82
X178.5Y-109.36
X178.5Y-111.9
X178.5Y-114.44
X178.5Y-116.98
X178.5Y-119.52
X178.5Y-122.06
X178.5Y-124.6
X192.025Y-86.5
X192.025Y-89.04
X192.025Y-91.58
X192.025Y-94.12
X192.025Y-96.66
X192.025Y-99.2
X192.025Y-101.74
X192.025Y-104.28
X192.025Y-106.82
X192.025Y-109.36
X192.025Y-111.9
X192.025Y-114.44
X192.025Y-116.98
X192.025Y-119.52
X192.025Y-122.06
X192.025Y-124.6
X194.525Y-86.5
X194.525Y-89.04
X194.525Y-91.58
X194.525Y-94.12
X194.525Y-96.66
X194.525Y-99.2
X194.525Y-101.74
X194.525Y-104.28
X194.525Y-106.82
X194.525Y-109.36
X194.525Y-111.9
X194.525Y-114.44
X194.525Y-116.98
X194.525Y-119.52
X194.525Y-122.06
X194.525Y-124.6
X197.025Y-86.5
X197.025Y-89.04
X197.025Y-91.58
X197.025Y-94.12
X197.025Y-96.66
X197.025Y-99.2
X197.025Y-101.74
X197.025Y-104.28
X197.025Y-106.82
X197.025Y-109.36
X197.025Y-111.9
X197.025Y-114.44
X197.025Y-116.98
X197.025Y-119.52
X197.025Y-122.06
X197.025Y-124.6
X210.025Y-86.5
X210.025Y-89.04
X210.025Y-91.58
X210.025Y-94.12
X210.025Y-96.66
X210.025Y-99.2
X210.025Y-101.74
X210.025Y-104.28
X210.025Y-106.82
X210.025Y-109.36
X210.025Y-111.9
X210.025Y-114.44
X210.025Y-116.98
X210.025Y-119.52
X210.025Y-122.06
X210.025Y-124.6
X212.525Y-86.5
X212.525Y-89.04
X212.525Y-91.58
X212.525Y-94.12
X212.525Y-96.66
X212.525Y-99.2
X212.525Y-101.74
X212.525Y-104.28
X212.525Y-106.82
X212.525Y-109.36
X212.525Y-111.9
X212.525Y-114.44
X212.525Y-116.98
X212.525Y-119.52
X212.525Y-122.06
X212.525Y-124.6
X215.025Y-86.5
X215.025Y-89.04
X215.025Y-91.58
X215.025Y-94.12
X215.025Y-96.66
X215.025Y-99.2
X215.025Y-101.74
X215.025Y-104.28
X215.025Y-106.82
X215.025Y-109.36
X215.025Y-111.9
X215.025Y-114.44
X215.025Y-116.98
X215.025Y-119.52
X215.025Y-122.06
X215.025Y-124.6
T0
M30
