%TF.GenerationSoftware,KiCad,Pcbnew,(6.0.2)*%
%TF.CreationDate,2023-10-23T02:54:13-04:00*%
%TF.ProjectId,USB_Splitter,5553425f-5370-46c6-9974-7465722e6b69,rev?*%
%TF.SameCoordinates,Original*%
%TF.FileFunction,Soldermask,Bot*%
%TF.FilePolarity,Negative*%
%FSLAX46Y46*%
G04 Gerber Fmt 4.6, Leading zero omitted, Abs format (unit mm)*
G04 Created by KiCad (PCBNEW (6.0.2)) date 2023-10-23 02:54:13*
%MOMM*%
%LPD*%
G01*
G04 APERTURE LIST*
%ADD10C,1.000000*%
%ADD11R,1.700000X1.700000*%
%ADD12O,1.700000X1.700000*%
G04 APERTURE END LIST*
D10*
%TO.C,TP48*%
X172500000Y-76000000D03*
%TD*%
%TO.C,TP47*%
X175000000Y-76000000D03*
%TD*%
%TO.C,TP46*%
X177500000Y-76000000D03*
%TD*%
%TO.C,TP45*%
X180000000Y-76000000D03*
%TD*%
%TO.C,TP44*%
X182500000Y-76000000D03*
%TD*%
%TO.C,TP43*%
X185000000Y-76000000D03*
%TD*%
%TO.C,TP42*%
X187500000Y-76000000D03*
%TD*%
%TO.C,TP41*%
X190000000Y-76000000D03*
%TD*%
%TO.C,TP40*%
X192500000Y-76000000D03*
%TD*%
%TO.C,TP39*%
X195000000Y-76000000D03*
%TD*%
%TO.C,TP38*%
X197500000Y-76000000D03*
%TD*%
%TO.C,TP37*%
X200000000Y-76000000D03*
%TD*%
%TO.C,TP36*%
X202500000Y-76000000D03*
%TD*%
%TO.C,TP35*%
X205000000Y-76000000D03*
%TD*%
%TO.C,TP34*%
X207500000Y-76000000D03*
%TD*%
%TO.C,TP33*%
X210000000Y-76000000D03*
%TD*%
%TO.C,TP32*%
X172500000Y-67500000D03*
%TD*%
%TO.C,TP31*%
X175000000Y-67500000D03*
%TD*%
%TO.C,TP30*%
X177500000Y-67500000D03*
%TD*%
%TO.C,TP29*%
X180000000Y-67500000D03*
%TD*%
%TO.C,TP28*%
X182500000Y-67500000D03*
%TD*%
%TO.C,TP27*%
X185000000Y-67500000D03*
%TD*%
%TO.C,TP26*%
X187500000Y-67500000D03*
%TD*%
%TO.C,TP25*%
X190000000Y-67500000D03*
%TD*%
%TO.C,TP24*%
X192500000Y-67500000D03*
%TD*%
%TO.C,TP23*%
X195000000Y-67500000D03*
%TD*%
%TO.C,TP22*%
X197500000Y-67500000D03*
%TD*%
%TO.C,TP21*%
X200000000Y-67500000D03*
%TD*%
%TO.C,TP20*%
X202500000Y-67500000D03*
%TD*%
%TO.C,TP19*%
X205000000Y-67500000D03*
%TD*%
%TO.C,TP18*%
X207500000Y-67500000D03*
%TD*%
%TO.C,TP17*%
X210000000Y-67500000D03*
%TD*%
%TO.C,TP16*%
X172500000Y-59500000D03*
%TD*%
%TO.C,TP15*%
X175000000Y-59500000D03*
%TD*%
%TO.C,TP14*%
X177500000Y-59500000D03*
%TD*%
%TO.C,TP13*%
X180000000Y-59500000D03*
%TD*%
%TO.C,TP12*%
X182500000Y-59500000D03*
%TD*%
%TO.C,TP11*%
X185000000Y-59500000D03*
%TD*%
%TO.C,TP10*%
X187500000Y-59500000D03*
%TD*%
%TO.C,TP9*%
X190000000Y-59500000D03*
%TD*%
%TO.C,TP8*%
X192500000Y-59500000D03*
%TD*%
%TO.C,TP7*%
X195000000Y-59500000D03*
%TD*%
%TO.C,TP6*%
X197500000Y-59500000D03*
%TD*%
%TO.C,TP5*%
X200000000Y-59500000D03*
%TD*%
%TO.C,TP4*%
X202500000Y-59500000D03*
%TD*%
%TO.C,TP3*%
X205000000Y-59500000D03*
%TD*%
%TO.C,TP2*%
X207500000Y-59500000D03*
%TD*%
%TO.C,TP1*%
X210000000Y-59500000D03*
%TD*%
D11*
%TO.C,J3*%
X192025000Y-86500000D03*
D12*
X192025000Y-89040000D03*
X192025000Y-91580000D03*
X192025000Y-94120000D03*
X192025000Y-96660000D03*
X192025000Y-99200000D03*
X192025000Y-101740000D03*
X192025000Y-104280000D03*
X192025000Y-106820000D03*
X192025000Y-109360000D03*
X192025000Y-111900000D03*
X192025000Y-114440000D03*
X192025000Y-116980000D03*
X192025000Y-119520000D03*
X192025000Y-122060000D03*
X192025000Y-124600000D03*
%TD*%
D11*
%TO.C,J10*%
X215025000Y-86500000D03*
D12*
X215025000Y-89040000D03*
X215025000Y-91580000D03*
X215025000Y-94120000D03*
X215025000Y-96660000D03*
X215025000Y-99200000D03*
X215025000Y-101740000D03*
X215025000Y-104280000D03*
X215025000Y-106820000D03*
X215025000Y-109360000D03*
X215025000Y-111900000D03*
X215025000Y-114440000D03*
X215025000Y-116980000D03*
X215025000Y-119520000D03*
X215025000Y-122060000D03*
X215025000Y-124600000D03*
%TD*%
D11*
%TO.C,J9*%
X212525000Y-86500000D03*
D12*
X212525000Y-89040000D03*
X212525000Y-91580000D03*
X212525000Y-94120000D03*
X212525000Y-96660000D03*
X212525000Y-99200000D03*
X212525000Y-101740000D03*
X212525000Y-104280000D03*
X212525000Y-106820000D03*
X212525000Y-109360000D03*
X212525000Y-111900000D03*
X212525000Y-114440000D03*
X212525000Y-116980000D03*
X212525000Y-119520000D03*
X212525000Y-122060000D03*
X212525000Y-124600000D03*
%TD*%
D11*
%TO.C,J4*%
X194525000Y-86500000D03*
D12*
X194525000Y-89040000D03*
X194525000Y-91580000D03*
X194525000Y-94120000D03*
X194525000Y-96660000D03*
X194525000Y-99200000D03*
X194525000Y-101740000D03*
X194525000Y-104280000D03*
X194525000Y-106820000D03*
X194525000Y-109360000D03*
X194525000Y-111900000D03*
X194525000Y-114440000D03*
X194525000Y-116980000D03*
X194525000Y-119520000D03*
X194525000Y-122060000D03*
X194525000Y-124600000D03*
%TD*%
D11*
%TO.C,J6*%
X178500000Y-86500000D03*
D12*
X178500000Y-89040000D03*
X178500000Y-91580000D03*
X178500000Y-94120000D03*
X178500000Y-96660000D03*
X178500000Y-99200000D03*
X178500000Y-101740000D03*
X178500000Y-104280000D03*
X178500000Y-106820000D03*
X178500000Y-109360000D03*
X178500000Y-111900000D03*
X178500000Y-114440000D03*
X178500000Y-116980000D03*
X178500000Y-119520000D03*
X178500000Y-122060000D03*
X178500000Y-124600000D03*
%TD*%
D11*
%TO.C,J5*%
X176000000Y-86500000D03*
D12*
X176000000Y-89040000D03*
X176000000Y-91580000D03*
X176000000Y-94120000D03*
X176000000Y-96660000D03*
X176000000Y-99200000D03*
X176000000Y-101740000D03*
X176000000Y-104280000D03*
X176000000Y-106820000D03*
X176000000Y-109360000D03*
X176000000Y-111900000D03*
X176000000Y-114440000D03*
X176000000Y-116980000D03*
X176000000Y-119520000D03*
X176000000Y-122060000D03*
X176000000Y-124600000D03*
%TD*%
D11*
%TO.C,J1*%
X165975000Y-68120000D03*
D12*
X165975000Y-65580000D03*
X165975000Y-63040000D03*
X165975000Y-60500000D03*
%TD*%
D11*
%TO.C,J7*%
X197025000Y-86500000D03*
D12*
X197025000Y-89040000D03*
X197025000Y-91580000D03*
X197025000Y-94120000D03*
X197025000Y-96660000D03*
X197025000Y-99200000D03*
X197025000Y-101740000D03*
X197025000Y-104280000D03*
X197025000Y-106820000D03*
X197025000Y-109360000D03*
X197025000Y-111900000D03*
X197025000Y-114440000D03*
X197025000Y-116980000D03*
X197025000Y-119520000D03*
X197025000Y-122060000D03*
X197025000Y-124600000D03*
%TD*%
D11*
%TO.C,J8*%
X210025000Y-86500000D03*
D12*
X210025000Y-89040000D03*
X210025000Y-91580000D03*
X210025000Y-94120000D03*
X210025000Y-96660000D03*
X210025000Y-99200000D03*
X210025000Y-101740000D03*
X210025000Y-104280000D03*
X210025000Y-106820000D03*
X210025000Y-109360000D03*
X210025000Y-111900000D03*
X210025000Y-114440000D03*
X210025000Y-116980000D03*
X210025000Y-119520000D03*
X210025000Y-122060000D03*
X210025000Y-124600000D03*
%TD*%
D11*
%TO.C,J2*%
X173500000Y-86500000D03*
D12*
X173500000Y-89040000D03*
X173500000Y-91580000D03*
X173500000Y-94120000D03*
X173500000Y-96660000D03*
X173500000Y-99200000D03*
X173500000Y-101740000D03*
X173500000Y-104280000D03*
X173500000Y-106820000D03*
X173500000Y-109360000D03*
X173500000Y-111900000D03*
X173500000Y-114440000D03*
X173500000Y-116980000D03*
X173500000Y-119520000D03*
X173500000Y-122060000D03*
X173500000Y-124600000D03*
%TD*%
M02*
